solid OpenSCAD_Model
  facet normal -1 0 0
    outer loop
      vertex -16 5 2.5
      vertex -16 -5 4
      vertex -16 35 4
    endloop
  endfacet
  facet normal -1 0 0
    outer loop
      vertex -16 -5 -4
      vertex -16 -5 4
      vertex -16 -3.20836 1.275
    endloop
  endfacet
  facet normal -1 0 0
    outer loop
      vertex -16 -5 -4
      vertex -16 -3.20836 1.275
      vertex -16 -3.51126 -0.442803
    endloop
  endfacet
  facet normal -1 0 0
    outer loop
      vertex -16 -5 -4
      vertex -16 -3.51126 -0.442803
      vertex -16 -2.63911 -1.95341
    endloop
  endfacet
  facet normal -1 0 0
    outer loop
      vertex -16 12 -2.45
      vertex -16 6.76777 -1.76777
      vertex -16 10.2676 -1.73241
    endloop
  endfacet
  facet normal -1 0 0
    outer loop
      vertex -16 -5 -4
      vertex -16 -2.63911 -1.95341
      vertex -16 -1 -2.55
    endloop
  endfacet
  facet normal -1 0 0
    outer loop
      vertex -16 -5 -4
      vertex -16 -1 -2.55
      vertex -16 35 -4
    endloop
  endfacet
  facet normal -1 0 0
    outer loop
      vertex -16 20.9 -3.55271e-15
      vertex -16 21.9395 -0.451485
      vertex -16 22.8288 -1.99172
    endloop
  endfacet
  facet normal -1 0 0
    outer loop
      vertex -16 7.5 -3.55271e-15
      vertex -16 10.2676 -1.73241
      vertex -16 6.76777 -1.76777
    endloop
  endfacet
  facet normal -1 0 0
    outer loop
      vertex -16 2.5 -3.55271e-15
      vertex -16 1.20836 1.275
      vertex -16 3.23223 1.76777
    endloop
  endfacet
  facet normal -1 0 0
    outer loop
      vertex -16 13.7324 1.73241
      vertex -16 16.1 -3.55271e-15
      vertex -16 14.45 -3.55271e-15
    endloop
  endfacet
  facet normal -1 0 0
    outer loop
      vertex -16 -3.20836 1.275
      vertex -16 -5 4
      vertex -16 -1.87215 2.39622
    endloop
  endfacet
  facet normal -1 0 0
    outer loop
      vertex -16 26.1712 -1.99172
      vertex -16 35 -4
      vertex -16 24.5 -2.6
    endloop
  endfacet
  facet normal -1 0 0
    outer loop
      vertex -16 30.5 -2.65
      vertex -16 35 -4
      vertex -16 26.1712 -1.99172
    endloop
  endfacet
  facet normal -1 0 0
    outer loop
      vertex -16 12 -2.45
      vertex -16 35 -4
      vertex -16 5 -2.5
    endloop
  endfacet
  facet normal -1 0 0
    outer loop
      vertex -16 -1 -2.55
      vertex -16 5 -2.5
      vertex -16 35 -4
    endloop
  endfacet
  facet normal -1 0 0
    outer loop
      vertex -16 1.20836 1.275
      vertex -16 2.5 -3.55271e-15
      vertex -16 1.51126 -0.442803
    endloop
  endfacet
  facet normal -1 0 0
    outer loop
      vertex -16 20.1971 -1.69706
      vertex -16 24.5 -2.6
      vertex -16 18.5 -2.4
    endloop
  endfacet
  facet normal -1 0 0
    outer loop
      vertex -16 -1.87215 2.39622
      vertex -16 -5 4
      vertex -16 -0.127849 2.39622
    endloop
  endfacet
  facet normal -1 0 0
    outer loop
      vertex -16 3.23223 1.76777
      vertex -16 -5 4
      vertex -16 5 2.5
    endloop
  endfacet
  facet normal -1 0 0
    outer loop
      vertex -16 20.9 -3.55271e-15
      vertex -16 22.8288 -1.99172
      vertex -16 20.1971 -1.69706
    endloop
  endfacet
  facet normal -1 0 0
    outer loop
      vertex -16 12 2.45
      vertex -16 5 2.5
      vertex -16 35 4
    endloop
  endfacet
  facet normal -1 0 0
    outer loop
      vertex -16 1.20836 1.275
      vertex -16 -0.127849 2.39622
      vertex -16 3.23223 1.76777
    endloop
  endfacet
  facet normal -1 0 0
    outer loop
      vertex -16 6.76777 1.76777
      vertex -16 9.55 -3.55271e-15
      vertex -16 7.5 -3.55271e-15
    endloop
  endfacet
  facet normal -1 0 0
    outer loop
      vertex -16 10.2676 -1.73241
      vertex -16 7.5 -3.55271e-15
      vertex -16 9.55 -3.55271e-15
    endloop
  endfacet
  facet normal -1 0 0
    outer loop
      vertex -16 3.23223 -1.76777
      vertex -16 1.51126 -0.442803
      vertex -16 2.5 -3.55271e-15
    endloop
  endfacet
  facet normal -1 0 0
    outer loop
      vertex -16 13.7324 -1.73241
      vertex -16 18.5 -2.4
      vertex -16 12 -2.45
    endloop
  endfacet
  facet normal -1 0 0
    outer loop
      vertex -16 6.76777 -1.76777
      vertex -16 12 -2.45
      vertex -16 5 -2.5
    endloop
  endfacet
  facet normal -1 0 0
    outer loop
      vertex -16 3.23223 1.76777
      vertex -16 -0.127849 2.39622
      vertex -16 -5 4
    endloop
  endfacet
  facet normal -1 0 0
    outer loop
      vertex -16 23.6107 2.4432
      vertex -16 35 4
      vertex -16 25.3893 2.4432
    endloop
  endfacet
  facet normal -1 0 0
    outer loop
      vertex -16 25.3893 2.4432
      vertex -16 35 4
      vertex -16 29.5936 2.49018
    endloop
  endfacet
  facet normal -1 0 0
    outer loop
      vertex -16 16.1 -3.55271e-15
      vertex -16 13.7324 1.73241
      vertex -16 16.8029 1.69706
    endloop
  endfacet
  facet normal -1 0 0
    outer loop
      vertex -16 6.76777 1.76777
      vertex -16 5 2.5
      vertex -16 12 2.45
    endloop
  endfacet
  facet normal -1 0 0
    outer loop
      vertex -16 10.2676 1.73241
      vertex -16 6.76777 1.76777
      vertex -16 12 2.45
    endloop
  endfacet
  facet normal -1 0 0
    outer loop
      vertex -16 12 2.45
      vertex -16 35 4
      vertex -16 18.5 2.4
    endloop
  endfacet
  facet normal -1 0 0
    outer loop
      vertex -16 18.5 2.4
      vertex -16 23.6107 2.4432
      vertex -16 20.1971 1.69706
    endloop
  endfacet
  facet normal -1 0 0
    outer loop
      vertex -16 18.5 2.4
      vertex -16 35 4
      vertex -16 23.6107 2.4432
    endloop
  endfacet
  facet normal -1 0 0
    outer loop
      vertex -16 18.5 -2.4
      vertex -16 13.7324 -1.73241
      vertex -16 16.8029 -1.69706
    endloop
  endfacet
  facet normal -1 0 0
    outer loop
      vertex -16 24.5 -2.6
      vertex -16 35 -4
      vertex -16 18.5 -2.4
    endloop
  endfacet
  facet normal -1 0 0
    outer loop
      vertex -16 14.45 -3.55271e-15
      vertex -16 16.8029 -1.69706
      vertex -16 13.7324 -1.73241
    endloop
  endfacet
  facet normal -1 0 0
    outer loop
      vertex -16 22.2483 1.3
      vertex -16 20.1971 1.69706
      vertex -16 23.6107 2.4432
    endloop
  endfacet
  facet normal -1 0 0
    outer loop
      vertex -16 29.5936 2.49018
      vertex -16 35 4
      vertex -16 31.4064 2.49018
    endloop
  endfacet
  facet normal -1 0 0
    outer loop
      vertex -16 16.8029 1.69706
      vertex -16 13.7324 1.73241
      vertex -16 18.5 2.4
    endloop
  endfacet
  facet normal -1 0 0
    outer loop
      vertex -16 20.9 -3.55271e-15
      vertex -16 20.1971 1.69706
      vertex -16 22.2483 1.3
    endloop
  endfacet
  facet normal -1 0 0
    outer loop
      vertex -16 24.5 -2.6
      vertex -16 20.1971 -1.69706
      vertex -16 22.8288 -1.99172
    endloop
  endfacet
  facet normal -1 0 0
    outer loop
      vertex -16 16.8029 -1.69706
      vertex -16 14.45 -3.55271e-15
      vertex -16 16.1 -3.55271e-15
    endloop
  endfacet
  facet normal -1 0 0
    outer loop
      vertex -16 25.3893 2.4432
      vertex -16 29.5936 2.49018
      vertex -16 26.7517 1.3
    endloop
  endfacet
  facet normal -1 0 0
    outer loop
      vertex -16 12 2.45
      vertex -16 18.5 2.4
      vertex -16 13.7324 1.73241
    endloop
  endfacet
  facet normal -1 0 0
    outer loop
      vertex -16 28.7966 -2.03002
      vertex -16 27.0605 -0.451485
      vertex -16 27.8903 -0.460168
    endloop
  endfacet
  facet normal -1 0 0
    outer loop
      vertex -16 27.8903 -0.460168
      vertex -16 27.0605 -0.451485
      vertex -16 28.205 1.325
    endloop
  endfacet
  facet normal -1 0 0
    outer loop
      vertex -16 21.9395 -0.451485
      vertex -16 20.9 -3.55271e-15
      vertex -16 22.2483 1.3
    endloop
  endfacet
  facet normal -1 0 0
    outer loop
      vertex -16 28.205 1.325
      vertex -16 26.7517 1.3
      vertex -16 29.5936 2.49018
    endloop
  endfacet
  facet normal -1 0 0
    outer loop
      vertex -16 27.0605 -0.451485
      vertex -16 26.7517 1.3
      vertex -16 28.205 1.325
    endloop
  endfacet
  facet normal -1 0 0
    outer loop
      vertex -16 27.0605 -0.451485
      vertex -16 28.7966 -2.03002
      vertex -16 26.1712 -1.99172
    endloop
  endfacet
  facet normal -1 0 0
    outer loop
      vertex -16 32.2034 -2.03002
      vertex -16 35 -4
      vertex -16 30.5 -2.65
    endloop
  endfacet
  facet normal -1 0 0
    outer loop
      vertex -16 28.7966 -2.03002
      vertex -16 30.5 -2.65
      vertex -16 26.1712 -1.99172
    endloop
  endfacet
  facet normal -1 0 0
    outer loop
      vertex -16 32.795 1.325
      vertex -16 35 4
      vertex -16 33.1097 -0.460168
    endloop
  endfacet
  facet normal -1 0 0
    outer loop
      vertex -16 35 -4
      vertex -16 32.2034 -2.03002
      vertex -16 33.1097 -0.460168
    endloop
  endfacet
  facet normal -1 0 0
    outer loop
      vertex -16 35 -4
      vertex -16 33.1097 -0.460168
      vertex -16 35 4
    endloop
  endfacet
  facet normal -1 0 0
    outer loop
      vertex -16 31.4064 2.49018
      vertex -16 35 4
      vertex -16 32.795 1.325
    endloop
  endfacet
  facet normal -1 0 0
    outer loop
      vertex -16 18.5 -2.4
      vertex -16 35 -4
      vertex -16 12 -2.45
    endloop
  endfacet
  facet normal -1 0 0
    outer loop
      vertex -16 0.639108 -1.95341
      vertex -16 5 -2.5
      vertex -16 -1 -2.55
    endloop
  endfacet
  facet normal -1 0 0
    outer loop
      vertex -16 5 -2.5
      vertex -16 0.639108 -1.95341
      vertex -16 3.23223 -1.76777
    endloop
  endfacet
  facet normal -1 0 0
    outer loop
      vertex -16 1.51126 -0.442803
      vertex -16 3.23223 -1.76777
      vertex -16 0.639108 -1.95341
    endloop
  endfacet
  facet normal -1 0 0
    outer loop
      vertex -16 9.55 -3.55271e-15
      vertex -16 6.76777 1.76777
      vertex -16 10.2676 1.73241
    endloop
  endfacet
  facet normal 0 -1 0
    outer loop
      vertex -16 -5 4
      vertex -16 -5 -4
      vertex -8.5 -5 -4
    endloop
  endfacet
  facet normal 0 -1 0
    outer loop
      vertex -8.5 -5 4
      vertex -16 -5 4
      vertex -8.5 -5 -4
    endloop
  endfacet
  facet normal 0 0 -1
    outer loop
      vertex -16 -5 -4
      vertex -16 35 -4
      vertex -8.5 -5 -4
    endloop
  endfacet
  facet normal 0 0 -1
    outer loop
      vertex -8.5 -5 -4
      vertex -16 35 -4
      vertex -8.5 35 -4
    endloop
  endfacet
  facet normal 0 1 0
    outer loop
      vertex -16 35 -4
      vertex -16 35 4
      vertex -8.5 35 -4
    endloop
  endfacet
  facet normal 0 1 0
    outer loop
      vertex -8.5 35 -4
      vertex -16 35 4
      vertex -8.5 35 4
    endloop
  endfacet
  facet normal 0 0 1
    outer loop
      vertex -16 35 4
      vertex -16 -5 4
      vertex -8.5 -5 4
    endloop
  endfacet
  facet normal 0 0 1
    outer loop
      vertex -8.5 35 4
      vertex -16 35 4
      vertex -8.5 -5 4
    endloop
  endfacet
  facet normal 1.70096e-16 0.642787 -0.766045
    outer loop
      vertex -12 -1.87215 2.39622
      vertex -12 -3.20836 1.275
      vertex -16 -1.87215 2.39622
    endloop
  endfacet
  facet normal 1.70096e-16 0.642787 -0.766045
    outer loop
      vertex -16 -1.87215 2.39622
      vertex -12 -3.20836 1.275
      vertex -16 -3.20836 1.275
    endloop
  endfacet
  facet normal 3.85576e-17 0.984808 -0.173648
    outer loop
      vertex -12 -3.20836 1.275
      vertex -12 -3.51126 -0.442803
      vertex -16 -3.20836 1.275
    endloop
  endfacet
  facet normal 3.85576e-17 0.984808 -0.173648
    outer loop
      vertex -16 -3.20836 1.275
      vertex -12 -3.51126 -0.442803
      vertex -16 -3.51126 -0.442803
    endloop
  endfacet
  facet normal 2.22045e-16 0 -1
    outer loop
      vertex -12 -0.127849 2.39622
      vertex -12 -1.87215 2.39622
      vertex -16 -0.127849 2.39622
    endloop
  endfacet
  facet normal 2.22045e-16 0 -1
    outer loop
      vertex -16 -0.127849 2.39622
      vertex -12 -1.87215 2.39622
      vertex -16 -1.87215 2.39622
    endloop
  endfacet
  facet normal 1.70096e-16 -0.642787 -0.766045
    outer loop
      vertex -12 1.20836 1.275
      vertex -12 -0.127849 2.39622
      vertex -16 1.20836 1.275
    endloop
  endfacet
  facet normal 1.70096e-16 -0.642787 -0.766045
    outer loop
      vertex -16 1.20836 1.275
      vertex -12 -0.127849 2.39622
      vertex -16 -0.127849 2.39622
    endloop
  endfacet
  facet normal 3.85576e-17 -0.984808 -0.173648
    outer loop
      vertex -16 1.51126 -0.442803
      vertex -12 1.51126 -0.442803
      vertex -12 1.20836 1.275
    endloop
  endfacet
  facet normal 3.85576e-17 -0.984808 -0.173648
    outer loop
      vertex -16 1.20836 1.275
      vertex -16 1.51126 -0.442803
      vertex -12 1.20836 1.275
    endloop
  endfacet
  facet normal -1.11022e-16 -0.866025 0.5
    outer loop
      vertex -12 0.639108 -1.95341
      vertex -12 1.51126 -0.442803
      vertex -16 1.51126 -0.442803
    endloop
  endfacet
  facet normal -1.11022e-16 -0.866025 0.5
    outer loop
      vertex -16 0.639108 -1.95341
      vertex -12 0.639108 -1.95341
      vertex -16 1.51126 -0.442803
    endloop
  endfacet
  facet normal -2.08654e-16 -0.34202 0.939693
    outer loop
      vertex -12 -1 -2.55
      vertex -12 0.639108 -1.95341
      vertex -16 0.639108 -1.95341
    endloop
  endfacet
  facet normal -2.08654e-16 -0.34202 0.939693
    outer loop
      vertex -16 -1 -2.55
      vertex -12 -1 -2.55
      vertex -16 0.639108 -1.95341
    endloop
  endfacet
  facet normal -2.08654e-16 0.34202 0.939693
    outer loop
      vertex -12 -2.63911 -1.95341
      vertex -12 -1 -2.55
      vertex -16 -1 -2.55
    endloop
  endfacet
  facet normal -2.08654e-16 0.34202 0.939693
    outer loop
      vertex -16 -2.63911 -1.95341
      vertex -12 -2.63911 -1.95341
      vertex -16 -1 -2.55
    endloop
  endfacet
  facet normal -1.11022e-16 0.866025 0.5
    outer loop
      vertex -12 -2.63911 -1.95341
      vertex -16 -2.63911 -1.95341
      vertex -12 -3.51126 -0.442803
    endloop
  endfacet
  facet normal -1.11022e-16 0.866025 0.5
    outer loop
      vertex -12 -3.51126 -0.442803
      vertex -16 -2.63911 -1.95341
      vertex -16 -3.51126 -0.442803
    endloop
  endfacet
  facet normal 8.49728e-17 0.92388 -0.382683
    outer loop
      vertex -12 3.23223 1.76777
      vertex -12 2.5 -2.66454e-15
      vertex -16 3.23223 1.76777
    endloop
  endfacet
  facet normal 8.49728e-17 0.92388 -0.382683
    outer loop
      vertex -16 3.23223 1.76777
      vertex -12 2.5 -2.66454e-15
      vertex -16 2.5 -3.55271e-15
    endloop
  endfacet
  facet normal -8.49728e-17 0.92388 0.382683
    outer loop
      vertex -12 3.23223 -1.76777
      vertex -16 3.23223 -1.76777
      vertex -12 2.5 -2.66454e-15
    endloop
  endfacet
  facet normal -8.49728e-17 0.92388 0.382683
    outer loop
      vertex -12 2.5 -2.66454e-15
      vertex -16 3.23223 -1.76777
      vertex -16 2.5 -3.55271e-15
    endloop
  endfacet
  facet normal 2.05142e-16 0.382683 -0.92388
    outer loop
      vertex -12 5 2.5
      vertex -12 3.23223 1.76777
      vertex -16 5 2.5
    endloop
  endfacet
  facet normal 2.05142e-16 0.382683 -0.92388
    outer loop
      vertex -16 5 2.5
      vertex -12 3.23223 1.76777
      vertex -16 3.23223 1.76777
    endloop
  endfacet
  facet normal 2.05142e-16 -0.382683 -0.92388
    outer loop
      vertex -12 6.76777 1.76777
      vertex -12 5 2.5
      vertex -16 6.76777 1.76777
    endloop
  endfacet
  facet normal 2.05142e-16 -0.382683 -0.92388
    outer loop
      vertex -16 6.76777 1.76777
      vertex -12 5 2.5
      vertex -16 5 2.5
    endloop
  endfacet
  facet normal 8.49728e-17 -0.92388 -0.382683
    outer loop
      vertex -16 7.5 -3.55271e-15
      vertex -12 7.5 -2.66454e-15
      vertex -12 6.76777 1.76777
    endloop
  endfacet
  facet normal 8.49728e-17 -0.92388 -0.382683
    outer loop
      vertex -16 6.76777 1.76777
      vertex -16 7.5 -3.55271e-15
      vertex -12 6.76777 1.76777
    endloop
  endfacet
  facet normal -8.49728e-17 -0.92388 0.382683
    outer loop
      vertex -12 6.76777 -1.76777
      vertex -12 7.5 -2.66454e-15
      vertex -16 7.5 -3.55271e-15
    endloop
  endfacet
  facet normal -8.49728e-17 -0.92388 0.382683
    outer loop
      vertex -16 6.76777 -1.76777
      vertex -12 6.76777 -1.76777
      vertex -16 7.5 -3.55271e-15
    endloop
  endfacet
  facet normal -2.05142e-16 -0.382683 0.92388
    outer loop
      vertex -12 5 -2.5
      vertex -12 6.76777 -1.76777
      vertex -16 6.76777 -1.76777
    endloop
  endfacet
  facet normal -2.05142e-16 -0.382683 0.92388
    outer loop
      vertex -16 5 -2.5
      vertex -12 5 -2.5
      vertex -16 6.76777 -1.76777
    endloop
  endfacet
  facet normal -2.05142e-16 0.382683 0.92388
    outer loop
      vertex -12 3.23223 -1.76777
      vertex -12 5 -2.5
      vertex -16 5 -2.5
    endloop
  endfacet
  facet normal -2.05142e-16 0.382683 0.92388
    outer loop
      vertex -16 3.23223 -1.76777
      vertex -12 3.23223 -1.76777
      vertex -16 5 -2.5
    endloop
  endfacet
  facet normal 8.49727e-17 0.92388 -0.382683
    outer loop
      vertex -12 10.2676 1.73241
      vertex -12 9.55 -2.66454e-15
      vertex -16 10.2676 1.73241
    endloop
  endfacet
  facet normal 8.49727e-17 0.92388 -0.382683
    outer loop
      vertex -16 10.2676 1.73241
      vertex -12 9.55 -2.66454e-15
      vertex -16 9.55 -3.55271e-15
    endloop
  endfacet
  facet normal -8.49727e-17 0.92388 0.382683
    outer loop
      vertex -12 10.2676 -1.73241
      vertex -16 10.2676 -1.73241
      vertex -12 9.55 -2.66454e-15
    endloop
  endfacet
  facet normal -8.49727e-17 0.92388 0.382683
    outer loop
      vertex -12 9.55 -2.66454e-15
      vertex -16 10.2676 -1.73241
      vertex -16 9.55 -3.55271e-15
    endloop
  endfacet
  facet normal 2.05142e-16 0.382683 -0.92388
    outer loop
      vertex -12 12 2.45
      vertex -12 10.2676 1.73241
      vertex -16 12 2.45
    endloop
  endfacet
  facet normal 2.05142e-16 0.382683 -0.92388
    outer loop
      vertex -16 12 2.45
      vertex -12 10.2676 1.73241
      vertex -16 10.2676 1.73241
    endloop
  endfacet
  facet normal 2.05142e-16 -0.382683 -0.92388
    outer loop
      vertex -12 13.7324 1.73241
      vertex -12 12 2.45
      vertex -16 13.7324 1.73241
    endloop
  endfacet
  facet normal 2.05142e-16 -0.382683 -0.92388
    outer loop
      vertex -16 13.7324 1.73241
      vertex -12 12 2.45
      vertex -16 12 2.45
    endloop
  endfacet
  facet normal 8.49727e-17 -0.92388 -0.382683
    outer loop
      vertex -16 14.45 -3.55271e-15
      vertex -12 14.45 -2.66454e-15
      vertex -12 13.7324 1.73241
    endloop
  endfacet
  facet normal 8.49727e-17 -0.92388 -0.382683
    outer loop
      vertex -16 13.7324 1.73241
      vertex -16 14.45 -3.55271e-15
      vertex -12 13.7324 1.73241
    endloop
  endfacet
  facet normal -8.49727e-17 -0.92388 0.382683
    outer loop
      vertex -12 13.7324 -1.73241
      vertex -12 14.45 -2.66454e-15
      vertex -16 14.45 -3.55271e-15
    endloop
  endfacet
  facet normal -8.49727e-17 -0.92388 0.382683
    outer loop
      vertex -16 13.7324 -1.73241
      vertex -12 13.7324 -1.73241
      vertex -16 14.45 -3.55271e-15
    endloop
  endfacet
  facet normal -2.05142e-16 -0.382683 0.92388
    outer loop
      vertex -12 12 -2.45
      vertex -12 13.7324 -1.73241
      vertex -16 13.7324 -1.73241
    endloop
  endfacet
  facet normal -2.05142e-16 -0.382683 0.92388
    outer loop
      vertex -16 12 -2.45
      vertex -12 12 -2.45
      vertex -16 13.7324 -1.73241
    endloop
  endfacet
  facet normal -2.05142e-16 0.382683 0.92388
    outer loop
      vertex -12 10.2676 -1.73241
      vertex -12 12 -2.45
      vertex -16 12 -2.45
    endloop
  endfacet
  facet normal -2.05142e-16 0.382683 0.92388
    outer loop
      vertex -16 10.2676 -1.73241
      vertex -12 10.2676 -1.73241
      vertex -16 12 -2.45
    endloop
  endfacet
  facet normal 8.49728e-17 0.923879 -0.382684
    outer loop
      vertex -12 16.8029 1.69706
      vertex -12 16.1 -2.66454e-15
      vertex -16 16.8029 1.69706
    endloop
  endfacet
  facet normal 8.49728e-17 0.923879 -0.382684
    outer loop
      vertex -16 16.8029 1.69706
      vertex -12 16.1 -2.66454e-15
      vertex -16 16.1 -3.55271e-15
    endloop
  endfacet
  facet normal -8.49728e-17 0.923879 0.382684
    outer loop
      vertex -12 16.8029 -1.69706
      vertex -16 16.8029 -1.69706
      vertex -12 16.1 -2.66454e-15
    endloop
  endfacet
  facet normal -8.49728e-17 0.923879 0.382684
    outer loop
      vertex -12 16.1 -2.66454e-15
      vertex -16 16.8029 -1.69706
      vertex -16 16.1 -3.55271e-15
    endloop
  endfacet
  facet normal 2.05142e-16 0.382684 -0.923879
    outer loop
      vertex -12 18.5 2.4
      vertex -12 16.8029 1.69706
      vertex -16 18.5 2.4
    endloop
  endfacet
  facet normal 2.05142e-16 0.382684 -0.923879
    outer loop
      vertex -16 18.5 2.4
      vertex -12 16.8029 1.69706
      vertex -16 16.8029 1.69706
    endloop
  endfacet
  facet normal 2.05142e-16 -0.382684 -0.923879
    outer loop
      vertex -12 20.1971 1.69706
      vertex -12 18.5 2.4
      vertex -16 20.1971 1.69706
    endloop
  endfacet
  facet normal 2.05142e-16 -0.382684 -0.923879
    outer loop
      vertex -16 20.1971 1.69706
      vertex -12 18.5 2.4
      vertex -16 18.5 2.4
    endloop
  endfacet
  facet normal 8.49728e-17 -0.923879 -0.382684
    outer loop
      vertex -16 20.9 -3.55271e-15
      vertex -12 20.9 -2.66454e-15
      vertex -12 20.1971 1.69706
    endloop
  endfacet
  facet normal 8.49728e-17 -0.923879 -0.382684
    outer loop
      vertex -16 20.1971 1.69706
      vertex -16 20.9 -3.55271e-15
      vertex -12 20.1971 1.69706
    endloop
  endfacet
  facet normal -8.49728e-17 -0.923879 0.382684
    outer loop
      vertex -12 20.1971 -1.69706
      vertex -12 20.9 -2.66454e-15
      vertex -16 20.9 -3.55271e-15
    endloop
  endfacet
  facet normal -8.49728e-17 -0.923879 0.382684
    outer loop
      vertex -16 20.1971 -1.69706
      vertex -12 20.1971 -1.69706
      vertex -16 20.9 -3.55271e-15
    endloop
  endfacet
  facet normal -2.05142e-16 -0.382684 0.923879
    outer loop
      vertex -12 18.5 -2.4
      vertex -12 20.1971 -1.69706
      vertex -16 20.1971 -1.69706
    endloop
  endfacet
  facet normal -2.05142e-16 -0.382684 0.923879
    outer loop
      vertex -16 18.5 -2.4
      vertex -12 18.5 -2.4
      vertex -16 20.1971 -1.69706
    endloop
  endfacet
  facet normal -2.05142e-16 0.382684 0.923879
    outer loop
      vertex -12 16.8029 -1.69706
      vertex -12 18.5 -2.4
      vertex -16 18.5 -2.4
    endloop
  endfacet
  facet normal -2.05142e-16 0.382684 0.923879
    outer loop
      vertex -16 16.8029 -1.69706
      vertex -12 16.8029 -1.69706
      vertex -16 18.5 -2.4
    endloop
  endfacet
  facet normal 1.70096e-16 0.642788 -0.766044
    outer loop
      vertex -12 23.6107 2.4432
      vertex -12 22.2483 1.3
      vertex -16 23.6107 2.4432
    endloop
  endfacet
  facet normal 1.70096e-16 0.642788 -0.766044
    outer loop
      vertex -16 23.6107 2.4432
      vertex -12 22.2483 1.3
      vertex -16 22.2483 1.3
    endloop
  endfacet
  facet normal 3.85576e-17 0.984808 -0.173648
    outer loop
      vertex -12 22.2483 1.3
      vertex -12 21.9395 -0.451485
      vertex -16 22.2483 1.3
    endloop
  endfacet
  facet normal 3.85576e-17 0.984808 -0.173648
    outer loop
      vertex -16 22.2483 1.3
      vertex -12 21.9395 -0.451485
      vertex -16 21.9395 -0.451485
    endloop
  endfacet
  facet normal 2.22045e-16 0 -1
    outer loop
      vertex -12 25.3893 2.4432
      vertex -12 23.6107 2.4432
      vertex -16 25.3893 2.4432
    endloop
  endfacet
  facet normal 2.22045e-16 0 -1
    outer loop
      vertex -16 25.3893 2.4432
      vertex -12 23.6107 2.4432
      vertex -16 23.6107 2.4432
    endloop
  endfacet
  facet normal 1.70096e-16 -0.642788 -0.766044
    outer loop
      vertex -12 26.7517 1.3
      vertex -12 25.3893 2.4432
      vertex -16 26.7517 1.3
    endloop
  endfacet
  facet normal 1.70096e-16 -0.642788 -0.766044
    outer loop
      vertex -16 26.7517 1.3
      vertex -12 25.3893 2.4432
      vertex -16 25.3893 2.4432
    endloop
  endfacet
  facet normal 3.85576e-17 -0.984808 -0.173648
    outer loop
      vertex -16 27.0605 -0.451485
      vertex -12 27.0605 -0.451485
      vertex -12 26.7517 1.3
    endloop
  endfacet
  facet normal 3.85576e-17 -0.984808 -0.173648
    outer loop
      vertex -16 26.7517 1.3
      vertex -16 27.0605 -0.451485
      vertex -12 26.7517 1.3
    endloop
  endfacet
  facet normal -1.11022e-16 -0.866026 0.5
    outer loop
      vertex -12 26.1712 -1.99172
      vertex -12 27.0605 -0.451485
      vertex -16 27.0605 -0.451485
    endloop
  endfacet
  facet normal -1.11022e-16 -0.866026 0.5
    outer loop
      vertex -16 26.1712 -1.99172
      vertex -12 26.1712 -1.99172
      vertex -16 27.0605 -0.451485
    endloop
  endfacet
  facet normal -2.08654e-16 -0.34202 0.939693
    outer loop
      vertex -12 24.5 -2.6
      vertex -12 26.1712 -1.99172
      vertex -16 26.1712 -1.99172
    endloop
  endfacet
  facet normal -2.08654e-16 -0.34202 0.939693
    outer loop
      vertex -16 24.5 -2.6
      vertex -12 24.5 -2.6
      vertex -16 26.1712 -1.99172
    endloop
  endfacet
  facet normal -2.08654e-16 0.34202 0.939693
    outer loop
      vertex -12 22.8288 -1.99172
      vertex -12 24.5 -2.6
      vertex -16 24.5 -2.6
    endloop
  endfacet
  facet normal -2.08654e-16 0.34202 0.939693
    outer loop
      vertex -16 22.8288 -1.99172
      vertex -12 22.8288 -1.99172
      vertex -16 24.5 -2.6
    endloop
  endfacet
  facet normal -1.11022e-16 0.866026 0.5
    outer loop
      vertex -12 22.8288 -1.99172
      vertex -16 22.8288 -1.99172
      vertex -12 21.9395 -0.451485
    endloop
  endfacet
  facet normal -1.11022e-16 0.866026 0.5
    outer loop
      vertex -12 21.9395 -0.451485
      vertex -16 22.8288 -1.99172
      vertex -16 21.9395 -0.451485
    endloop
  endfacet
  facet normal 1.70096e-16 0.642787 -0.766045
    outer loop
      vertex -12 29.5936 2.49018
      vertex -12 28.205 1.325
      vertex -16 29.5936 2.49018
    endloop
  endfacet
  facet normal 1.70096e-16 0.642787 -0.766045
    outer loop
      vertex -16 29.5936 2.49018
      vertex -12 28.205 1.325
      vertex -16 28.205 1.325
    endloop
  endfacet
  facet normal 3.85577e-17 0.984808 -0.173649
    outer loop
      vertex -12 28.205 1.325
      vertex -12 27.8903 -0.460168
      vertex -16 28.205 1.325
    endloop
  endfacet
  facet normal 3.85577e-17 0.984808 -0.173649
    outer loop
      vertex -16 28.205 1.325
      vertex -12 27.8903 -0.460168
      vertex -16 27.8903 -0.460168
    endloop
  endfacet
  facet normal 2.22045e-16 0 -1
    outer loop
      vertex -12 31.4064 2.49018
      vertex -12 29.5936 2.49018
      vertex -16 31.4064 2.49018
    endloop
  endfacet
  facet normal 2.22045e-16 0 -1
    outer loop
      vertex -16 31.4064 2.49018
      vertex -12 29.5936 2.49018
      vertex -16 29.5936 2.49018
    endloop
  endfacet
  facet normal 1.70096e-16 -0.642787 -0.766045
    outer loop
      vertex -12 32.795 1.325
      vertex -12 31.4064 2.49018
      vertex -16 32.795 1.325
    endloop
  endfacet
  facet normal 1.70096e-16 -0.642787 -0.766045
    outer loop
      vertex -16 32.795 1.325
      vertex -12 31.4064 2.49018
      vertex -16 31.4064 2.49018
    endloop
  endfacet
  facet normal 3.85577e-17 -0.984808 -0.173649
    outer loop
      vertex -16 33.1097 -0.460168
      vertex -12 33.1097 -0.460168
      vertex -12 32.795 1.325
    endloop
  endfacet
  facet normal 3.85577e-17 -0.984808 -0.173649
    outer loop
      vertex -16 32.795 1.325
      vertex -16 33.1097 -0.460168
      vertex -12 32.795 1.325
    endloop
  endfacet
  facet normal -1.11022e-16 -0.866025 0.5
    outer loop
      vertex -12 32.2034 -2.03002
      vertex -12 33.1097 -0.460168
      vertex -16 33.1097 -0.460168
    endloop
  endfacet
  facet normal -1.11022e-16 -0.866025 0.5
    outer loop
      vertex -16 32.2034 -2.03002
      vertex -12 32.2034 -2.03002
      vertex -16 33.1097 -0.460168
    endloop
  endfacet
  facet normal -2.08654e-16 -0.34202 0.939693
    outer loop
      vertex -12 30.5 -2.65
      vertex -12 32.2034 -2.03002
      vertex -16 32.2034 -2.03002
    endloop
  endfacet
  facet normal -2.08654e-16 -0.34202 0.939693
    outer loop
      vertex -16 30.5 -2.65
      vertex -12 30.5 -2.65
      vertex -16 32.2034 -2.03002
    endloop
  endfacet
  facet normal -2.08654e-16 0.34202 0.939693
    outer loop
      vertex -12 28.7966 -2.03002
      vertex -12 30.5 -2.65
      vertex -16 30.5 -2.65
    endloop
  endfacet
  facet normal -2.08654e-16 0.34202 0.939693
    outer loop
      vertex -16 28.7966 -2.03002
      vertex -12 28.7966 -2.03002
      vertex -16 30.5 -2.65
    endloop
  endfacet
  facet normal -1.11022e-16 0.866025 0.5
    outer loop
      vertex -12 28.7966 -2.03002
      vertex -16 28.7966 -2.03002
      vertex -12 27.8903 -0.460168
    endloop
  endfacet
  facet normal -1.11022e-16 0.866025 0.5
    outer loop
      vertex -12 27.8903 -0.460168
      vertex -16 28.7966 -2.03002
      vertex -16 27.8903 -0.460168
    endloop
  endfacet
  facet normal 1 0 0
    outer loop
      vertex -8.5 -5 4
      vertex -8.5 -5 -4
      vertex -8.5 35 -4
    endloop
  endfacet
  facet normal 1 0 0
    outer loop
      vertex -8.5 35 4
      vertex -8.5 -5 4
      vertex -8.5 35 -4
    endloop
  endfacet
  facet normal -1 0 -2.22045e-16
    outer loop
      vertex -12 1.20836 1.275
      vertex -12 1.51126 -0.442803
      vertex -12 -0.127849 2.39622
    endloop
  endfacet
  facet normal -1 0 -2.22045e-16
    outer loop
      vertex -12 -0.127849 2.39622
      vertex -12 1.51126 -0.442803
      vertex -12 0.639108 -1.95341
    endloop
  endfacet
  facet normal -1 0 -2.22045e-16
    outer loop
      vertex -12 -0.127849 2.39622
      vertex -12 0.639108 -1.95341
      vertex -12 -1 -2.55
    endloop
  endfacet
  facet normal -1 0 -2.22045e-16
    outer loop
      vertex -12 -0.127849 2.39622
      vertex -12 -1 -2.55
      vertex -12 -2.63911 -1.95341
    endloop
  endfacet
  facet normal -1 0 -2.22045e-16
    outer loop
      vertex -12 -0.127849 2.39622
      vertex -12 -2.63911 -1.95341
      vertex -12 -3.51126 -0.442803
    endloop
  endfacet
  facet normal -1 0 -2.22045e-16
    outer loop
      vertex -12 -0.127849 2.39622
      vertex -12 -3.51126 -0.442803
      vertex -12 -3.20836 1.275
    endloop
  endfacet
  facet normal -1 0 -2.22045e-16
    outer loop
      vertex -12 -0.127849 2.39622
      vertex -12 -3.20836 1.275
      vertex -12 -1.87215 2.39622
    endloop
  endfacet
  facet normal -1 0 -2.22045e-16
    outer loop
      vertex -12 7.5 -2.66454e-15
      vertex -12 6.76777 -1.76777
      vertex -12 6.76777 1.76777
    endloop
  endfacet
  facet normal -1 0 -2.22045e-16
    outer loop
      vertex -12 6.76777 1.76777
      vertex -12 6.76777 -1.76777
      vertex -12 5 -2.5
    endloop
  endfacet
  facet normal -1 0 -2.22045e-16
    outer loop
      vertex -12 6.76777 1.76777
      vertex -12 5 -2.5
      vertex -12 3.23223 -1.76777
    endloop
  endfacet
  facet normal -1 0 -2.22045e-16
    outer loop
      vertex -12 6.76777 1.76777
      vertex -12 3.23223 -1.76777
      vertex -12 2.5 -2.66454e-15
    endloop
  endfacet
  facet normal -1 0 -2.22045e-16
    outer loop
      vertex -12 6.76777 1.76777
      vertex -12 2.5 -2.66454e-15
      vertex -12 3.23223 1.76777
    endloop
  endfacet
  facet normal -1 0 -2.22045e-16
    outer loop
      vertex -12 6.76777 1.76777
      vertex -12 3.23223 1.76777
      vertex -12 5 2.5
    endloop
  endfacet
  facet normal -1 0 -2.22045e-16
    outer loop
      vertex -12 14.45 -2.66454e-15
      vertex -12 13.7324 -1.73241
      vertex -12 13.7324 1.73241
    endloop
  endfacet
  facet normal -1 0 -2.22045e-16
    outer loop
      vertex -12 13.7324 1.73241
      vertex -12 13.7324 -1.73241
      vertex -12 12 -2.45
    endloop
  endfacet
  facet normal -1 0 -2.22045e-16
    outer loop
      vertex -12 13.7324 1.73241
      vertex -12 12 -2.45
      vertex -12 10.2676 -1.73241
    endloop
  endfacet
  facet normal -1 0 -2.22045e-16
    outer loop
      vertex -12 13.7324 1.73241
      vertex -12 10.2676 -1.73241
      vertex -12 9.55 -2.66454e-15
    endloop
  endfacet
  facet normal -1 0 -2.22045e-16
    outer loop
      vertex -12 13.7324 1.73241
      vertex -12 9.55 -2.66454e-15
      vertex -12 10.2676 1.73241
    endloop
  endfacet
  facet normal -1 0 -2.22045e-16
    outer loop
      vertex -12 13.7324 1.73241
      vertex -12 10.2676 1.73241
      vertex -12 12 2.45
    endloop
  endfacet
  facet normal -1 0 -2.22045e-16
    outer loop
      vertex -12 20.9 -2.66454e-15
      vertex -12 20.1971 -1.69706
      vertex -12 20.1971 1.69706
    endloop
  endfacet
  facet normal -1 0 -2.22045e-16
    outer loop
      vertex -12 20.1971 1.69706
      vertex -12 20.1971 -1.69706
      vertex -12 18.5 -2.4
    endloop
  endfacet
  facet normal -1 0 -2.22045e-16
    outer loop
      vertex -12 20.1971 1.69706
      vertex -12 18.5 -2.4
      vertex -12 16.8029 -1.69706
    endloop
  endfacet
  facet normal -1 0 -2.22045e-16
    outer loop
      vertex -12 20.1971 1.69706
      vertex -12 16.8029 -1.69706
      vertex -12 16.1 -2.66454e-15
    endloop
  endfacet
  facet normal -1 0 -2.22045e-16
    outer loop
      vertex -12 20.1971 1.69706
      vertex -12 16.1 -2.66454e-15
      vertex -12 16.8029 1.69706
    endloop
  endfacet
  facet normal -1 0 -2.22045e-16
    outer loop
      vertex -12 20.1971 1.69706
      vertex -12 16.8029 1.69706
      vertex -12 18.5 2.4
    endloop
  endfacet
  facet normal -1 0 -2.22045e-16
    outer loop
      vertex -12 26.7517 1.3
      vertex -12 27.0605 -0.451485
      vertex -12 25.3893 2.4432
    endloop
  endfacet
  facet normal -1 0 -2.22045e-16
    outer loop
      vertex -12 25.3893 2.4432
      vertex -12 27.0605 -0.451485
      vertex -12 26.1712 -1.99172
    endloop
  endfacet
  facet normal -1 0 -2.22045e-16
    outer loop
      vertex -12 25.3893 2.4432
      vertex -12 26.1712 -1.99172
      vertex -12 24.5 -2.6
    endloop
  endfacet
  facet normal -1 0 -2.22045e-16
    outer loop
      vertex -12 25.3893 2.4432
      vertex -12 24.5 -2.6
      vertex -12 22.8288 -1.99172
    endloop
  endfacet
  facet normal -1 0 -2.22045e-16
    outer loop
      vertex -12 25.3893 2.4432
      vertex -12 22.8288 -1.99172
      vertex -12 21.9395 -0.451485
    endloop
  endfacet
  facet normal -1 0 -2.22045e-16
    outer loop
      vertex -12 25.3893 2.4432
      vertex -12 21.9395 -0.451485
      vertex -12 22.2483 1.3
    endloop
  endfacet
  facet normal -1 0 -2.22045e-16
    outer loop
      vertex -12 25.3893 2.4432
      vertex -12 22.2483 1.3
      vertex -12 23.6107 2.4432
    endloop
  endfacet
  facet normal -1 0 -2.22045e-16
    outer loop
      vertex -12 32.795 1.325
      vertex -12 33.1097 -0.460168
      vertex -12 31.4064 2.49018
    endloop
  endfacet
  facet normal -1 0 -2.22045e-16
    outer loop
      vertex -12 31.4064 2.49018
      vertex -12 33.1097 -0.460168
      vertex -12 32.2034 -2.03002
    endloop
  endfacet
  facet normal -1 0 -2.22045e-16
    outer loop
      vertex -12 31.4064 2.49018
      vertex -12 32.2034 -2.03002
      vertex -12 30.5 -2.65
    endloop
  endfacet
  facet normal -1 0 -2.22045e-16
    outer loop
      vertex -12 31.4064 2.49018
      vertex -12 30.5 -2.65
      vertex -12 28.7966 -2.03002
    endloop
  endfacet
  facet normal -1 0 -2.22045e-16
    outer loop
      vertex -12 31.4064 2.49018
      vertex -12 28.7966 -2.03002
      vertex -12 27.8903 -0.460168
    endloop
  endfacet
  facet normal -1 0 -2.22045e-16
    outer loop
      vertex -12 31.4064 2.49018
      vertex -12 27.8903 -0.460168
      vertex -12 28.205 1.325
    endloop
  endfacet
  facet normal -1 0 -2.22045e-16
    outer loop
      vertex -12 31.4064 2.49018
      vertex -12 28.205 1.325
      vertex -12 29.5936 2.49018
    endloop
  endfacet
endsolid OpenSCAD_Model
