solid OpenSCAD_Model
  facet normal -0.707107 -0.707107 0
    outer loop
      vertex -0.0388912 13.0532 7
      vertex -0.0388912 13.0532 0
      vertex 13.0143 0 0
    endloop
  endfacet
  facet normal -0.707107 -0.707107 0
    outer loop
      vertex 13.0143 0 7
      vertex -0.0388912 13.0532 7
      vertex 13.0143 0 0
    endloop
  endfacet
  facet normal 0 0 -1
    outer loop
      vertex -0.0388912 13.0532 0
      vertex 13.0143 26.1064 0
      vertex 13.0143 0 0
    endloop
  endfacet
  facet normal 0 0 -1
    outer loop
      vertex 13.0143 0 0
      vertex 13.0143 26.1064 0
      vertex 13.1207 26 0
    endloop
  endfacet
  facet normal 0 0 -1
    outer loop
      vertex 13.0143 0 0
      vertex 13.1207 26 0
      vertex 60 26 0
    endloop
  endfacet
  facet normal 0 0 -1
    outer loop
      vertex 13.0143 0 0
      vertex 60 26 0
      vertex 60 0 0
    endloop
  endfacet
  facet normal -0.707107 0.707107 0
    outer loop
      vertex -0.0388912 13.0532 0
      vertex -0.0388912 13.0532 7
      vertex 13.0143 26.1064 0
    endloop
  endfacet
  facet normal -0.707107 0.707107 0
    outer loop
      vertex 13.0143 26.1064 0
      vertex -0.0388912 13.0532 7
      vertex 13.0143 26.1064 7
    endloop
  endfacet
  facet normal 0 0 1
    outer loop
      vertex 13.0143 26.1064 7
      vertex -0.0388912 13.0532 7
      vertex 13.0143 0 7
    endloop
  endfacet
  facet normal 0 0 1
    outer loop
      vertex 13.1207 26 7
      vertex 13.0143 26.1064 7
      vertex 13.0143 0 7
    endloop
  endfacet
  facet normal 0 0 1
    outer loop
      vertex 60 0 7
      vertex 13.1207 26 7
      vertex 13.0143 0 7
    endloop
  endfacet
  facet normal 0 0 1
    outer loop
      vertex 60 26 7
      vertex 13.1207 26 7
      vertex 60 0 7
    endloop
  endfacet
  facet normal 0 -1 0
    outer loop
      vertex 13.0143 0 7
      vertex 13.0143 0 0
      vertex 60 0 0
    endloop
  endfacet
  facet normal 0 -1 0
    outer loop
      vertex 60 0 7
      vertex 13.0143 0 7
      vertex 60 0 0
    endloop
  endfacet
  facet normal 1 0 0
    outer loop
      vertex 60 0 7
      vertex 60 0 0
      vertex 60 26 0
    endloop
  endfacet
  facet normal 1 0 0
    outer loop
      vertex 60 26 7
      vertex 60 0 7
      vertex 60 26 0
    endloop
  endfacet
  facet normal 0 1 0
    outer loop
      vertex 13.1207 26 0
      vertex 13.1207 26 7
      vertex 60 26 0
    endloop
  endfacet
  facet normal 0 1 0
    outer loop
      vertex 60 26 0
      vertex 13.1207 26 7
      vertex 60 26 7
    endloop
  endfacet
  facet normal 0.707107 0.707107 0
    outer loop
      vertex 13.0143 26.1064 0
      vertex 13.0143 26.1064 7
      vertex 13.1207 26 0
    endloop
  endfacet
  facet normal 0.707107 0.707107 0
    outer loop
      vertex 13.1207 26 0
      vertex 13.0143 26.1064 7
      vertex 13.1207 26 7
    endloop
  endfacet
endsolid OpenSCAD_Model
