solid OpenSCAD_Model
  facet normal -1 0 0
    outer loop
      vertex -15.4895 -10.5 -3.5
      vertex -15.4895 -10.5 3.5
      vertex -15.4895 -10.0962 -3.5
    endloop
  endfacet
  facet normal -1 0 0
    outer loop
      vertex -15.4895 -10.0962 -3.5
      vertex -15.4895 -10.5 3.5
      vertex -15.4895 -10.0962 3.5
    endloop
  endfacet
  facet normal 0 -1 0
    outer loop
      vertex 33.5019 -10.5 -3.46437
      vertex -15.4895 -10.5 -3.5
      vertex 34.5104 -10.5 -3.5
    endloop
  endfacet
  facet normal 0 -1 0
    outer loop
      vertex 30.6507 -10.5 -1
      vertex 0.206373 -10.5 -1
      vertex 31.708 -10.5 -2.64512
    endloop
  endfacet
  facet normal 0 -1 0
    outer loop
      vertex -3.4981 -10.5 -3.46437
      vertex -5.29201 -10.5 -2.64512
      vertex -15.4895 -10.5 -3.5
    endloop
  endfacet
  facet normal 0 -1 0
    outer loop
      vertex 35.454 -10.5 -3.18371
      vertex 33.5019 -10.5 -3.46437
      vertex 34.5104 -10.5 -3.45
    endloop
  endfacet
  facet normal 0 -1 0
    outer loop
      vertex 36.9444 -10.5 -1.89224
      vertex 35.454 -10.5 -3.18371
      vertex 47 -10.5 -3.45
    endloop
  endfacet
  facet normal 0 -1 0
    outer loop
      vertex 47 -10.5 3.55
      vertex 37.5 -10.5 2.33147e-15
      vertex 47 -10.5 -3.45
    endloop
  endfacet
  facet normal 0 -1 0
    outer loop
      vertex 47 -10.5 3.55
      vertex 34 -10.5 2.33147e-15
      vertex 37.5 -10.5 2.33147e-15
    endloop
  endfacet
  facet normal 0 -1 0
    outer loop
      vertex 31.708 -10.5 -2.64512
      vertex 0.206373 -10.5 -1
      vertex 33.5019 -10.5 -3.46437
    endloop
  endfacet
  facet normal 0 -1 0
    outer loop
      vertex 47 -10.5 -3.45
      vertex 35.454 -10.5 -3.18371
      vertex 34.5104 -10.5 -3.45
    endloop
  endfacet
  facet normal 0 -1 0
    outer loop
      vertex -3.4981 -10.5 -3.46437
      vertex -15.4895 -10.5 -3.5
      vertex 33.5019 -10.5 -3.46437
    endloop
  endfacet
  facet normal 0 -1 0
    outer loop
      vertex -5.29201 -10.5 -2.64512
      vertex -6.35823 -10.5 -0.986064
      vertex -15.4895 -10.5 -3.5
    endloop
  endfacet
  facet normal 0 -1 0
    outer loop
      vertex 34.5104 -10.5 -3.45
      vertex 33.5019 -10.5 -3.46437
      vertex 34.5104 -10.5 -3.5
    endloop
  endfacet
  facet normal 0 -1 0
    outer loop
      vertex 0.206373 -10.5 -1
      vertex -0.055613 -10.5 -1.89224
      vertex 33.5019 -10.5 -3.46437
    endloop
  endfacet
  facet normal 0 -1 0
    outer loop
      vertex -0.055613 -10.5 -1.89224
      vertex -1.54605 -10.5 -3.18371
      vertex 33.5019 -10.5 -3.46437
    endloop
  endfacet
  facet normal 0 -1 0
    outer loop
      vertex -1.54605 -10.5 -3.18371
      vertex -3.4981 -10.5 -3.46437
      vertex 33.5019 -10.5 -3.46437
    endloop
  endfacet
  facet normal 0 -1 0
    outer loop
      vertex -15.4895 -10.5 3.5
      vertex -15.4895 -10.5 -3.5
      vertex -6.35823 -10.5 -0.986064
    endloop
  endfacet
  facet normal 0 -1 0
    outer loop
      vertex -15.4895 -10.5 3.5
      vertex -6.35823 -10.5 -0.986064
      vertex -6.35823 -10.5 2.33147e-15
    endloop
  endfacet
  facet normal 0 -1 0
    outer loop
      vertex -15.4895 -10.5 3.5
      vertex -6.35823 -10.5 2.33147e-15
      vertex -3.48955 -10.5 2.33147e-15
    endloop
  endfacet
  facet normal 0 -1 0
    outer loop
      vertex 37.5 -10.5 2.33147e-15
      vertex 36.9444 -10.5 -1.89224
      vertex 47 -10.5 -3.45
    endloop
  endfacet
  facet normal 0 -1 0
    outer loop
      vertex 34 -10.5 3.55
      vertex 34 -10.5 2.33147e-15
      vertex 47 -10.5 3.55
    endloop
  endfacet
  facet normal 0 -1 0
    outer loop
      vertex -3.48955 -10.5 2.33147e-15
      vertex -3.48955 -10.5 3.5
      vertex -15.4895 -10.5 3.5
    endloop
  endfacet
  facet normal 0 0 -1
    outer loop
      vertex -15.4895 -10.5 -3.5
      vertex -15.4895 -10.0962 -3.5
      vertex 34.5104 -10.5 -3.5
    endloop
  endfacet
  facet normal 0 0 -1
    outer loop
      vertex 34.5104 -10.5 -3.5
      vertex -15.4895 -10.0962 -3.5
      vertex -9.98955 -4.59615 -3.5
    endloop
  endfacet
  facet normal 0 0 -1
    outer loop
      vertex 34.5104 -10.5 -3.5
      vertex -9.98955 -4.59615 -3.5
      vertex -9.98955 4.59615 -3.5
    endloop
  endfacet
  facet normal 0 0 -1
    outer loop
      vertex -9.98955 4.59615 -3.5
      vertex -15.4895 10.0962 -3.5
      vertex 34.5104 -10.5 -3.5
    endloop
  endfacet
  facet normal 0 0 -1
    outer loop
      vertex 34.5104 -10.5 -3.5
      vertex -15.4895 10.0962 -3.5
      vertex -15.4895 10.5 -3.5
    endloop
  endfacet
  facet normal 0 0 -1
    outer loop
      vertex 34.5104 -10.5 -3.5
      vertex -15.4895 10.5 -3.5
      vertex 34.5104 10.5 -3.5
    endloop
  endfacet
  facet normal -0.707107 0.707107 -1.35963e-32
    outer loop
      vertex -9.98955 -4.59615 3.5
      vertex -9.98955 -4.59615 -3.5
      vertex -15.4895 -10.0962 3.5
    endloop
  endfacet
  facet normal -0.707107 0.707107 -1.35963e-32
    outer loop
      vertex -15.4895 -10.0962 3.5
      vertex -9.98955 -4.59615 -3.5
      vertex -15.4895 -10.0962 -3.5
    endloop
  endfacet
  facet normal 0 0 1
    outer loop
      vertex -15.4895 -10.0962 3.5
      vertex -15.4895 -10.5 3.5
      vertex -3.48955 -10.5 3.5
    endloop
  endfacet
  facet normal 0 0 1
    outer loop
      vertex -9.98955 -4.59615 3.5
      vertex -15.4895 -10.0962 3.5
      vertex -3.48955 -10.5 3.5
    endloop
  endfacet
  facet normal 0 0 1
    outer loop
      vertex -15.4895 10.5 3.5
      vertex -15.4895 10.0962 3.5
      vertex -3.48955 10.5 3.5
    endloop
  endfacet
  facet normal 0 0 1
    outer loop
      vertex -15.4895 10.0962 3.5
      vertex -9.98955 4.59615 3.5
      vertex -3.48955 10.5 3.5
    endloop
  endfacet
  facet normal 0 0 1
    outer loop
      vertex -3.48955 10.5 3.5
      vertex -9.98955 -4.59615 3.5
      vertex -3.48955 -10.5 3.5
    endloop
  endfacet
  facet normal 0 0 1
    outer loop
      vertex -9.98955 4.59615 3.5
      vertex -9.98955 -4.59615 3.5
      vertex -3.48955 10.5 3.5
    endloop
  endfacet
  facet normal 1 0 0
    outer loop
      vertex -3.48955 -10.5 3.46315
      vertex -3.48955 10.5 3.46315
      vertex -3.48955 10.5 3.5
    endloop
  endfacet
  facet normal 1 0 0
    outer loop
      vertex -3.48955 -10.5 2.33147e-15
      vertex -3.48955 -10.5 3.46315
      vertex -3.48955 -10.5 3.5
    endloop
  endfacet
  facet normal 1 0 0
    outer loop
      vertex -3.48955 -10.5 3.5
      vertex -3.48955 -10.5 3.46315
      vertex -3.48955 10.5 3.5
    endloop
  endfacet
  facet normal 0 -1 2.22045e-16
    outer loop
      vertex -6.35823 -10.5 2.33147e-15
      vertex -6.35823 -10.5 -0.986064
      vertex -5.29201 -10.5 -2.64512
    endloop
  endfacet
  facet normal 0 -1 2.22045e-16
    outer loop
      vertex -1.54605 -10.5 -3.18371
      vertex -6.35823 -10.5 2.33147e-15
      vertex -3.4981 -10.5 -3.46437
    endloop
  endfacet
  facet normal 0 -1 2.22045e-16
    outer loop
      vertex -3.4981 -10.5 -3.46437
      vertex -6.35823 -10.5 2.33147e-15
      vertex -5.29201 -10.5 -2.64512
    endloop
  endfacet
  facet normal 0 -1 2.22045e-16
    outer loop
      vertex -0.055613 -10.5 -1.89224
      vertex -6.35823 -10.5 2.33147e-15
      vertex -1.54605 -10.5 -3.18371
    endloop
  endfacet
  facet normal 0 -1 2.22045e-16
    outer loop
      vertex 0.5 -10.5 2.33147e-15
      vertex -3.48955 -10.5 2.33147e-15
      vertex -0.055613 -10.5 -1.89224
    endloop
  endfacet
  facet normal 0 -1 2.22045e-16
    outer loop
      vertex -3.48955 -10.5 2.33147e-15
      vertex -6.35823 -10.5 2.33147e-15
      vertex -0.055613 -10.5 -1.89224
    endloop
  endfacet
  facet normal 0 -1 2.22045e-16
    outer loop
      vertex -0.055613 -10.5 1.89224
      vertex -3.48955 -10.5 2.33147e-15
      vertex 0.5 -10.5 2.33147e-15
    endloop
  endfacet
  facet normal 0 -1 2.22045e-16
    outer loop
      vertex -3.48955 -10.5 3.46315
      vertex -0.055613 -10.5 1.89224
      vertex -1.54605 -10.5 3.18371
    endloop
  endfacet
  facet normal 0 -1 2.22045e-16
    outer loop
      vertex -3.48955 -10.5 3.46315
      vertex -3.48955 -10.5 2.33147e-15
      vertex -0.055613 -10.5 1.89224
    endloop
  endfacet
  facet normal 0.959493 -6.25572e-17 -0.281733
    outer loop
      vertex 0.5 -10.5 2.33147e-15
      vertex -0.055613 -10.5 -1.89224
      vertex 0.206373 -10.5 -1
    endloop
  endfacet
  facet normal 0.959493 -6.25572e-17 -0.281733
    outer loop
      vertex 0.206373 10.5 -1
      vertex 0.5 -10.5 2.33147e-15
      vertex 0.206373 -10.5 -1
    endloop
  endfacet
  facet normal 0.959493 -6.25572e-17 -0.281733
    outer loop
      vertex 0.5 10.5 -2.33147e-15
      vertex 0.5 -10.5 2.33147e-15
      vertex 0.206373 10.5 -1
    endloop
  endfacet
  facet normal 0 0 1
    outer loop
      vertex 14 -7.55 -1
      vertex 0.206373 -10.5 -1
      vertex 30.6507 -10.5 -1
    endloop
  endfacet
  facet normal 0 0 1
    outer loop
      vertex 34 10.5 -1
      vertex 0.206373 10.5 -1
      vertex 30.6507 10.5 -1
    endloop
  endfacet
  facet normal 0 0 1
    outer loop
      vertex -3.48955 10.5 -1
      vertex 0.206373 10.5 -1
      vertex 34 10.5 -1
    endloop
  endfacet
  facet normal 0 0 1
    outer loop
      vertex 30.6507 10.5 -1
      vertex 0.206373 10.5 -1
      vertex 9.86066 8.03415 -1
    endloop
  endfacet
  facet normal 0 0 1
    outer loop
      vertex 19.2 2 -1
      vertex 12.2986 2 -1
      vertex 30.6507 -10.5 -1
    endloop
  endfacet
  facet normal 0 0 1
    outer loop
      vertex 30.6507 10.5 -1
      vertex 19.2 4 -1
      vertex 30.6507 -10.5 -1
    endloop
  endfacet
  facet normal 0 0 1
    outer loop
      vertex 30.6507 10.5 -1
      vertex 9.86066 8.03415 -1
      vertex 19.2 4 -1
    endloop
  endfacet
  facet normal 0 0 1
    outer loop
      vertex 19.2 4 -1
      vertex 19.2 2 -1
      vertex 30.6507 -10.5 -1
    endloop
  endfacet
  facet normal 0 0 1
    outer loop
      vertex 12.2986 2 -1
      vertex 15.8544 -6.80079 -1
      vertex 30.6507 -10.5 -1
    endloop
  endfacet
  facet normal 0 0 1
    outer loop
      vertex 15.8544 -6.80079 -1
      vertex 14 -7.55 -1
      vertex 30.6507 -10.5 -1
    endloop
  endfacet
  facet normal 0 0 1
    outer loop
      vertex 9.86066 8.03415 -1
      vertex 0.206373 10.5 -1
      vertex 8.00629 7.28494 -1
    endloop
  endfacet
  facet normal 0 0 1
    outer loop
      vertex 11.4906 4 -1
      vertex 19.2 4 -1
      vertex 9.86066 8.03415 -1
    endloop
  endfacet
  facet normal 0 0 1
    outer loop
      vertex 14 -7.55 -1
      vertex 0.206373 10.5 -1
      vertex 0.206373 -10.5 -1
    endloop
  endfacet
  facet normal 0 0 1
    outer loop
      vertex 14 -7.55 -1
      vertex 8.00629 7.28494 -1
      vertex 0.206373 10.5 -1
    endloop
  endfacet
  facet normal -0.841254 -1.20046e-16 -0.54064
    outer loop
      vertex 30.6418 -10.5 -0.986064
      vertex 30.6418 10.5 -0.986064
      vertex 30.6507 -10.5 -1
    endloop
  endfacet
  facet normal -0.841254 -1.20046e-16 -0.54064
    outer loop
      vertex 30.6418 -10.5 -0.986064
      vertex 30.6507 -10.5 -1
      vertex 31.708 -10.5 -2.64512
    endloop
  endfacet
  facet normal -0.841254 -1.20046e-16 -0.54064
    outer loop
      vertex 30.6507 -10.5 -1
      vertex 30.6418 10.5 -0.986064
      vertex 30.6507 10.5 -1
    endloop
  endfacet
  facet normal 0 -1 2.22045e-16
    outer loop
      vertex 30.6418 -10.5 0.986064
      vertex 30.6418 -10.5 -0.986064
      vertex 31.708 -10.5 -2.64512
    endloop
  endfacet
  facet normal 0 -1 2.22045e-16
    outer loop
      vertex 35.454 -10.5 -3.18371
      vertex 30.6418 -10.5 0.986064
      vertex 33.5019 -10.5 -3.46437
    endloop
  endfacet
  facet normal 0 -1 2.22045e-16
    outer loop
      vertex 33.5019 -10.5 -3.46437
      vertex 30.6418 -10.5 0.986064
      vertex 31.708 -10.5 -2.64512
    endloop
  endfacet
  facet normal 0 -1 2.22045e-16
    outer loop
      vertex 36.9444 -10.5 -1.89224
      vertex 30.6418 -10.5 0.986064
      vertex 35.454 -10.5 -3.18371
    endloop
  endfacet
  facet normal 0 -1 2.22045e-16
    outer loop
      vertex 34 -10.5 2.33147e-15
      vertex 30.6418 -10.5 0.986064
      vertex 36.9444 -10.5 -1.89224
    endloop
  endfacet
  facet normal 0 -1 2.22045e-16
    outer loop
      vertex 37.5 -10.5 2.33147e-15
      vertex 34 -10.5 2.33147e-15
      vertex 36.9444 -10.5 -1.89224
    endloop
  endfacet
  facet normal 0 -1 2.22045e-16
    outer loop
      vertex 33.5019 -10.5 3.46438
      vertex 30.6418 -10.5 0.986064
      vertex 34 -10.5 3.39276
    endloop
  endfacet
  facet normal 0 -1 2.22045e-16
    outer loop
      vertex 31.708 -10.5 2.64512
      vertex 30.6418 -10.5 0.986064
      vertex 33.5019 -10.5 3.46438
    endloop
  endfacet
  facet normal 0 -1 2.22045e-16
    outer loop
      vertex 34 -10.5 2.33147e-15
      vertex 34 -10.5 3.39276
      vertex 30.6418 -10.5 0.986064
    endloop
  endfacet
  facet normal -1 0 0
    outer loop
      vertex 34 -10.5 2.33147e-15
      vertex 34 -10.5 3.55
      vertex 34 -10.5 3.39276
    endloop
  endfacet
  facet normal -1 0 0
    outer loop
      vertex 34 -10.5 3.39276
      vertex 34 -10.5 3.55
      vertex 34 10.5 3.55
    endloop
  endfacet
  facet normal -1 0 0
    outer loop
      vertex 34 -10.5 3.39276
      vertex 34 10.5 3.55
      vertex 34 10.5 3.39276
    endloop
  endfacet
  facet normal 0 0 1
    outer loop
      vertex 34 10.5 3.55
      vertex 34 -10.5 3.55
      vertex 47 -10.5 3.55
    endloop
  endfacet
  facet normal 0 0 1
    outer loop
      vertex 47 10.5 3.55
      vertex 34 10.5 3.55
      vertex 47 -10.5 3.55
    endloop
  endfacet
  facet normal 1 0 0
    outer loop
      vertex 47 -5 -2.65
      vertex 47 -10.5 -3.45
      vertex 47 10.5 -3.45
    endloop
  endfacet
  facet normal 1 0 0
    outer loop
      vertex 47 3.29661 -2.03002
      vertex 47 2.39026 -0.460168
      vertex 47 -2.70503 1.325
    endloop
  endfacet
  facet normal 1 0 0
    outer loop
      vertex 47 -10.5 3.55
      vertex 47 -10.5 -3.45
      vertex 47 -7.60974 -0.460168
    endloop
  endfacet
  facet normal 1 0 0
    outer loop
      vertex 47 -4.09365 2.49019
      vertex 47 -2.70503 1.325
      vertex 47 2.39026 -0.460168
    endloop
  endfacet
  facet normal 1 0 0
    outer loop
      vertex 47 -10.5 3.55
      vertex 47 -7.60974 -0.460168
      vertex 47 -7.29497 1.325
    endloop
  endfacet
  facet normal 1 0 0
    outer loop
      vertex 47 10.5 3.55
      vertex 47 -10.5 3.55
      vertex 47 -5.90635 2.49019
    endloop
  endfacet
  facet normal 1 0 0
    outer loop
      vertex 47 10.5 3.55
      vertex 47 -5.90635 2.49019
      vertex 47 -4.09365 2.49019
    endloop
  endfacet
  facet normal 1 0 0
    outer loop
      vertex 47 5 -2.65
      vertex 47 -3.29661 -2.03002
      vertex 47 10.5 -3.45
    endloop
  endfacet
  facet normal 1 0 0
    outer loop
      vertex 47 -3.29661 -2.03002
      vertex 47 -5 -2.65
      vertex 47 10.5 -3.45
    endloop
  endfacet
  facet normal 1 0 0
    outer loop
      vertex 47 3.29661 -2.03002
      vertex 47 -2.70503 1.325
      vertex 47 -2.39026 -0.460168
    endloop
  endfacet
  facet normal 1 0 0
    outer loop
      vertex 47 -7.60974 -0.460168
      vertex 47 -10.5 -3.45
      vertex 47 -6.70339 -2.03002
    endloop
  endfacet
  facet normal 1 0 0
    outer loop
      vertex 47 -2.39026 -0.460168
      vertex 47 5 -2.65
      vertex 47 3.29661 -2.03002
    endloop
  endfacet
  facet normal 1 0 0
    outer loop
      vertex 47 4.09365 2.49019
      vertex 47 -4.09365 2.49019
      vertex 47 2.70503 1.325
    endloop
  endfacet
  facet normal 1 0 0
    outer loop
      vertex 47 10.5 3.55
      vertex 47 -4.09365 2.49019
      vertex 47 4.09365 2.49019
    endloop
  endfacet
  facet normal 1 0 0
    outer loop
      vertex 47 7.60974 -0.460168
      vertex 47 6.70339 -2.03002
      vertex 47 10.5 -3.45
    endloop
  endfacet
  facet normal 1 0 0
    outer loop
      vertex 47 10.5 3.55
      vertex 47 4.09365 2.49019
      vertex 47 5.90635 2.49019
    endloop
  endfacet
  facet normal 1 0 0
    outer loop
      vertex 47 10.5 3.55
      vertex 47 7.29497 1.325
      vertex 47 10.5 -3.45
    endloop
  endfacet
  facet normal 1 0 0
    outer loop
      vertex 47 7.29497 1.325
      vertex 47 7.60974 -0.460168
      vertex 47 10.5 -3.45
    endloop
  endfacet
  facet normal 1 0 0
    outer loop
      vertex 47 5.90635 2.49019
      vertex 47 7.29497 1.325
      vertex 47 10.5 3.55
    endloop
  endfacet
  facet normal 1 0 0
    outer loop
      vertex 47 6.70339 -2.03002
      vertex 47 5 -2.65
      vertex 47 10.5 -3.45
    endloop
  endfacet
  facet normal 1 0 0
    outer loop
      vertex 47 -5 -2.65
      vertex 47 -6.70339 -2.03002
      vertex 47 -10.5 -3.45
    endloop
  endfacet
  facet normal 1 0 0
    outer loop
      vertex 47 2.39026 -0.460168
      vertex 47 2.70503 1.325
      vertex 47 -4.09365 2.49019
    endloop
  endfacet
  facet normal 1 0 0
    outer loop
      vertex 47 -7.29497 1.325
      vertex 47 -5.90635 2.49019
      vertex 47 -10.5 3.55
    endloop
  endfacet
  facet normal 1 0 0
    outer loop
      vertex 47 -2.39026 -0.460168
      vertex 47 -3.29661 -2.03002
      vertex 47 5 -2.65
    endloop
  endfacet
  facet normal 0 0 -1
    outer loop
      vertex 34.5104 -10.5 -3.45
      vertex 34.5104 10.5 -3.45
      vertex 47 -10.5 -3.45
    endloop
  endfacet
  facet normal 0 0 -1
    outer loop
      vertex 47 -10.5 -3.45
      vertex 34.5104 10.5 -3.45
      vertex 47 10.5 -3.45
    endloop
  endfacet
  facet normal 1 0 0
    outer loop
      vertex 34.5104 -10.5 -3.45
      vertex 34.5104 -10.5 -3.5
      vertex 34.5104 10.5 -3.5
    endloop
  endfacet
  facet normal 1 0 0
    outer loop
      vertex 34.5104 10.5 -3.45
      vertex 34.5104 -10.5 -3.45
      vertex 34.5104 10.5 -3.5
    endloop
  endfacet
  facet normal 0 1 0
    outer loop
      vertex -3.48955 10.5 -1
      vertex -6.35823 10.5 -2.33147e-15
      vertex -3.48955 10.5 -2.33147e-15
    endloop
  endfacet
  facet normal 0 1 0
    outer loop
      vertex -3.4981 10.5 3.46437
      vertex -15.4895 10.5 3.5
      vertex -3.48955 10.5 3.5
    endloop
  endfacet
  facet normal 0 1 0
    outer loop
      vertex -6.35823 10.5 0.986064
      vertex -15.4895 10.5 3.5
      vertex -5.29201 10.5 2.64512
    endloop
  endfacet
  facet normal 0 1 0
    outer loop
      vertex 34.5104 10.5 -3.45
      vertex 47 10.5 3.55
      vertex 47 10.5 -3.45
    endloop
  endfacet
  facet normal 0 1 0
    outer loop
      vertex -3.48955 10.5 3.46315
      vertex -3.4981 10.5 3.46437
      vertex -3.48955 10.5 3.5
    endloop
  endfacet
  facet normal 0 1 0
    outer loop
      vertex -15.4895 10.5 -3.5
      vertex -15.4895 10.5 3.5
      vertex -6.35823 10.5 0.986064
    endloop
  endfacet
  facet normal 0 1 0
    outer loop
      vertex -15.4895 10.5 -3.5
      vertex -6.35823 10.5 0.986064
      vertex -6.35823 10.5 -2.33147e-15
    endloop
  endfacet
  facet normal 0 1 0
    outer loop
      vertex 34 10.5 -1
      vertex 34.5104 10.5 -3.5
      vertex -3.48955 10.5 -1
    endloop
  endfacet
  facet normal 0 1 0
    outer loop
      vertex -15.4895 10.5 -3.5
      vertex -6.35823 10.5 -2.33147e-15
      vertex -3.48955 10.5 -1
    endloop
  endfacet
  facet normal 0 1 0
    outer loop
      vertex -15.4895 10.5 -3.5
      vertex -3.48955 10.5 -1
      vertex 34.5104 10.5 -3.5
    endloop
  endfacet
  facet normal 0 1 0
    outer loop
      vertex 34.5104 10.5 -3.45
      vertex 37.5 10.5 -2.33147e-15
      vertex 47 10.5 3.55
    endloop
  endfacet
  facet normal 0 1 0
    outer loop
      vertex 34.5104 10.5 -3.5
      vertex 34 10.5 -1
      vertex 34 10.5 -2.33147e-15
    endloop
  endfacet
  facet normal 0 1 0
    outer loop
      vertex 34.5104 10.5 -3.45
      vertex 34 10.5 -2.33147e-15
      vertex 37.5 10.5 -2.33147e-15
    endloop
  endfacet
  facet normal 0 1 0
    outer loop
      vertex 36.9444 10.5 1.89224
      vertex 47 10.5 3.55
      vertex 37.5 10.5 -2.33147e-15
    endloop
  endfacet
  facet normal 0 1 0
    outer loop
      vertex 35.454 10.5 3.18371
      vertex 34 10.5 3.39276
      vertex 34 10.5 3.55
    endloop
  endfacet
  facet normal 0 1 0
    outer loop
      vertex 35.454 10.5 3.18371
      vertex 34 10.5 3.55
      vertex 47 10.5 3.55
    endloop
  endfacet
  facet normal 0 1 0
    outer loop
      vertex 35.454 10.5 3.18371
      vertex 47 10.5 3.55
      vertex 36.9444 10.5 1.89224
    endloop
  endfacet
  facet normal 0 1 0
    outer loop
      vertex 34.5104 10.5 -3.5
      vertex 34 10.5 -2.33147e-15
      vertex 34.5104 10.5 -3.45
    endloop
  endfacet
  facet normal 0 1 0
    outer loop
      vertex -5.29201 10.5 2.64512
      vertex -15.4895 10.5 3.5
      vertex -3.4981 10.5 3.46437
    endloop
  endfacet
  facet normal -1 0 0
    outer loop
      vertex -15.4895 10.0962 3.5
      vertex -15.4895 10.5 3.5
      vertex -15.4895 10.0962 -3.5
    endloop
  endfacet
  facet normal -1 0 0
    outer loop
      vertex -15.4895 10.0962 -3.5
      vertex -15.4895 10.5 3.5
      vertex -15.4895 10.5 -3.5
    endloop
  endfacet
  facet normal -0.707107 -0.707107 -1.73191e-16
    outer loop
      vertex -15.4895 10.0962 -3.5
      vertex -9.98955 4.59615 -3.5
      vertex -9.98955 4.59615 3.5
    endloop
  endfacet
  facet normal -0.707107 -0.707107 -1.73191e-16
    outer loop
      vertex -15.4895 10.0962 3.5
      vertex -15.4895 10.0962 -3.5
      vertex -9.98955 4.59615 3.5
    endloop
  endfacet
  facet normal -1 6.01616e-49 -1.22465e-16
    outer loop
      vertex -9.98955 -2.60974 -0.460168
      vertex -9.98955 -4.59615 -3.5
      vertex -9.98955 -2.29497 1.325
    endloop
  endfacet
  facet normal -1 6.01616e-49 -1.22465e-16
    outer loop
      vertex -9.98955 2.60974 -0.460168
      vertex -9.98955 4.59615 3.5
      vertex -9.98955 4.59615 -3.5
    endloop
  endfacet
  facet normal -1 6.01616e-49 -1.22465e-16
    outer loop
      vertex -9.98955 -4.59615 3.5
      vertex -9.98955 4.59615 3.5
      vertex -9.98955 0.906353 2.49018
    endloop
  endfacet
  facet normal -1 6.01616e-49 -1.22465e-16
    outer loop
      vertex -9.98955 -4.59615 3.5
      vertex -9.98955 0.906353 2.49018
      vertex -9.98955 -0.906353 2.49018
    endloop
  endfacet
  facet normal -1 6.01616e-49 -1.22465e-16
    outer loop
      vertex -9.98955 -4.59615 3.5
      vertex -9.98955 -0.906353 2.49018
      vertex -9.98955 -2.29497 1.325
    endloop
  endfacet
  facet normal -1 6.01616e-49 -1.22465e-16
    outer loop
      vertex -9.98955 -4.59615 3.5
      vertex -9.98955 -2.29497 1.325
      vertex -9.98955 -4.59615 -3.5
    endloop
  endfacet
  facet normal -1 6.01616e-49 -1.22465e-16
    outer loop
      vertex -9.98955 -1.70339 -2.03002
      vertex -9.98955 -4.59615 -3.5
      vertex -9.98955 -2.60974 -0.460168
    endloop
  endfacet
  facet normal -1 6.01616e-49 -1.22465e-16
    outer loop
      vertex -9.98955 -4.59615 -3.5
      vertex -9.98955 -1.70339 -2.03002
      vertex -9.98955 0 -2.65
    endloop
  endfacet
  facet normal -1 6.01616e-49 -1.22465e-16
    outer loop
      vertex -9.98955 -4.59615 -3.5
      vertex -9.98955 0 -2.65
      vertex -9.98955 4.59615 -3.5
    endloop
  endfacet
  facet normal -1 6.01616e-49 -1.22465e-16
    outer loop
      vertex -9.98955 2.29497 1.325
      vertex -9.98955 4.59615 3.5
      vertex -9.98955 2.60974 -0.460168
    endloop
  endfacet
  facet normal -1 6.01616e-49 -1.22465e-16
    outer loop
      vertex -9.98955 1.70339 -2.03002
      vertex -9.98955 2.60974 -0.460168
      vertex -9.98955 4.59615 -3.5
    endloop
  endfacet
  facet normal -1 6.01616e-49 -1.22465e-16
    outer loop
      vertex -9.98955 0.906353 2.49018
      vertex -9.98955 4.59615 3.5
      vertex -9.98955 2.29497 1.325
    endloop
  endfacet
  facet normal -1 6.01616e-49 -1.22465e-16
    outer loop
      vertex -9.98955 1.70339 -2.03002
      vertex -9.98955 4.59615 -3.5
      vertex -9.98955 0 -2.65
    endloop
  endfacet
  facet normal 0.142315 2.19785e-16 0.989821
    outer loop
      vertex -1.54605 10.5 3.18371
      vertex -3.4981 10.5 3.46437
      vertex -3.48955 10.5 3.46315
    endloop
  endfacet
  facet normal 0.142315 2.19785e-16 0.989821
    outer loop
      vertex -3.48955 -10.5 3.46315
      vertex -1.54605 -10.5 3.18371
      vertex -3.48955 10.5 3.46315
    endloop
  endfacet
  facet normal 0.142315 2.19785e-16 0.989821
    outer loop
      vertex -1.54605 -10.5 3.18371
      vertex -1.54605 10.5 3.18371
      vertex -3.48955 10.5 3.46315
    endloop
  endfacet
  facet normal 0.654861 1.6781e-16 0.755749
    outer loop
      vertex -1.54605 10.5 3.18371
      vertex -1.54605 -10.5 3.18371
      vertex -0.055613 -10.5 1.89224
    endloop
  endfacet
  facet normal 0.654861 1.6781e-16 0.755749
    outer loop
      vertex -0.055613 10.5 1.89224
      vertex -1.54605 10.5 3.18371
      vertex -0.055613 -10.5 1.89224
    endloop
  endfacet
  facet normal 0.959493 6.25572e-17 0.281733
    outer loop
      vertex -0.055613 10.5 1.89224
      vertex -0.055613 -10.5 1.89224
      vertex 0.5 -10.5 2.33147e-15
    endloop
  endfacet
  facet normal 0.959493 6.25572e-17 0.281733
    outer loop
      vertex 0.5 10.5 -2.33147e-15
      vertex -0.055613 10.5 1.89224
      vertex 0.5 -10.5 2.33147e-15
    endloop
  endfacet
  facet normal 0 1 -2.22045e-16
    outer loop
      vertex -6.35823 10.5 -2.33147e-15
      vertex -6.35823 10.5 0.986064
      vertex -3.48955 10.5 -2.33147e-15
    endloop
  endfacet
  facet normal 0 1 -2.22045e-16
    outer loop
      vertex -3.48955 10.5 -2.33147e-15
      vertex -6.35823 10.5 0.986064
      vertex -5.29201 10.5 2.64512
    endloop
  endfacet
  facet normal 0 1 -2.22045e-16
    outer loop
      vertex -3.48955 10.5 -2.33147e-15
      vertex -5.29201 10.5 2.64512
      vertex -3.4981 10.5 3.46437
    endloop
  endfacet
  facet normal 0 1 -2.22045e-16
    outer loop
      vertex -3.48955 10.5 -2.33147e-15
      vertex -3.4981 10.5 3.46437
      vertex -1.54605 10.5 3.18371
    endloop
  endfacet
  facet normal 0 1 -2.22045e-16
    outer loop
      vertex -3.48955 10.5 -2.33147e-15
      vertex -1.54605 10.5 3.18371
      vertex -0.055613 10.5 1.89224
    endloop
  endfacet
  facet normal 0 1 -2.22045e-16
    outer loop
      vertex -3.48955 10.5 -2.33147e-15
      vertex -0.055613 10.5 1.89224
      vertex 0.5 10.5 -2.33147e-15
    endloop
  endfacet
  facet normal 0 1 -2.22045e-16
    outer loop
      vertex -3.48955 10.5 -2.33147e-15
      vertex 0.5 10.5 -2.33147e-15
      vertex 0.206373 10.5 -1
    endloop
  endfacet
  facet normal 0 1 -2.22045e-16
    outer loop
      vertex -3.48955 10.5 -2.33147e-15
      vertex 0.206373 10.5 -1
      vertex -3.48955 10.5 -1
    endloop
  endfacet
  facet normal 0 1 -2.22045e-16
    outer loop
      vertex 30.6418 10.5 -0.986064
      vertex 30.6418 10.5 0.986064
      vertex 30.6507 10.5 -1
    endloop
  endfacet
  facet normal 0 1 -2.22045e-16
    outer loop
      vertex 30.6507 10.5 -1
      vertex 30.6418 10.5 0.986064
      vertex 31.708 10.5 2.64512
    endloop
  endfacet
  facet normal 0 1 -2.22045e-16
    outer loop
      vertex 30.6507 10.5 -1
      vertex 31.708 10.5 2.64512
      vertex 33.5019 10.5 3.46437
    endloop
  endfacet
  facet normal 0 1 -2.22045e-16
    outer loop
      vertex 30.6507 10.5 -1
      vertex 33.5019 10.5 3.46437
      vertex 35.454 10.5 3.18371
    endloop
  endfacet
  facet normal 0 1 -2.22045e-16
    outer loop
      vertex 30.6507 10.5 -1
      vertex 35.454 10.5 3.18371
      vertex 36.9444 10.5 1.89224
    endloop
  endfacet
  facet normal 0 1 -2.22045e-16
    outer loop
      vertex 34 10.5 -2.33147e-15
      vertex 36.9444 10.5 1.89224
      vertex 37.5 10.5 -2.33147e-15
    endloop
  endfacet
  facet normal 0 1 -2.22045e-16
    outer loop
      vertex 30.6507 10.5 -1
      vertex 36.9444 10.5 1.89224
      vertex 34 10.5 -2.33147e-15
    endloop
  endfacet
  facet normal 0 1 -2.22045e-16
    outer loop
      vertex 34 10.5 -1
      vertex 30.6507 10.5 -1
      vertex 34 10.5 -2.33147e-15
    endloop
  endfacet
  facet normal -0.374607 0.927184 0
    outer loop
      vertex 8.00629 7.28494 -1
      vertex 8.00629 7.28494 1
      vertex 9.86066 8.03415 -1
    endloop
  endfacet
  facet normal -0.374607 0.927184 0
    outer loop
      vertex 9.86066 8.03415 -1
      vertex 8.00629 7.28494 1
      vertex 9.86066 8.03415 1
    endloop
  endfacet
  facet normal 0.927184 0.374607 0
    outer loop
      vertex 11.4906 4 -1
      vertex 9.86066 8.03415 -1
      vertex 9.86066 8.03415 1
    endloop
  endfacet
  facet normal 0.927184 0.374607 0
    outer loop
      vertex 11.4906 4 1
      vertex 11.4906 4 -1
      vertex 9.86066 8.03415 1
    endloop
  endfacet
  facet normal -0.927184 -0.374607 0
    outer loop
      vertex 8.00629 7.28494 -1
      vertex 14 -7.55 -1
      vertex 8.00629 7.28494 1
    endloop
  endfacet
  facet normal -0.927184 -0.374607 0
    outer loop
      vertex 8.00629 7.28494 1
      vertex 14 -7.55 -1
      vertex 14 -7.55 1
    endloop
  endfacet
  facet normal 0.374607 -0.927184 0
    outer loop
      vertex 14.9052 -7.18426 -1
      vertex 14 -7.55 -1
      vertex 15.8544 -6.80079 -1
    endloop
  endfacet
  facet normal 0.374607 -0.927184 0
    outer loop
      vertex 14.9052 -7.18426 -1
      vertex 14.9052 -7.18426 1
      vertex 14 -7.55 1
    endloop
  endfacet
  facet normal 0.374607 -0.927184 0
    outer loop
      vertex 14 -7.55 1
      vertex 14 -7.55 -1
      vertex 14.9052 -7.18426 -1
    endloop
  endfacet
  facet normal 0.927184 0.374607 0
    outer loop
      vertex 14.9499 -4.56216 -1
      vertex 12.2986 2 -1
      vertex 12.2986 2 1
    endloop
  endfacet
  facet normal 0.927184 0.374607 0
    outer loop
      vertex 15.8544 -6.80079 -1
      vertex 12.2986 2 -1
      vertex 14.9499 -4.56216 -1
    endloop
  endfacet
  facet normal 0.927184 0.374607 0
    outer loop
      vertex 14.9499 -4.56216 1
      vertex 14.9499 -4.56216 -1
      vertex 12.2986 2 1
    endloop
  endfacet
  facet normal 0 -1 0
    outer loop
      vertex 17.7354 2 -1
      vertex 12.2986 2 -1
      vertex 19.2 2 -1
    endloop
  endfacet
  facet normal 0 -1 0
    outer loop
      vertex 17.7354 2 -1
      vertex 17.7354 2 1
      vertex 12.2986 2 1
    endloop
  endfacet
  facet normal 0 -1 0
    outer loop
      vertex 12.2986 2 1
      vertex 12.2986 2 -1
      vertex 17.7354 2 -1
    endloop
  endfacet
  facet normal 0 1 0
    outer loop
      vertex 11.4906 4 -1
      vertex 11.4906 4 1
      vertex 18.5843 4 -1
    endloop
  endfacet
  facet normal 0 1 0
    outer loop
      vertex 11.4906 4 -1
      vertex 18.5843 4 -1
      vertex 19.2 4 -1
    endloop
  endfacet
  facet normal 0 1 0
    outer loop
      vertex 18.5843 4 -1
      vertex 11.4906 4 1
      vertex 18.5843 4 1
    endloop
  endfacet
  facet normal -1 0 0
    outer loop
      vertex 30.6418 -10.5 -0.986064
      vertex 30.6418 -10.5 0.986064
      vertex 30.6418 10.5 -0.986064
    endloop
  endfacet
  facet normal -1 0 0
    outer loop
      vertex 30.6418 10.5 -0.986064
      vertex 30.6418 -10.5 0.986064
      vertex 30.6418 10.5 0.986064
    endloop
  endfacet
  facet normal -0.841254 1.20046e-16 0.54064
    outer loop
      vertex 30.6418 -10.5 0.986064
      vertex 31.708 -10.5 2.64512
      vertex 30.6418 10.5 0.986064
    endloop
  endfacet
  facet normal -0.841254 1.20046e-16 0.54064
    outer loop
      vertex 30.6418 10.5 0.986064
      vertex 31.708 -10.5 2.64512
      vertex 31.708 10.5 2.64512
    endloop
  endfacet
  facet normal -0.415415 2.01979e-16 0.909632
    outer loop
      vertex 31.708 10.5 2.64512
      vertex 31.708 -10.5 2.64512
      vertex 33.5019 -10.5 3.46438
    endloop
  endfacet
  facet normal -0.415415 2.01979e-16 0.909632
    outer loop
      vertex 33.5019 10.5 3.46437
      vertex 31.708 10.5 2.64512
      vertex 33.5019 -10.5 3.46438
    endloop
  endfacet
  facet normal 0.142315 2.19785e-16 0.989821
    outer loop
      vertex 33.5019 10.5 3.46437
      vertex 33.5019 -10.5 3.46438
      vertex 34 -10.5 3.39276
    endloop
  endfacet
  facet normal 0.142315 2.19785e-16 0.989821
    outer loop
      vertex 35.454 10.5 3.18371
      vertex 33.5019 10.5 3.46437
      vertex 34 10.5 3.39276
    endloop
  endfacet
  facet normal 0.142315 2.19785e-16 0.989821
    outer loop
      vertex 34 10.5 3.39276
      vertex 33.5019 10.5 3.46437
      vertex 34 -10.5 3.39276
    endloop
  endfacet
  facet normal 3.85577e-17 0.984808 -0.173649
    outer loop
      vertex 47 -7.60974 -0.460168
      vertex 45 -7.60974 -0.460168
      vertex 47 -7.29497 1.325
    endloop
  endfacet
  facet normal 3.85577e-17 0.984808 -0.173649
    outer loop
      vertex 47 -7.29497 1.325
      vertex 45 -7.60974 -0.460168
      vertex 45 -7.29497 1.325
    endloop
  endfacet
  facet normal -1.11022e-16 0.866025 0.5
    outer loop
      vertex 47 -6.70339 -2.03002
      vertex 45 -6.70339 -2.03002
      vertex 47 -7.60974 -0.460168
    endloop
  endfacet
  facet normal -1.11022e-16 0.866025 0.5
    outer loop
      vertex 47 -7.60974 -0.460168
      vertex 45 -6.70339 -2.03002
      vertex 45 -7.60974 -0.460168
    endloop
  endfacet
  facet normal -2.08654e-16 0.34202 0.939693
    outer loop
      vertex 47 -6.70339 -2.03002
      vertex 47 -5 -2.65
      vertex 45 -5 -2.65
    endloop
  endfacet
  facet normal -2.08654e-16 0.34202 0.939693
    outer loop
      vertex 45 -6.70339 -2.03002
      vertex 47 -6.70339 -2.03002
      vertex 45 -5 -2.65
    endloop
  endfacet
  facet normal -2.08654e-16 -0.34202 0.939693
    outer loop
      vertex 45 -5 -2.65
      vertex 47 -5 -2.65
      vertex 47 -3.29661 -2.03002
    endloop
  endfacet
  facet normal -2.08654e-16 -0.34202 0.939693
    outer loop
      vertex 45 -3.29661 -2.03002
      vertex 45 -5 -2.65
      vertex 47 -3.29661 -2.03002
    endloop
  endfacet
  facet normal -1.11022e-16 -0.866025 0.5
    outer loop
      vertex 45 -3.29661 -2.03002
      vertex 47 -3.29661 -2.03002
      vertex 47 -2.39026 -0.460168
    endloop
  endfacet
  facet normal -1.11022e-16 -0.866025 0.5
    outer loop
      vertex 45 -2.39026 -0.460168
      vertex 45 -3.29661 -2.03002
      vertex 47 -2.39026 -0.460168
    endloop
  endfacet
  facet normal 3.85577e-17 -0.984808 -0.173649
    outer loop
      vertex 45 -2.39026 -0.460168
      vertex 47 -2.39026 -0.460168
      vertex 47 -2.70503 1.325
    endloop
  endfacet
  facet normal 3.85577e-17 -0.984808 -0.173649
    outer loop
      vertex 45 -2.70503 1.325
      vertex 45 -2.39026 -0.460168
      vertex 47 -2.70503 1.325
    endloop
  endfacet
  facet normal 1.70096e-16 -0.642787 -0.766045
    outer loop
      vertex 47 -2.70503 1.325
      vertex 47 -4.09365 2.49019
      vertex 45 -2.70503 1.325
    endloop
  endfacet
  facet normal 1.70096e-16 -0.642787 -0.766045
    outer loop
      vertex 45 -2.70503 1.325
      vertex 47 -4.09365 2.49019
      vertex 45 -4.09365 2.49019
    endloop
  endfacet
  facet normal 2.22045e-16 0 -1
    outer loop
      vertex 47 -4.09365 2.49019
      vertex 47 -5.90635 2.49019
      vertex 45 -4.09365 2.49019
    endloop
  endfacet
  facet normal 2.22045e-16 0 -1
    outer loop
      vertex 45 -4.09365 2.49019
      vertex 47 -5.90635 2.49019
      vertex 45 -5.90635 2.49019
    endloop
  endfacet
  facet normal 1.70096e-16 0.642787 -0.766045
    outer loop
      vertex 47 -7.29497 1.325
      vertex 45 -7.29497 1.325
      vertex 47 -5.90635 2.49019
    endloop
  endfacet
  facet normal 1.70096e-16 0.642787 -0.766045
    outer loop
      vertex 47 -5.90635 2.49019
      vertex 45 -7.29497 1.325
      vertex 45 -5.90635 2.49019
    endloop
  endfacet
  facet normal 3.85577e-17 0.984808 -0.173649
    outer loop
      vertex 47 2.39026 -0.460168
      vertex 45 2.39026 -0.460168
      vertex 47 2.70503 1.325
    endloop
  endfacet
  facet normal 3.85577e-17 0.984808 -0.173649
    outer loop
      vertex 47 2.70503 1.325
      vertex 45 2.39026 -0.460168
      vertex 45 2.70503 1.325
    endloop
  endfacet
  facet normal -1.11022e-16 0.866025 0.5
    outer loop
      vertex 47 3.29661 -2.03002
      vertex 45 3.29661 -2.03002
      vertex 47 2.39026 -0.460168
    endloop
  endfacet
  facet normal -1.11022e-16 0.866025 0.5
    outer loop
      vertex 47 2.39026 -0.460168
      vertex 45 3.29661 -2.03002
      vertex 45 2.39026 -0.460168
    endloop
  endfacet
  facet normal -2.08654e-16 0.34202 0.939693
    outer loop
      vertex 47 3.29661 -2.03002
      vertex 47 5 -2.65
      vertex 45 5 -2.65
    endloop
  endfacet
  facet normal -2.08654e-16 0.34202 0.939693
    outer loop
      vertex 45 3.29661 -2.03002
      vertex 47 3.29661 -2.03002
      vertex 45 5 -2.65
    endloop
  endfacet
  facet normal -2.08654e-16 -0.34202 0.939693
    outer loop
      vertex 45 5 -2.65
      vertex 47 5 -2.65
      vertex 47 6.70339 -2.03002
    endloop
  endfacet
  facet normal -2.08654e-16 -0.34202 0.939693
    outer loop
      vertex 45 6.70339 -2.03002
      vertex 45 5 -2.65
      vertex 47 6.70339 -2.03002
    endloop
  endfacet
  facet normal -1.11022e-16 -0.866025 0.5
    outer loop
      vertex 45 6.70339 -2.03002
      vertex 47 6.70339 -2.03002
      vertex 47 7.60974 -0.460168
    endloop
  endfacet
  facet normal -1.11022e-16 -0.866025 0.5
    outer loop
      vertex 45 7.60974 -0.460168
      vertex 45 6.70339 -2.03002
      vertex 47 7.60974 -0.460168
    endloop
  endfacet
  facet normal 3.85577e-17 -0.984808 -0.173649
    outer loop
      vertex 45 7.60974 -0.460168
      vertex 47 7.60974 -0.460168
      vertex 47 7.29497 1.325
    endloop
  endfacet
  facet normal 3.85577e-17 -0.984808 -0.173649
    outer loop
      vertex 45 7.29497 1.325
      vertex 45 7.60974 -0.460168
      vertex 47 7.29497 1.325
    endloop
  endfacet
  facet normal 1.70096e-16 -0.642787 -0.766045
    outer loop
      vertex 47 7.29497 1.325
      vertex 47 5.90635 2.49019
      vertex 45 7.29497 1.325
    endloop
  endfacet
  facet normal 1.70096e-16 -0.642787 -0.766045
    outer loop
      vertex 45 7.29497 1.325
      vertex 47 5.90635 2.49019
      vertex 45 5.90635 2.49019
    endloop
  endfacet
  facet normal 2.22045e-16 0 -1
    outer loop
      vertex 47 5.90635 2.49019
      vertex 47 4.09365 2.49019
      vertex 45 5.90635 2.49019
    endloop
  endfacet
  facet normal 2.22045e-16 0 -1
    outer loop
      vertex 45 5.90635 2.49019
      vertex 47 4.09365 2.49019
      vertex 45 4.09365 2.49019
    endloop
  endfacet
  facet normal 1.70096e-16 0.642787 -0.766045
    outer loop
      vertex 47 2.70503 1.325
      vertex 45 2.70503 1.325
      vertex 47 4.09365 2.49019
    endloop
  endfacet
  facet normal 1.70096e-16 0.642787 -0.766045
    outer loop
      vertex 47 4.09365 2.49019
      vertex 45 2.70503 1.325
      vertex 45 4.09365 2.49019
    endloop
  endfacet
  facet normal 1.70096e-16 -0.642787 -0.766045
    outer loop
      vertex -7.48955 2.29497 1.325
      vertex -7.48955 0.906353 2.49018
      vertex -9.98955 2.29497 1.325
    endloop
  endfacet
  facet normal 1.70096e-16 -0.642787 -0.766045
    outer loop
      vertex -9.98955 2.29497 1.325
      vertex -7.48955 0.906353 2.49018
      vertex -9.98955 0.906353 2.49018
    endloop
  endfacet
  facet normal 2.22045e-16 0 -1
    outer loop
      vertex -7.48955 0.906353 2.49018
      vertex -7.48955 -0.906353 2.49018
      vertex -9.98955 0.906353 2.49018
    endloop
  endfacet
  facet normal 2.22045e-16 0 -1
    outer loop
      vertex -9.98955 0.906353 2.49018
      vertex -7.48955 -0.906353 2.49018
      vertex -9.98955 -0.906353 2.49018
    endloop
  endfacet
  facet normal 3.85577e-17 -0.984808 -0.173649
    outer loop
      vertex -9.98955 2.60974 -0.460168
      vertex -7.48955 2.60974 -0.460168
      vertex -7.48955 2.29497 1.325
    endloop
  endfacet
  facet normal 3.85577e-17 -0.984808 -0.173649
    outer loop
      vertex -9.98955 2.29497 1.325
      vertex -9.98955 2.60974 -0.460168
      vertex -7.48955 2.29497 1.325
    endloop
  endfacet
  facet normal -1.11022e-16 -0.866025 0.5
    outer loop
      vertex -9.98955 1.70339 -2.03002
      vertex -7.48955 1.70339 -2.03002
      vertex -7.48955 2.60974 -0.460168
    endloop
  endfacet
  facet normal -1.11022e-16 -0.866025 0.5
    outer loop
      vertex -9.98955 2.60974 -0.460168
      vertex -9.98955 1.70339 -2.03002
      vertex -7.48955 2.60974 -0.460168
    endloop
  endfacet
  facet normal -2.08654e-16 -0.34202 0.939693
    outer loop
      vertex -9.98955 0 -2.65
      vertex -7.48955 0 -2.65
      vertex -7.48955 1.70339 -2.03002
    endloop
  endfacet
  facet normal -2.08654e-16 -0.34202 0.939693
    outer loop
      vertex -9.98955 1.70339 -2.03002
      vertex -9.98955 0 -2.65
      vertex -7.48955 1.70339 -2.03002
    endloop
  endfacet
  facet normal -2.08654e-16 0.34202 0.939693
    outer loop
      vertex -7.48955 -1.70339 -2.03002
      vertex -7.48955 0 -2.65
      vertex -9.98955 0 -2.65
    endloop
  endfacet
  facet normal -2.08654e-16 0.34202 0.939693
    outer loop
      vertex -9.98955 -1.70339 -2.03002
      vertex -7.48955 -1.70339 -2.03002
      vertex -9.98955 0 -2.65
    endloop
  endfacet
  facet normal -1.11022e-16 0.866025 0.5
    outer loop
      vertex -7.48955 -1.70339 -2.03002
      vertex -9.98955 -1.70339 -2.03002
      vertex -7.48955 -2.60974 -0.460168
    endloop
  endfacet
  facet normal -1.11022e-16 0.866025 0.5
    outer loop
      vertex -7.48955 -2.60974 -0.460168
      vertex -9.98955 -1.70339 -2.03002
      vertex -9.98955 -2.60974 -0.460168
    endloop
  endfacet
  facet normal 3.85577e-17 0.984808 -0.173649
    outer loop
      vertex -7.48955 -2.60974 -0.460168
      vertex -9.98955 -2.60974 -0.460168
      vertex -7.48955 -2.29497 1.325
    endloop
  endfacet
  facet normal 3.85577e-17 0.984808 -0.173649
    outer loop
      vertex -7.48955 -2.29497 1.325
      vertex -9.98955 -2.60974 -0.460168
      vertex -9.98955 -2.29497 1.325
    endloop
  endfacet
  facet normal 1.70096e-16 0.642787 -0.766045
    outer loop
      vertex -7.48955 -2.29497 1.325
      vertex -9.98955 -2.29497 1.325
      vertex -7.48955 -0.906353 2.49018
    endloop
  endfacet
  facet normal 1.70096e-16 0.642787 -0.766045
    outer loop
      vertex -7.48955 -0.906353 2.49018
      vertex -9.98955 -2.29497 1.325
      vertex -9.98955 -0.906353 2.49018
    endloop
  endfacet
  facet normal 0 0 1
    outer loop
      vertex 9.86066 8.03415 1
      vertex 8.00629 7.28494 1
      vertex 14 -7.55 1
    endloop
  endfacet
  facet normal 0 0 1
    outer loop
      vertex 18.5843 4 1
      vertex 11.4906 4 1
      vertex 17.7354 2 1
    endloop
  endfacet
  facet normal 0 0 1
    outer loop
      vertex 14 -6.8 1
      vertex 9.86066 8.03415 1
      vertex 14 -7.55 1
    endloop
  endfacet
  facet normal 0 0 1
    outer loop
      vertex 14.9052 -7.18426 1
      vertex 14 -6.8 1
      vertex 14 -7.55 1
    endloop
  endfacet
  facet normal 0 0 1
    outer loop
      vertex 17.7354 2 1
      vertex 11.4906 4 1
      vertex 12.2986 2 1
    endloop
  endfacet
  facet normal 0 0 1
    outer loop
      vertex 14 -6.8 1
      vertex 11.4906 4 1
      vertex 9.86066 8.03415 1
    endloop
  endfacet
  facet normal 0 0 1
    outer loop
      vertex 14 -6.8 1
      vertex 12.2986 2 1
      vertex 11.4906 4 1
    endloop
  endfacet
  facet normal 0 0 1
    outer loop
      vertex 14 -6.8 1
      vertex 14.9499 -4.56216 1
      vertex 12.2986 2 1
    endloop
  endfacet
  facet normal -0.390731 -0.920505 -1.45576e-16
    outer loop
      vertex 15.841 -7.58146 1
      vertex 14 -6.8 1
      vertex 14.9052 -7.18426 1
    endloop
  endfacet
  facet normal -0.390731 -0.920505 -1.45576e-16
    outer loop
      vertex 14.9052 -7.18426 -1
      vertex 15.841 -7.58146 1
      vertex 14.9052 -7.18426 1
    endloop
  endfacet
  facet normal -0.390731 -0.920505 -1.45576e-16
    outer loop
      vertex 14.9052 -7.18426 -1
      vertex 15.841 -7.58146 -1
      vertex 15.841 -7.58146 1
    endloop
  endfacet
  facet normal 1.67266e-16 1.09915e-16 -1
    outer loop
      vertex 14.9052 -7.18426 -1
      vertex 15.8544 -6.80079 -1
      vertex 15.841 -7.58146 -1
    endloop
  endfacet
  facet normal 1.67266e-16 1.09915e-16 -1
    outer loop
      vertex 17.7354 2 -1
      vertex 15.8544 -6.80079 -1
      vertex 14.9499 -4.56216 -1
    endloop
  endfacet
  facet normal 1.67266e-16 1.09915e-16 -1
    outer loop
      vertex 15.841 -7.58146 -1
      vertex 15.8544 -6.80079 -1
      vertex 17.7354 2 -1
    endloop
  endfacet
  facet normal 1.67266e-16 1.09915e-16 -1
    outer loop
      vertex 15.841 -7.58146 -1
      vertex 17.7354 2 -1
      vertex 19.2 2 -1
    endloop
  endfacet
  facet normal 1.67266e-16 1.09915e-16 -1
    outer loop
      vertex 19.2 4 -1
      vertex 18.5843 4 -1
      vertex 20.2517 7.92808 -1
    endloop
  endfacet
  facet normal 1.67266e-16 1.09915e-16 -1
    outer loop
      vertex 19.2 4 -1
      vertex 20.2517 7.92808 -1
      vertex 19.2 2 -1
    endloop
  endfacet
  facet normal 1.67266e-16 1.09915e-16 -1
    outer loop
      vertex 19.2 2 -1
      vertex 20.2517 7.92808 -1
      vertex 22.0927 7.14662 -1
    endloop
  endfacet
  facet normal 1.67266e-16 1.09915e-16 -1
    outer loop
      vertex 19.2 2 -1
      vertex 22.0927 7.14662 -1
      vertex 15.841 -7.58146 -1
    endloop
  endfacet
  facet normal -0.920505 0.390731 -5.88167e-17
    outer loop
      vertex 14 -6.8 1
      vertex 20.2517 7.92808 1
      vertex 14.9499 -4.56216 1
    endloop
  endfacet
  facet normal -0.920505 0.390731 -5.88167e-17
    outer loop
      vertex 18.5843 4 1
      vertex 20.2517 7.92808 -1
      vertex 18.5843 4 -1
    endloop
  endfacet
  facet normal -0.920505 0.390731 -5.88167e-17
    outer loop
      vertex 18.5843 4 1
      vertex 20.2517 7.92808 1
      vertex 20.2517 7.92808 -1
    endloop
  endfacet
  facet normal -0.920505 0.390731 -5.88167e-17
    outer loop
      vertex 14.9499 -4.56216 1
      vertex 20.2517 7.92808 1
      vertex 17.7354 2 1
    endloop
  endfacet
  facet normal -0.920505 0.390731 -5.88167e-17
    outer loop
      vertex 17.7354 2 -1
      vertex 14.9499 -4.56216 1
      vertex 17.7354 2 1
    endloop
  endfacet
  facet normal -0.920505 0.390731 -5.88167e-17
    outer loop
      vertex 20.2517 7.92808 1
      vertex 18.5843 4 1
      vertex 17.7354 2 1
    endloop
  endfacet
  facet normal -0.920505 0.390731 -5.88167e-17
    outer loop
      vertex 14.9499 -4.56216 1
      vertex 17.7354 2 -1
      vertex 14.9499 -4.56216 -1
    endloop
  endfacet
  facet normal 1 0 2.22045e-16
    outer loop
      vertex 45 -7.29497 1.325
      vertex 45 -7.60974 -0.460168
      vertex 45 -6.70339 -2.03002
    endloop
  endfacet
  facet normal 1 0 2.22045e-16
    outer loop
      vertex 45 -3.29661 -2.03002
      vertex 45 -7.29497 1.325
      vertex 45 -5 -2.65
    endloop
  endfacet
  facet normal 1 0 2.22045e-16
    outer loop
      vertex 45 -5 -2.65
      vertex 45 -7.29497 1.325
      vertex 45 -6.70339 -2.03002
    endloop
  endfacet
  facet normal 1 0 2.22045e-16
    outer loop
      vertex 45 -2.39026 -0.460168
      vertex 45 -7.29497 1.325
      vertex 45 -3.29661 -2.03002
    endloop
  endfacet
  facet normal 1 0 2.22045e-16
    outer loop
      vertex 45 -2.70503 1.325
      vertex 45 -7.29497 1.325
      vertex 45 -2.39026 -0.460168
    endloop
  endfacet
  facet normal 1 0 2.22045e-16
    outer loop
      vertex 45 -4.09365 2.49019
      vertex 45 -7.29497 1.325
      vertex 45 -2.70503 1.325
    endloop
  endfacet
  facet normal 1 0 2.22045e-16
    outer loop
      vertex 45 -5.90635 2.49019
      vertex 45 -7.29497 1.325
      vertex 45 -4.09365 2.49019
    endloop
  endfacet
  facet normal 1 0 2.22045e-16
    outer loop
      vertex 45 2.70503 1.325
      vertex 45 2.39026 -0.460168
      vertex 45 3.29661 -2.03002
    endloop
  endfacet
  facet normal 1 0 2.22045e-16
    outer loop
      vertex 45 6.70339 -2.03002
      vertex 45 2.70503 1.325
      vertex 45 5 -2.65
    endloop
  endfacet
  facet normal 1 0 2.22045e-16
    outer loop
      vertex 45 5 -2.65
      vertex 45 2.70503 1.325
      vertex 45 3.29661 -2.03002
    endloop
  endfacet
  facet normal 1 0 2.22045e-16
    outer loop
      vertex 45 7.60974 -0.460168
      vertex 45 2.70503 1.325
      vertex 45 6.70339 -2.03002
    endloop
  endfacet
  facet normal 1 0 2.22045e-16
    outer loop
      vertex 45 7.29497 1.325
      vertex 45 2.70503 1.325
      vertex 45 7.60974 -0.460168
    endloop
  endfacet
  facet normal 1 0 2.22045e-16
    outer loop
      vertex 45 5.90635 2.49019
      vertex 45 2.70503 1.325
      vertex 45 7.29497 1.325
    endloop
  endfacet
  facet normal 1 0 2.22045e-16
    outer loop
      vertex 45 4.09365 2.49019
      vertex 45 2.70503 1.325
      vertex 45 5.90635 2.49019
    endloop
  endfacet
  facet normal -1 0 -2.22045e-16
    outer loop
      vertex -7.48955 2.29497 1.325
      vertex -7.48955 2.60974 -0.460168
      vertex -7.48955 0.906353 2.49018
    endloop
  endfacet
  facet normal -1 0 -2.22045e-16
    outer loop
      vertex -7.48955 0.906353 2.49018
      vertex -7.48955 2.60974 -0.460168
      vertex -7.48955 1.70339 -2.03002
    endloop
  endfacet
  facet normal -1 0 -2.22045e-16
    outer loop
      vertex -7.48955 0.906353 2.49018
      vertex -7.48955 1.70339 -2.03002
      vertex -7.48955 0 -2.65
    endloop
  endfacet
  facet normal -1 0 -2.22045e-16
    outer loop
      vertex -7.48955 0.906353 2.49018
      vertex -7.48955 0 -2.65
      vertex -7.48955 -1.70339 -2.03002
    endloop
  endfacet
  facet normal -1 0 -2.22045e-16
    outer loop
      vertex -7.48955 0.906353 2.49018
      vertex -7.48955 -1.70339 -2.03002
      vertex -7.48955 -2.60974 -0.460168
    endloop
  endfacet
  facet normal -1 0 -2.22045e-16
    outer loop
      vertex -7.48955 0.906353 2.49018
      vertex -7.48955 -2.60974 -0.460168
      vertex -7.48955 -2.29497 1.325
    endloop
  endfacet
  facet normal -1 0 -2.22045e-16
    outer loop
      vertex -7.48955 0.906353 2.49018
      vertex -7.48955 -2.29497 1.325
      vertex -7.48955 -0.906353 2.49018
    endloop
  endfacet
  facet normal -1.67266e-16 -1.09915e-16 1
    outer loop
      vertex 20.2517 7.92808 1
      vertex 14 -6.8 1
      vertex 15.841 -7.58146 1
    endloop
  endfacet
  facet normal -1.67266e-16 -1.09915e-16 1
    outer loop
      vertex 22.0927 7.14662 1
      vertex 20.2517 7.92808 1
      vertex 15.841 -7.58146 1
    endloop
  endfacet
  facet normal 0.920505 -0.390731 5.88167e-17
    outer loop
      vertex 22.0927 7.14662 1
      vertex 15.841 -7.58146 1
      vertex 15.841 -7.58146 -1
    endloop
  endfacet
  facet normal 0.920505 -0.390731 5.88167e-17
    outer loop
      vertex 22.0927 7.14662 -1
      vertex 22.0927 7.14662 1
      vertex 15.841 -7.58146 -1
    endloop
  endfacet
  facet normal 0.390731 0.920505 1.45576e-16
    outer loop
      vertex 20.2517 7.92808 1
      vertex 22.0927 7.14662 1
      vertex 20.2517 7.92808 -1
    endloop
  endfacet
  facet normal 0.390731 0.920505 1.45576e-16
    outer loop
      vertex 20.2517 7.92808 -1
      vertex 22.0927 7.14662 1
      vertex 22.0927 7.14662 -1
    endloop
  endfacet
endsolid OpenSCAD_Model
