solid OpenSCAD_Model
  facet normal -1 0 0
    outer loop
      vertex -26 -9.5 -3.5
      vertex -26 -9.5 3.5
      vertex -26 -9.44638 -3.5
    endloop
  endfacet
  facet normal -1 0 0
    outer loop
      vertex -26 -9.44638 -3.5
      vertex -26 -9.5 3.5
      vertex -26 -9.44638 3.5
    endloop
  endfacet
  facet normal 0 -1 0
    outer loop
      vertex 25.4919 -9.5 -3.46437
      vertex -26 -9.5 -3.5
      vertex 26 -9.5 -3.5
    endloop
  endfacet
  facet normal 0 -1 0
    outer loop
      vertex 22.6318 -9.5 -0.986064
      vertex -7 -9.5 0
      vertex 23.698 -9.5 -2.64512
    endloop
  endfacet
  facet normal 0 -1 0
    outer loop
      vertex -10.9981 -9.5 -3.46437
      vertex -12.792 -9.5 -2.64512
      vertex -26 -9.5 -3.5
    endloop
  endfacet
  facet normal 0 -1 0
    outer loop
      vertex 27.444 -9.5 -3.18371
      vertex 25.4919 -9.5 -3.46437
      vertex 26 -9.5 -3.45
    endloop
  endfacet
  facet normal 0 -1 0
    outer loop
      vertex 28.9344 -9.5 -1.89224
      vertex 27.444 -9.5 -3.18371
      vertex 39.6 -9.5 -3.45
    endloop
  endfacet
  facet normal 0 -1 0
    outer loop
      vertex 39.6 -9.5 3.55
      vertex 29.49 -9.5 2.10942e-15
      vertex 39.6 -9.5 -3.45
    endloop
  endfacet
  facet normal 0 -1 0
    outer loop
      vertex 39.6 -9.5 3.55
      vertex 25.8 -9.5 2.10942e-15
      vertex 29.49 -9.5 2.10942e-15
    endloop
  endfacet
  facet normal 0 -1 0
    outer loop
      vertex 23.698 -9.5 -2.64512
      vertex -7 -9.5 0
      vertex 25.4919 -9.5 -3.46437
    endloop
  endfacet
  facet normal 0 -1 0
    outer loop
      vertex 39.6 -9.5 -3.45
      vertex 27.444 -9.5 -3.18371
      vertex 26 -9.5 -3.45
    endloop
  endfacet
  facet normal 0 -1 0
    outer loop
      vertex -10.9981 -9.5 -3.46437
      vertex -26 -9.5 -3.5
      vertex 25.4919 -9.5 -3.46437
    endloop
  endfacet
  facet normal 0 -1 0
    outer loop
      vertex -12.792 -9.5 -2.64512
      vertex -13.8582 -9.5 -0.986064
      vertex -26 -9.5 -3.5
    endloop
  endfacet
  facet normal 0 -1 0
    outer loop
      vertex 26 -9.5 -3.45
      vertex 25.4919 -9.5 -3.46437
      vertex 26 -9.5 -3.5
    endloop
  endfacet
  facet normal 0 -1 0
    outer loop
      vertex -10 -9.5 2.10942e-15
      vertex -10 -9.5 3.5
      vertex -26 -9.5 3.5
    endloop
  endfacet
  facet normal 0 -1 0
    outer loop
      vertex -7 -9.5 0
      vertex -7.55561 -9.5 -1.89224
      vertex 25.4919 -9.5 -3.46437
    endloop
  endfacet
  facet normal 0 -1 0
    outer loop
      vertex -7.55561 -9.5 -1.89224
      vertex -9.04605 -9.5 -3.18371
      vertex 25.4919 -9.5 -3.46437
    endloop
  endfacet
  facet normal 0 -1 0
    outer loop
      vertex -9.04605 -9.5 -3.18371
      vertex -10.9981 -9.5 -3.46437
      vertex 25.4919 -9.5 -3.46437
    endloop
  endfacet
  facet normal 0 -1 0
    outer loop
      vertex -26 -9.5 3.5
      vertex -26 -9.5 -3.5
      vertex -13.8582 -9.5 -0.986064
    endloop
  endfacet
  facet normal 0 -1 0
    outer loop
      vertex -26 -9.5 3.5
      vertex -13.8582 -9.5 -0.986064
      vertex -13.8582 -9.5 2.10942e-15
    endloop
  endfacet
  facet normal 0 -1 0
    outer loop
      vertex -26 -9.5 3.5
      vertex -13.8582 -9.5 2.10942e-15
      vertex -10 -9.5 2.10942e-15
    endloop
  endfacet
  facet normal 0 -1 0
    outer loop
      vertex 29.49 -9.5 2.10942e-15
      vertex 28.9344 -9.5 -1.89224
      vertex 39.6 -9.5 -3.45
    endloop
  endfacet
  facet normal 0 -1 0
    outer loop
      vertex 25.8 -9.5 3.55
      vertex 25.8 -9.5 2.10942e-15
      vertex 39.6 -9.5 3.55
    endloop
  endfacet
  facet normal 0 -1 0
    outer loop
      vertex 22.6318 -9.5 0
      vertex -7 -9.5 0
      vertex 22.6318 -9.5 -0.986064
    endloop
  endfacet
  facet normal 0 0 -1
    outer loop
      vertex -26 -9.5 -3.5
      vertex -26 -9.44638 -3.5
      vertex 26 -9.5 -3.5
    endloop
  endfacet
  facet normal 0 0 -1
    outer loop
      vertex 26 -9.5 -3.5
      vertex -26 -9.44638 -3.5
      vertex -24.0643 -9.03494 -3.5
    endloop
  endfacet
  facet normal 0 0 -1
    outer loop
      vertex 26 -9.5 -3.5
      vertex -24.0643 -9.03494 -3.5
      vertex -22.25 -8.22715 -3.5
    endloop
  endfacet
  facet normal 0 0 -1
    outer loop
      vertex -22.25 -8.22715 -3.5
      vertex -20.6433 -7.05978 -3.5
      vertex 26 -9.5 -3.5
    endloop
  endfacet
  facet normal 0 0 -1
    outer loop
      vertex -20.6433 -7.05978 -3.5
      vertex -19.3143 -5.58386 -3.5
      vertex 26 -9.5 -3.5
    endloop
  endfacet
  facet normal 0 0 -1
    outer loop
      vertex -19.3143 -5.58386 -3.5
      vertex -18.3213 -3.8639 -3.5
      vertex 26 -9.5 -3.5
    endloop
  endfacet
  facet normal 0 0 -1
    outer loop
      vertex -18.3213 -3.8639 -3.5
      vertex -17.7076 -1.97507 -3.5
      vertex 26 -9.5 -3.5
    endloop
  endfacet
  facet normal 0 0 -1
    outer loop
      vertex -17.7076 -1.97507 -3.5
      vertex -17.5 9.5e-05 -3.5
      vertex 26 -9.5 -3.5
    endloop
  endfacet
  facet normal 0 0 -1
    outer loop
      vertex -17.5 9.5e-05 -3.5
      vertex -17.7076 1.97526 -3.5
      vertex 26 -9.5 -3.5
    endloop
  endfacet
  facet normal 0 0 -1
    outer loop
      vertex -17.7076 1.97526 -3.5
      vertex -18.3213 3.86409 -3.5
      vertex 26 -9.5 -3.5
    endloop
  endfacet
  facet normal 0 0 -1
    outer loop
      vertex -18.3213 3.86409 -3.5
      vertex -19.3143 5.58405 -3.5
      vertex 26 -9.5 -3.5
    endloop
  endfacet
  facet normal 0 0 -1
    outer loop
      vertex -19.3143 5.58405 -3.5
      vertex -20.6433 7.05997 -3.5
      vertex 26 -9.5 -3.5
    endloop
  endfacet
  facet normal 0 0 -1
    outer loop
      vertex -20.6433 7.05997 -3.5
      vertex -22.25 8.22734 -3.5
      vertex 26 -9.5 -3.5
    endloop
  endfacet
  facet normal 0 0 -1
    outer loop
      vertex -22.25 8.22734 -3.5
      vertex -24.0643 9.03513 -3.5
      vertex 26 -9.5 -3.5
    endloop
  endfacet
  facet normal 0 0 -1
    outer loop
      vertex -24.0643 9.03513 -3.5
      vertex -26 9.44657 -3.5
      vertex -26 9.5 -3.5
    endloop
  endfacet
  facet normal 0 0 -1
    outer loop
      vertex -24.0643 9.03513 -3.5
      vertex -26 9.5 -3.5
      vertex 26 9.5 -3.5
    endloop
  endfacet
  facet normal 0 0 -1
    outer loop
      vertex -24.0643 9.03513 -3.5
      vertex 26 9.5 -3.5
      vertex 26 -9.5 -3.5
    endloop
  endfacet
  facet normal -0.207912 0.978148 0
    outer loop
      vertex -24.0643 -9.03494 3.5
      vertex -24.0643 -9.03494 -3.5
      vertex -26 -9.44638 3.5
    endloop
  endfacet
  facet normal -0.207912 0.978148 0
    outer loop
      vertex -26 -9.44638 3.5
      vertex -24.0643 -9.03494 -3.5
      vertex -26 -9.44638 -3.5
    endloop
  endfacet
  facet normal 0 0 1
    outer loop
      vertex -26 -9.44638 3.5
      vertex -26 -9.5 3.5
      vertex -10 -9.5 3.5
    endloop
  endfacet
  facet normal 0 0 1
    outer loop
      vertex -24.0643 -9.03494 3.5
      vertex -26 -9.44638 3.5
      vertex -10 -9.5 3.5
    endloop
  endfacet
  facet normal 0 0 1
    outer loop
      vertex -26 9.5 3.5
      vertex -26 9.44657 3.5
      vertex -10 9.5 3.5
    endloop
  endfacet
  facet normal 0 0 1
    outer loop
      vertex -26 9.44657 3.5
      vertex -24.0643 9.03513 3.5
      vertex -10 9.5 3.5
    endloop
  endfacet
  facet normal 0 0 1
    outer loop
      vertex -24.0643 9.03513 3.5
      vertex -22.25 8.22734 3.5
      vertex -10 9.5 3.5
    endloop
  endfacet
  facet normal 0 0 1
    outer loop
      vertex -22.25 8.22734 3.5
      vertex -20.6433 7.05997 3.5
      vertex -10 9.5 3.5
    endloop
  endfacet
  facet normal 0 0 1
    outer loop
      vertex -20.6433 7.05997 3.5
      vertex -19.3143 5.58405 3.5
      vertex -10 9.5 3.5
    endloop
  endfacet
  facet normal 0 0 1
    outer loop
      vertex -19.3143 5.58405 3.5
      vertex -18.3213 3.86409 3.5
      vertex -10 9.5 3.5
    endloop
  endfacet
  facet normal 0 0 1
    outer loop
      vertex -18.3213 3.86409 3.5
      vertex -17.7076 1.97526 3.5
      vertex -10 9.5 3.5
    endloop
  endfacet
  facet normal 0 0 1
    outer loop
      vertex -10 9.5 3.5
      vertex -17.5 9.5e-05 3.5
      vertex -10 -9.5 3.5
    endloop
  endfacet
  facet normal 0 0 1
    outer loop
      vertex -17.5 9.5e-05 3.5
      vertex -17.7076 -1.97507 3.5
      vertex -10 -9.5 3.5
    endloop
  endfacet
  facet normal 0 0 1
    outer loop
      vertex -17.7076 -1.97507 3.5
      vertex -18.3213 -3.8639 3.5
      vertex -10 -9.5 3.5
    endloop
  endfacet
  facet normal 0 0 1
    outer loop
      vertex -18.3213 -3.8639 3.5
      vertex -19.3143 -5.58386 3.5
      vertex -10 -9.5 3.5
    endloop
  endfacet
  facet normal 0 0 1
    outer loop
      vertex -19.3143 -5.58386 3.5
      vertex -20.6433 -7.05978 3.5
      vertex -10 -9.5 3.5
    endloop
  endfacet
  facet normal 0 0 1
    outer loop
      vertex -20.6433 -7.05978 3.5
      vertex -22.25 -8.22715 3.5
      vertex -10 -9.5 3.5
    endloop
  endfacet
  facet normal 0 0 1
    outer loop
      vertex -22.25 -8.22715 3.5
      vertex -24.0643 -9.03494 3.5
      vertex -10 -9.5 3.5
    endloop
  endfacet
  facet normal 0 0 1
    outer loop
      vertex -17.7076 1.97526 3.5
      vertex -17.5 9.5e-05 3.5
      vertex -10 9.5 3.5
    endloop
  endfacet
  facet normal 1 0 0
    outer loop
      vertex -10 -9.5 3.32087
      vertex -10 9.5 3.32087
      vertex -10 9.5 3.5
    endloop
  endfacet
  facet normal 1 0 0
    outer loop
      vertex -10 -9.5 2.10942e-15
      vertex -10 -9.5 3.32087
      vertex -10 -9.5 3.5
    endloop
  endfacet
  facet normal 1 0 0
    outer loop
      vertex -10 -9.5 3.5
      vertex -10 -9.5 3.32087
      vertex -10 9.5 3.5
    endloop
  endfacet
  facet normal 0 -1 2.22045e-16
    outer loop
      vertex -13.8582 -9.5 2.10942e-15
      vertex -13.8582 -9.5 -0.986064
      vertex -12.792 -9.5 -2.64512
    endloop
  endfacet
  facet normal 0 -1 2.22045e-16
    outer loop
      vertex -9.04605 -9.5 -3.18371
      vertex -13.8582 -9.5 2.10942e-15
      vertex -10.9981 -9.5 -3.46437
    endloop
  endfacet
  facet normal 0 -1 2.22045e-16
    outer loop
      vertex -10.9981 -9.5 -3.46437
      vertex -13.8582 -9.5 2.10942e-15
      vertex -12.792 -9.5 -2.64512
    endloop
  endfacet
  facet normal 0 -1 2.22045e-16
    outer loop
      vertex -7.55561 -9.5 -1.89224
      vertex -13.8582 -9.5 2.10942e-15
      vertex -9.04605 -9.5 -3.18371
    endloop
  endfacet
  facet normal 0 -1 2.22045e-16
    outer loop
      vertex -7 -9.5 2.10942e-15
      vertex -10 -9.5 2.10942e-15
      vertex -7.55561 -9.5 -1.89224
    endloop
  endfacet
  facet normal 0 -1 2.22045e-16
    outer loop
      vertex -10 -9.5 2.10942e-15
      vertex -13.8582 -9.5 2.10942e-15
      vertex -7.55561 -9.5 -1.89224
    endloop
  endfacet
  facet normal 0 -1 2.22045e-16
    outer loop
      vertex -7.55561 -9.5 1.89224
      vertex -10 -9.5 2.10942e-15
      vertex -7 -9.5 2.10942e-15
    endloop
  endfacet
  facet normal 0 -1 2.22045e-16
    outer loop
      vertex -10 -9.5 3.32087
      vertex -7.55561 -9.5 1.89224
      vertex -9.04605 -9.5 3.18371
    endloop
  endfacet
  facet normal 0 -1 2.22045e-16
    outer loop
      vertex -10 -9.5 3.32087
      vertex -10 -9.5 2.10942e-15
      vertex -7.55561 -9.5 1.89224
    endloop
  endfacet
  facet normal 0.959493 -6.25572e-17 -0.281733
    outer loop
      vertex -7 -9.5 2.10942e-15
      vertex -7.55561 -9.5 -1.89224
      vertex -7 -9.5 0
    endloop
  endfacet
  facet normal 0.959493 -6.25572e-17 -0.281733
    outer loop
      vertex -7 0 0
      vertex -7 -9.5 2.10942e-15
      vertex -7 -9.5 0
    endloop
  endfacet
  facet normal 0 0 1
    outer loop
      vertex 1 7.5 0
      vertex 22.6318 9.5 0
      vertex -7 9.5 0
    endloop
  endfacet
  facet normal 0 0 1
    outer loop
      vertex 3 5 0
      vertex 13 5 0
      vertex 3 7.5 0
    endloop
  endfacet
  facet normal 0 0 1
    outer loop
      vertex 3 7.5 0
      vertex 22.6318 9.5 0
      vertex 1 7.5 0
    endloop
  endfacet
  facet normal 0 0 1
    outer loop
      vertex 13 5 0
      vertex 22.6318 9.5 0
      vertex 3 7.5 0
    endloop
  endfacet
  facet normal 0 0 1
    outer loop
      vertex 11 -7 0
      vertex 11 3 0
      vertex 6 3 0
    endloop
  endfacet
  facet normal 0 0 1
    outer loop
      vertex 6 3 0
      vertex 6 -7 0
      vertex 11 -7 0
    endloop
  endfacet
  facet normal 0 0 1
    outer loop
      vertex 22.6318 -9.5 0
      vertex 22.6318 9.5 0
      vertex 13 5 0
    endloop
  endfacet
  facet normal 0 0 1
    outer loop
      vertex -7 -9.5 0
      vertex 22.6318 -9.5 0
      vertex 13 -7 0
    endloop
  endfacet
  facet normal 0 0 1
    outer loop
      vertex -7 -9.5 0
      vertex 13 -7 0
      vertex 11 -7 0
    endloop
  endfacet
  facet normal 0 0 1
    outer loop
      vertex -7 -9.5 0
      vertex 11 -7 0
      vertex 6 -7 0
    endloop
  endfacet
  facet normal 0 0 1
    outer loop
      vertex -7 -9.5 0
      vertex 4 -7 0
      vertex -7 0 0
    endloop
  endfacet
  facet normal 0 0 1
    outer loop
      vertex -7 -9.5 0
      vertex 6 -7 0
      vertex 4 -7 0
    endloop
  endfacet
  facet normal 0 0 1
    outer loop
      vertex -7 0 0
      vertex 1 3 0
      vertex -7 9.5 0
    endloop
  endfacet
  facet normal 0 0 1
    outer loop
      vertex 4 -7 0
      vertex 1 3 0
      vertex -7 0 0
    endloop
  endfacet
  facet normal 0 0 1
    outer loop
      vertex 4 -7 0
      vertex 4 3 0
      vertex 1 3 0
    endloop
  endfacet
  facet normal 0 0 1
    outer loop
      vertex 1 3 0
      vertex 1 7.5 0
      vertex -7 9.5 0
    endloop
  endfacet
  facet normal 0 0 1
    outer loop
      vertex 13 5 0
      vertex 13 -7 0
      vertex 22.6318 -9.5 0
    endloop
  endfacet
  facet normal -1 0 0
    outer loop
      vertex 22.6318 9.5 0
      vertex 22.6318 9.5 0.986064
      vertex 22.6318 9.5 -2.10942e-15
    endloop
  endfacet
  facet normal -1 0 0
    outer loop
      vertex 22.6318 -9.5 -0.986064
      vertex 22.6318 -9.5 0.986064
      vertex 22.6318 -9.5 0
    endloop
  endfacet
  facet normal -1 0 0
    outer loop
      vertex 22.6318 -9.5 0
      vertex 22.6318 -9.5 0.986064
      vertex 22.6318 9.5 0.986064
    endloop
  endfacet
  facet normal -1 0 0
    outer loop
      vertex 22.6318 -9.5 0
      vertex 22.6318 9.5 0.986064
      vertex 22.6318 9.5 0
    endloop
  endfacet
  facet normal 0 -1 2.22045e-16
    outer loop
      vertex 22.6318 -9.5 0.986064
      vertex 22.6318 -9.5 -0.986064
      vertex 23.698 -9.5 -2.64512
    endloop
  endfacet
  facet normal 0 -1 2.22045e-16
    outer loop
      vertex 27.444 -9.5 -3.18371
      vertex 22.6318 -9.5 0.986064
      vertex 25.4919 -9.5 -3.46437
    endloop
  endfacet
  facet normal 0 -1 2.22045e-16
    outer loop
      vertex 25.4919 -9.5 -3.46437
      vertex 22.6318 -9.5 0.986064
      vertex 23.698 -9.5 -2.64512
    endloop
  endfacet
  facet normal 0 -1 2.22045e-16
    outer loop
      vertex 28.9344 -9.5 -1.89224
      vertex 22.6318 -9.5 0.986064
      vertex 27.444 -9.5 -3.18371
    endloop
  endfacet
  facet normal 0 -1 2.22045e-16
    outer loop
      vertex 25.8 -9.5 2.10942e-15
      vertex 22.6318 -9.5 0.986064
      vertex 28.9344 -9.5 -1.89224
    endloop
  endfacet
  facet normal 0 -1 2.22045e-16
    outer loop
      vertex 29.49 -9.5 2.10942e-15
      vertex 25.8 -9.5 2.10942e-15
      vertex 28.9344 -9.5 -1.89224
    endloop
  endfacet
  facet normal 0 -1 2.22045e-16
    outer loop
      vertex 25.4919 -9.5 3.46438
      vertex 22.6318 -9.5 0.986064
      vertex 25.8 -9.5 3.42008
    endloop
  endfacet
  facet normal 0 -1 2.22045e-16
    outer loop
      vertex 23.698 -9.5 2.64512
      vertex 22.6318 -9.5 0.986064
      vertex 25.4919 -9.5 3.46438
    endloop
  endfacet
  facet normal 0 -1 2.22045e-16
    outer loop
      vertex 25.8 -9.5 2.10942e-15
      vertex 25.8 -9.5 3.42008
      vertex 22.6318 -9.5 0.986064
    endloop
  endfacet
  facet normal -1 0 0
    outer loop
      vertex 25.8 -9.5 2.10942e-15
      vertex 25.8 -9.5 3.55
      vertex 25.8 -9.5 3.42008
    endloop
  endfacet
  facet normal -1 0 0
    outer loop
      vertex 25.8 -9.5 3.42008
      vertex 25.8 -9.5 3.55
      vertex 25.8 9.5 3.55
    endloop
  endfacet
  facet normal -1 0 0
    outer loop
      vertex 25.8 -9.5 3.42008
      vertex 25.8 9.5 3.55
      vertex 25.8 9.5 3.42008
    endloop
  endfacet
  facet normal 0 0 1
    outer loop
      vertex 25.8 9.5 3.55
      vertex 25.8 -9.5 3.55
      vertex 39.6 -9.5 3.55
    endloop
  endfacet
  facet normal 0 0 1
    outer loop
      vertex 39.6 9.5 3.55
      vertex 25.8 9.5 3.55
      vertex 39.6 -9.5 3.55
    endloop
  endfacet
  facet normal 1 0 0
    outer loop
      vertex 39.6 -4.5 -2.67
      vertex 39.6 -9.5 -3.45
      vertex 39.6 9.5 -3.45
    endloop
  endfacet
  facet normal 1 0 0
    outer loop
      vertex 39.6 -9.5 3.55
      vertex 39.6 -9.5 -3.45
      vertex 39.6 -7.12944 -0.463641
    endloop
  endfacet
  facet normal 1 0 0
    outer loop
      vertex 39.6 -9.5 3.55
      vertex 39.6 -7.12944 -0.463641
      vertex 39.6 -6.81229 1.335
    endloop
  endfacet
  facet normal 1 0 0
    outer loop
      vertex 39.6 1.87056 -0.463641
      vertex 39.6 2.18771 1.335
      vertex 39.6 -3.58681 2.50898
    endloop
  endfacet
  facet normal 1 0 0
    outer loop
      vertex 39.6 9.5 3.55
      vertex 39.6 -9.5 3.55
      vertex 39.6 -5.41319 2.50898
    endloop
  endfacet
  facet normal 1 0 0
    outer loop
      vertex 39.6 9.5 3.55
      vertex 39.6 -5.41319 2.50898
      vertex 39.6 -3.58681 2.50898
    endloop
  endfacet
  facet normal 1 0 0
    outer loop
      vertex 39.6 4.5 -2.67
      vertex 39.6 -2.78376 -2.04534
      vertex 39.6 9.5 -3.45
    endloop
  endfacet
  facet normal 1 0 0
    outer loop
      vertex 39.6 -2.78376 -2.04534
      vertex 39.6 -4.5 -2.67
      vertex 39.6 9.5 -3.45
    endloop
  endfacet
  facet normal 1 0 0
    outer loop
      vertex 39.6 2.78376 -2.04534
      vertex 39.6 1.87056 -0.463641
      vertex 39.6 -1.87056 -0.463641
    endloop
  endfacet
  facet normal 1 0 0
    outer loop
      vertex 39.6 -7.12944 -0.463641
      vertex 39.6 -9.5 -3.45
      vertex 39.6 -6.21624 -2.04534
    endloop
  endfacet
  facet normal 1 0 0
    outer loop
      vertex 39.6 -1.87056 -0.463641
      vertex 39.6 -2.78376 -2.04534
      vertex 39.6 4.5 -2.67
    endloop
  endfacet
  facet normal 1 0 0
    outer loop
      vertex 39.6 3.58681 2.50898
      vertex 39.6 -3.58681 2.50898
      vertex 39.6 2.18771 1.335
    endloop
  endfacet
  facet normal 1 0 0
    outer loop
      vertex 39.6 9.5 3.55
      vertex 39.6 -3.58681 2.50898
      vertex 39.6 3.58681 2.50898
    endloop
  endfacet
  facet normal 1 0 0
    outer loop
      vertex 39.6 7.12944 -0.463641
      vertex 39.6 6.21624 -2.04534
      vertex 39.6 9.5 -3.45
    endloop
  endfacet
  facet normal 1 0 0
    outer loop
      vertex 39.6 9.5 3.55
      vertex 39.6 3.58681 2.50898
      vertex 39.6 5.41319 2.50898
    endloop
  endfacet
  facet normal 1 0 0
    outer loop
      vertex 39.6 9.5 3.55
      vertex 39.6 6.81229 1.335
      vertex 39.6 9.5 -3.45
    endloop
  endfacet
  facet normal 1 0 0
    outer loop
      vertex 39.6 6.81229 1.335
      vertex 39.6 7.12944 -0.463641
      vertex 39.6 9.5 -3.45
    endloop
  endfacet
  facet normal 1 0 0
    outer loop
      vertex 39.6 5.41319 2.50898
      vertex 39.6 6.81229 1.335
      vertex 39.6 9.5 3.55
    endloop
  endfacet
  facet normal 1 0 0
    outer loop
      vertex 39.6 6.21624 -2.04534
      vertex 39.6 4.5 -2.67
      vertex 39.6 9.5 -3.45
    endloop
  endfacet
  facet normal 1 0 0
    outer loop
      vertex 39.6 -4.5 -2.67
      vertex 39.6 -6.21624 -2.04534
      vertex 39.6 -9.5 -3.45
    endloop
  endfacet
  facet normal 1 0 0
    outer loop
      vertex 39.6 1.87056 -0.463641
      vertex 39.6 -3.58681 2.50898
      vertex 39.6 -2.18771 1.335
    endloop
  endfacet
  facet normal 1 0 0
    outer loop
      vertex 39.6 -1.87056 -0.463641
      vertex 39.6 4.5 -2.67
      vertex 39.6 2.78376 -2.04534
    endloop
  endfacet
  facet normal 1 0 0
    outer loop
      vertex 39.6 -6.81229 1.335
      vertex 39.6 -5.41319 2.50898
      vertex 39.6 -9.5 3.55
    endloop
  endfacet
  facet normal 1 0 0
    outer loop
      vertex 39.6 -2.18771 1.335
      vertex 39.6 -1.87056 -0.463641
      vertex 39.6 1.87056 -0.463641
    endloop
  endfacet
  facet normal 0 0 -1
    outer loop
      vertex 26 -9.5 -3.45
      vertex 26 9.5 -3.45
      vertex 39.6 -9.5 -3.45
    endloop
  endfacet
  facet normal 0 0 -1
    outer loop
      vertex 39.6 -9.5 -3.45
      vertex 26 9.5 -3.45
      vertex 39.6 9.5 -3.45
    endloop
  endfacet
  facet normal 1 0 0
    outer loop
      vertex 26 -9.5 -3.45
      vertex 26 -9.5 -3.5
      vertex 26 9.5 -3.5
    endloop
  endfacet
  facet normal 1 0 0
    outer loop
      vertex 26 9.5 -3.45
      vertex 26 -9.5 -3.45
      vertex 26 9.5 -3.5
    endloop
  endfacet
  facet normal 0 1 0
    outer loop
      vertex 22.6318 9.5 -2.10942e-15
      vertex 26 9.5 -3.5
      vertex -7 9.5 0
    endloop
  endfacet
  facet normal 0 1 0
    outer loop
      vertex -10.9981 9.5 3.46437
      vertex -26 9.5 3.5
      vertex -10 9.5 3.5
    endloop
  endfacet
  facet normal 0 1 0
    outer loop
      vertex -13.8582 9.5 0.986064
      vertex -26 9.5 3.5
      vertex -12.792 9.5 2.64512
    endloop
  endfacet
  facet normal 0 1 0
    outer loop
      vertex -10 9.5 3.32087
      vertex -10.9981 9.5 3.46437
      vertex -10 9.5 3.5
    endloop
  endfacet
  facet normal 0 1 0
    outer loop
      vertex 22.6318 9.5 0
      vertex 22.6318 9.5 -2.10942e-15
      vertex -7 9.5 0
    endloop
  endfacet
  facet normal 0 1 0
    outer loop
      vertex -26 9.5 -3.5
      vertex -26 9.5 3.5
      vertex -13.8582 9.5 0.986064
    endloop
  endfacet
  facet normal 0 1 0
    outer loop
      vertex -26 9.5 -3.5
      vertex -13.8582 9.5 0.986064
      vertex -13.8582 9.5 -2.10942e-15
    endloop
  endfacet
  facet normal 0 1 0
    outer loop
      vertex -26 9.5 -3.5
      vertex -13.8582 9.5 -2.10942e-15
      vertex 26 9.5 -3.5
    endloop
  endfacet
  facet normal 0 1 0
    outer loop
      vertex -13.8582 9.5 -2.10942e-15
      vertex -7 9.5 -2.10942e-15
      vertex 26 9.5 -3.5
    endloop
  endfacet
  facet normal 0 1 0
    outer loop
      vertex -7 9.5 -2.10942e-15
      vertex -7 9.5 0
      vertex 26 9.5 -3.5
    endloop
  endfacet
  facet normal 0 1 0
    outer loop
      vertex 26 9.5 -3.45
      vertex 26 9.5 -3.5
      vertex 22.6318 9.5 -2.10942e-15
    endloop
  endfacet
  facet normal 0 1 0
    outer loop
      vertex 29.49 9.5 -2.10942e-15
      vertex 26 9.5 -3.45
      vertex 22.6318 9.5 -2.10942e-15
    endloop
  endfacet
  facet normal 0 1 0
    outer loop
      vertex 26 9.5 -3.45
      vertex 29.49 9.5 -2.10942e-15
      vertex 39.6 9.5 3.55
    endloop
  endfacet
  facet normal 0 1 0
    outer loop
      vertex 28.9344 9.5 1.89224
      vertex 39.6 9.5 3.55
      vertex 29.49 9.5 -2.10942e-15
    endloop
  endfacet
  facet normal 0 1 0
    outer loop
      vertex 27.444 9.5 3.18371
      vertex 25.8 9.5 3.42008
      vertex 25.8 9.5 3.55
    endloop
  endfacet
  facet normal 0 1 0
    outer loop
      vertex 27.444 9.5 3.18371
      vertex 25.8 9.5 3.55
      vertex 39.6 9.5 3.55
    endloop
  endfacet
  facet normal 0 1 0
    outer loop
      vertex 27.444 9.5 3.18371
      vertex 39.6 9.5 3.55
      vertex 28.9344 9.5 1.89224
    endloop
  endfacet
  facet normal 0 1 0
    outer loop
      vertex 26 9.5 -3.45
      vertex 39.6 9.5 3.55
      vertex 39.6 9.5 -3.45
    endloop
  endfacet
  facet normal 0 1 0
    outer loop
      vertex -12.792 9.5 2.64512
      vertex -26 9.5 3.5
      vertex -10.9981 9.5 3.46437
    endloop
  endfacet
  facet normal -1 0 0
    outer loop
      vertex -26 9.44657 -3.5
      vertex -26 9.44657 3.5
      vertex -26 9.5 -3.5
    endloop
  endfacet
  facet normal -1 0 0
    outer loop
      vertex -26 9.5 -3.5
      vertex -26 9.44657 3.5
      vertex -26 9.5 3.5
    endloop
  endfacet
  facet normal -0.207912 -0.978148 0
    outer loop
      vertex -24.0643 9.03513 -3.5
      vertex -24.0643 9.03513 3.5
      vertex -26 9.44657 3.5
    endloop
  endfacet
  facet normal -0.207912 -0.978148 0
    outer loop
      vertex -26 9.44657 -3.5
      vertex -24.0643 9.03513 -3.5
      vertex -26 9.44657 3.5
    endloop
  endfacet
  facet normal -0.406737 -0.913545 0
    outer loop
      vertex -22.25 8.22734 -3.5
      vertex -22.25 8.22734 3.5
      vertex -24.0643 9.03513 3.5
    endloop
  endfacet
  facet normal -0.406737 -0.913545 0
    outer loop
      vertex -24.0643 9.03513 -3.5
      vertex -22.25 8.22734 -3.5
      vertex -24.0643 9.03513 3.5
    endloop
  endfacet
  facet normal -0.587785 -0.809017 0
    outer loop
      vertex -20.6433 7.05997 -3.5
      vertex -20.6433 7.05997 3.5
      vertex -22.25 8.22734 3.5
    endloop
  endfacet
  facet normal -0.587785 -0.809017 0
    outer loop
      vertex -22.25 8.22734 -3.5
      vertex -20.6433 7.05997 -3.5
      vertex -22.25 8.22734 3.5
    endloop
  endfacet
  facet normal -0.743145 -0.66913 0
    outer loop
      vertex -19.3143 5.58405 3.5
      vertex -20.6433 7.05997 3.5
      vertex -19.3143 5.58405 -3.5
    endloop
  endfacet
  facet normal -0.743145 -0.66913 0
    outer loop
      vertex -19.3143 5.58405 -3.5
      vertex -20.6433 7.05997 3.5
      vertex -20.6433 7.05997 -3.5
    endloop
  endfacet
  facet normal -0.866025 -0.5 0
    outer loop
      vertex -18.3213 3.86409 3.5
      vertex -19.3143 5.58405 3.5
      vertex -18.3213 3.86409 -3.5
    endloop
  endfacet
  facet normal -0.866025 -0.5 0
    outer loop
      vertex -18.3213 3.86409 -3.5
      vertex -19.3143 5.58405 3.5
      vertex -19.3143 5.58405 -3.5
    endloop
  endfacet
  facet normal -0.951057 -0.309017 0
    outer loop
      vertex -17.7076 1.97526 -1.59672
      vertex -17.9202 2.62944 -0.463641
      vertex -17.7076 1.97526 -3.5
    endloop
  endfacet
  facet normal -0.951057 -0.309017 0
    outer loop
      vertex -18.3213 3.86409 3.5
      vertex -17.9202 2.62944 -0.463641
      vertex -17.7076 1.97526 3.5
    endloop
  endfacet
  facet normal -0.951057 -0.309017 0
    outer loop
      vertex -17.7076 1.97526 3.5
      vertex -17.8171 2.31229 1.335
      vertex -17.7076 1.97526 1.6178
    endloop
  endfacet
  facet normal -0.951057 -0.309017 0
    outer loop
      vertex -17.9202 2.62944 -0.463641
      vertex -17.8171 2.31229 1.335
      vertex -17.7076 1.97526 3.5
    endloop
  endfacet
  facet normal -0.951057 -0.309017 0
    outer loop
      vertex -17.7076 1.97526 -3.5
      vertex -17.9202 2.62944 -0.463641
      vertex -18.3213 3.86409 3.5
    endloop
  endfacet
  facet normal -0.951057 -0.309017 0
    outer loop
      vertex -17.7076 1.97526 -3.5
      vertex -18.3213 3.86409 3.5
      vertex -18.3213 3.86409 -3.5
    endloop
  endfacet
  facet normal -0.994522 -0.104529 0
    outer loop
      vertex -17.5 9.5e-05 -2.66997
      vertex -17.6804 1.71624 -2.04534
      vertex -17.5 9.5e-05 -3.5
    endloop
  endfacet
  facet normal -0.994522 -0.104529 0
    outer loop
      vertex -17.7076 1.97526 -3.5
      vertex -17.6804 1.71624 -2.04534
      vertex -17.7076 1.97526 -1.59672
    endloop
  endfacet
  facet normal -0.994522 -0.104529 0
    outer loop
      vertex -17.5 9.5e-05 -3.5
      vertex -17.6804 1.71624 -2.04534
      vertex -17.7076 1.97526 -3.5
    endloop
  endfacet
  facet normal -0.994522 0.104529 0
    outer loop
      vertex -17.5 9.5e-05 -3.5
      vertex -17.5 0 -2.67
      vertex -17.5 9.5e-05 -2.66997
    endloop
  endfacet
  facet normal -0.994522 0.104529 0
    outer loop
      vertex -17.6804 -1.71624 -2.04534
      vertex -17.5 0 -2.67
      vertex -17.5 9.5e-05 -3.5
    endloop
  endfacet
  facet normal -0.994522 0.104529 0
    outer loop
      vertex -17.6804 -1.71624 -2.04534
      vertex -17.5 9.5e-05 -3.5
      vertex -17.7076 -1.97507 -3.5
    endloop
  endfacet
  facet normal -0.994522 0.104529 0
    outer loop
      vertex -17.6804 -1.71624 -2.04534
      vertex -17.7076 -1.97507 -3.5
      vertex -17.7076 -1.97507 -1.59704
    endloop
  endfacet
  facet normal -0.951057 0.309017 0
    outer loop
      vertex -17.7076 -1.97507 3.5
      vertex -17.7076 -1.97507 1.61796
      vertex -18.3213 -3.8639 3.5
    endloop
  endfacet
  facet normal -0.951057 0.309017 0
    outer loop
      vertex -18.3213 -3.8639 3.5
      vertex -17.7076 -1.97507 1.61796
      vertex -17.8172 -2.31229 1.335
    endloop
  endfacet
  facet normal -0.951057 0.309017 0
    outer loop
      vertex -18.3213 -3.8639 3.5
      vertex -17.8172 -2.31229 1.335
      vertex -17.9202 -2.62944 -0.463641
    endloop
  endfacet
  facet normal -0.951057 0.309017 0
    outer loop
      vertex -17.9202 -2.62944 -0.463641
      vertex -17.7076 -1.97507 -1.59704
      vertex -17.7076 -1.97507 -3.5
    endloop
  endfacet
  facet normal -0.951057 0.309017 0
    outer loop
      vertex -17.9202 -2.62944 -0.463641
      vertex -17.7076 -1.97507 -3.5
      vertex -18.3213 -3.8639 3.5
    endloop
  endfacet
  facet normal -0.951057 0.309017 0
    outer loop
      vertex -18.3213 -3.8639 3.5
      vertex -17.7076 -1.97507 -3.5
      vertex -18.3213 -3.8639 -3.5
    endloop
  endfacet
  facet normal -0.866025 0.5 0
    outer loop
      vertex -18.3213 -3.8639 3.5
      vertex -18.3213 -3.8639 -3.5
      vertex -19.3143 -5.58386 3.5
    endloop
  endfacet
  facet normal -0.866025 0.5 0
    outer loop
      vertex -19.3143 -5.58386 3.5
      vertex -18.3213 -3.8639 -3.5
      vertex -19.3143 -5.58386 -3.5
    endloop
  endfacet
  facet normal -0.743145 0.66913 0
    outer loop
      vertex -19.3143 -5.58386 3.5
      vertex -19.3143 -5.58386 -3.5
      vertex -20.6433 -7.05978 3.5
    endloop
  endfacet
  facet normal -0.743145 0.66913 0
    outer loop
      vertex -20.6433 -7.05978 3.5
      vertex -19.3143 -5.58386 -3.5
      vertex -20.6433 -7.05978 -3.5
    endloop
  endfacet
  facet normal -0.587785 0.809017 0
    outer loop
      vertex -20.6433 -7.05978 3.5
      vertex -20.6433 -7.05978 -3.5
      vertex -22.25 -8.22715 3.5
    endloop
  endfacet
  facet normal -0.587785 0.809017 0
    outer loop
      vertex -22.25 -8.22715 3.5
      vertex -20.6433 -7.05978 -3.5
      vertex -22.25 -8.22715 -3.5
    endloop
  endfacet
  facet normal -0.406737 0.913545 0
    outer loop
      vertex -22.25 -8.22715 3.5
      vertex -22.25 -8.22715 -3.5
      vertex -24.0643 -9.03494 3.5
    endloop
  endfacet
  facet normal -0.406737 0.913545 0
    outer loop
      vertex -24.0643 -9.03494 3.5
      vertex -22.25 -8.22715 -3.5
      vertex -24.0643 -9.03494 -3.5
    endloop
  endfacet
  facet normal -0.994522 0.104529 0
    outer loop
      vertex -17.5 9.5e-05 3.5
      vertex -17.5 9.5e-05 2.50898
      vertex -17.7076 -1.97507 3.5
    endloop
  endfacet
  facet normal -0.994522 0.104529 0
    outer loop
      vertex -17.7076 -1.97507 3.5
      vertex -17.5 9.5e-05 2.50898
      vertex -17.596 -0.913194 2.50898
    endloop
  endfacet
  facet normal -0.994522 0.104529 0
    outer loop
      vertex -17.7076 -1.97507 3.5
      vertex -17.596 -0.913194 2.50898
      vertex -17.7076 -1.97507 1.61796
    endloop
  endfacet
  facet normal -0.994522 -0.104529 0
    outer loop
      vertex -17.5 9.5e-05 2.50898
      vertex -17.5 9.5e-05 3.5
      vertex -17.596 0.913194 2.50898
    endloop
  endfacet
  facet normal -0.994522 -0.104529 0
    outer loop
      vertex -17.596 0.913194 2.50898
      vertex -17.5 9.5e-05 3.5
      vertex -17.7076 1.97526 3.5
    endloop
  endfacet
  facet normal -0.994522 -0.104529 0
    outer loop
      vertex -17.596 0.913194 2.50898
      vertex -17.7076 1.97526 3.5
      vertex -17.7076 1.97526 1.6178
    endloop
  endfacet
  facet normal 0.142315 2.19785e-16 0.989821
    outer loop
      vertex -9.04605 9.5 3.18371
      vertex -10.9981 9.5 3.46437
      vertex -10 9.5 3.32087
    endloop
  endfacet
  facet normal 0.142315 2.19785e-16 0.989821
    outer loop
      vertex -10 -9.5 3.32087
      vertex -9.04605 -9.5 3.18371
      vertex -10 9.5 3.32087
    endloop
  endfacet
  facet normal 0.142315 2.19785e-16 0.989821
    outer loop
      vertex -9.04605 -9.5 3.18371
      vertex -9.04605 9.5 3.18371
      vertex -10 9.5 3.32087
    endloop
  endfacet
  facet normal 0.654861 1.6781e-16 0.755749
    outer loop
      vertex -9.04605 9.5 3.18371
      vertex -9.04605 -9.5 3.18371
      vertex -7.55561 -9.5 1.89224
    endloop
  endfacet
  facet normal 0.654861 1.6781e-16 0.755749
    outer loop
      vertex -7.55561 9.5 1.89224
      vertex -9.04605 9.5 3.18371
      vertex -7.55561 -9.5 1.89224
    endloop
  endfacet
  facet normal 0.959493 6.25572e-17 0.281733
    outer loop
      vertex -7.55561 9.5 1.89224
      vertex -7.55561 -9.5 1.89224
      vertex -7 -9.5 2.10942e-15
    endloop
  endfacet
  facet normal 0.959493 6.25572e-17 0.281733
    outer loop
      vertex -7 9.5 0
      vertex -7.55561 9.5 1.89224
      vertex -7 0 0
    endloop
  endfacet
  facet normal 0.959493 6.25572e-17 0.281733
    outer loop
      vertex -7 0 0
      vertex -7.55561 9.5 1.89224
      vertex -7 -9.5 2.10942e-15
    endloop
  endfacet
  facet normal 0.959493 6.25572e-17 0.281733
    outer loop
      vertex -7 9.5 -2.10942e-15
      vertex -7.55561 9.5 1.89224
      vertex -7 9.5 0
    endloop
  endfacet
  facet normal 0 1 0
    outer loop
      vertex 1 7.5 0
      vertex 1 7.5 2
      vertex 3 7.5 0
    endloop
  endfacet
  facet normal 0 1 0
    outer loop
      vertex 3 7.5 0
      vertex 1 7.5 2
      vertex 3 7.5 2
    endloop
  endfacet
  facet normal -1 0 0
    outer loop
      vertex 1 3 0
      vertex 1 3 2
      vertex 1 7.5 0
    endloop
  endfacet
  facet normal -1 0 0
    outer loop
      vertex 1 7.5 0
      vertex 1 3 2
      vertex 1 7.5 2
    endloop
  endfacet
  facet normal 0 -1 0
    outer loop
      vertex 1 3 2
      vertex 1 3 0
      vertex 4 3 0
    endloop
  endfacet
  facet normal 0 -1 0
    outer loop
      vertex 4 3 2
      vertex 1 3 2
      vertex 4 3 0
    endloop
  endfacet
  facet normal -1 0 0
    outer loop
      vertex 4 -7 0
      vertex 4 -7 2
      vertex 4 3 0
    endloop
  endfacet
  facet normal -1 0 0
    outer loop
      vertex 4 3 0
      vertex 4 -7 2
      vertex 4 3 2
    endloop
  endfacet
  facet normal 0 -1 0
    outer loop
      vertex 4 -7 2
      vertex 4 -7 0
      vertex 6 -7 0
    endloop
  endfacet
  facet normal 0 -1 0
    outer loop
      vertex 6 -7 2
      vertex 4 -7 2
      vertex 6 -7 0
    endloop
  endfacet
  facet normal 1 0 0
    outer loop
      vertex 6 -7 2
      vertex 6 -7 0
      vertex 6 3 0
    endloop
  endfacet
  facet normal 1 0 0
    outer loop
      vertex 6 3 2
      vertex 6 -7 2
      vertex 6 3 0
    endloop
  endfacet
  facet normal 0 -1 0
    outer loop
      vertex 6 3 2
      vertex 6 3 0
      vertex 11 3 0
    endloop
  endfacet
  facet normal 0 -1 0
    outer loop
      vertex 11 3 2
      vertex 6 3 2
      vertex 11 3 0
    endloop
  endfacet
  facet normal -1 0 0
    outer loop
      vertex 11 -7 0
      vertex 11 -7 2
      vertex 11 3 0
    endloop
  endfacet
  facet normal -1 0 0
    outer loop
      vertex 11 3 0
      vertex 11 -7 2
      vertex 11 3 2
    endloop
  endfacet
  facet normal 0 -1 0
    outer loop
      vertex 11 -7 2
      vertex 11 -7 0
      vertex 13 -7 0
    endloop
  endfacet
  facet normal 0 -1 0
    outer loop
      vertex 13 -7 2
      vertex 11 -7 2
      vertex 13 -7 0
    endloop
  endfacet
  facet normal 1 0 0
    outer loop
      vertex 13 -7 2
      vertex 13 -7 0
      vertex 13 5 0
    endloop
  endfacet
  facet normal 1 0 0
    outer loop
      vertex 13 5 2
      vertex 13 -7 2
      vertex 13 5 0
    endloop
  endfacet
  facet normal 0 1 0
    outer loop
      vertex 3 5 0
      vertex 3 5 2
      vertex 13 5 0
    endloop
  endfacet
  facet normal 0 1 0
    outer loop
      vertex 13 5 0
      vertex 3 5 2
      vertex 13 5 2
    endloop
  endfacet
  facet normal 1 0 0
    outer loop
      vertex 3 5 2
      vertex 3 5 0
      vertex 3 7.5 0
    endloop
  endfacet
  facet normal 1 0 0
    outer loop
      vertex 3 7.5 2
      vertex 3 5 2
      vertex 3 7.5 0
    endloop
  endfacet
  facet normal 0 1 -2.22045e-16
    outer loop
      vertex 22.6318 9.5 -2.10942e-15
      vertex 22.6318 9.5 0.986064
      vertex 29.49 9.5 -2.10942e-15
    endloop
  endfacet
  facet normal 0 1 -2.22045e-16
    outer loop
      vertex 29.49 9.5 -2.10942e-15
      vertex 22.6318 9.5 0.986064
      vertex 23.698 9.5 2.64512
    endloop
  endfacet
  facet normal 0 1 -2.22045e-16
    outer loop
      vertex 29.49 9.5 -2.10942e-15
      vertex 23.698 9.5 2.64512
      vertex 25.4919 9.5 3.46437
    endloop
  endfacet
  facet normal 0 1 -2.22045e-16
    outer loop
      vertex 29.49 9.5 -2.10942e-15
      vertex 25.4919 9.5 3.46437
      vertex 27.444 9.5 3.18371
    endloop
  endfacet
  facet normal 0 1 -2.22045e-16
    outer loop
      vertex 29.49 9.5 -2.10942e-15
      vertex 27.444 9.5 3.18371
      vertex 28.9344 9.5 1.89224
    endloop
  endfacet
  facet normal -0.841254 1.20046e-16 0.54064
    outer loop
      vertex 22.6318 -9.5 0.986064
      vertex 23.698 -9.5 2.64512
      vertex 22.6318 9.5 0.986064
    endloop
  endfacet
  facet normal -0.841254 1.20046e-16 0.54064
    outer loop
      vertex 22.6318 9.5 0.986064
      vertex 23.698 -9.5 2.64512
      vertex 23.698 9.5 2.64512
    endloop
  endfacet
  facet normal -0.415415 2.01979e-16 0.909632
    outer loop
      vertex 23.698 9.5 2.64512
      vertex 23.698 -9.5 2.64512
      vertex 25.4919 -9.5 3.46438
    endloop
  endfacet
  facet normal -0.415415 2.01979e-16 0.909632
    outer loop
      vertex 25.4919 9.5 3.46437
      vertex 23.698 9.5 2.64512
      vertex 25.4919 -9.5 3.46438
    endloop
  endfacet
  facet normal 0.142315 2.19785e-16 0.989821
    outer loop
      vertex 25.4919 9.5 3.46437
      vertex 25.4919 -9.5 3.46438
      vertex 25.8 -9.5 3.42008
    endloop
  endfacet
  facet normal 0.142315 2.19785e-16 0.989821
    outer loop
      vertex 27.444 9.5 3.18371
      vertex 25.4919 9.5 3.46437
      vertex 25.8 9.5 3.42008
    endloop
  endfacet
  facet normal 0.142315 2.19785e-16 0.989821
    outer loop
      vertex 25.8 9.5 3.42008
      vertex 25.4919 9.5 3.46437
      vertex 25.8 -9.5 3.42008
    endloop
  endfacet
  facet normal 3.85576e-17 0.984808 -0.173648
    outer loop
      vertex 39.6 -7.12944 -0.463641
      vertex 36.5 -7.12944 -0.463641
      vertex 39.6 -6.81229 1.335
    endloop
  endfacet
  facet normal 3.85576e-17 0.984808 -0.173648
    outer loop
      vertex 39.6 -6.81229 1.335
      vertex 36.5 -7.12944 -0.463641
      vertex 36.5 -6.81229 1.335
    endloop
  endfacet
  facet normal -1.11022e-16 0.866025 0.5
    outer loop
      vertex 39.6 -6.21624 -2.04534
      vertex 36.5 -6.21624 -2.04534
      vertex 39.6 -7.12944 -0.463641
    endloop
  endfacet
  facet normal -1.11022e-16 0.866025 0.5
    outer loop
      vertex 39.6 -7.12944 -0.463641
      vertex 36.5 -6.21624 -2.04534
      vertex 36.5 -7.12944 -0.463641
    endloop
  endfacet
  facet normal -2.08654e-16 0.34202 0.939693
    outer loop
      vertex 39.6 -6.21624 -2.04534
      vertex 39.6 -4.5 -2.67
      vertex 36.5 -4.5 -2.67
    endloop
  endfacet
  facet normal -2.08654e-16 0.34202 0.939693
    outer loop
      vertex 36.5 -6.21624 -2.04534
      vertex 39.6 -6.21624 -2.04534
      vertex 36.5 -4.5 -2.67
    endloop
  endfacet
  facet normal -2.08654e-16 -0.34202 0.939693
    outer loop
      vertex 36.5 -4.5 -2.67
      vertex 39.6 -4.5 -2.67
      vertex 39.6 -2.78376 -2.04534
    endloop
  endfacet
  facet normal -2.08654e-16 -0.34202 0.939693
    outer loop
      vertex 36.5 -2.78376 -2.04534
      vertex 36.5 -4.5 -2.67
      vertex 39.6 -2.78376 -2.04534
    endloop
  endfacet
  facet normal -1.11022e-16 -0.866025 0.5
    outer loop
      vertex 36.5 -2.78376 -2.04534
      vertex 39.6 -2.78376 -2.04534
      vertex 39.6 -1.87056 -0.463641
    endloop
  endfacet
  facet normal -1.11022e-16 -0.866025 0.5
    outer loop
      vertex 36.5 -1.87056 -0.463641
      vertex 36.5 -2.78376 -2.04534
      vertex 39.6 -1.87056 -0.463641
    endloop
  endfacet
  facet normal 3.85576e-17 -0.984808 -0.173648
    outer loop
      vertex 36.5 -1.87056 -0.463641
      vertex 39.6 -1.87056 -0.463641
      vertex 39.6 -2.18771 1.335
    endloop
  endfacet
  facet normal 3.85576e-17 -0.984808 -0.173648
    outer loop
      vertex 36.5 -2.18771 1.335
      vertex 36.5 -1.87056 -0.463641
      vertex 39.6 -2.18771 1.335
    endloop
  endfacet
  facet normal 1.70096e-16 -0.642788 -0.766045
    outer loop
      vertex 39.6 -2.18771 1.335
      vertex 39.6 -3.58681 2.50898
      vertex 36.5 -2.18771 1.335
    endloop
  endfacet
  facet normal 1.70096e-16 -0.642788 -0.766045
    outer loop
      vertex 36.5 -2.18771 1.335
      vertex 39.6 -3.58681 2.50898
      vertex 36.5 -3.58681 2.50898
    endloop
  endfacet
  facet normal 2.22045e-16 0 -1
    outer loop
      vertex 39.6 -3.58681 2.50898
      vertex 39.6 -5.41319 2.50898
      vertex 36.5 -3.58681 2.50898
    endloop
  endfacet
  facet normal 2.22045e-16 0 -1
    outer loop
      vertex 36.5 -3.58681 2.50898
      vertex 39.6 -5.41319 2.50898
      vertex 36.5 -5.41319 2.50898
    endloop
  endfacet
  facet normal 1.70096e-16 0.642788 -0.766045
    outer loop
      vertex 39.6 -6.81229 1.335
      vertex 36.5 -6.81229 1.335
      vertex 39.6 -5.41319 2.50898
    endloop
  endfacet
  facet normal 1.70096e-16 0.642788 -0.766045
    outer loop
      vertex 39.6 -5.41319 2.50898
      vertex 36.5 -6.81229 1.335
      vertex 36.5 -5.41319 2.50898
    endloop
  endfacet
  facet normal 3.85576e-17 0.984808 -0.173648
    outer loop
      vertex 39.6 1.87056 -0.463641
      vertex 36.5 1.87056 -0.463641
      vertex 39.6 2.18771 1.335
    endloop
  endfacet
  facet normal 3.85576e-17 0.984808 -0.173648
    outer loop
      vertex 39.6 2.18771 1.335
      vertex 36.5 1.87056 -0.463641
      vertex 36.5 2.18771 1.335
    endloop
  endfacet
  facet normal -1.11022e-16 0.866025 0.5
    outer loop
      vertex 39.6 2.78376 -2.04534
      vertex 36.5 2.78376 -2.04534
      vertex 39.6 1.87056 -0.463641
    endloop
  endfacet
  facet normal -1.11022e-16 0.866025 0.5
    outer loop
      vertex 39.6 1.87056 -0.463641
      vertex 36.5 2.78376 -2.04534
      vertex 36.5 1.87056 -0.463641
    endloop
  endfacet
  facet normal -2.08654e-16 0.34202 0.939693
    outer loop
      vertex 39.6 2.78376 -2.04534
      vertex 39.6 4.5 -2.67
      vertex 36.5 4.5 -2.67
    endloop
  endfacet
  facet normal -2.08654e-16 0.34202 0.939693
    outer loop
      vertex 36.5 2.78376 -2.04534
      vertex 39.6 2.78376 -2.04534
      vertex 36.5 4.5 -2.67
    endloop
  endfacet
  facet normal -2.08654e-16 -0.34202 0.939693
    outer loop
      vertex 36.5 4.5 -2.67
      vertex 39.6 4.5 -2.67
      vertex 39.6 6.21624 -2.04534
    endloop
  endfacet
  facet normal -2.08654e-16 -0.34202 0.939693
    outer loop
      vertex 36.5 6.21624 -2.04534
      vertex 36.5 4.5 -2.67
      vertex 39.6 6.21624 -2.04534
    endloop
  endfacet
  facet normal -1.11022e-16 -0.866025 0.5
    outer loop
      vertex 36.5 6.21624 -2.04534
      vertex 39.6 6.21624 -2.04534
      vertex 39.6 7.12944 -0.463641
    endloop
  endfacet
  facet normal -1.11022e-16 -0.866025 0.5
    outer loop
      vertex 36.5 7.12944 -0.463641
      vertex 36.5 6.21624 -2.04534
      vertex 39.6 7.12944 -0.463641
    endloop
  endfacet
  facet normal 3.85576e-17 -0.984808 -0.173648
    outer loop
      vertex 36.5 7.12944 -0.463641
      vertex 39.6 7.12944 -0.463641
      vertex 39.6 6.81229 1.335
    endloop
  endfacet
  facet normal 3.85576e-17 -0.984808 -0.173648
    outer loop
      vertex 36.5 6.81229 1.335
      vertex 36.5 7.12944 -0.463641
      vertex 39.6 6.81229 1.335
    endloop
  endfacet
  facet normal 1.70096e-16 -0.642788 -0.766045
    outer loop
      vertex 39.6 6.81229 1.335
      vertex 39.6 5.41319 2.50898
      vertex 36.5 6.81229 1.335
    endloop
  endfacet
  facet normal 1.70096e-16 -0.642788 -0.766045
    outer loop
      vertex 36.5 6.81229 1.335
      vertex 39.6 5.41319 2.50898
      vertex 36.5 5.41319 2.50898
    endloop
  endfacet
  facet normal 2.22045e-16 0 -1
    outer loop
      vertex 39.6 5.41319 2.50898
      vertex 39.6 3.58681 2.50898
      vertex 36.5 5.41319 2.50898
    endloop
  endfacet
  facet normal 2.22045e-16 0 -1
    outer loop
      vertex 36.5 5.41319 2.50898
      vertex 39.6 3.58681 2.50898
      vertex 36.5 3.58681 2.50898
    endloop
  endfacet
  facet normal 1.70096e-16 0.642788 -0.766045
    outer loop
      vertex 39.6 2.18771 1.335
      vertex 36.5 2.18771 1.335
      vertex 39.6 3.58681 2.50898
    endloop
  endfacet
  facet normal 1.70096e-16 0.642788 -0.766045
    outer loop
      vertex 39.6 3.58681 2.50898
      vertex 36.5 2.18771 1.335
      vertex 36.5 3.58681 2.50898
    endloop
  endfacet
  facet normal 0 1 -2.22045e-16
    outer loop
      vertex -13.8582 9.5 -2.10942e-15
      vertex -13.8582 9.5 0.986064
      vertex -7 9.5 -2.10942e-15
    endloop
  endfacet
  facet normal 0 1 -2.22045e-16
    outer loop
      vertex -7 9.5 -2.10942e-15
      vertex -13.8582 9.5 0.986064
      vertex -12.792 9.5 2.64512
    endloop
  endfacet
  facet normal 0 1 -2.22045e-16
    outer loop
      vertex -7 9.5 -2.10942e-15
      vertex -12.792 9.5 2.64512
      vertex -10.9981 9.5 3.46437
    endloop
  endfacet
  facet normal 0 1 -2.22045e-16
    outer loop
      vertex -7 9.5 -2.10942e-15
      vertex -10.9981 9.5 3.46437
      vertex -9.04605 9.5 3.18371
    endloop
  endfacet
  facet normal 0 1 -2.22045e-16
    outer loop
      vertex -7 9.5 -2.10942e-15
      vertex -9.04605 9.5 3.18371
      vertex -7.55561 9.5 1.89224
    endloop
  endfacet
  facet normal 1.70096e-16 -0.642788 -0.766045
    outer loop
      vertex -14.5 0.913194 2.50898
      vertex -17.596 0.913194 2.50898
      vertex -14.5 2.31229 1.335
    endloop
  endfacet
  facet normal 1.70096e-16 -0.642788 -0.766045
    outer loop
      vertex -14.5 2.31229 1.335
      vertex -17.596 0.913194 2.50898
      vertex -17.7076 1.97526 1.6178
    endloop
  endfacet
  facet normal 1.70096e-16 -0.642788 -0.766045
    outer loop
      vertex -14.5 2.31229 1.335
      vertex -17.7076 1.97526 1.6178
      vertex -17.8171 2.31229 1.335
    endloop
  endfacet
  facet normal 3.85576e-17 -0.984808 -0.173648
    outer loop
      vertex -14.5 2.62944 -0.463641
      vertex -14.5 2.31229 1.335
      vertex -17.8171 2.31229 1.335
    endloop
  endfacet
  facet normal 3.85576e-17 -0.984808 -0.173648
    outer loop
      vertex -17.9202 2.62944 -0.463641
      vertex -14.5 2.62944 -0.463641
      vertex -17.8171 2.31229 1.335
    endloop
  endfacet
  facet normal -1.11022e-16 -0.866025 0.5
    outer loop
      vertex -17.7076 1.97526 -1.59672
      vertex -17.6804 1.71624 -2.04534
      vertex -14.5 1.71624 -2.04534
    endloop
  endfacet
  facet normal -1.11022e-16 -0.866025 0.5
    outer loop
      vertex -17.9202 2.62944 -0.463641
      vertex -17.7076 1.97526 -1.59672
      vertex -14.5 2.62944 -0.463641
    endloop
  endfacet
  facet normal -1.11022e-16 -0.866025 0.5
    outer loop
      vertex -14.5 2.62944 -0.463641
      vertex -17.7076 1.97526 -1.59672
      vertex -14.5 1.71624 -2.04534
    endloop
  endfacet
  facet normal -2.08654e-16 -0.34202 0.939693
    outer loop
      vertex -17.5 9.5e-05 -2.66997
      vertex -17.5 0 -2.67
      vertex -14.5 0 -2.67
    endloop
  endfacet
  facet normal -2.08654e-16 -0.34202 0.939693
    outer loop
      vertex -17.6804 1.71624 -2.04534
      vertex -17.5 9.5e-05 -2.66997
      vertex -14.5 1.71624 -2.04534
    endloop
  endfacet
  facet normal -2.08654e-16 -0.34202 0.939693
    outer loop
      vertex -14.5 1.71624 -2.04534
      vertex -17.5 9.5e-05 -2.66997
      vertex -14.5 0 -2.67
    endloop
  endfacet
  facet normal -1.11022e-16 0.866025 0.5
    outer loop
      vertex -14.5 -1.71624 -2.04534
      vertex -17.6804 -1.71624 -2.04534
      vertex -14.5 -2.62944 -0.463641
    endloop
  endfacet
  facet normal -1.11022e-16 0.866025 0.5
    outer loop
      vertex -14.5 -2.62944 -0.463641
      vertex -17.6804 -1.71624 -2.04534
      vertex -17.7076 -1.97507 -1.59704
    endloop
  endfacet
  facet normal -1.11022e-16 0.866025 0.5
    outer loop
      vertex -14.5 -2.62944 -0.463641
      vertex -17.7076 -1.97507 -1.59704
      vertex -17.9202 -2.62944 -0.463641
    endloop
  endfacet
  facet normal -2.08654e-16 0.34202 0.939693
    outer loop
      vertex -14.5 -1.71624 -2.04534
      vertex -14.5 0 -2.67
      vertex -17.5 0 -2.67
    endloop
  endfacet
  facet normal -2.08654e-16 0.34202 0.939693
    outer loop
      vertex -17.6804 -1.71624 -2.04534
      vertex -14.5 -1.71624 -2.04534
      vertex -17.5 0 -2.67
    endloop
  endfacet
  facet normal 3.85576e-17 0.984808 -0.173648
    outer loop
      vertex -14.5 -2.31229 1.335
      vertex -14.5 -2.62944 -0.463641
      vertex -17.8172 -2.31229 1.335
    endloop
  endfacet
  facet normal 3.85576e-17 0.984808 -0.173648
    outer loop
      vertex -17.8172 -2.31229 1.335
      vertex -14.5 -2.62944 -0.463641
      vertex -17.9202 -2.62944 -0.463641
    endloop
  endfacet
  facet normal 1.70096e-16 0.642788 -0.766045
    outer loop
      vertex -17.596 -0.913194 2.50898
      vertex -14.5 -0.913194 2.50898
      vertex -17.7076 -1.97507 1.61796
    endloop
  endfacet
  facet normal 1.70096e-16 0.642788 -0.766045
    outer loop
      vertex -17.7076 -1.97507 1.61796
      vertex -14.5 -0.913194 2.50898
      vertex -14.5 -2.31229 1.335
    endloop
  endfacet
  facet normal 1.70096e-16 0.642788 -0.766045
    outer loop
      vertex -17.7076 -1.97507 1.61796
      vertex -14.5 -2.31229 1.335
      vertex -17.8172 -2.31229 1.335
    endloop
  endfacet
  facet normal 2.22045e-16 0 -1
    outer loop
      vertex -17.596 0.913194 2.50898
      vertex -14.5 0.913194 2.50898
      vertex -17.5 9.5e-05 2.50898
    endloop
  endfacet
  facet normal 2.22045e-16 0 -1
    outer loop
      vertex -17.5 9.5e-05 2.50898
      vertex -14.5 0.913194 2.50898
      vertex -14.5 -0.913194 2.50898
    endloop
  endfacet
  facet normal 2.22045e-16 0 -1
    outer loop
      vertex -17.5 9.5e-05 2.50898
      vertex -14.5 -0.913194 2.50898
      vertex -17.596 -0.913194 2.50898
    endloop
  endfacet
  facet normal 0 0 1
    outer loop
      vertex 1 7.5 2
      vertex 1 3 2
      vertex 4 3 2
    endloop
  endfacet
  facet normal 0 0 1
    outer loop
      vertex 3 5 2
      vertex 1 7.5 2
      vertex 4 3 2
    endloop
  endfacet
  facet normal 0 0 1
    outer loop
      vertex 4 -7 2
      vertex 6 -7 2
      vertex 4 3 2
    endloop
  endfacet
  facet normal 0 0 1
    outer loop
      vertex 6 -7 2
      vertex 6 3 2
      vertex 4 3 2
    endloop
  endfacet
  facet normal 0 0 1
    outer loop
      vertex 3 5 2
      vertex 3 7.5 2
      vertex 1 7.5 2
    endloop
  endfacet
  facet normal 0 0 1
    outer loop
      vertex 11 -7 2
      vertex 13 -7 2
      vertex 11 3 2
    endloop
  endfacet
  facet normal 0 0 1
    outer loop
      vertex 13 -7 2
      vertex 13 5 2
      vertex 11 3 2
    endloop
  endfacet
  facet normal 0 0 1
    outer loop
      vertex 6 3 2
      vertex 3 5 2
      vertex 4 3 2
    endloop
  endfacet
  facet normal 0 0 1
    outer loop
      vertex 13 5 2
      vertex 6 3 2
      vertex 11 3 2
    endloop
  endfacet
  facet normal 0 0 1
    outer loop
      vertex 13 5 2
      vertex 3 5 2
      vertex 6 3 2
    endloop
  endfacet
  facet normal 1 0 2.22045e-16
    outer loop
      vertex 36.5 -6.81229 1.335
      vertex 36.5 -7.12944 -0.463641
      vertex 36.5 -6.21624 -2.04534
    endloop
  endfacet
  facet normal 1 0 2.22045e-16
    outer loop
      vertex 36.5 -2.78376 -2.04534
      vertex 36.5 -6.81229 1.335
      vertex 36.5 -4.5 -2.67
    endloop
  endfacet
  facet normal 1 0 2.22045e-16
    outer loop
      vertex 36.5 -4.5 -2.67
      vertex 36.5 -6.81229 1.335
      vertex 36.5 -6.21624 -2.04534
    endloop
  endfacet
  facet normal 1 0 2.22045e-16
    outer loop
      vertex 36.5 -1.87056 -0.463641
      vertex 36.5 -6.81229 1.335
      vertex 36.5 -2.78376 -2.04534
    endloop
  endfacet
  facet normal 1 0 2.22045e-16
    outer loop
      vertex 36.5 -2.18771 1.335
      vertex 36.5 -6.81229 1.335
      vertex 36.5 -1.87056 -0.463641
    endloop
  endfacet
  facet normal 1 0 2.22045e-16
    outer loop
      vertex 36.5 -3.58681 2.50898
      vertex 36.5 -6.81229 1.335
      vertex 36.5 -2.18771 1.335
    endloop
  endfacet
  facet normal 1 0 2.22045e-16
    outer loop
      vertex 36.5 -5.41319 2.50898
      vertex 36.5 -6.81229 1.335
      vertex 36.5 -3.58681 2.50898
    endloop
  endfacet
  facet normal 1 0 2.22045e-16
    outer loop
      vertex 36.5 2.18771 1.335
      vertex 36.5 1.87056 -0.463641
      vertex 36.5 2.78376 -2.04534
    endloop
  endfacet
  facet normal 1 0 2.22045e-16
    outer loop
      vertex 36.5 6.21624 -2.04534
      vertex 36.5 2.18771 1.335
      vertex 36.5 4.5 -2.67
    endloop
  endfacet
  facet normal 1 0 2.22045e-16
    outer loop
      vertex 36.5 4.5 -2.67
      vertex 36.5 2.18771 1.335
      vertex 36.5 2.78376 -2.04534
    endloop
  endfacet
  facet normal 1 0 2.22045e-16
    outer loop
      vertex 36.5 7.12944 -0.463641
      vertex 36.5 2.18771 1.335
      vertex 36.5 6.21624 -2.04534
    endloop
  endfacet
  facet normal 1 0 2.22045e-16
    outer loop
      vertex 36.5 6.81229 1.335
      vertex 36.5 2.18771 1.335
      vertex 36.5 7.12944 -0.463641
    endloop
  endfacet
  facet normal 1 0 2.22045e-16
    outer loop
      vertex 36.5 5.41319 2.50898
      vertex 36.5 2.18771 1.335
      vertex 36.5 6.81229 1.335
    endloop
  endfacet
  facet normal 1 0 2.22045e-16
    outer loop
      vertex 36.5 3.58681 2.50898
      vertex 36.5 2.18771 1.335
      vertex 36.5 5.41319 2.50898
    endloop
  endfacet
  facet normal -1 0 -2.22045e-16
    outer loop
      vertex -14.5 2.31229 1.335
      vertex -14.5 2.62944 -0.463641
      vertex -14.5 0.913194 2.50898
    endloop
  endfacet
  facet normal -1 0 -2.22045e-16
    outer loop
      vertex -14.5 0.913194 2.50898
      vertex -14.5 2.62944 -0.463641
      vertex -14.5 1.71624 -2.04534
    endloop
  endfacet
  facet normal -1 0 -2.22045e-16
    outer loop
      vertex -14.5 0.913194 2.50898
      vertex -14.5 1.71624 -2.04534
      vertex -14.5 0 -2.67
    endloop
  endfacet
  facet normal -1 0 -2.22045e-16
    outer loop
      vertex -14.5 0.913194 2.50898
      vertex -14.5 0 -2.67
      vertex -14.5 -1.71624 -2.04534
    endloop
  endfacet
  facet normal -1 0 -2.22045e-16
    outer loop
      vertex -14.5 0.913194 2.50898
      vertex -14.5 -1.71624 -2.04534
      vertex -14.5 -2.62944 -0.463641
    endloop
  endfacet
  facet normal -1 0 -2.22045e-16
    outer loop
      vertex -14.5 0.913194 2.50898
      vertex -14.5 -2.62944 -0.463641
      vertex -14.5 -2.31229 1.335
    endloop
  endfacet
  facet normal -1 0 -2.22045e-16
    outer loop
      vertex -14.5 0.913194 2.50898
      vertex -14.5 -2.31229 1.335
      vertex -14.5 -0.913194 2.50898
    endloop
  endfacet
endsolid OpenSCAD_Model
