solid OpenSCAD_Model
  facet normal -1 0 0
    outer loop
      vertex -27.5 -9.5 -3.5
      vertex -27.5 -9.5 3.5
      vertex -27.5 -9.12754 -3.5
    endloop
  endfacet
  facet normal -1 0 0
    outer loop
      vertex -27.5 -9.12754 -3.5
      vertex -27.5 -9.5 3.5
      vertex -27.5 -9.12754 3.5
    endloop
  endfacet
  facet normal 0 -1 0
    outer loop
      vertex 26.9019 -9.5 -3.46437
      vertex -27.5 -9.5 -3.5
      vertex 27.5 -9.5 -3.5
    endloop
  endfacet
  facet normal 0 -1 0
    outer loop
      vertex 24.0418 -9.5 -0.986064
      vertex -7 -9.5 0
      vertex 25.108 -9.5 -2.64512
    endloop
  endfacet
  facet normal 0 -1 0
    outer loop
      vertex -10.9981 -9.5 -3.46437
      vertex -12.792 -9.5 -2.64512
      vertex -27.5 -9.5 -3.5
    endloop
  endfacet
  facet normal 0 -1 0
    outer loop
      vertex 28.854 -9.5 -3.18371
      vertex 26.9019 -9.5 -3.46437
      vertex 27.5 -9.5 -3.45
    endloop
  endfacet
  facet normal 0 -1 0
    outer loop
      vertex 30.3444 -9.5 -1.89224
      vertex 28.854 -9.5 -3.18371
      vertex 39.6 -9.5 -3.45
    endloop
  endfacet
  facet normal 0 -1 0
    outer loop
      vertex 39.6 -9.5 3.55
      vertex 30.9 -9.5 2.10942e-15
      vertex 39.6 -9.5 -3.45
    endloop
  endfacet
  facet normal 0 -1 0
    outer loop
      vertex 39.6 -9.5 3.55
      vertex 27.1 -9.5 2.10942e-15
      vertex 30.9 -9.5 2.10942e-15
    endloop
  endfacet
  facet normal 0 -1 0
    outer loop
      vertex 25.108 -9.5 -2.64512
      vertex -7 -9.5 0
      vertex 26.9019 -9.5 -3.46437
    endloop
  endfacet
  facet normal 0 -1 0
    outer loop
      vertex 39.6 -9.5 -3.45
      vertex 28.854 -9.5 -3.18371
      vertex 27.5 -9.5 -3.45
    endloop
  endfacet
  facet normal 0 -1 0
    outer loop
      vertex -10.9981 -9.5 -3.46437
      vertex -27.5 -9.5 -3.5
      vertex 26.9019 -9.5 -3.46437
    endloop
  endfacet
  facet normal 0 -1 0
    outer loop
      vertex -12.792 -9.5 -2.64512
      vertex -13.8582 -9.5 -0.986064
      vertex -27.5 -9.5 -3.5
    endloop
  endfacet
  facet normal 0 -1 0
    outer loop
      vertex 27.5 -9.5 -3.45
      vertex 26.9019 -9.5 -3.46437
      vertex 27.5 -9.5 -3.5
    endloop
  endfacet
  facet normal 0 -1 0
    outer loop
      vertex -10 -9.5 2.10942e-15
      vertex -10 -9.5 3.5
      vertex -27.5 -9.5 3.5
    endloop
  endfacet
  facet normal 0 -1 0
    outer loop
      vertex -7 -9.5 0
      vertex -7.55561 -9.5 -1.89224
      vertex 26.9019 -9.5 -3.46437
    endloop
  endfacet
  facet normal 0 -1 0
    outer loop
      vertex -7.55561 -9.5 -1.89224
      vertex -9.04605 -9.5 -3.18371
      vertex 26.9019 -9.5 -3.46437
    endloop
  endfacet
  facet normal 0 -1 0
    outer loop
      vertex -9.04605 -9.5 -3.18371
      vertex -10.9981 -9.5 -3.46437
      vertex 26.9019 -9.5 -3.46437
    endloop
  endfacet
  facet normal 0 -1 0
    outer loop
      vertex -27.5 -9.5 3.5
      vertex -27.5 -9.5 -3.5
      vertex -13.8582 -9.5 -0.986064
    endloop
  endfacet
  facet normal 0 -1 0
    outer loop
      vertex -27.5 -9.5 3.5
      vertex -13.8582 -9.5 -0.986064
      vertex -13.8582 -9.5 2.10942e-15
    endloop
  endfacet
  facet normal 0 -1 0
    outer loop
      vertex -27.5 -9.5 3.5
      vertex -13.8582 -9.5 2.10942e-15
      vertex -10 -9.5 2.10942e-15
    endloop
  endfacet
  facet normal 0 -1 0
    outer loop
      vertex 30.9 -9.5 2.10942e-15
      vertex 30.3444 -9.5 -1.89224
      vertex 39.6 -9.5 -3.45
    endloop
  endfacet
  facet normal 0 -1 0
    outer loop
      vertex 27.1 -9.5 3.55
      vertex 27.1 -9.5 2.10942e-15
      vertex 39.6 -9.5 3.55
    endloop
  endfacet
  facet normal 0 -1 0
    outer loop
      vertex 24.0418 -9.5 0
      vertex -7 -9.5 0
      vertex 24.0418 -9.5 -0.986064
    endloop
  endfacet
  facet normal 0 0 -1
    outer loop
      vertex -27.5 -9.5 -3.5
      vertex -27.5 -9.12754 -3.5
      vertex 27.5 -9.5 -3.5
    endloop
  endfacet
  facet normal 0 0 -1
    outer loop
      vertex 27.5 -9.5 -3.5
      vertex -27.5 -9.12754 -3.5
      vertex -27.0643 -9.03494 -3.5
    endloop
  endfacet
  facet normal 0 0 -1
    outer loop
      vertex 27.5 -9.5 -3.5
      vertex -27.0643 -9.03494 -3.5
      vertex -25.25 -8.22715 -3.5
    endloop
  endfacet
  facet normal 0 0 -1
    outer loop
      vertex -25.25 -8.22715 -3.5
      vertex -23.6433 -7.05978 -3.5
      vertex 27.5 -9.5 -3.5
    endloop
  endfacet
  facet normal 0 0 -1
    outer loop
      vertex -23.6433 -7.05978 -3.5
      vertex -22.3143 -5.58386 -3.5
      vertex 27.5 -9.5 -3.5
    endloop
  endfacet
  facet normal 0 0 -1
    outer loop
      vertex -22.3143 -5.58386 -3.5
      vertex -21.3213 -3.8639 -3.5
      vertex 27.5 -9.5 -3.5
    endloop
  endfacet
  facet normal 0 0 -1
    outer loop
      vertex -21.3213 -3.8639 -3.5
      vertex -20.7076 -1.97507 -3.5
      vertex 27.5 -9.5 -3.5
    endloop
  endfacet
  facet normal 0 0 -1
    outer loop
      vertex -20.7076 -1.97507 -3.5
      vertex -20.5 9.5e-05 -3.5
      vertex 27.5 -9.5 -3.5
    endloop
  endfacet
  facet normal 0 0 -1
    outer loop
      vertex -20.5 9.5e-05 -3.5
      vertex -20.7076 1.97526 -3.5
      vertex 27.5 -9.5 -3.5
    endloop
  endfacet
  facet normal 0 0 -1
    outer loop
      vertex -20.7076 1.97526 -3.5
      vertex -21.3213 3.86409 -3.5
      vertex 27.5 -9.5 -3.5
    endloop
  endfacet
  facet normal 0 0 -1
    outer loop
      vertex -21.3213 3.86409 -3.5
      vertex -22.3143 5.58405 -3.5
      vertex 27.5 -9.5 -3.5
    endloop
  endfacet
  facet normal 0 0 -1
    outer loop
      vertex -22.3143 5.58405 -3.5
      vertex -23.6433 7.05997 -3.5
      vertex 27.5 -9.5 -3.5
    endloop
  endfacet
  facet normal 0 0 -1
    outer loop
      vertex -23.6433 7.05997 -3.5
      vertex -25.25 8.22734 -3.5
      vertex 27.5 -9.5 -3.5
    endloop
  endfacet
  facet normal 0 0 -1
    outer loop
      vertex -25.25 8.22734 -3.5
      vertex -27.0643 9.03513 -3.5
      vertex 27.5 -9.5 -3.5
    endloop
  endfacet
  facet normal 0 0 -1
    outer loop
      vertex -27.0643 9.03513 -3.5
      vertex -27.5 9.12773 -3.5
      vertex -27.5 9.5 -3.5
    endloop
  endfacet
  facet normal 0 0 -1
    outer loop
      vertex -27.0643 9.03513 -3.5
      vertex -27.5 9.5 -3.5
      vertex 27.5 -9.5 -3.5
    endloop
  endfacet
  facet normal 0 0 -1
    outer loop
      vertex 27.5 -9.5 -3.5
      vertex -27.5 9.5 -3.5
      vertex 27.5 9.5 -3.5
    endloop
  endfacet
  facet normal -0.207912 0.978148 0
    outer loop
      vertex -27.0643 -9.03494 3.5
      vertex -27.0643 -9.03494 -3.5
      vertex -27.5 -9.12754 3.5
    endloop
  endfacet
  facet normal -0.207912 0.978148 0
    outer loop
      vertex -27.5 -9.12754 3.5
      vertex -27.0643 -9.03494 -3.5
      vertex -27.5 -9.12754 -3.5
    endloop
  endfacet
  facet normal 0 0 1
    outer loop
      vertex -27.5 -9.12754 3.5
      vertex -27.5 -9.5 3.5
      vertex -10 -9.5 3.5
    endloop
  endfacet
  facet normal 0 0 1
    outer loop
      vertex -27.0643 -9.03494 3.5
      vertex -27.5 -9.12754 3.5
      vertex -10 -9.5 3.5
    endloop
  endfacet
  facet normal 0 0 1
    outer loop
      vertex -27.5 9.5 3.5
      vertex -27.5 9.12773 3.5
      vertex -10 9.5 3.5
    endloop
  endfacet
  facet normal 0 0 1
    outer loop
      vertex -27.5 9.12773 3.5
      vertex -27.0643 9.03513 3.5
      vertex -10 9.5 3.5
    endloop
  endfacet
  facet normal 0 0 1
    outer loop
      vertex -27.0643 9.03513 3.5
      vertex -25.25 8.22734 3.5
      vertex -10 9.5 3.5
    endloop
  endfacet
  facet normal 0 0 1
    outer loop
      vertex -25.25 8.22734 3.5
      vertex -23.6433 7.05997 3.5
      vertex -10 9.5 3.5
    endloop
  endfacet
  facet normal 0 0 1
    outer loop
      vertex -23.6433 7.05997 3.5
      vertex -22.3143 5.58405 3.5
      vertex -10 9.5 3.5
    endloop
  endfacet
  facet normal 0 0 1
    outer loop
      vertex -22.3143 5.58405 3.5
      vertex -21.3213 3.86409 3.5
      vertex -10 9.5 3.5
    endloop
  endfacet
  facet normal 0 0 1
    outer loop
      vertex -21.3213 3.86409 3.5
      vertex -20.7076 1.97526 3.5
      vertex -10 9.5 3.5
    endloop
  endfacet
  facet normal 0 0 1
    outer loop
      vertex -20.7076 1.97526 3.5
      vertex -20.5 9.5e-05 3.5
      vertex -10 9.5 3.5
    endloop
  endfacet
  facet normal 0 0 1
    outer loop
      vertex -10 9.5 3.5
      vertex -20.7076 -1.97507 3.5
      vertex -10 -9.5 3.5
    endloop
  endfacet
  facet normal 0 0 1
    outer loop
      vertex -20.7076 -1.97507 3.5
      vertex -21.3213 -3.8639 3.5
      vertex -10 -9.5 3.5
    endloop
  endfacet
  facet normal 0 0 1
    outer loop
      vertex -21.3213 -3.8639 3.5
      vertex -22.3143 -5.58386 3.5
      vertex -10 -9.5 3.5
    endloop
  endfacet
  facet normal 0 0 1
    outer loop
      vertex -22.3143 -5.58386 3.5
      vertex -23.6433 -7.05978 3.5
      vertex -10 -9.5 3.5
    endloop
  endfacet
  facet normal 0 0 1
    outer loop
      vertex -23.6433 -7.05978 3.5
      vertex -25.25 -8.22715 3.5
      vertex -10 -9.5 3.5
    endloop
  endfacet
  facet normal 0 0 1
    outer loop
      vertex -25.25 -8.22715 3.5
      vertex -27.0643 -9.03494 3.5
      vertex -10 -9.5 3.5
    endloop
  endfacet
  facet normal 0 0 1
    outer loop
      vertex -20.5 9.5e-05 3.5
      vertex -20.7076 -1.97507 3.5
      vertex -10 9.5 3.5
    endloop
  endfacet
  facet normal 1 0 0
    outer loop
      vertex -10 -9.5 3.32087
      vertex -10 9.5 3.32087
      vertex -10 9.5 3.5
    endloop
  endfacet
  facet normal 1 0 0
    outer loop
      vertex -10 -9.5 2.10942e-15
      vertex -10 -9.5 3.32087
      vertex -10 -9.5 3.5
    endloop
  endfacet
  facet normal 1 0 0
    outer loop
      vertex -10 -9.5 3.5
      vertex -10 -9.5 3.32087
      vertex -10 9.5 3.5
    endloop
  endfacet
  facet normal 0 -1 2.22045e-16
    outer loop
      vertex -13.8582 -9.5 2.10942e-15
      vertex -13.8582 -9.5 -0.986064
      vertex -12.792 -9.5 -2.64512
    endloop
  endfacet
  facet normal 0 -1 2.22045e-16
    outer loop
      vertex -9.04605 -9.5 -3.18371
      vertex -13.8582 -9.5 2.10942e-15
      vertex -10.9981 -9.5 -3.46437
    endloop
  endfacet
  facet normal 0 -1 2.22045e-16
    outer loop
      vertex -10.9981 -9.5 -3.46437
      vertex -13.8582 -9.5 2.10942e-15
      vertex -12.792 -9.5 -2.64512
    endloop
  endfacet
  facet normal 0 -1 2.22045e-16
    outer loop
      vertex -7.55561 -9.5 -1.89224
      vertex -13.8582 -9.5 2.10942e-15
      vertex -9.04605 -9.5 -3.18371
    endloop
  endfacet
  facet normal 0 -1 2.22045e-16
    outer loop
      vertex -7 -9.5 2.10942e-15
      vertex -10 -9.5 2.10942e-15
      vertex -7.55561 -9.5 -1.89224
    endloop
  endfacet
  facet normal 0 -1 2.22045e-16
    outer loop
      vertex -10 -9.5 2.10942e-15
      vertex -13.8582 -9.5 2.10942e-15
      vertex -7.55561 -9.5 -1.89224
    endloop
  endfacet
  facet normal 0 -1 2.22045e-16
    outer loop
      vertex -7.55561 -9.5 1.89224
      vertex -10 -9.5 2.10942e-15
      vertex -7 -9.5 2.10942e-15
    endloop
  endfacet
  facet normal 0 -1 2.22045e-16
    outer loop
      vertex -10 -9.5 3.32087
      vertex -7.55561 -9.5 1.89224
      vertex -9.04605 -9.5 3.18371
    endloop
  endfacet
  facet normal 0 -1 2.22045e-16
    outer loop
      vertex -10 -9.5 3.32087
      vertex -10 -9.5 2.10942e-15
      vertex -7.55561 -9.5 1.89224
    endloop
  endfacet
  facet normal 0.959493 -6.25572e-17 -0.281733
    outer loop
      vertex -7 -9.5 2.10942e-15
      vertex -7.55561 -9.5 -1.89224
      vertex -7 -9.5 0
    endloop
  endfacet
  facet normal 0.959493 -6.25572e-17 -0.281733
    outer loop
      vertex -7 0 0
      vertex -7 -9.5 2.10942e-15
      vertex -7 -9.5 0
    endloop
  endfacet
  facet normal 0 0 1
    outer loop
      vertex 1 7.5 0
      vertex 24.0418 9.5 0
      vertex -7 9.5 0
    endloop
  endfacet
  facet normal 0 0 1
    outer loop
      vertex 3 5 0
      vertex 13 5 0
      vertex 3 7.5 0
    endloop
  endfacet
  facet normal 0 0 1
    outer loop
      vertex 3 7.5 0
      vertex 24.0418 9.5 0
      vertex 1 7.5 0
    endloop
  endfacet
  facet normal 0 0 1
    outer loop
      vertex 13 5 0
      vertex 24.0418 9.5 0
      vertex 3 7.5 0
    endloop
  endfacet
  facet normal 0 0 1
    outer loop
      vertex 11 -7 0
      vertex 11 3 0
      vertex 6 3 0
    endloop
  endfacet
  facet normal 0 0 1
    outer loop
      vertex 6 3 0
      vertex 6 -7 0
      vertex 11 -7 0
    endloop
  endfacet
  facet normal 0 0 1
    outer loop
      vertex 24.0418 -9.5 0
      vertex 24.0418 9.5 0
      vertex 13 5 0
    endloop
  endfacet
  facet normal 0 0 1
    outer loop
      vertex -7 -9.5 0
      vertex 24.0418 -9.5 0
      vertex 13 -7 0
    endloop
  endfacet
  facet normal 0 0 1
    outer loop
      vertex -7 -9.5 0
      vertex 13 -7 0
      vertex 11 -7 0
    endloop
  endfacet
  facet normal 0 0 1
    outer loop
      vertex -7 -9.5 0
      vertex 11 -7 0
      vertex 6 -7 0
    endloop
  endfacet
  facet normal 0 0 1
    outer loop
      vertex -7 -9.5 0
      vertex 4 -7 0
      vertex -7 0 0
    endloop
  endfacet
  facet normal 0 0 1
    outer loop
      vertex -7 -9.5 0
      vertex 6 -7 0
      vertex 4 -7 0
    endloop
  endfacet
  facet normal 0 0 1
    outer loop
      vertex -7 0 0
      vertex 1 3 0
      vertex -7 9.5 0
    endloop
  endfacet
  facet normal 0 0 1
    outer loop
      vertex 4 -7 0
      vertex 1 3 0
      vertex -7 0 0
    endloop
  endfacet
  facet normal 0 0 1
    outer loop
      vertex 4 -7 0
      vertex 4 3 0
      vertex 1 3 0
    endloop
  endfacet
  facet normal 0 0 1
    outer loop
      vertex 1 3 0
      vertex 1 7.5 0
      vertex -7 9.5 0
    endloop
  endfacet
  facet normal 0 0 1
    outer loop
      vertex 13 5 0
      vertex 13 -7 0
      vertex 24.0418 -9.5 0
    endloop
  endfacet
  facet normal -1 0 0
    outer loop
      vertex 24.0418 9.5 0
      vertex 24.0418 9.5 0.986064
      vertex 24.0418 9.5 -2.10942e-15
    endloop
  endfacet
  facet normal -1 0 0
    outer loop
      vertex 24.0418 -9.5 -0.986064
      vertex 24.0418 -9.5 0.986064
      vertex 24.0418 -9.5 0
    endloop
  endfacet
  facet normal -1 0 0
    outer loop
      vertex 24.0418 -9.5 0
      vertex 24.0418 -9.5 0.986064
      vertex 24.0418 9.5 0.986064
    endloop
  endfacet
  facet normal -1 0 0
    outer loop
      vertex 24.0418 -9.5 0
      vertex 24.0418 9.5 0.986064
      vertex 24.0418 9.5 0
    endloop
  endfacet
  facet normal 0 -1 2.22045e-16
    outer loop
      vertex 24.0418 -9.5 0.986064
      vertex 24.0418 -9.5 -0.986064
      vertex 25.108 -9.5 -2.64512
    endloop
  endfacet
  facet normal 0 -1 2.22045e-16
    outer loop
      vertex 28.854 -9.5 -3.18371
      vertex 24.0418 -9.5 0.986064
      vertex 26.9019 -9.5 -3.46437
    endloop
  endfacet
  facet normal 0 -1 2.22045e-16
    outer loop
      vertex 26.9019 -9.5 -3.46437
      vertex 24.0418 -9.5 0.986064
      vertex 25.108 -9.5 -2.64512
    endloop
  endfacet
  facet normal 0 -1 2.22045e-16
    outer loop
      vertex 30.3444 -9.5 -1.89224
      vertex 24.0418 -9.5 0.986064
      vertex 28.854 -9.5 -3.18371
    endloop
  endfacet
  facet normal 0 -1 2.22045e-16
    outer loop
      vertex 27.1 -9.5 2.10942e-15
      vertex 24.0418 -9.5 0.986064
      vertex 30.3444 -9.5 -1.89224
    endloop
  endfacet
  facet normal 0 -1 2.22045e-16
    outer loop
      vertex 30.9 -9.5 2.10942e-15
      vertex 27.1 -9.5 2.10942e-15
      vertex 30.3444 -9.5 -1.89224
    endloop
  endfacet
  facet normal 0 -1 2.22045e-16
    outer loop
      vertex 26.9019 -9.5 3.46438
      vertex 24.0418 -9.5 0.986064
      vertex 27.1 -9.5 3.43589
    endloop
  endfacet
  facet normal 0 -1 2.22045e-16
    outer loop
      vertex 25.108 -9.5 2.64512
      vertex 24.0418 -9.5 0.986064
      vertex 26.9019 -9.5 3.46438
    endloop
  endfacet
  facet normal 0 -1 2.22045e-16
    outer loop
      vertex 27.1 -9.5 2.10942e-15
      vertex 27.1 -9.5 3.43589
      vertex 24.0418 -9.5 0.986064
    endloop
  endfacet
  facet normal -1 0 0
    outer loop
      vertex 27.1 -9.5 2.10942e-15
      vertex 27.1 -9.5 3.55
      vertex 27.1 -9.5 3.43589
    endloop
  endfacet
  facet normal -1 0 0
    outer loop
      vertex 27.1 -9.5 3.43589
      vertex 27.1 -9.5 3.55
      vertex 27.1 9.5 3.55
    endloop
  endfacet
  facet normal -1 0 0
    outer loop
      vertex 27.1 -9.5 3.43589
      vertex 27.1 9.5 3.55
      vertex 27.1 9.5 3.43589
    endloop
  endfacet
  facet normal 0 0 1
    outer loop
      vertex 27.1 9.5 3.55
      vertex 27.1 -9.5 3.55
      vertex 39.6 -9.5 3.55
    endloop
  endfacet
  facet normal 0 0 1
    outer loop
      vertex 39.6 9.5 3.55
      vertex 27.1 9.5 3.55
      vertex 39.6 -9.5 3.55
    endloop
  endfacet
  facet normal 1 0 0
    outer loop
      vertex 39.6 -4.5 -2.65
      vertex 39.6 -9.5 -3.45
      vertex 39.6 9.5 -3.45
    endloop
  endfacet
  facet normal 1 0 0
    outer loop
      vertex 39.6 -9.5 3.55
      vertex 39.6 -9.5 -3.45
      vertex 39.6 -7.10974 -0.460168
    endloop
  endfacet
  facet normal 1 0 0
    outer loop
      vertex 39.6 -9.5 3.55
      vertex 39.6 -7.10974 -0.460168
      vertex 39.6 -6.79497 1.325
    endloop
  endfacet
  facet normal 1 0 0
    outer loop
      vertex 39.6 1.89026 -0.460168
      vertex 39.6 2.20503 1.325
      vertex 39.6 -3.59365 2.49019
    endloop
  endfacet
  facet normal 1 0 0
    outer loop
      vertex 39.6 9.5 3.55
      vertex 39.6 -9.5 3.55
      vertex 39.6 -5.40635 2.49019
    endloop
  endfacet
  facet normal 1 0 0
    outer loop
      vertex 39.6 9.5 3.55
      vertex 39.6 -5.40635 2.49019
      vertex 39.6 -3.59365 2.49019
    endloop
  endfacet
  facet normal 1 0 0
    outer loop
      vertex 39.6 4.5 -2.65
      vertex 39.6 -2.79661 -2.03002
      vertex 39.6 9.5 -3.45
    endloop
  endfacet
  facet normal 1 0 0
    outer loop
      vertex 39.6 -2.79661 -2.03002
      vertex 39.6 -4.5 -2.65
      vertex 39.6 9.5 -3.45
    endloop
  endfacet
  facet normal 1 0 0
    outer loop
      vertex 39.6 2.79661 -2.03002
      vertex 39.6 1.89026 -0.460168
      vertex 39.6 -1.89026 -0.460168
    endloop
  endfacet
  facet normal 1 0 0
    outer loop
      vertex 39.6 -7.10974 -0.460168
      vertex 39.6 -9.5 -3.45
      vertex 39.6 -6.20339 -2.03002
    endloop
  endfacet
  facet normal 1 0 0
    outer loop
      vertex 39.6 -1.89026 -0.460168
      vertex 39.6 -2.79661 -2.03002
      vertex 39.6 4.5 -2.65
    endloop
  endfacet
  facet normal 1 0 0
    outer loop
      vertex 39.6 3.59365 2.49019
      vertex 39.6 -3.59365 2.49019
      vertex 39.6 2.20503 1.325
    endloop
  endfacet
  facet normal 1 0 0
    outer loop
      vertex 39.6 9.5 3.55
      vertex 39.6 -3.59365 2.49019
      vertex 39.6 3.59365 2.49019
    endloop
  endfacet
  facet normal 1 0 0
    outer loop
      vertex 39.6 7.10974 -0.460168
      vertex 39.6 6.20339 -2.03002
      vertex 39.6 9.5 -3.45
    endloop
  endfacet
  facet normal 1 0 0
    outer loop
      vertex 39.6 9.5 3.55
      vertex 39.6 3.59365 2.49019
      vertex 39.6 5.40635 2.49019
    endloop
  endfacet
  facet normal 1 0 0
    outer loop
      vertex 39.6 9.5 3.55
      vertex 39.6 6.79497 1.325
      vertex 39.6 9.5 -3.45
    endloop
  endfacet
  facet normal 1 0 0
    outer loop
      vertex 39.6 6.79497 1.325
      vertex 39.6 7.10974 -0.460168
      vertex 39.6 9.5 -3.45
    endloop
  endfacet
  facet normal 1 0 0
    outer loop
      vertex 39.6 5.40635 2.49019
      vertex 39.6 6.79497 1.325
      vertex 39.6 9.5 3.55
    endloop
  endfacet
  facet normal 1 0 0
    outer loop
      vertex 39.6 6.20339 -2.03002
      vertex 39.6 4.5 -2.65
      vertex 39.6 9.5 -3.45
    endloop
  endfacet
  facet normal 1 0 0
    outer loop
      vertex 39.6 -4.5 -2.65
      vertex 39.6 -6.20339 -2.03002
      vertex 39.6 -9.5 -3.45
    endloop
  endfacet
  facet normal 1 0 0
    outer loop
      vertex 39.6 1.89026 -0.460168
      vertex 39.6 -3.59365 2.49019
      vertex 39.6 -2.20503 1.325
    endloop
  endfacet
  facet normal 1 0 0
    outer loop
      vertex 39.6 -1.89026 -0.460168
      vertex 39.6 4.5 -2.65
      vertex 39.6 2.79661 -2.03002
    endloop
  endfacet
  facet normal 1 0 0
    outer loop
      vertex 39.6 -6.79497 1.325
      vertex 39.6 -5.40635 2.49019
      vertex 39.6 -9.5 3.55
    endloop
  endfacet
  facet normal 1 0 0
    outer loop
      vertex 39.6 -2.20503 1.325
      vertex 39.6 -1.89026 -0.460168
      vertex 39.6 1.89026 -0.460168
    endloop
  endfacet
  facet normal 0 0 -1
    outer loop
      vertex 27.5 -9.5 -3.45
      vertex 27.5 9.5 -3.45
      vertex 39.6 -9.5 -3.45
    endloop
  endfacet
  facet normal 0 0 -1
    outer loop
      vertex 39.6 -9.5 -3.45
      vertex 27.5 9.5 -3.45
      vertex 39.6 9.5 -3.45
    endloop
  endfacet
  facet normal 1 0 0
    outer loop
      vertex 27.5 -9.5 -3.45
      vertex 27.5 -9.5 -3.5
      vertex 27.5 9.5 -3.5
    endloop
  endfacet
  facet normal 1 0 0
    outer loop
      vertex 27.5 9.5 -3.45
      vertex 27.5 -9.5 -3.45
      vertex 27.5 9.5 -3.5
    endloop
  endfacet
  facet normal 0 1 0
    outer loop
      vertex 24.0418 9.5 -2.10942e-15
      vertex 27.5 9.5 -3.5
      vertex -7 9.5 0
    endloop
  endfacet
  facet normal 0 1 0
    outer loop
      vertex -10.9981 9.5 3.46437
      vertex -27.5 9.5 3.5
      vertex -10 9.5 3.5
    endloop
  endfacet
  facet normal 0 1 0
    outer loop
      vertex -13.8582 9.5 0.986064
      vertex -27.5 9.5 3.5
      vertex -12.792 9.5 2.64512
    endloop
  endfacet
  facet normal 0 1 0
    outer loop
      vertex -10 9.5 3.32087
      vertex -10.9981 9.5 3.46437
      vertex -10 9.5 3.5
    endloop
  endfacet
  facet normal 0 1 0
    outer loop
      vertex 24.0418 9.5 0
      vertex 24.0418 9.5 -2.10942e-15
      vertex -7 9.5 0
    endloop
  endfacet
  facet normal 0 1 0
    outer loop
      vertex -27.5 9.5 -3.5
      vertex -27.5 9.5 3.5
      vertex -13.8582 9.5 0.986064
    endloop
  endfacet
  facet normal 0 1 0
    outer loop
      vertex -27.5 9.5 -3.5
      vertex -13.8582 9.5 0.986064
      vertex -13.8582 9.5 -2.10942e-15
    endloop
  endfacet
  facet normal 0 1 0
    outer loop
      vertex -27.5 9.5 -3.5
      vertex -13.8582 9.5 -2.10942e-15
      vertex 27.5 9.5 -3.5
    endloop
  endfacet
  facet normal 0 1 0
    outer loop
      vertex -13.8582 9.5 -2.10942e-15
      vertex -7 9.5 -2.10942e-15
      vertex 27.5 9.5 -3.5
    endloop
  endfacet
  facet normal 0 1 0
    outer loop
      vertex -7 9.5 -2.10942e-15
      vertex -7 9.5 0
      vertex 27.5 9.5 -3.5
    endloop
  endfacet
  facet normal 0 1 0
    outer loop
      vertex 27.5 9.5 -3.45
      vertex 27.5 9.5 -3.5
      vertex 24.0418 9.5 -2.10942e-15
    endloop
  endfacet
  facet normal 0 1 0
    outer loop
      vertex 30.9 9.5 -2.10942e-15
      vertex 27.5 9.5 -3.45
      vertex 24.0418 9.5 -2.10942e-15
    endloop
  endfacet
  facet normal 0 1 0
    outer loop
      vertex 27.5 9.5 -3.45
      vertex 30.9 9.5 -2.10942e-15
      vertex 39.6 9.5 3.55
    endloop
  endfacet
  facet normal 0 1 0
    outer loop
      vertex 30.3444 9.5 1.89224
      vertex 39.6 9.5 3.55
      vertex 30.9 9.5 -2.10942e-15
    endloop
  endfacet
  facet normal 0 1 0
    outer loop
      vertex 28.854 9.5 3.18371
      vertex 27.1 9.5 3.43589
      vertex 27.1 9.5 3.55
    endloop
  endfacet
  facet normal 0 1 0
    outer loop
      vertex 28.854 9.5 3.18371
      vertex 27.1 9.5 3.55
      vertex 39.6 9.5 3.55
    endloop
  endfacet
  facet normal 0 1 0
    outer loop
      vertex 28.854 9.5 3.18371
      vertex 39.6 9.5 3.55
      vertex 30.3444 9.5 1.89224
    endloop
  endfacet
  facet normal 0 1 0
    outer loop
      vertex 27.5 9.5 -3.45
      vertex 39.6 9.5 3.55
      vertex 39.6 9.5 -3.45
    endloop
  endfacet
  facet normal 0 1 0
    outer loop
      vertex -12.792 9.5 2.64512
      vertex -27.5 9.5 3.5
      vertex -10.9981 9.5 3.46437
    endloop
  endfacet
  facet normal -1 0 0
    outer loop
      vertex -27.5 9.12773 -3.5
      vertex -27.5 9.12773 3.5
      vertex -27.5 9.5 -3.5
    endloop
  endfacet
  facet normal -1 0 0
    outer loop
      vertex -27.5 9.5 -3.5
      vertex -27.5 9.12773 3.5
      vertex -27.5 9.5 3.5
    endloop
  endfacet
  facet normal -0.207912 -0.978148 0
    outer loop
      vertex -27.0643 9.03513 -3.5
      vertex -27.0643 9.03513 3.5
      vertex -27.5 9.12773 3.5
    endloop
  endfacet
  facet normal -0.207912 -0.978148 0
    outer loop
      vertex -27.5 9.12773 -3.5
      vertex -27.0643 9.03513 -3.5
      vertex -27.5 9.12773 3.5
    endloop
  endfacet
  facet normal -0.406737 -0.913545 0
    outer loop
      vertex -25.25 8.22734 -3.5
      vertex -25.25 8.22734 3.5
      vertex -27.0643 9.03513 3.5
    endloop
  endfacet
  facet normal -0.406737 -0.913545 0
    outer loop
      vertex -27.0643 9.03513 -3.5
      vertex -25.25 8.22734 -3.5
      vertex -27.0643 9.03513 3.5
    endloop
  endfacet
  facet normal -0.587785 -0.809017 0
    outer loop
      vertex -23.6433 7.05997 -3.5
      vertex -23.6433 7.05997 3.5
      vertex -25.25 8.22734 3.5
    endloop
  endfacet
  facet normal -0.587785 -0.809017 0
    outer loop
      vertex -25.25 8.22734 -3.5
      vertex -23.6433 7.05997 -3.5
      vertex -25.25 8.22734 3.5
    endloop
  endfacet
  facet normal -0.743145 -0.66913 0
    outer loop
      vertex -22.3143 5.58405 3.5
      vertex -23.6433 7.05997 3.5
      vertex -22.3143 5.58405 -3.5
    endloop
  endfacet
  facet normal -0.743145 -0.66913 0
    outer loop
      vertex -22.3143 5.58405 -3.5
      vertex -23.6433 7.05997 3.5
      vertex -23.6433 7.05997 -3.5
    endloop
  endfacet
  facet normal -0.866025 -0.5 0
    outer loop
      vertex -21.3213 3.86409 3.5
      vertex -22.3143 5.58405 3.5
      vertex -21.3213 3.86409 -3.5
    endloop
  endfacet
  facet normal -0.866025 -0.5 0
    outer loop
      vertex -21.3213 3.86409 -3.5
      vertex -22.3143 5.58405 3.5
      vertex -22.3143 5.58405 -3.5
    endloop
  endfacet
  facet normal -0.951057 -0.309017 0
    outer loop
      vertex -20.7076 1.97526 -1.55913
      vertex -20.9138 2.60974 -0.460168
      vertex -20.7076 1.97526 -3.5
    endloop
  endfacet
  facet normal -0.951057 -0.309017 0
    outer loop
      vertex -21.3213 3.86409 3.5
      vertex -20.9138 2.60974 -0.460168
      vertex -20.7076 1.97526 3.5
    endloop
  endfacet
  facet normal -0.951057 -0.309017 0
    outer loop
      vertex -20.7076 1.97526 3.5
      vertex -20.8115 2.29497 1.325
      vertex -20.7076 1.97526 1.59327
    endloop
  endfacet
  facet normal -0.951057 -0.309017 0
    outer loop
      vertex -20.9138 2.60974 -0.460168
      vertex -20.8115 2.29497 1.325
      vertex -20.7076 1.97526 3.5
    endloop
  endfacet
  facet normal -0.951057 -0.309017 0
    outer loop
      vertex -20.7076 1.97526 -3.5
      vertex -20.9138 2.60974 -0.460168
      vertex -21.3213 3.86409 3.5
    endloop
  endfacet
  facet normal -0.951057 -0.309017 0
    outer loop
      vertex -20.7076 1.97526 -3.5
      vertex -21.3213 3.86409 3.5
      vertex -21.3213 3.86409 -3.5
    endloop
  endfacet
  facet normal -0.994522 -0.104529 0
    outer loop
      vertex -20.5 9.5e-05 -2.64997
      vertex -20.679 1.70339 -2.03002
      vertex -20.5 9.5e-05 -3.5
    endloop
  endfacet
  facet normal -0.994522 -0.104529 0
    outer loop
      vertex -20.7076 1.97526 -3.5
      vertex -20.679 1.70339 -2.03002
      vertex -20.7076 1.97526 -1.55913
    endloop
  endfacet
  facet normal -0.994522 -0.104529 0
    outer loop
      vertex -20.5 9.5e-05 -3.5
      vertex -20.679 1.70339 -2.03002
      vertex -20.7076 1.97526 -3.5
    endloop
  endfacet
  facet normal -0.994522 0.104529 0
    outer loop
      vertex -20.5 9.5e-05 -3.5
      vertex -20.5 0 -2.65
      vertex -20.5 9.5e-05 -2.64997
    endloop
  endfacet
  facet normal -0.994522 0.104529 0
    outer loop
      vertex -20.679 -1.70339 -2.03002
      vertex -20.5 0 -2.65
      vertex -20.5 9.5e-05 -3.5
    endloop
  endfacet
  facet normal -0.994522 0.104529 0
    outer loop
      vertex -20.679 -1.70339 -2.03002
      vertex -20.5 9.5e-05 -3.5
      vertex -20.7076 -1.97507 -3.5
    endloop
  endfacet
  facet normal -0.994522 0.104529 0
    outer loop
      vertex -20.679 -1.70339 -2.03002
      vertex -20.7076 -1.97507 -3.5
      vertex -20.7076 -1.97507 -1.55946
    endloop
  endfacet
  facet normal -0.951057 0.309017 0
    outer loop
      vertex -20.7076 -1.97507 3.5
      vertex -20.7076 -1.97507 1.59343
      vertex -21.3213 -3.8639 3.5
    endloop
  endfacet
  facet normal -0.951057 0.309017 0
    outer loop
      vertex -21.3213 -3.8639 3.5
      vertex -20.7076 -1.97507 1.59343
      vertex -20.8115 -2.29497 1.325
    endloop
  endfacet
  facet normal -0.951057 0.309017 0
    outer loop
      vertex -21.3213 -3.8639 3.5
      vertex -20.8115 -2.29497 1.325
      vertex -20.9138 -2.60974 -0.460168
    endloop
  endfacet
  facet normal -0.951057 0.309017 0
    outer loop
      vertex -20.9138 -2.60974 -0.460168
      vertex -20.7076 -1.97507 -1.55946
      vertex -20.7076 -1.97507 -3.5
    endloop
  endfacet
  facet normal -0.951057 0.309017 0
    outer loop
      vertex -20.9138 -2.60974 -0.460168
      vertex -20.7076 -1.97507 -3.5
      vertex -21.3213 -3.8639 3.5
    endloop
  endfacet
  facet normal -0.951057 0.309017 0
    outer loop
      vertex -21.3213 -3.8639 3.5
      vertex -20.7076 -1.97507 -3.5
      vertex -21.3213 -3.8639 -3.5
    endloop
  endfacet
  facet normal -0.866025 0.5 0
    outer loop
      vertex -21.3213 -3.8639 3.5
      vertex -21.3213 -3.8639 -3.5
      vertex -22.3143 -5.58386 3.5
    endloop
  endfacet
  facet normal -0.866025 0.5 0
    outer loop
      vertex -22.3143 -5.58386 3.5
      vertex -21.3213 -3.8639 -3.5
      vertex -22.3143 -5.58386 -3.5
    endloop
  endfacet
  facet normal -0.743145 0.66913 0
    outer loop
      vertex -22.3143 -5.58386 3.5
      vertex -22.3143 -5.58386 -3.5
      vertex -23.6433 -7.05978 3.5
    endloop
  endfacet
  facet normal -0.743145 0.66913 0
    outer loop
      vertex -23.6433 -7.05978 3.5
      vertex -22.3143 -5.58386 -3.5
      vertex -23.6433 -7.05978 -3.5
    endloop
  endfacet
  facet normal -0.587785 0.809017 0
    outer loop
      vertex -23.6433 -7.05978 3.5
      vertex -23.6433 -7.05978 -3.5
      vertex -25.25 -8.22715 3.5
    endloop
  endfacet
  facet normal -0.587785 0.809017 0
    outer loop
      vertex -25.25 -8.22715 3.5
      vertex -23.6433 -7.05978 -3.5
      vertex -25.25 -8.22715 -3.5
    endloop
  endfacet
  facet normal -0.406737 0.913545 0
    outer loop
      vertex -25.25 -8.22715 3.5
      vertex -25.25 -8.22715 -3.5
      vertex -27.0643 -9.03494 3.5
    endloop
  endfacet
  facet normal -0.406737 0.913545 0
    outer loop
      vertex -27.0643 -9.03494 3.5
      vertex -25.25 -8.22715 -3.5
      vertex -27.0643 -9.03494 -3.5
    endloop
  endfacet
  facet normal -0.994522 0.104529 0
    outer loop
      vertex -20.5 9.5e-05 3.5
      vertex -20.5 9.5e-05 2.49018
      vertex -20.7076 -1.97507 3.5
    endloop
  endfacet
  facet normal -0.994522 0.104529 0
    outer loop
      vertex -20.7076 -1.97507 3.5
      vertex -20.5 9.5e-05 2.49018
      vertex -20.5953 -0.906353 2.49018
    endloop
  endfacet
  facet normal -0.994522 0.104529 0
    outer loop
      vertex -20.7076 -1.97507 3.5
      vertex -20.5953 -0.906353 2.49018
      vertex -20.7076 -1.97507 1.59343
    endloop
  endfacet
  facet normal -0.994522 -0.104529 0
    outer loop
      vertex -20.5 9.5e-05 2.49018
      vertex -20.5 9.5e-05 3.5
      vertex -20.5953 0.906353 2.49018
    endloop
  endfacet
  facet normal -0.994522 -0.104529 0
    outer loop
      vertex -20.5953 0.906353 2.49018
      vertex -20.5 9.5e-05 3.5
      vertex -20.7076 1.97526 3.5
    endloop
  endfacet
  facet normal -0.994522 -0.104529 0
    outer loop
      vertex -20.5953 0.906353 2.49018
      vertex -20.7076 1.97526 3.5
      vertex -20.7076 1.97526 1.59327
    endloop
  endfacet
  facet normal 0.142315 2.19785e-16 0.989821
    outer loop
      vertex -9.04605 9.5 3.18371
      vertex -10.9981 9.5 3.46437
      vertex -10 9.5 3.32087
    endloop
  endfacet
  facet normal 0.142315 2.19785e-16 0.989821
    outer loop
      vertex -10 -9.5 3.32087
      vertex -9.04605 -9.5 3.18371
      vertex -10 9.5 3.32087
    endloop
  endfacet
  facet normal 0.142315 2.19785e-16 0.989821
    outer loop
      vertex -9.04605 -9.5 3.18371
      vertex -9.04605 9.5 3.18371
      vertex -10 9.5 3.32087
    endloop
  endfacet
  facet normal 0.654861 1.6781e-16 0.755749
    outer loop
      vertex -9.04605 9.5 3.18371
      vertex -9.04605 -9.5 3.18371
      vertex -7.55561 -9.5 1.89224
    endloop
  endfacet
  facet normal 0.654861 1.6781e-16 0.755749
    outer loop
      vertex -7.55561 9.5 1.89224
      vertex -9.04605 9.5 3.18371
      vertex -7.55561 -9.5 1.89224
    endloop
  endfacet
  facet normal 0.959493 6.25572e-17 0.281733
    outer loop
      vertex -7.55561 9.5 1.89224
      vertex -7.55561 -9.5 1.89224
      vertex -7 -9.5 2.10942e-15
    endloop
  endfacet
  facet normal 0.959493 6.25572e-17 0.281733
    outer loop
      vertex -7 9.5 0
      vertex -7.55561 9.5 1.89224
      vertex -7 0 0
    endloop
  endfacet
  facet normal 0.959493 6.25572e-17 0.281733
    outer loop
      vertex -7 0 0
      vertex -7.55561 9.5 1.89224
      vertex -7 -9.5 2.10942e-15
    endloop
  endfacet
  facet normal 0.959493 6.25572e-17 0.281733
    outer loop
      vertex -7 9.5 -2.10942e-15
      vertex -7.55561 9.5 1.89224
      vertex -7 9.5 0
    endloop
  endfacet
  facet normal 0 1 0
    outer loop
      vertex 1 7.5 0
      vertex 1 7.5 2
      vertex 3 7.5 0
    endloop
  endfacet
  facet normal 0 1 0
    outer loop
      vertex 3 7.5 0
      vertex 1 7.5 2
      vertex 3 7.5 2
    endloop
  endfacet
  facet normal -1 0 0
    outer loop
      vertex 1 3 0
      vertex 1 3 2
      vertex 1 7.5 0
    endloop
  endfacet
  facet normal -1 0 0
    outer loop
      vertex 1 7.5 0
      vertex 1 3 2
      vertex 1 7.5 2
    endloop
  endfacet
  facet normal 0 -1 0
    outer loop
      vertex 1 3 2
      vertex 1 3 0
      vertex 4 3 0
    endloop
  endfacet
  facet normal 0 -1 0
    outer loop
      vertex 4 3 2
      vertex 1 3 2
      vertex 4 3 0
    endloop
  endfacet
  facet normal -1 0 0
    outer loop
      vertex 4 -7 0
      vertex 4 -7 2
      vertex 4 3 0
    endloop
  endfacet
  facet normal -1 0 0
    outer loop
      vertex 4 3 0
      vertex 4 -7 2
      vertex 4 3 2
    endloop
  endfacet
  facet normal 0 -1 0
    outer loop
      vertex 4 -7 2
      vertex 4 -7 0
      vertex 6 -7 0
    endloop
  endfacet
  facet normal 0 -1 0
    outer loop
      vertex 6 -7 2
      vertex 4 -7 2
      vertex 6 -7 0
    endloop
  endfacet
  facet normal 1 0 0
    outer loop
      vertex 6 -7 2
      vertex 6 -7 0
      vertex 6 3 0
    endloop
  endfacet
  facet normal 1 0 0
    outer loop
      vertex 6 3 2
      vertex 6 -7 2
      vertex 6 3 0
    endloop
  endfacet
  facet normal 0 -1 0
    outer loop
      vertex 6 3 2
      vertex 6 3 0
      vertex 11 3 0
    endloop
  endfacet
  facet normal 0 -1 0
    outer loop
      vertex 11 3 2
      vertex 6 3 2
      vertex 11 3 0
    endloop
  endfacet
  facet normal -1 0 0
    outer loop
      vertex 11 -7 0
      vertex 11 -7 2
      vertex 11 3 0
    endloop
  endfacet
  facet normal -1 0 0
    outer loop
      vertex 11 3 0
      vertex 11 -7 2
      vertex 11 3 2
    endloop
  endfacet
  facet normal 0 -1 0
    outer loop
      vertex 11 -7 2
      vertex 11 -7 0
      vertex 13 -7 0
    endloop
  endfacet
  facet normal 0 -1 0
    outer loop
      vertex 13 -7 2
      vertex 11 -7 2
      vertex 13 -7 0
    endloop
  endfacet
  facet normal 1 0 0
    outer loop
      vertex 13 -7 2
      vertex 13 -7 0
      vertex 13 5 0
    endloop
  endfacet
  facet normal 1 0 0
    outer loop
      vertex 13 5 2
      vertex 13 -7 2
      vertex 13 5 0
    endloop
  endfacet
  facet normal 0 1 0
    outer loop
      vertex 3 5 0
      vertex 3 5 2
      vertex 13 5 0
    endloop
  endfacet
  facet normal 0 1 0
    outer loop
      vertex 13 5 0
      vertex 3 5 2
      vertex 13 5 2
    endloop
  endfacet
  facet normal 1 0 0
    outer loop
      vertex 3 5 2
      vertex 3 5 0
      vertex 3 7.5 0
    endloop
  endfacet
  facet normal 1 0 0
    outer loop
      vertex 3 7.5 2
      vertex 3 5 2
      vertex 3 7.5 0
    endloop
  endfacet
  facet normal 0 1 -2.22045e-16
    outer loop
      vertex 24.0418 9.5 -2.10942e-15
      vertex 24.0418 9.5 0.986064
      vertex 30.9 9.5 -2.10942e-15
    endloop
  endfacet
  facet normal 0 1 -2.22045e-16
    outer loop
      vertex 30.9 9.5 -2.10942e-15
      vertex 24.0418 9.5 0.986064
      vertex 25.108 9.5 2.64512
    endloop
  endfacet
  facet normal 0 1 -2.22045e-16
    outer loop
      vertex 30.9 9.5 -2.10942e-15
      vertex 25.108 9.5 2.64512
      vertex 26.9019 9.5 3.46437
    endloop
  endfacet
  facet normal 0 1 -2.22045e-16
    outer loop
      vertex 30.9 9.5 -2.10942e-15
      vertex 26.9019 9.5 3.46437
      vertex 28.854 9.5 3.18371
    endloop
  endfacet
  facet normal 0 1 -2.22045e-16
    outer loop
      vertex 30.9 9.5 -2.10942e-15
      vertex 28.854 9.5 3.18371
      vertex 30.3444 9.5 1.89224
    endloop
  endfacet
  facet normal -0.841254 1.20046e-16 0.54064
    outer loop
      vertex 24.0418 -9.5 0.986064
      vertex 25.108 -9.5 2.64512
      vertex 24.0418 9.5 0.986064
    endloop
  endfacet
  facet normal -0.841254 1.20046e-16 0.54064
    outer loop
      vertex 24.0418 9.5 0.986064
      vertex 25.108 -9.5 2.64512
      vertex 25.108 9.5 2.64512
    endloop
  endfacet
  facet normal -0.415415 2.01979e-16 0.909632
    outer loop
      vertex 25.108 9.5 2.64512
      vertex 25.108 -9.5 2.64512
      vertex 26.9019 -9.5 3.46438
    endloop
  endfacet
  facet normal -0.415415 2.01979e-16 0.909632
    outer loop
      vertex 26.9019 9.5 3.46437
      vertex 25.108 9.5 2.64512
      vertex 26.9019 -9.5 3.46438
    endloop
  endfacet
  facet normal 0.142315 2.19785e-16 0.989821
    outer loop
      vertex 26.9019 9.5 3.46437
      vertex 26.9019 -9.5 3.46438
      vertex 27.1 -9.5 3.43589
    endloop
  endfacet
  facet normal 0.142315 2.19785e-16 0.989821
    outer loop
      vertex 28.854 9.5 3.18371
      vertex 26.9019 9.5 3.46437
      vertex 27.1 9.5 3.43589
    endloop
  endfacet
  facet normal 0.142315 2.19785e-16 0.989821
    outer loop
      vertex 27.1 9.5 3.43589
      vertex 26.9019 9.5 3.46437
      vertex 27.1 -9.5 3.43589
    endloop
  endfacet
  facet normal 3.85577e-17 0.984808 -0.173649
    outer loop
      vertex 39.6 -7.10974 -0.460168
      vertex 36.5 -7.10974 -0.460168
      vertex 39.6 -6.79497 1.325
    endloop
  endfacet
  facet normal 3.85577e-17 0.984808 -0.173649
    outer loop
      vertex 39.6 -6.79497 1.325
      vertex 36.5 -7.10974 -0.460168
      vertex 36.5 -6.79497 1.325
    endloop
  endfacet
  facet normal -1.11022e-16 0.866025 0.5
    outer loop
      vertex 39.6 -6.20339 -2.03002
      vertex 36.5 -6.20339 -2.03002
      vertex 39.6 -7.10974 -0.460168
    endloop
  endfacet
  facet normal -1.11022e-16 0.866025 0.5
    outer loop
      vertex 39.6 -7.10974 -0.460168
      vertex 36.5 -6.20339 -2.03002
      vertex 36.5 -7.10974 -0.460168
    endloop
  endfacet
  facet normal -2.08654e-16 0.34202 0.939693
    outer loop
      vertex 39.6 -6.20339 -2.03002
      vertex 39.6 -4.5 -2.65
      vertex 36.5 -4.5 -2.65
    endloop
  endfacet
  facet normal -2.08654e-16 0.34202 0.939693
    outer loop
      vertex 36.5 -6.20339 -2.03002
      vertex 39.6 -6.20339 -2.03002
      vertex 36.5 -4.5 -2.65
    endloop
  endfacet
  facet normal -2.08654e-16 -0.34202 0.939693
    outer loop
      vertex 36.5 -4.5 -2.65
      vertex 39.6 -4.5 -2.65
      vertex 39.6 -2.79661 -2.03002
    endloop
  endfacet
  facet normal -2.08654e-16 -0.34202 0.939693
    outer loop
      vertex 36.5 -2.79661 -2.03002
      vertex 36.5 -4.5 -2.65
      vertex 39.6 -2.79661 -2.03002
    endloop
  endfacet
  facet normal -1.11022e-16 -0.866025 0.5
    outer loop
      vertex 36.5 -2.79661 -2.03002
      vertex 39.6 -2.79661 -2.03002
      vertex 39.6 -1.89026 -0.460168
    endloop
  endfacet
  facet normal -1.11022e-16 -0.866025 0.5
    outer loop
      vertex 36.5 -1.89026 -0.460168
      vertex 36.5 -2.79661 -2.03002
      vertex 39.6 -1.89026 -0.460168
    endloop
  endfacet
  facet normal 3.85577e-17 -0.984808 -0.173649
    outer loop
      vertex 36.5 -1.89026 -0.460168
      vertex 39.6 -1.89026 -0.460168
      vertex 39.6 -2.20503 1.325
    endloop
  endfacet
  facet normal 3.85577e-17 -0.984808 -0.173649
    outer loop
      vertex 36.5 -2.20503 1.325
      vertex 36.5 -1.89026 -0.460168
      vertex 39.6 -2.20503 1.325
    endloop
  endfacet
  facet normal 1.70096e-16 -0.642787 -0.766045
    outer loop
      vertex 39.6 -2.20503 1.325
      vertex 39.6 -3.59365 2.49019
      vertex 36.5 -2.20503 1.325
    endloop
  endfacet
  facet normal 1.70096e-16 -0.642787 -0.766045
    outer loop
      vertex 36.5 -2.20503 1.325
      vertex 39.6 -3.59365 2.49019
      vertex 36.5 -3.59365 2.49019
    endloop
  endfacet
  facet normal 2.22045e-16 0 -1
    outer loop
      vertex 39.6 -3.59365 2.49019
      vertex 39.6 -5.40635 2.49019
      vertex 36.5 -3.59365 2.49019
    endloop
  endfacet
  facet normal 2.22045e-16 0 -1
    outer loop
      vertex 36.5 -3.59365 2.49019
      vertex 39.6 -5.40635 2.49019
      vertex 36.5 -5.40635 2.49019
    endloop
  endfacet
  facet normal 1.70096e-16 0.642787 -0.766045
    outer loop
      vertex 39.6 -6.79497 1.325
      vertex 36.5 -6.79497 1.325
      vertex 39.6 -5.40635 2.49019
    endloop
  endfacet
  facet normal 1.70096e-16 0.642787 -0.766045
    outer loop
      vertex 39.6 -5.40635 2.49019
      vertex 36.5 -6.79497 1.325
      vertex 36.5 -5.40635 2.49019
    endloop
  endfacet
  facet normal 3.85577e-17 0.984808 -0.173649
    outer loop
      vertex 39.6 1.89026 -0.460168
      vertex 36.5 1.89026 -0.460168
      vertex 39.6 2.20503 1.325
    endloop
  endfacet
  facet normal 3.85577e-17 0.984808 -0.173649
    outer loop
      vertex 39.6 2.20503 1.325
      vertex 36.5 1.89026 -0.460168
      vertex 36.5 2.20503 1.325
    endloop
  endfacet
  facet normal -1.11022e-16 0.866025 0.5
    outer loop
      vertex 39.6 2.79661 -2.03002
      vertex 36.5 2.79661 -2.03002
      vertex 39.6 1.89026 -0.460168
    endloop
  endfacet
  facet normal -1.11022e-16 0.866025 0.5
    outer loop
      vertex 39.6 1.89026 -0.460168
      vertex 36.5 2.79661 -2.03002
      vertex 36.5 1.89026 -0.460168
    endloop
  endfacet
  facet normal -2.08654e-16 0.34202 0.939693
    outer loop
      vertex 39.6 2.79661 -2.03002
      vertex 39.6 4.5 -2.65
      vertex 36.5 4.5 -2.65
    endloop
  endfacet
  facet normal -2.08654e-16 0.34202 0.939693
    outer loop
      vertex 36.5 2.79661 -2.03002
      vertex 39.6 2.79661 -2.03002
      vertex 36.5 4.5 -2.65
    endloop
  endfacet
  facet normal -2.08654e-16 -0.34202 0.939693
    outer loop
      vertex 36.5 4.5 -2.65
      vertex 39.6 4.5 -2.65
      vertex 39.6 6.20339 -2.03002
    endloop
  endfacet
  facet normal -2.08654e-16 -0.34202 0.939693
    outer loop
      vertex 36.5 6.20339 -2.03002
      vertex 36.5 4.5 -2.65
      vertex 39.6 6.20339 -2.03002
    endloop
  endfacet
  facet normal -1.11022e-16 -0.866025 0.5
    outer loop
      vertex 36.5 6.20339 -2.03002
      vertex 39.6 6.20339 -2.03002
      vertex 39.6 7.10974 -0.460168
    endloop
  endfacet
  facet normal -1.11022e-16 -0.866025 0.5
    outer loop
      vertex 36.5 7.10974 -0.460168
      vertex 36.5 6.20339 -2.03002
      vertex 39.6 7.10974 -0.460168
    endloop
  endfacet
  facet normal 3.85577e-17 -0.984808 -0.173649
    outer loop
      vertex 36.5 7.10974 -0.460168
      vertex 39.6 7.10974 -0.460168
      vertex 39.6 6.79497 1.325
    endloop
  endfacet
  facet normal 3.85577e-17 -0.984808 -0.173649
    outer loop
      vertex 36.5 6.79497 1.325
      vertex 36.5 7.10974 -0.460168
      vertex 39.6 6.79497 1.325
    endloop
  endfacet
  facet normal 1.70096e-16 -0.642787 -0.766045
    outer loop
      vertex 39.6 6.79497 1.325
      vertex 39.6 5.40635 2.49019
      vertex 36.5 6.79497 1.325
    endloop
  endfacet
  facet normal 1.70096e-16 -0.642787 -0.766045
    outer loop
      vertex 36.5 6.79497 1.325
      vertex 39.6 5.40635 2.49019
      vertex 36.5 5.40635 2.49019
    endloop
  endfacet
  facet normal 2.22045e-16 0 -1
    outer loop
      vertex 39.6 5.40635 2.49019
      vertex 39.6 3.59365 2.49019
      vertex 36.5 5.40635 2.49019
    endloop
  endfacet
  facet normal 2.22045e-16 0 -1
    outer loop
      vertex 36.5 5.40635 2.49019
      vertex 39.6 3.59365 2.49019
      vertex 36.5 3.59365 2.49019
    endloop
  endfacet
  facet normal 1.70096e-16 0.642787 -0.766045
    outer loop
      vertex 39.6 2.20503 1.325
      vertex 36.5 2.20503 1.325
      vertex 39.6 3.59365 2.49019
    endloop
  endfacet
  facet normal 1.70096e-16 0.642787 -0.766045
    outer loop
      vertex 39.6 3.59365 2.49019
      vertex 36.5 2.20503 1.325
      vertex 36.5 3.59365 2.49019
    endloop
  endfacet
  facet normal 0 1 -2.22045e-16
    outer loop
      vertex -13.8582 9.5 -2.10942e-15
      vertex -13.8582 9.5 0.986064
      vertex -7 9.5 -2.10942e-15
    endloop
  endfacet
  facet normal 0 1 -2.22045e-16
    outer loop
      vertex -7 9.5 -2.10942e-15
      vertex -13.8582 9.5 0.986064
      vertex -12.792 9.5 2.64512
    endloop
  endfacet
  facet normal 0 1 -2.22045e-16
    outer loop
      vertex -7 9.5 -2.10942e-15
      vertex -12.792 9.5 2.64512
      vertex -10.9981 9.5 3.46437
    endloop
  endfacet
  facet normal 0 1 -2.22045e-16
    outer loop
      vertex -7 9.5 -2.10942e-15
      vertex -10.9981 9.5 3.46437
      vertex -9.04605 9.5 3.18371
    endloop
  endfacet
  facet normal 0 1 -2.22045e-16
    outer loop
      vertex -7 9.5 -2.10942e-15
      vertex -9.04605 9.5 3.18371
      vertex -7.55561 9.5 1.89224
    endloop
  endfacet
  facet normal 1.70096e-16 -0.642787 -0.766045
    outer loop
      vertex -18 0.906353 2.49018
      vertex -20.5953 0.906353 2.49018
      vertex -18 2.29497 1.325
    endloop
  endfacet
  facet normal 1.70096e-16 -0.642787 -0.766045
    outer loop
      vertex -18 2.29497 1.325
      vertex -20.5953 0.906353 2.49018
      vertex -20.7076 1.97526 1.59327
    endloop
  endfacet
  facet normal 1.70096e-16 -0.642787 -0.766045
    outer loop
      vertex -18 2.29497 1.325
      vertex -20.7076 1.97526 1.59327
      vertex -20.8115 2.29497 1.325
    endloop
  endfacet
  facet normal 3.85577e-17 -0.984808 -0.173649
    outer loop
      vertex -18 2.60974 -0.460168
      vertex -18 2.29497 1.325
      vertex -20.8115 2.29497 1.325
    endloop
  endfacet
  facet normal 3.85577e-17 -0.984808 -0.173649
    outer loop
      vertex -20.9138 2.60974 -0.460168
      vertex -18 2.60974 -0.460168
      vertex -20.8115 2.29497 1.325
    endloop
  endfacet
  facet normal -1.11022e-16 -0.866025 0.5
    outer loop
      vertex -20.7076 1.97526 -1.55913
      vertex -20.679 1.70339 -2.03002
      vertex -18 1.70339 -2.03002
    endloop
  endfacet
  facet normal -1.11022e-16 -0.866025 0.5
    outer loop
      vertex -20.9138 2.60974 -0.460168
      vertex -20.7076 1.97526 -1.55913
      vertex -18 2.60974 -0.460168
    endloop
  endfacet
  facet normal -1.11022e-16 -0.866025 0.5
    outer loop
      vertex -18 2.60974 -0.460168
      vertex -20.7076 1.97526 -1.55913
      vertex -18 1.70339 -2.03002
    endloop
  endfacet
  facet normal -2.08654e-16 -0.34202 0.939693
    outer loop
      vertex -20.5 9.5e-05 -2.64997
      vertex -20.5 0 -2.65
      vertex -18 0 -2.65
    endloop
  endfacet
  facet normal -2.08654e-16 -0.34202 0.939693
    outer loop
      vertex -20.679 1.70339 -2.03002
      vertex -20.5 9.5e-05 -2.64997
      vertex -18 1.70339 -2.03002
    endloop
  endfacet
  facet normal -2.08654e-16 -0.34202 0.939693
    outer loop
      vertex -18 1.70339 -2.03002
      vertex -20.5 9.5e-05 -2.64997
      vertex -18 0 -2.65
    endloop
  endfacet
  facet normal -1.11022e-16 0.866025 0.5
    outer loop
      vertex -18 -1.70339 -2.03002
      vertex -20.679 -1.70339 -2.03002
      vertex -18 -2.60974 -0.460168
    endloop
  endfacet
  facet normal -1.11022e-16 0.866025 0.5
    outer loop
      vertex -18 -2.60974 -0.460168
      vertex -20.679 -1.70339 -2.03002
      vertex -20.7076 -1.97507 -1.55946
    endloop
  endfacet
  facet normal -1.11022e-16 0.866025 0.5
    outer loop
      vertex -18 -2.60974 -0.460168
      vertex -20.7076 -1.97507 -1.55946
      vertex -20.9138 -2.60974 -0.460168
    endloop
  endfacet
  facet normal -2.08654e-16 0.34202 0.939693
    outer loop
      vertex -18 -1.70339 -2.03002
      vertex -18 0 -2.65
      vertex -20.5 0 -2.65
    endloop
  endfacet
  facet normal -2.08654e-16 0.34202 0.939693
    outer loop
      vertex -20.679 -1.70339 -2.03002
      vertex -18 -1.70339 -2.03002
      vertex -20.5 0 -2.65
    endloop
  endfacet
  facet normal 3.85577e-17 0.984808 -0.173649
    outer loop
      vertex -18 -2.29497 1.325
      vertex -18 -2.60974 -0.460168
      vertex -20.8115 -2.29497 1.325
    endloop
  endfacet
  facet normal 3.85577e-17 0.984808 -0.173649
    outer loop
      vertex -20.8115 -2.29497 1.325
      vertex -18 -2.60974 -0.460168
      vertex -20.9138 -2.60974 -0.460168
    endloop
  endfacet
  facet normal 1.70096e-16 0.642787 -0.766045
    outer loop
      vertex -20.5953 -0.906353 2.49018
      vertex -18 -0.906353 2.49018
      vertex -20.7076 -1.97507 1.59343
    endloop
  endfacet
  facet normal 1.70096e-16 0.642787 -0.766045
    outer loop
      vertex -20.7076 -1.97507 1.59343
      vertex -18 -0.906353 2.49018
      vertex -18 -2.29497 1.325
    endloop
  endfacet
  facet normal 1.70096e-16 0.642787 -0.766045
    outer loop
      vertex -20.7076 -1.97507 1.59343
      vertex -18 -2.29497 1.325
      vertex -20.8115 -2.29497 1.325
    endloop
  endfacet
  facet normal 2.22045e-16 0 -1
    outer loop
      vertex -20.5953 0.906353 2.49018
      vertex -18 0.906353 2.49018
      vertex -20.5 9.5e-05 2.49018
    endloop
  endfacet
  facet normal 2.22045e-16 0 -1
    outer loop
      vertex -20.5 9.5e-05 2.49018
      vertex -18 0.906353 2.49018
      vertex -18 -0.906353 2.49018
    endloop
  endfacet
  facet normal 2.22045e-16 0 -1
    outer loop
      vertex -20.5 9.5e-05 2.49018
      vertex -18 -0.906353 2.49018
      vertex -20.5953 -0.906353 2.49018
    endloop
  endfacet
  facet normal 0 0 1
    outer loop
      vertex 1 7.5 2
      vertex 1 3 2
      vertex 4 3 2
    endloop
  endfacet
  facet normal 0 0 1
    outer loop
      vertex 3 5 2
      vertex 1 7.5 2
      vertex 4 3 2
    endloop
  endfacet
  facet normal 0 0 1
    outer loop
      vertex 4 -7 2
      vertex 6 -7 2
      vertex 4 3 2
    endloop
  endfacet
  facet normal 0 0 1
    outer loop
      vertex 6 -7 2
      vertex 6 3 2
      vertex 4 3 2
    endloop
  endfacet
  facet normal 0 0 1
    outer loop
      vertex 3 5 2
      vertex 3 7.5 2
      vertex 1 7.5 2
    endloop
  endfacet
  facet normal 0 0 1
    outer loop
      vertex 11 -7 2
      vertex 13 -7 2
      vertex 11 3 2
    endloop
  endfacet
  facet normal 0 0 1
    outer loop
      vertex 13 -7 2
      vertex 13 5 2
      vertex 11 3 2
    endloop
  endfacet
  facet normal 0 0 1
    outer loop
      vertex 6 3 2
      vertex 3 5 2
      vertex 4 3 2
    endloop
  endfacet
  facet normal 0 0 1
    outer loop
      vertex 13 5 2
      vertex 6 3 2
      vertex 11 3 2
    endloop
  endfacet
  facet normal 0 0 1
    outer loop
      vertex 13 5 2
      vertex 3 5 2
      vertex 6 3 2
    endloop
  endfacet
  facet normal 1 0 2.22045e-16
    outer loop
      vertex 36.5 -6.79497 1.325
      vertex 36.5 -7.10974 -0.460168
      vertex 36.5 -6.20339 -2.03002
    endloop
  endfacet
  facet normal 1 0 2.22045e-16
    outer loop
      vertex 36.5 -2.79661 -2.03002
      vertex 36.5 -6.79497 1.325
      vertex 36.5 -4.5 -2.65
    endloop
  endfacet
  facet normal 1 0 2.22045e-16
    outer loop
      vertex 36.5 -4.5 -2.65
      vertex 36.5 -6.79497 1.325
      vertex 36.5 -6.20339 -2.03002
    endloop
  endfacet
  facet normal 1 0 2.22045e-16
    outer loop
      vertex 36.5 -1.89026 -0.460168
      vertex 36.5 -6.79497 1.325
      vertex 36.5 -2.79661 -2.03002
    endloop
  endfacet
  facet normal 1 0 2.22045e-16
    outer loop
      vertex 36.5 -2.20503 1.325
      vertex 36.5 -6.79497 1.325
      vertex 36.5 -1.89026 -0.460168
    endloop
  endfacet
  facet normal 1 0 2.22045e-16
    outer loop
      vertex 36.5 -3.59365 2.49019
      vertex 36.5 -6.79497 1.325
      vertex 36.5 -2.20503 1.325
    endloop
  endfacet
  facet normal 1 0 2.22045e-16
    outer loop
      vertex 36.5 -5.40635 2.49019
      vertex 36.5 -6.79497 1.325
      vertex 36.5 -3.59365 2.49019
    endloop
  endfacet
  facet normal 1 0 2.22045e-16
    outer loop
      vertex 36.5 2.20503 1.325
      vertex 36.5 1.89026 -0.460168
      vertex 36.5 2.79661 -2.03002
    endloop
  endfacet
  facet normal 1 0 2.22045e-16
    outer loop
      vertex 36.5 6.20339 -2.03002
      vertex 36.5 2.20503 1.325
      vertex 36.5 4.5 -2.65
    endloop
  endfacet
  facet normal 1 0 2.22045e-16
    outer loop
      vertex 36.5 4.5 -2.65
      vertex 36.5 2.20503 1.325
      vertex 36.5 2.79661 -2.03002
    endloop
  endfacet
  facet normal 1 0 2.22045e-16
    outer loop
      vertex 36.5 7.10974 -0.460168
      vertex 36.5 2.20503 1.325
      vertex 36.5 6.20339 -2.03002
    endloop
  endfacet
  facet normal 1 0 2.22045e-16
    outer loop
      vertex 36.5 6.79497 1.325
      vertex 36.5 2.20503 1.325
      vertex 36.5 7.10974 -0.460168
    endloop
  endfacet
  facet normal 1 0 2.22045e-16
    outer loop
      vertex 36.5 5.40635 2.49019
      vertex 36.5 2.20503 1.325
      vertex 36.5 6.79497 1.325
    endloop
  endfacet
  facet normal 1 0 2.22045e-16
    outer loop
      vertex 36.5 3.59365 2.49019
      vertex 36.5 2.20503 1.325
      vertex 36.5 5.40635 2.49019
    endloop
  endfacet
  facet normal -1 0 -2.22045e-16
    outer loop
      vertex -18 2.29497 1.325
      vertex -18 2.60974 -0.460168
      vertex -18 0.906353 2.49018
    endloop
  endfacet
  facet normal -1 0 -2.22045e-16
    outer loop
      vertex -18 0.906353 2.49018
      vertex -18 2.60974 -0.460168
      vertex -18 1.70339 -2.03002
    endloop
  endfacet
  facet normal -1 0 -2.22045e-16
    outer loop
      vertex -18 0.906353 2.49018
      vertex -18 1.70339 -2.03002
      vertex -18 0 -2.65
    endloop
  endfacet
  facet normal -1 0 -2.22045e-16
    outer loop
      vertex -18 0.906353 2.49018
      vertex -18 0 -2.65
      vertex -18 -1.70339 -2.03002
    endloop
  endfacet
  facet normal -1 0 -2.22045e-16
    outer loop
      vertex -18 0.906353 2.49018
      vertex -18 -1.70339 -2.03002
      vertex -18 -2.60974 -0.460168
    endloop
  endfacet
  facet normal -1 0 -2.22045e-16
    outer loop
      vertex -18 0.906353 2.49018
      vertex -18 -2.60974 -0.460168
      vertex -18 -2.29497 1.325
    endloop
  endfacet
  facet normal -1 0 -2.22045e-16
    outer loop
      vertex -18 0.906353 2.49018
      vertex -18 -2.29497 1.325
      vertex -18 -0.906353 2.49018
    endloop
  endfacet
endsolid OpenSCAD_Model
