solid OpenSCAD_Model
  facet normal -1 0 0
    outer loop
      vertex -27 -9.5 -3.45
      vertex -27 -9.5 5.1
      vertex -27 -9.44786 -3.45
    endloop
  endfacet
  facet normal -1 0 0
    outer loop
      vertex -27 -9.44786 -3.45
      vertex -27 -9.5 5.1
      vertex -27 -9.44786 5.1
    endloop
  endfacet
  facet normal 0 -1 0
    outer loop
      vertex 29.9457 -9.5 -3.34344
      vertex -27 -9.5 -3.45
      vertex 40 -9.5 -3.45
    endloop
  endfacet
  facet normal 0 -1 0
    outer loop
      vertex -10.8457 -9.5 -3.24344
      vertex -12.5498 -9.5 -2.42278
      vertex -27 -9.5 -3.45
    endloop
  endfacet
  facet normal 0 -1 0
    outer loop
      vertex 40 -9.5 5.05
      vertex 28.5 -9.5 5.05
      vertex 40 -9.5 -3.45
    endloop
  endfacet
  facet normal 0 -1 0
    outer loop
      vertex 28.0543 -9.5 -3.34344
      vertex 26.3502 -9.5 -2.52278
      vertex -8.95429 -9.5 -3.24344
    endloop
  endfacet
  facet normal 0 -1 0
    outer loop
      vertex 28.5 -9.5 5.05
      vertex 33.0674 -9.5 2.10942e-15
      vertex 40 -9.5 -3.45
    endloop
  endfacet
  facet normal 0 -1 0
    outer loop
      vertex 28.5 -9.5 5.05
      vertex 28.5 -9.5 2.10942e-15
      vertex 33.0674 -9.5 2.10942e-15
    endloop
  endfacet
  facet normal 0 -1 0
    outer loop
      vertex 33.0674 -9.5 2.10942e-15
      vertex 32.8291 -9.5 -1.04401
      vertex 40 -9.5 -3.45
    endloop
  endfacet
  facet normal 0 -1 0
    outer loop
      vertex 31.6498 -9.5 -2.52278
      vertex 29.9457 -9.5 -3.34344
      vertex 40 -9.5 -3.45
    endloop
  endfacet
  facet normal 0 -1 0
    outer loop
      vertex 28.0543 -9.5 -3.34344
      vertex -27 -9.5 -3.45
      vertex 29.9457 -9.5 -3.34344
    endloop
  endfacet
  facet normal 0 -1 0
    outer loop
      vertex -8.95429 -9.5 -3.24344
      vertex -27 -9.5 -3.45
      vertex 28.0543 -9.5 -3.34344
    endloop
  endfacet
  facet normal 0 -1 0
    outer loop
      vertex 25.1709 -9.5 -1.04401
      vertex -5.85542 -9.5 0
      vertex 26.3502 -9.5 -2.52278
    endloop
  endfacet
  facet normal 0 -1 0
    outer loop
      vertex -12.5498 -9.5 -2.42278
      vertex -13.7291 -9.5 -0.944006
      vertex -27 -9.5 -3.45
    endloop
  endfacet
  facet normal 0 -1 0
    outer loop
      vertex -7.25017 -9.5 -2.42278
      vertex -8.95429 -9.5 -3.24344
      vertex 26.3502 -9.5 -2.52278
    endloop
  endfacet
  facet normal 0 -1 0
    outer loop
      vertex -5.85542 -9.5 0
      vertex -6.07088 -9.5 -0.944006
      vertex 26.3502 -9.5 -2.52278
    endloop
  endfacet
  facet normal 0 -1 0
    outer loop
      vertex -6.07088 -9.5 -0.944006
      vertex -7.25017 -9.5 -2.42278
      vertex 26.3502 -9.5 -2.52278
    endloop
  endfacet
  facet normal 0 -1 0
    outer loop
      vertex -10.8457 -9.5 -3.24344
      vertex -27 -9.5 -3.45
      vertex -8.95429 -9.5 -3.24344
    endloop
  endfacet
  facet normal 0 -1 0
    outer loop
      vertex 24.9326 -9.5 0
      vertex -5.85542 -9.5 0
      vertex 25.1709 -9.5 -1.04401
    endloop
  endfacet
  facet normal 0 -1 0
    outer loop
      vertex -27 -9.5 5.1
      vertex -27 -9.5 -3.45
      vertex -13.7291 -9.5 -0.944006
    endloop
  endfacet
  facet normal 0 -1 0
    outer loop
      vertex -27 -9.5 5.1
      vertex -13.7291 -9.5 -0.944006
      vertex -13.9446 -9.5 2.10942e-15
    endloop
  endfacet
  facet normal 0 -1 0
    outer loop
      vertex -27 -9.5 5.1
      vertex -13.9446 -9.5 2.10942e-15
      vertex -10 -9.5 2.10942e-15
    endloop
  endfacet
  facet normal 0 -1 0
    outer loop
      vertex 32.8291 -9.5 -1.04401
      vertex 31.6498 -9.5 -2.52278
      vertex 40 -9.5 -3.45
    endloop
  endfacet
  facet normal 0 -1 0
    outer loop
      vertex -10 -9.5 2.10942e-15
      vertex -10 -9.5 5.1
      vertex -27 -9.5 5.1
    endloop
  endfacet
  facet normal 0 0 -1
    outer loop
      vertex -27 -9.5 -3.45
      vertex -27 -9.44786 -3.45
      vertex 40 -9.5 -3.45
    endloop
  endfacet
  facet normal 0 0 -1
    outer loop
      vertex 40 -9.5 -3.45
      vertex -27 -9.44786 -3.45
      vertex -26.007 -9.44786 -3.45
    endloop
  endfacet
  facet normal 0 0 -1
    outer loop
      vertex 40 -9.5 -3.45
      vertex -26.007 -9.44786 -3.45
      vertex -24.0643 -9.03494 -3.45
    endloop
  endfacet
  facet normal 0 0 -1
    outer loop
      vertex -24.0643 -9.03494 -3.45
      vertex -22.25 -8.22715 -3.45
      vertex 40 -9.5 -3.45
    endloop
  endfacet
  facet normal 0 0 -1
    outer loop
      vertex -22.25 -8.22715 -3.45
      vertex -20.6433 -7.05978 -3.45
      vertex 40 -9.5 -3.45
    endloop
  endfacet
  facet normal 0 0 -1
    outer loop
      vertex -20.6433 -7.05978 -3.45
      vertex -19.3143 -5.58386 -3.45
      vertex 40 -9.5 -3.45
    endloop
  endfacet
  facet normal 0 0 -1
    outer loop
      vertex -19.3143 -5.58386 -3.45
      vertex -18.3213 -3.8639 -3.45
      vertex 40 -9.5 -3.45
    endloop
  endfacet
  facet normal 0 0 -1
    outer loop
      vertex -18.3213 -3.8639 -3.45
      vertex -17.7076 -1.97507 -3.45
      vertex 40 -9.5 -3.45
    endloop
  endfacet
  facet normal 0 0 -1
    outer loop
      vertex -17.7076 -1.97507 -3.45
      vertex -17.5 9.5e-05 -3.45
      vertex 40 -9.5 -3.45
    endloop
  endfacet
  facet normal 0 0 -1
    outer loop
      vertex -17.5 9.5e-05 -3.45
      vertex -17.7076 1.97526 -3.45
      vertex 40 -9.5 -3.45
    endloop
  endfacet
  facet normal 0 0 -1
    outer loop
      vertex -17.7076 1.97526 -3.45
      vertex -18.3213 3.86409 -3.45
      vertex 40 -9.5 -3.45
    endloop
  endfacet
  facet normal 0 0 -1
    outer loop
      vertex -18.3213 3.86409 -3.45
      vertex -19.3143 5.58405 -3.45
      vertex 40 -9.5 -3.45
    endloop
  endfacet
  facet normal 0 0 -1
    outer loop
      vertex -19.3143 5.58405 -3.45
      vertex -20.6433 7.05997 -3.45
      vertex 40 -9.5 -3.45
    endloop
  endfacet
  facet normal 0 0 -1
    outer loop
      vertex -20.6433 7.05997 -3.45
      vertex -22.25 8.22734 -3.45
      vertex 40 -9.5 -3.45
    endloop
  endfacet
  facet normal 0 0 -1
    outer loop
      vertex -22.25 8.22734 -3.45
      vertex -24.0643 9.03513 -3.45
      vertex 40 -9.5 -3.45
    endloop
  endfacet
  facet normal 0 0 -1
    outer loop
      vertex -24.0643 9.03513 -3.45
      vertex 40 9.5 -3.45
      vertex 40 -9.5 -3.45
    endloop
  endfacet
  facet normal 0 0 -1
    outer loop
      vertex -26.007 9.44805 -3.45
      vertex -27 9.44805 -3.45
      vertex -27 9.5 -3.45
    endloop
  endfacet
  facet normal 0 0 -1
    outer loop
      vertex -26.007 9.44805 -3.45
      vertex -27 9.5 -3.45
      vertex 40 9.5 -3.45
    endloop
  endfacet
  facet normal 0 0 -1
    outer loop
      vertex -26.007 9.44805 -3.45
      vertex 40 9.5 -3.45
      vertex -24.0643 9.03513 -3.45
    endloop
  endfacet
  facet normal 0 1 0
    outer loop
      vertex -26.007 -9.44786 5.1
      vertex -26.007 -9.44786 -3.45
      vertex -27 -9.44786 5.1
    endloop
  endfacet
  facet normal 0 1 0
    outer loop
      vertex -27 -9.44786 5.1
      vertex -26.007 -9.44786 -3.45
      vertex -27 -9.44786 -3.45
    endloop
  endfacet
  facet normal 0 0 1
    outer loop
      vertex -26.007 9.44805 5.1
      vertex -10 9.5 5.1
      vertex -27 9.5 5.1
    endloop
  endfacet
  facet normal 0 0 1
    outer loop
      vertex -18.3213 3.86409 5.1
      vertex -17.7076 1.97526 5.1
      vertex -10 -9.5 5.1
    endloop
  endfacet
  facet normal 0 0 1
    outer loop
      vertex -24.0643 9.03513 5.1
      vertex -10 9.5 5.1
      vertex -26.007 9.44805 5.1
    endloop
  endfacet
  facet normal 0 0 1
    outer loop
      vertex -22.25 8.22734 5.1
      vertex -10 9.5 5.1
      vertex -24.0643 9.03513 5.1
    endloop
  endfacet
  facet normal 0 0 1
    outer loop
      vertex -20.6433 7.05997 5.1
      vertex -10 9.5 5.1
      vertex -22.25 8.22734 5.1
    endloop
  endfacet
  facet normal 0 0 1
    outer loop
      vertex -19.3143 5.58405 5.1
      vertex -10 9.5 5.1
      vertex -20.6433 7.05997 5.1
    endloop
  endfacet
  facet normal 0 0 1
    outer loop
      vertex -10 -9.5 5.1
      vertex -10 9.5 5.1
      vertex -19.3143 5.58405 5.1
    endloop
  endfacet
  facet normal 0 0 1
    outer loop
      vertex -10 -9.5 5.1
      vertex -19.3143 5.58405 5.1
      vertex -18.3213 3.86409 5.1
    endloop
  endfacet
  facet normal 0 0 1
    outer loop
      vertex -17.5 9.5e-05 5.1
      vertex -17.7076 -1.97507 5.1
      vertex -10 -9.5 5.1
    endloop
  endfacet
  facet normal 0 0 1
    outer loop
      vertex -18.3213 -3.8639 5.1
      vertex -10 -9.5 5.1
      vertex -17.7076 -1.97507 5.1
    endloop
  endfacet
  facet normal 0 0 1
    outer loop
      vertex -19.3143 -5.58386 5.1
      vertex -10 -9.5 5.1
      vertex -18.3213 -3.8639 5.1
    endloop
  endfacet
  facet normal 0 0 1
    outer loop
      vertex -20.6433 -7.05978 5.1
      vertex -10 -9.5 5.1
      vertex -19.3143 -5.58386 5.1
    endloop
  endfacet
  facet normal 0 0 1
    outer loop
      vertex -22.25 -8.22715 5.1
      vertex -10 -9.5 5.1
      vertex -20.6433 -7.05978 5.1
    endloop
  endfacet
  facet normal 0 0 1
    outer loop
      vertex -24.0643 -9.03494 5.1
      vertex -10 -9.5 5.1
      vertex -22.25 -8.22715 5.1
    endloop
  endfacet
  facet normal 0 0 1
    outer loop
      vertex -26.007 -9.44786 5.1
      vertex -10 -9.5 5.1
      vertex -24.0643 -9.03494 5.1
    endloop
  endfacet
  facet normal 0 0 1
    outer loop
      vertex -27 -9.44786 5.1
      vertex -10 -9.5 5.1
      vertex -26.007 -9.44786 5.1
    endloop
  endfacet
  facet normal 0 0 1
    outer loop
      vertex -27 -9.5 5.1
      vertex -10 -9.5 5.1
      vertex -27 -9.44786 5.1
    endloop
  endfacet
  facet normal 0 0 1
    outer loop
      vertex -27 9.44805 5.1
      vertex -26.007 9.44805 5.1
      vertex -27 9.5 5.1
    endloop
  endfacet
  facet normal 0 0 1
    outer loop
      vertex -17.7076 1.97526 5.1
      vertex -17.5 9.5e-05 5.1
      vertex -10 -9.5 5.1
    endloop
  endfacet
  facet normal 1 0 0
    outer loop
      vertex -10 -9.5 5.04344
      vertex -10 9.5 5.04344
      vertex -10 9.5 5.1
    endloop
  endfacet
  facet normal 1 0 0
    outer loop
      vertex -10 -9.5 2.10942e-15
      vertex -10 -9.5 5.04344
      vertex -10 -9.5 5.1
    endloop
  endfacet
  facet normal 1 0 0
    outer loop
      vertex -10 -9.5 5.1
      vertex -10 -9.5 5.04344
      vertex -10 9.5 5.1
    endloop
  endfacet
  facet normal 0 -1 2.22045e-16
    outer loop
      vertex -10 -9.5 2.10942e-15
      vertex -13.9446 -9.5 2.10942e-15
      vertex -13.7291 -9.5 -0.944006
    endloop
  endfacet
  facet normal 0 -1 2.22045e-16
    outer loop
      vertex -10.8457 -9.5 -3.24344
      vertex -10 -9.5 2.10942e-15
      vertex -12.5498 -9.5 -2.42278
    endloop
  endfacet
  facet normal 0 -1 2.22045e-16
    outer loop
      vertex -12.5498 -9.5 -2.42278
      vertex -10 -9.5 2.10942e-15
      vertex -13.7291 -9.5 -0.944006
    endloop
  endfacet
  facet normal 0 -1 2.22045e-16
    outer loop
      vertex -8.95429 -9.5 -3.24344
      vertex -10 -9.5 2.10942e-15
      vertex -10.8457 -9.5 -3.24344
    endloop
  endfacet
  facet normal 0 -1 2.22045e-16
    outer loop
      vertex -7.25017 -9.5 -2.42278
      vertex -10 -9.5 2.10942e-15
      vertex -8.95429 -9.5 -3.24344
    endloop
  endfacet
  facet normal 0 -1 2.22045e-16
    outer loop
      vertex -6.07088 -9.5 -0.944006
      vertex -10 -9.5 2.10942e-15
      vertex -7.25017 -9.5 -2.42278
    endloop
  endfacet
  facet normal 0 -1 2.22045e-16
    outer loop
      vertex -5.65 -9.5 0.9
      vertex -10 -9.5 2.10942e-15
      vertex -6.07088 -9.5 -0.944006
    endloop
  endfacet
  facet normal 0 -1 2.22045e-16
    outer loop
      vertex -10 -9.5 5.04344
      vertex -7.25017 -9.5 4.22278
      vertex -8.95429 -9.5 5.04344
    endloop
  endfacet
  facet normal 0 -1 2.22045e-16
    outer loop
      vertex -10 -9.5 5.04344
      vertex -6.07088 -9.5 2.74401
      vertex -7.25017 -9.5 4.22278
    endloop
  endfacet
  facet normal 0 -1 2.22045e-16
    outer loop
      vertex -10 -9.5 5.04344
      vertex -5.65 -9.5 0.9
      vertex -6.07088 -9.5 2.74401
    endloop
  endfacet
  facet normal 0 -1 2.22045e-16
    outer loop
      vertex -10 -9.5 5.04344
      vertex -10 -9.5 2.10942e-15
      vertex -5.65 -9.5 0.9
    endloop
  endfacet
  facet normal 0.974928 -4.94095e-17 -0.222521
    outer loop
      vertex -5.65 -9.5 0.9
      vertex -6.07088 -9.5 -0.944006
      vertex -5.85542 -9.5 0
    endloop
  endfacet
  facet normal 0.974928 -4.94095e-17 -0.222521
    outer loop
      vertex -5.65 9.5 0.9
      vertex -5.65 -9.5 0.9
      vertex -5.85542 9.5 0
    endloop
  endfacet
  facet normal 0.974928 -4.94095e-17 -0.222521
    outer loop
      vertex -5.65 9.5 0.9
      vertex -5.85542 9.5 0
      vertex -5.85542 9.5 -2.10942e-15
    endloop
  endfacet
  facet normal 0.974928 -4.94095e-17 -0.222521
    outer loop
      vertex -5.85542 -9.5 0
      vertex -5.85542 9.5 0
      vertex -5.65 -9.5 0.9
    endloop
  endfacet
  facet normal 0 0 1
    outer loop
      vertex 3 7.5 0
      vertex 24.9326 9.5 0
      vertex -5.85542 9.5 0
    endloop
  endfacet
  facet normal 0 0 1
    outer loop
      vertex 5 5 0
      vertex 15 5 0
      vertex 5 7.5 0
    endloop
  endfacet
  facet normal 0 0 1
    outer loop
      vertex 5 7.5 0
      vertex 24.9326 9.5 0
      vertex 3 7.5 0
    endloop
  endfacet
  facet normal 0 0 1
    outer loop
      vertex 15 5 0
      vertex 24.9326 9.5 0
      vertex 5 7.5 0
    endloop
  endfacet
  facet normal 0 0 1
    outer loop
      vertex 24.9326 -9.5 0
      vertex 24.9326 9.5 0
      vertex 15 5 0
    endloop
  endfacet
  facet normal 0 0 1
    outer loop
      vertex -5.85542 -9.5 0
      vertex 24.9326 -9.5 0
      vertex 15 -7 0
    endloop
  endfacet
  facet normal 0 0 1
    outer loop
      vertex -5.85542 -9.5 0
      vertex 15 -7 0
      vertex 13 -7 0
    endloop
  endfacet
  facet normal 0 0 1
    outer loop
      vertex 13 -7 0
      vertex 13 3 0
      vertex 8 3 0
    endloop
  endfacet
  facet normal 0 0 1
    outer loop
      vertex -5.85542 -9.5 0
      vertex 13 -7 0
      vertex 8 -7 0
    endloop
  endfacet
  facet normal 0 0 1
    outer loop
      vertex -5.85542 -9.5 0
      vertex 6 -7 0
      vertex -5.85542 9.5 0
    endloop
  endfacet
  facet normal 0 0 1
    outer loop
      vertex -5.85542 -9.5 0
      vertex 8 -7 0
      vertex 6 -7 0
    endloop
  endfacet
  facet normal 0 0 1
    outer loop
      vertex 6 -7 0
      vertex 6 3 0
      vertex 3 3 0
    endloop
  endfacet
  facet normal 0 0 1
    outer loop
      vertex 8 3 0
      vertex 8 -7 0
      vertex 13 -7 0
    endloop
  endfacet
  facet normal 0 0 1
    outer loop
      vertex 6 -7 0
      vertex 3 3 0
      vertex -5.85542 9.5 0
    endloop
  endfacet
  facet normal 0 0 1
    outer loop
      vertex 3 3 0
      vertex 3 7.5 0
      vertex -5.85542 9.5 0
    endloop
  endfacet
  facet normal 0 0 1
    outer loop
      vertex 15 5 0
      vertex 15 -7 0
      vertex 24.9326 -9.5 0
    endloop
  endfacet
  facet normal -0.974928 -4.94095e-17 -0.222521
    outer loop
      vertex 24.9326 9.5 0
      vertex 24.75 9.5 0.8
      vertex 24.9326 9.5 -2.10942e-15
    endloop
  endfacet
  facet normal -0.974928 -4.94095e-17 -0.222521
    outer loop
      vertex 24.75 -9.5 0.8
      vertex 24.75 9.5 0.8
      vertex 24.9326 -9.5 0
    endloop
  endfacet
  facet normal -0.974928 -4.94095e-17 -0.222521
    outer loop
      vertex 24.75 -9.5 0.8
      vertex 24.9326 -9.5 0
      vertex 25.1709 -9.5 -1.04401
    endloop
  endfacet
  facet normal -0.974928 -4.94095e-17 -0.222521
    outer loop
      vertex 24.9326 -9.5 0
      vertex 24.75 9.5 0.8
      vertex 24.9326 9.5 0
    endloop
  endfacet
  facet normal 0 -1 2.22045e-16
    outer loop
      vertex 25.1709 -9.5 2.64401
      vertex 24.75 -9.5 0.8
      vertex 25.1709 -9.5 -1.04401
    endloop
  endfacet
  facet normal 0 -1 2.22045e-16
    outer loop
      vertex 28.0543 -9.5 -3.34344
      vertex 25.1709 -9.5 2.64401
      vertex 26.3502 -9.5 -2.52278
    endloop
  endfacet
  facet normal 0 -1 2.22045e-16
    outer loop
      vertex 26.3502 -9.5 -2.52278
      vertex 25.1709 -9.5 2.64401
      vertex 25.1709 -9.5 -1.04401
    endloop
  endfacet
  facet normal 0 -1 2.22045e-16
    outer loop
      vertex 29.9457 -9.5 -3.34344
      vertex 25.1709 -9.5 2.64401
      vertex 28.0543 -9.5 -3.34344
    endloop
  endfacet
  facet normal 0 -1 2.22045e-16
    outer loop
      vertex 31.6498 -9.5 -2.52278
      vertex 25.1709 -9.5 2.64401
      vertex 29.9457 -9.5 -3.34344
    endloop
  endfacet
  facet normal 0 -1 2.22045e-16
    outer loop
      vertex 28.5 -9.5 2.10942e-15
      vertex 25.1709 -9.5 2.64401
      vertex 31.6498 -9.5 -2.52278
    endloop
  endfacet
  facet normal 0 -1 2.22045e-16
    outer loop
      vertex 28.5 -9.5 2.10942e-15
      vertex 28.5 -9.5 4.94344
      vertex 25.1709 -9.5 2.64401
    endloop
  endfacet
  facet normal 0 -1 2.22045e-16
    outer loop
      vertex 32.8291 -9.5 -1.04401
      vertex 28.5 -9.5 2.10942e-15
      vertex 31.6498 -9.5 -2.52278
    endloop
  endfacet
  facet normal 0 -1 2.22045e-16
    outer loop
      vertex 28.0543 -9.5 4.94344
      vertex 25.1709 -9.5 2.64401
      vertex 28.5 -9.5 4.94344
    endloop
  endfacet
  facet normal 0 -1 2.22045e-16
    outer loop
      vertex 26.3502 -9.5 4.12278
      vertex 25.1709 -9.5 2.64401
      vertex 28.0543 -9.5 4.94344
    endloop
  endfacet
  facet normal 0 -1 2.22045e-16
    outer loop
      vertex 33.0674 -9.5 2.10942e-15
      vertex 28.5 -9.5 2.10942e-15
      vertex 32.8291 -9.5 -1.04401
    endloop
  endfacet
  facet normal -1 0 0
    outer loop
      vertex 28.5 -9.5 2.10942e-15
      vertex 28.5 -9.5 5.05
      vertex 28.5 -9.5 4.94344
    endloop
  endfacet
  facet normal -1 0 0
    outer loop
      vertex 28.5 -9.5 4.94344
      vertex 28.5 -9.5 5.05
      vertex 28.5 9.5 5.05
    endloop
  endfacet
  facet normal -1 0 0
    outer loop
      vertex 28.5 -9.5 4.94344
      vertex 28.5 9.5 5.05
      vertex 28.5 9.5 4.94344
    endloop
  endfacet
  facet normal 0 0 1
    outer loop
      vertex 28.5 9.5 5.05
      vertex 28.5 -9.5 5.05
      vertex 40 -9.5 5.05
    endloop
  endfacet
  facet normal 0 0 1
    outer loop
      vertex 40 9.5 5.05
      vertex 28.5 9.5 5.05
      vertex 40 -9.5 5.05
    endloop
  endfacet
  facet normal 1 0 0
    outer loop
      vertex 40 -4.5 -2.17
      vertex 40 -9.5 -3.45
      vertex 40 9.5 -3.45
    endloop
  endfacet
  facet normal 1 0 0
    outer loop
      vertex 40 -4.5 -2.17
      vertex 40 -6.21624 -1.54534
      vertex 40 -9.5 -3.45
    endloop
  endfacet
  facet normal 1 0 0
    outer loop
      vertex 40 -9.5 5.05
      vertex 40 -9.5 -3.45
      vertex 40 -7.12944 0.036359
    endloop
  endfacet
  facet normal 1 0 0
    outer loop
      vertex 40 4.5 -2.17
      vertex 40 -2.78376 -1.54534
      vertex 40 9.5 -3.45
    endloop
  endfacet
  facet normal 1 0 0
    outer loop
      vertex 40 -9.5 5.05
      vertex 40 -7.12944 0.036359
      vertex 40 -6.81229 1.835
    endloop
  endfacet
  facet normal 1 0 0
    outer loop
      vertex 40 -9.5 5.05
      vertex 40 -6.81229 1.835
      vertex 40 -5.41319 3.00898
    endloop
  endfacet
  facet normal 1 0 0
    outer loop
      vertex 40 3.58681 3.00898
      vertex 40 5.41319 3.00898
      vertex 40 9.5 5.05
    endloop
  endfacet
  facet normal 1 0 0
    outer loop
      vertex 40 9.5 5.05
      vertex 40 -9.5 5.05
      vertex 40 -3.58681 3.00898
    endloop
  endfacet
  facet normal 1 0 0
    outer loop
      vertex 40 -2.78376 -1.54534
      vertex 40 -4.5 -2.17
      vertex 40 9.5 -3.45
    endloop
  endfacet
  facet normal 1 0 0
    outer loop
      vertex 40 2.78376 -1.54534
      vertex 40 -2.18771 1.835
      vertex 40 -1.87056 0.036359
    endloop
  endfacet
  facet normal 1 0 0
    outer loop
      vertex 40 -7.12944 0.036359
      vertex 40 -9.5 -3.45
      vertex 40 -6.21624 -1.54534
    endloop
  endfacet
  facet normal 1 0 0
    outer loop
      vertex 40 6.21624 -1.54534
      vertex 40 4.5 -2.17
      vertex 40 9.5 -3.45
    endloop
  endfacet
  facet normal 1 0 0
    outer loop
      vertex 40 -3.58681 3.00898
      vertex 40 -2.18771 1.835
      vertex 40 1.87056 0.036359
    endloop
  endfacet
  facet normal 1 0 0
    outer loop
      vertex 40 3.58681 3.00898
      vertex 40 -3.58681 3.00898
      vertex 40 2.18771 1.835
    endloop
  endfacet
  facet normal 1 0 0
    outer loop
      vertex 40 6.81229 1.835
      vertex 40 7.12944 0.036359
      vertex 40 9.5 -3.45
    endloop
  endfacet
  facet normal 1 0 0
    outer loop
      vertex 40 9.5 5.05
      vertex 40 -3.58681 3.00898
      vertex 40 3.58681 3.00898
    endloop
  endfacet
  facet normal 1 0 0
    outer loop
      vertex 40 7.12944 0.036359
      vertex 40 6.21624 -1.54534
      vertex 40 9.5 -3.45
    endloop
  endfacet
  facet normal 1 0 0
    outer loop
      vertex 40 9.5 5.05
      vertex 40 6.81229 1.835
      vertex 40 9.5 -3.45
    endloop
  endfacet
  facet normal 1 0 0
    outer loop
      vertex 40 9.5 5.05
      vertex 40 5.41319 3.00898
      vertex 40 6.81229 1.835
    endloop
  endfacet
  facet normal 1 0 0
    outer loop
      vertex 40 2.78376 -1.54534
      vertex 40 1.87056 0.036359
      vertex 40 -2.18771 1.835
    endloop
  endfacet
  facet normal 1 0 0
    outer loop
      vertex 40 1.87056 0.036359
      vertex 40 2.18771 1.835
      vertex 40 -3.58681 3.00898
    endloop
  endfacet
  facet normal 1 0 0
    outer loop
      vertex 40 -1.87056 0.036359
      vertex 40 4.5 -2.17
      vertex 40 2.78376 -1.54534
    endloop
  endfacet
  facet normal 1 0 0
    outer loop
      vertex 40 -1.87056 0.036359
      vertex 40 -2.78376 -1.54534
      vertex 40 4.5 -2.17
    endloop
  endfacet
  facet normal 1 0 0
    outer loop
      vertex 40 -5.41319 3.00898
      vertex 40 -3.58681 3.00898
      vertex 40 -9.5 5.05
    endloop
  endfacet
  facet normal 0 1 0
    outer loop
      vertex 24.9326 9.5 -2.10942e-15
      vertex 40 9.5 -3.45
      vertex -5.85542 9.5 0
    endloop
  endfacet
  facet normal 0 1 0
    outer loop
      vertex -10 9.5 5.04344
      vertex -27 9.5 5.1
      vertex -10 9.5 5.1
    endloop
  endfacet
  facet normal 0 1 0
    outer loop
      vertex -10.8457 9.5 5.04344
      vertex -27 9.5 5.1
      vertex -10 9.5 5.04344
    endloop
  endfacet
  facet normal 0 1 0
    outer loop
      vertex -12.5498 9.5 4.22278
      vertex -27 9.5 5.1
      vertex -10.8457 9.5 5.04344
    endloop
  endfacet
  facet normal 0 1 0
    outer loop
      vertex 24.9326 9.5 0
      vertex 24.9326 9.5 -2.10942e-15
      vertex -5.85542 9.5 0
    endloop
  endfacet
  facet normal 0 1 0
    outer loop
      vertex -27 9.5 -3.45
      vertex -27 9.5 5.1
      vertex -13.7291 9.5 2.74401
    endloop
  endfacet
  facet normal 0 1 0
    outer loop
      vertex -27 9.5 -3.45
      vertex -13.7291 9.5 2.74401
      vertex -14.15 9.5 0.9
    endloop
  endfacet
  facet normal 0 1 0
    outer loop
      vertex -27 9.5 -3.45
      vertex -14.15 9.5 0.9
      vertex -13.9446 9.5 -2.10942e-15
    endloop
  endfacet
  facet normal 0 1 0
    outer loop
      vertex -27 9.5 -3.45
      vertex -13.9446 9.5 -2.10942e-15
      vertex 40 9.5 -3.45
    endloop
  endfacet
  facet normal 0 1 0
    outer loop
      vertex -13.9446 9.5 -2.10942e-15
      vertex -5.85542 9.5 -2.10942e-15
      vertex 40 9.5 -3.45
    endloop
  endfacet
  facet normal 0 1 0
    outer loop
      vertex -5.85542 9.5 -2.10942e-15
      vertex -5.85542 9.5 0
      vertex 40 9.5 -3.45
    endloop
  endfacet
  facet normal 0 1 0
    outer loop
      vertex 33.0674 9.5 -2.10942e-15
      vertex 40 9.5 -3.45
      vertex 24.9326 9.5 -2.10942e-15
    endloop
  endfacet
  facet normal 0 1 0
    outer loop
      vertex 28.5 9.5 5.05
      vertex 29.9457 9.5 4.94344
      vertex 28.5 9.5 4.94344
    endloop
  endfacet
  facet normal 0 1 0
    outer loop
      vertex 33.0674 9.5 -2.10942e-15
      vertex 33.25 9.5 0.8
      vertex 40 9.5 -3.45
    endloop
  endfacet
  facet normal 0 1 0
    outer loop
      vertex 33.25 9.5 0.8
      vertex 32.8291 9.5 2.64401
      vertex 40 9.5 -3.45
    endloop
  endfacet
  facet normal 0 1 0
    outer loop
      vertex 32.8291 9.5 2.64401
      vertex 31.6498 9.5 4.12278
      vertex 40 9.5 -3.45
    endloop
  endfacet
  facet normal 0 1 0
    outer loop
      vertex 31.6498 9.5 4.12278
      vertex 40 9.5 5.05
      vertex 40 9.5 -3.45
    endloop
  endfacet
  facet normal 0 1 0
    outer loop
      vertex 29.9457 9.5 4.94344
      vertex 28.5 9.5 5.05
      vertex 40 9.5 5.05
    endloop
  endfacet
  facet normal 0 1 0
    outer loop
      vertex 29.9457 9.5 4.94344
      vertex 40 9.5 5.05
      vertex 31.6498 9.5 4.12278
    endloop
  endfacet
  facet normal 0 1 0
    outer loop
      vertex -13.7291 9.5 2.74401
      vertex -27 9.5 5.1
      vertex -12.5498 9.5 4.22278
    endloop
  endfacet
  facet normal -1 0 0
    outer loop
      vertex -27 9.44805 -3.45
      vertex -27 9.44805 5.1
      vertex -27 9.5 -3.45
    endloop
  endfacet
  facet normal -1 0 0
    outer loop
      vertex -27 9.5 -3.45
      vertex -27 9.44805 5.1
      vertex -27 9.5 5.1
    endloop
  endfacet
  facet normal 0 -1 0
    outer loop
      vertex -26.007 9.44805 -3.45
      vertex -26.007 9.44805 5.1
      vertex -27 9.44805 5.1
    endloop
  endfacet
  facet normal 0 -1 0
    outer loop
      vertex -27 9.44805 -3.45
      vertex -26.007 9.44805 -3.45
      vertex -27 9.44805 5.1
    endloop
  endfacet
  facet normal -0.207912 -0.978148 0
    outer loop
      vertex -24.0643 9.03513 -3.45
      vertex -24.0643 9.03513 5.1
      vertex -26.007 9.44805 5.1
    endloop
  endfacet
  facet normal -0.207912 -0.978148 0
    outer loop
      vertex -26.007 9.44805 -3.45
      vertex -24.0643 9.03513 -3.45
      vertex -26.007 9.44805 5.1
    endloop
  endfacet
  facet normal -0.406737 -0.913545 0
    outer loop
      vertex -22.25 8.22734 -3.45
      vertex -22.25 8.22734 5.1
      vertex -24.0643 9.03513 5.1
    endloop
  endfacet
  facet normal -0.406737 -0.913545 0
    outer loop
      vertex -24.0643 9.03513 -3.45
      vertex -22.25 8.22734 -3.45
      vertex -24.0643 9.03513 5.1
    endloop
  endfacet
  facet normal -0.587785 -0.809017 0
    outer loop
      vertex -20.6433 7.05997 -3.45
      vertex -20.6433 7.05997 5.1
      vertex -22.25 8.22734 5.1
    endloop
  endfacet
  facet normal -0.587785 -0.809017 0
    outer loop
      vertex -22.25 8.22734 -3.45
      vertex -20.6433 7.05997 -3.45
      vertex -22.25 8.22734 5.1
    endloop
  endfacet
  facet normal -0.743145 -0.66913 0
    outer loop
      vertex -19.3143 5.58405 5.1
      vertex -20.6433 7.05997 5.1
      vertex -19.3143 5.58405 -3.45
    endloop
  endfacet
  facet normal -0.743145 -0.66913 0
    outer loop
      vertex -19.3143 5.58405 -3.45
      vertex -20.6433 7.05997 5.1
      vertex -20.6433 7.05997 -3.45
    endloop
  endfacet
  facet normal -0.866025 -0.5 0
    outer loop
      vertex -18.3213 3.86409 5.1
      vertex -19.3143 5.58405 5.1
      vertex -18.3213 3.86409 -3.45
    endloop
  endfacet
  facet normal -0.866025 -0.5 0
    outer loop
      vertex -18.3213 3.86409 -3.45
      vertex -19.3143 5.58405 5.1
      vertex -19.3143 5.58405 -3.45
    endloop
  endfacet
  facet normal -0.951057 -0.309017 0
    outer loop
      vertex -17.7076 1.97526 -1.09672
      vertex -17.9202 2.62944 0.036359
      vertex -17.7076 1.97526 -3.45
    endloop
  endfacet
  facet normal -0.951057 -0.309017 0
    outer loop
      vertex -18.3213 3.86409 5.1
      vertex -17.9202 2.62944 0.036359
      vertex -17.7076 1.97526 5.1
    endloop
  endfacet
  facet normal -0.951057 -0.309017 0
    outer loop
      vertex -17.7076 1.97526 5.1
      vertex -17.8171 2.31229 1.835
      vertex -17.7076 1.97526 2.1178
    endloop
  endfacet
  facet normal -0.951057 -0.309017 0
    outer loop
      vertex -17.9202 2.62944 0.036359
      vertex -17.8171 2.31229 1.835
      vertex -17.7076 1.97526 5.1
    endloop
  endfacet
  facet normal -0.951057 -0.309017 0
    outer loop
      vertex -17.7076 1.97526 -3.45
      vertex -17.9202 2.62944 0.036359
      vertex -18.3213 3.86409 5.1
    endloop
  endfacet
  facet normal -0.951057 -0.309017 0
    outer loop
      vertex -17.7076 1.97526 -3.45
      vertex -18.3213 3.86409 5.1
      vertex -18.3213 3.86409 -3.45
    endloop
  endfacet
  facet normal -0.994522 -0.104529 0
    outer loop
      vertex -17.5 9.5e-05 -2.16997
      vertex -17.6804 1.71624 -1.54534
      vertex -17.5 9.5e-05 -3.45
    endloop
  endfacet
  facet normal -0.994522 -0.104529 0
    outer loop
      vertex -17.7076 1.97526 -3.45
      vertex -17.6804 1.71624 -1.54534
      vertex -17.7076 1.97526 -1.09672
    endloop
  endfacet
  facet normal -0.994522 -0.104529 0
    outer loop
      vertex -17.5 9.5e-05 -3.45
      vertex -17.6804 1.71624 -1.54534
      vertex -17.7076 1.97526 -3.45
    endloop
  endfacet
  facet normal -0.994522 0.104529 0
    outer loop
      vertex -17.5 9.5e-05 -3.45
      vertex -17.5 0 -2.17
      vertex -17.5 9.5e-05 -2.16997
    endloop
  endfacet
  facet normal -0.994522 0.104529 0
    outer loop
      vertex -17.6804 -1.71624 -1.54534
      vertex -17.5 0 -2.17
      vertex -17.5 9.5e-05 -3.45
    endloop
  endfacet
  facet normal -0.994522 0.104529 0
    outer loop
      vertex -17.6804 -1.71624 -1.54534
      vertex -17.5 9.5e-05 -3.45
      vertex -17.7076 -1.97507 -3.45
    endloop
  endfacet
  facet normal -0.994522 0.104529 0
    outer loop
      vertex -17.6804 -1.71624 -1.54534
      vertex -17.7076 -1.97507 -3.45
      vertex -17.7076 -1.97507 -1.09704
    endloop
  endfacet
  facet normal -0.951057 0.309017 0
    outer loop
      vertex -17.7076 -1.97507 5.1
      vertex -17.7076 -1.97507 2.11796
      vertex -18.3213 -3.8639 5.1
    endloop
  endfacet
  facet normal -0.951057 0.309017 0
    outer loop
      vertex -18.3213 -3.8639 5.1
      vertex -17.7076 -1.97507 2.11796
      vertex -17.8172 -2.31229 1.835
    endloop
  endfacet
  facet normal -0.951057 0.309017 0
    outer loop
      vertex -18.3213 -3.8639 5.1
      vertex -17.8172 -2.31229 1.835
      vertex -17.9202 -2.62944 0.036359
    endloop
  endfacet
  facet normal -0.951057 0.309017 0
    outer loop
      vertex -17.9202 -2.62944 0.036359
      vertex -17.7076 -1.97507 -1.09704
      vertex -17.7076 -1.97507 -3.45
    endloop
  endfacet
  facet normal -0.951057 0.309017 0
    outer loop
      vertex -17.9202 -2.62944 0.036359
      vertex -17.7076 -1.97507 -3.45
      vertex -18.3213 -3.8639 5.1
    endloop
  endfacet
  facet normal -0.951057 0.309017 0
    outer loop
      vertex -18.3213 -3.8639 5.1
      vertex -17.7076 -1.97507 -3.45
      vertex -18.3213 -3.8639 -3.45
    endloop
  endfacet
  facet normal -0.866025 0.5 0
    outer loop
      vertex -18.3213 -3.8639 5.1
      vertex -18.3213 -3.8639 -3.45
      vertex -19.3143 -5.58386 5.1
    endloop
  endfacet
  facet normal -0.866025 0.5 0
    outer loop
      vertex -19.3143 -5.58386 5.1
      vertex -18.3213 -3.8639 -3.45
      vertex -19.3143 -5.58386 -3.45
    endloop
  endfacet
  facet normal -0.743145 0.66913 0
    outer loop
      vertex -19.3143 -5.58386 5.1
      vertex -19.3143 -5.58386 -3.45
      vertex -20.6433 -7.05978 5.1
    endloop
  endfacet
  facet normal -0.743145 0.66913 0
    outer loop
      vertex -20.6433 -7.05978 5.1
      vertex -19.3143 -5.58386 -3.45
      vertex -20.6433 -7.05978 -3.45
    endloop
  endfacet
  facet normal -0.587785 0.809017 0
    outer loop
      vertex -20.6433 -7.05978 5.1
      vertex -20.6433 -7.05978 -3.45
      vertex -22.25 -8.22715 5.1
    endloop
  endfacet
  facet normal -0.587785 0.809017 0
    outer loop
      vertex -22.25 -8.22715 5.1
      vertex -20.6433 -7.05978 -3.45
      vertex -22.25 -8.22715 -3.45
    endloop
  endfacet
  facet normal -0.406737 0.913545 0
    outer loop
      vertex -22.25 -8.22715 5.1
      vertex -22.25 -8.22715 -3.45
      vertex -24.0643 -9.03494 5.1
    endloop
  endfacet
  facet normal -0.406737 0.913545 0
    outer loop
      vertex -24.0643 -9.03494 5.1
      vertex -22.25 -8.22715 -3.45
      vertex -24.0643 -9.03494 -3.45
    endloop
  endfacet
  facet normal -0.207912 0.978148 0
    outer loop
      vertex -24.0643 -9.03494 5.1
      vertex -24.0643 -9.03494 -3.45
      vertex -26.007 -9.44786 5.1
    endloop
  endfacet
  facet normal -0.207912 0.978148 0
    outer loop
      vertex -26.007 -9.44786 5.1
      vertex -24.0643 -9.03494 -3.45
      vertex -26.007 -9.44786 -3.45
    endloop
  endfacet
  facet normal -0.994522 0.104529 0
    outer loop
      vertex -17.5 9.5e-05 5.1
      vertex -17.5 9.5e-05 3.00898
      vertex -17.7076 -1.97507 5.1
    endloop
  endfacet
  facet normal -0.994522 0.104529 0
    outer loop
      vertex -17.7076 -1.97507 5.1
      vertex -17.5 9.5e-05 3.00898
      vertex -17.596 -0.913194 3.00898
    endloop
  endfacet
  facet normal -0.994522 0.104529 0
    outer loop
      vertex -17.7076 -1.97507 5.1
      vertex -17.596 -0.913194 3.00898
      vertex -17.7076 -1.97507 2.11796
    endloop
  endfacet
  facet normal -0.994522 -0.104529 0
    outer loop
      vertex -17.5 9.5e-05 3.00898
      vertex -17.5 9.5e-05 5.1
      vertex -17.596 0.913194 3.00898
    endloop
  endfacet
  facet normal -0.994522 -0.104529 0
    outer loop
      vertex -17.596 0.913194 3.00898
      vertex -17.5 9.5e-05 5.1
      vertex -17.7076 1.97526 5.1
    endloop
  endfacet
  facet normal -0.994522 -0.104529 0
    outer loop
      vertex -17.596 0.913194 3.00898
      vertex -17.7076 1.97526 5.1
      vertex -17.7076 1.97526 2.1178
    endloop
  endfacet
  facet normal 0 2.22045e-16 1
    outer loop
      vertex -8.95429 9.5 5.04344
      vertex -10.8457 9.5 5.04344
      vertex -10 9.5 5.04344
    endloop
  endfacet
  facet normal 0 2.22045e-16 1
    outer loop
      vertex -10 -9.5 5.04344
      vertex -8.95429 -9.5 5.04344
      vertex -10 9.5 5.04344
    endloop
  endfacet
  facet normal 0 2.22045e-16 1
    outer loop
      vertex -8.95429 -9.5 5.04344
      vertex -8.95429 9.5 5.04344
      vertex -10 9.5 5.04344
    endloop
  endfacet
  facet normal 0.433884 2.00055e-16 0.900969
    outer loop
      vertex -8.95429 9.5 5.04344
      vertex -8.95429 -9.5 5.04344
      vertex -7.25017 -9.5 4.22278
    endloop
  endfacet
  facet normal 0.433884 2.00055e-16 0.900969
    outer loop
      vertex -7.25017 9.5 4.22278
      vertex -8.95429 9.5 5.04344
      vertex -7.25017 -9.5 4.22278
    endloop
  endfacet
  facet normal 0.781832 1.38443e-16 0.62349
    outer loop
      vertex -7.25017 9.5 4.22278
      vertex -7.25017 -9.5 4.22278
      vertex -6.07088 -9.5 2.74401
    endloop
  endfacet
  facet normal 0.781832 1.38443e-16 0.62349
    outer loop
      vertex -6.07088 9.5 2.74401
      vertex -7.25017 9.5 4.22278
      vertex -6.07088 -9.5 2.74401
    endloop
  endfacet
  facet normal 0.974928 4.94095e-17 0.222521
    outer loop
      vertex -6.07088 9.5 2.74401
      vertex -6.07088 -9.5 2.74401
      vertex -5.65 -9.5 0.9
    endloop
  endfacet
  facet normal 0.974928 4.94095e-17 0.222521
    outer loop
      vertex -5.65 9.5 0.9
      vertex -6.07088 9.5 2.74401
      vertex -5.65 -9.5 0.9
    endloop
  endfacet
  facet normal 0 1 -2.22045e-16
    outer loop
      vertex -14.15 9.5 0.9
      vertex -13.7291 9.5 2.74401
      vertex -13.9446 9.5 -2.10942e-15
    endloop
  endfacet
  facet normal 0 1 -2.22045e-16
    outer loop
      vertex -13.9446 9.5 -2.10942e-15
      vertex -13.7291 9.5 2.74401
      vertex -12.5498 9.5 4.22278
    endloop
  endfacet
  facet normal 0 1 -2.22045e-16
    outer loop
      vertex -13.9446 9.5 -2.10942e-15
      vertex -12.5498 9.5 4.22278
      vertex -10.8457 9.5 5.04344
    endloop
  endfacet
  facet normal 0 1 -2.22045e-16
    outer loop
      vertex -13.9446 9.5 -2.10942e-15
      vertex -10.8457 9.5 5.04344
      vertex -8.95429 9.5 5.04344
    endloop
  endfacet
  facet normal 0 1 -2.22045e-16
    outer loop
      vertex -13.9446 9.5 -2.10942e-15
      vertex -8.95429 9.5 5.04344
      vertex -7.25017 9.5 4.22278
    endloop
  endfacet
  facet normal 0 1 -2.22045e-16
    outer loop
      vertex -13.9446 9.5 -2.10942e-15
      vertex -7.25017 9.5 4.22278
      vertex -6.07088 9.5 2.74401
    endloop
  endfacet
  facet normal 0 1 -2.22045e-16
    outer loop
      vertex -13.9446 9.5 -2.10942e-15
      vertex -6.07088 9.5 2.74401
      vertex -5.65 9.5 0.9
    endloop
  endfacet
  facet normal 0 1 -2.22045e-16
    outer loop
      vertex -13.9446 9.5 -2.10942e-15
      vertex -5.65 9.5 0.9
      vertex -5.85542 9.5 -2.10942e-15
    endloop
  endfacet
  facet normal 0 1 0
    outer loop
      vertex 3 7.5 0
      vertex 3 7.5 2
      vertex 5 7.5 0
    endloop
  endfacet
  facet normal 0 1 0
    outer loop
      vertex 5 7.5 0
      vertex 3 7.5 2
      vertex 5 7.5 2
    endloop
  endfacet
  facet normal -1 0 0
    outer loop
      vertex 3 3 0
      vertex 3 3 2
      vertex 3 7.5 0
    endloop
  endfacet
  facet normal -1 0 0
    outer loop
      vertex 3 7.5 0
      vertex 3 3 2
      vertex 3 7.5 2
    endloop
  endfacet
  facet normal 0 -1 0
    outer loop
      vertex 3 3 2
      vertex 3 3 0
      vertex 6 3 0
    endloop
  endfacet
  facet normal 0 -1 0
    outer loop
      vertex 6 3 2
      vertex 3 3 2
      vertex 6 3 0
    endloop
  endfacet
  facet normal -1 0 0
    outer loop
      vertex 6 -7 0
      vertex 6 -7 2
      vertex 6 3 0
    endloop
  endfacet
  facet normal -1 0 0
    outer loop
      vertex 6 3 0
      vertex 6 -7 2
      vertex 6 3 2
    endloop
  endfacet
  facet normal 0 -1 0
    outer loop
      vertex 6 -7 2
      vertex 6 -7 0
      vertex 8 -7 0
    endloop
  endfacet
  facet normal 0 -1 0
    outer loop
      vertex 8 -7 2
      vertex 6 -7 2
      vertex 8 -7 0
    endloop
  endfacet
  facet normal 1 0 0
    outer loop
      vertex 8 -7 2
      vertex 8 -7 0
      vertex 8 3 0
    endloop
  endfacet
  facet normal 1 0 0
    outer loop
      vertex 8 3 2
      vertex 8 -7 2
      vertex 8 3 0
    endloop
  endfacet
  facet normal 0 -1 0
    outer loop
      vertex 8 3 2
      vertex 8 3 0
      vertex 13 3 0
    endloop
  endfacet
  facet normal 0 -1 0
    outer loop
      vertex 13 3 2
      vertex 8 3 2
      vertex 13 3 0
    endloop
  endfacet
  facet normal -1 0 0
    outer loop
      vertex 13 -7 0
      vertex 13 -7 2
      vertex 13 3 0
    endloop
  endfacet
  facet normal -1 0 0
    outer loop
      vertex 13 3 0
      vertex 13 -7 2
      vertex 13 3 2
    endloop
  endfacet
  facet normal 0 -1 0
    outer loop
      vertex 13 -7 2
      vertex 13 -7 0
      vertex 15 -7 0
    endloop
  endfacet
  facet normal 0 -1 0
    outer loop
      vertex 15 -7 2
      vertex 13 -7 2
      vertex 15 -7 0
    endloop
  endfacet
  facet normal 1 0 0
    outer loop
      vertex 15 -7 2
      vertex 15 -7 0
      vertex 15 5 0
    endloop
  endfacet
  facet normal 1 0 0
    outer loop
      vertex 15 5 2
      vertex 15 -7 2
      vertex 15 5 0
    endloop
  endfacet
  facet normal 0 1 0
    outer loop
      vertex 5 5 0
      vertex 5 5 2
      vertex 15 5 0
    endloop
  endfacet
  facet normal 0 1 0
    outer loop
      vertex 15 5 0
      vertex 5 5 2
      vertex 15 5 2
    endloop
  endfacet
  facet normal 1 0 0
    outer loop
      vertex 5 5 2
      vertex 5 5 0
      vertex 5 7.5 0
    endloop
  endfacet
  facet normal 1 0 0
    outer loop
      vertex 5 7.5 2
      vertex 5 5 2
      vertex 5 7.5 0
    endloop
  endfacet
  facet normal 0 1 -2.22045e-16
    outer loop
      vertex 24.75 9.5 0.8
      vertex 25.1709 9.5 2.64401
      vertex 24.9326 9.5 -2.10942e-15
    endloop
  endfacet
  facet normal 0 1 -2.22045e-16
    outer loop
      vertex 24.9326 9.5 -2.10942e-15
      vertex 25.1709 9.5 2.64401
      vertex 26.3502 9.5 4.12278
    endloop
  endfacet
  facet normal 0 1 -2.22045e-16
    outer loop
      vertex 24.9326 9.5 -2.10942e-15
      vertex 26.3502 9.5 4.12278
      vertex 28.0543 9.5 4.94344
    endloop
  endfacet
  facet normal 0 1 -2.22045e-16
    outer loop
      vertex 24.9326 9.5 -2.10942e-15
      vertex 28.0543 9.5 4.94344
      vertex 29.9457 9.5 4.94344
    endloop
  endfacet
  facet normal 0 1 -2.22045e-16
    outer loop
      vertex 24.9326 9.5 -2.10942e-15
      vertex 29.9457 9.5 4.94344
      vertex 31.6498 9.5 4.12278
    endloop
  endfacet
  facet normal 0 1 -2.22045e-16
    outer loop
      vertex 24.9326 9.5 -2.10942e-15
      vertex 31.6498 9.5 4.12278
      vertex 32.8291 9.5 2.64401
    endloop
  endfacet
  facet normal 0 1 -2.22045e-16
    outer loop
      vertex 24.9326 9.5 -2.10942e-15
      vertex 32.8291 9.5 2.64401
      vertex 33.25 9.5 0.8
    endloop
  endfacet
  facet normal 0 1 -2.22045e-16
    outer loop
      vertex 24.9326 9.5 -2.10942e-15
      vertex 33.25 9.5 0.8
      vertex 33.0674 9.5 -2.10942e-15
    endloop
  endfacet
  facet normal -0.974928 4.94095e-17 0.222521
    outer loop
      vertex 24.75 -9.5 0.8
      vertex 25.1709 -9.5 2.64401
      vertex 24.75 9.5 0.8
    endloop
  endfacet
  facet normal -0.974928 4.94095e-17 0.222521
    outer loop
      vertex 24.75 9.5 0.8
      vertex 25.1709 -9.5 2.64401
      vertex 25.1709 9.5 2.64401
    endloop
  endfacet
  facet normal -0.781832 1.38443e-16 0.62349
    outer loop
      vertex 25.1709 -9.5 2.64401
      vertex 26.3502 -9.5 4.12278
      vertex 25.1709 9.5 2.64401
    endloop
  endfacet
  facet normal -0.781832 1.38443e-16 0.62349
    outer loop
      vertex 25.1709 9.5 2.64401
      vertex 26.3502 -9.5 4.12278
      vertex 26.3502 9.5 4.12278
    endloop
  endfacet
  facet normal -0.433884 2.00055e-16 0.900969
    outer loop
      vertex 26.3502 9.5 4.12278
      vertex 26.3502 -9.5 4.12278
      vertex 28.0543 -9.5 4.94344
    endloop
  endfacet
  facet normal -0.433884 2.00055e-16 0.900969
    outer loop
      vertex 28.0543 9.5 4.94344
      vertex 26.3502 9.5 4.12278
      vertex 28.0543 -9.5 4.94344
    endloop
  endfacet
  facet normal 0 2.22045e-16 1
    outer loop
      vertex 28.0543 9.5 4.94344
      vertex 28.0543 -9.5 4.94344
      vertex 28.5 -9.5 4.94344
    endloop
  endfacet
  facet normal 0 2.22045e-16 1
    outer loop
      vertex 29.9457 9.5 4.94344
      vertex 28.0543 9.5 4.94344
      vertex 28.5 9.5 4.94344
    endloop
  endfacet
  facet normal 0 2.22045e-16 1
    outer loop
      vertex 28.5 9.5 4.94344
      vertex 28.0543 9.5 4.94344
      vertex 28.5 -9.5 4.94344
    endloop
  endfacet
  facet normal 3.85576e-17 0.984808 -0.173648
    outer loop
      vertex 40 -7.12944 0.036359
      vertex 36.5 -7.12944 0.036359
      vertex 40 -6.81229 1.835
    endloop
  endfacet
  facet normal 3.85576e-17 0.984808 -0.173648
    outer loop
      vertex 40 -6.81229 1.835
      vertex 36.5 -7.12944 0.036359
      vertex 36.5 -6.81229 1.835
    endloop
  endfacet
  facet normal -1.11022e-16 0.866025 0.5
    outer loop
      vertex 40 -6.21624 -1.54534
      vertex 36.5 -6.21624 -1.54534
      vertex 40 -7.12944 0.036359
    endloop
  endfacet
  facet normal -1.11022e-16 0.866025 0.5
    outer loop
      vertex 40 -7.12944 0.036359
      vertex 36.5 -6.21624 -1.54534
      vertex 36.5 -7.12944 0.036359
    endloop
  endfacet
  facet normal -2.08654e-16 0.34202 0.939693
    outer loop
      vertex 40 -6.21624 -1.54534
      vertex 40 -4.5 -2.17
      vertex 36.5 -4.5 -2.17
    endloop
  endfacet
  facet normal -2.08654e-16 0.34202 0.939693
    outer loop
      vertex 36.5 -6.21624 -1.54534
      vertex 40 -6.21624 -1.54534
      vertex 36.5 -4.5 -2.17
    endloop
  endfacet
  facet normal -2.08654e-16 -0.34202 0.939693
    outer loop
      vertex 36.5 -4.5 -2.17
      vertex 40 -4.5 -2.17
      vertex 40 -2.78376 -1.54534
    endloop
  endfacet
  facet normal -2.08654e-16 -0.34202 0.939693
    outer loop
      vertex 36.5 -2.78376 -1.54534
      vertex 36.5 -4.5 -2.17
      vertex 40 -2.78376 -1.54534
    endloop
  endfacet
  facet normal -1.11022e-16 -0.866025 0.5
    outer loop
      vertex 36.5 -2.78376 -1.54534
      vertex 40 -2.78376 -1.54534
      vertex 40 -1.87056 0.036359
    endloop
  endfacet
  facet normal -1.11022e-16 -0.866025 0.5
    outer loop
      vertex 36.5 -1.87056 0.036359
      vertex 36.5 -2.78376 -1.54534
      vertex 40 -1.87056 0.036359
    endloop
  endfacet
  facet normal 3.85576e-17 -0.984808 -0.173648
    outer loop
      vertex 36.5 -1.87056 0.036359
      vertex 40 -1.87056 0.036359
      vertex 40 -2.18771 1.835
    endloop
  endfacet
  facet normal 3.85576e-17 -0.984808 -0.173648
    outer loop
      vertex 36.5 -2.18771 1.835
      vertex 36.5 -1.87056 0.036359
      vertex 40 -2.18771 1.835
    endloop
  endfacet
  facet normal 1.70096e-16 -0.642788 -0.766045
    outer loop
      vertex 40 -2.18771 1.835
      vertex 40 -3.58681 3.00898
      vertex 36.5 -2.18771 1.835
    endloop
  endfacet
  facet normal 1.70096e-16 -0.642788 -0.766045
    outer loop
      vertex 36.5 -2.18771 1.835
      vertex 40 -3.58681 3.00898
      vertex 36.5 -3.58681 3.00898
    endloop
  endfacet
  facet normal 2.22045e-16 0 -1
    outer loop
      vertex 40 -3.58681 3.00898
      vertex 40 -5.41319 3.00898
      vertex 36.5 -3.58681 3.00898
    endloop
  endfacet
  facet normal 2.22045e-16 0 -1
    outer loop
      vertex 36.5 -3.58681 3.00898
      vertex 40 -5.41319 3.00898
      vertex 36.5 -5.41319 3.00898
    endloop
  endfacet
  facet normal 1.70096e-16 0.642788 -0.766045
    outer loop
      vertex 40 -6.81229 1.835
      vertex 36.5 -6.81229 1.835
      vertex 40 -5.41319 3.00898
    endloop
  endfacet
  facet normal 1.70096e-16 0.642788 -0.766045
    outer loop
      vertex 40 -5.41319 3.00898
      vertex 36.5 -6.81229 1.835
      vertex 36.5 -5.41319 3.00898
    endloop
  endfacet
  facet normal 3.85576e-17 0.984808 -0.173648
    outer loop
      vertex 40 1.87056 0.036359
      vertex 36.5 1.87056 0.036359
      vertex 40 2.18771 1.835
    endloop
  endfacet
  facet normal 3.85576e-17 0.984808 -0.173648
    outer loop
      vertex 40 2.18771 1.835
      vertex 36.5 1.87056 0.036359
      vertex 36.5 2.18771 1.835
    endloop
  endfacet
  facet normal -1.11022e-16 0.866025 0.5
    outer loop
      vertex 40 2.78376 -1.54534
      vertex 36.5 2.78376 -1.54534
      vertex 40 1.87056 0.036359
    endloop
  endfacet
  facet normal -1.11022e-16 0.866025 0.5
    outer loop
      vertex 40 1.87056 0.036359
      vertex 36.5 2.78376 -1.54534
      vertex 36.5 1.87056 0.036359
    endloop
  endfacet
  facet normal -2.08654e-16 0.34202 0.939693
    outer loop
      vertex 40 2.78376 -1.54534
      vertex 40 4.5 -2.17
      vertex 36.5 4.5 -2.17
    endloop
  endfacet
  facet normal -2.08654e-16 0.34202 0.939693
    outer loop
      vertex 36.5 2.78376 -1.54534
      vertex 40 2.78376 -1.54534
      vertex 36.5 4.5 -2.17
    endloop
  endfacet
  facet normal -2.08654e-16 -0.34202 0.939693
    outer loop
      vertex 36.5 4.5 -2.17
      vertex 40 4.5 -2.17
      vertex 40 6.21624 -1.54534
    endloop
  endfacet
  facet normal -2.08654e-16 -0.34202 0.939693
    outer loop
      vertex 36.5 6.21624 -1.54534
      vertex 36.5 4.5 -2.17
      vertex 40 6.21624 -1.54534
    endloop
  endfacet
  facet normal -1.11022e-16 -0.866025 0.5
    outer loop
      vertex 36.5 6.21624 -1.54534
      vertex 40 6.21624 -1.54534
      vertex 40 7.12944 0.036359
    endloop
  endfacet
  facet normal -1.11022e-16 -0.866025 0.5
    outer loop
      vertex 36.5 7.12944 0.036359
      vertex 36.5 6.21624 -1.54534
      vertex 40 7.12944 0.036359
    endloop
  endfacet
  facet normal 3.85576e-17 -0.984808 -0.173648
    outer loop
      vertex 36.5 7.12944 0.036359
      vertex 40 7.12944 0.036359
      vertex 40 6.81229 1.835
    endloop
  endfacet
  facet normal 3.85576e-17 -0.984808 -0.173648
    outer loop
      vertex 36.5 6.81229 1.835
      vertex 36.5 7.12944 0.036359
      vertex 40 6.81229 1.835
    endloop
  endfacet
  facet normal 1.70096e-16 -0.642788 -0.766045
    outer loop
      vertex 40 6.81229 1.835
      vertex 40 5.41319 3.00898
      vertex 36.5 6.81229 1.835
    endloop
  endfacet
  facet normal 1.70096e-16 -0.642788 -0.766045
    outer loop
      vertex 36.5 6.81229 1.835
      vertex 40 5.41319 3.00898
      vertex 36.5 5.41319 3.00898
    endloop
  endfacet
  facet normal 2.22045e-16 0 -1
    outer loop
      vertex 40 5.41319 3.00898
      vertex 40 3.58681 3.00898
      vertex 36.5 5.41319 3.00898
    endloop
  endfacet
  facet normal 2.22045e-16 0 -1
    outer loop
      vertex 36.5 5.41319 3.00898
      vertex 40 3.58681 3.00898
      vertex 36.5 3.58681 3.00898
    endloop
  endfacet
  facet normal 1.70096e-16 0.642788 -0.766045
    outer loop
      vertex 40 2.18771 1.835
      vertex 36.5 2.18771 1.835
      vertex 40 3.58681 3.00898
    endloop
  endfacet
  facet normal 1.70096e-16 0.642788 -0.766045
    outer loop
      vertex 40 3.58681 3.00898
      vertex 36.5 2.18771 1.835
      vertex 36.5 3.58681 3.00898
    endloop
  endfacet
  facet normal 1.70096e-16 -0.642788 -0.766045
    outer loop
      vertex -13.9 2.12122 1.99532
      vertex -13.9 0.913194 3.00898
      vertex -13.9366 2.31229 1.835
    endloop
  endfacet
  facet normal 1.70096e-16 -0.642788 -0.766045
    outer loop
      vertex -13.9366 2.31229 1.835
      vertex -13.9 0.913194 3.00898
      vertex -17.596 0.913194 3.00898
    endloop
  endfacet
  facet normal 1.70096e-16 -0.642788 -0.766045
    outer loop
      vertex -13.9366 2.31229 1.835
      vertex -17.596 0.913194 3.00898
      vertex -17.7076 1.97526 2.1178
    endloop
  endfacet
  facet normal 1.70096e-16 -0.642788 -0.766045
    outer loop
      vertex -13.9366 2.31229 1.835
      vertex -17.7076 1.97526 2.1178
      vertex -17.8171 2.31229 1.835
    endloop
  endfacet
  facet normal 3.85576e-17 -0.984808 -0.173648
    outer loop
      vertex -13.9529 2.62944 0.036359
      vertex -14.15 2.47715 0.9
      vertex -17.8171 2.31229 1.835
    endloop
  endfacet
  facet normal 3.85576e-17 -0.984808 -0.173648
    outer loop
      vertex -17.8171 2.31229 1.835
      vertex -14.15 2.47715 0.9
      vertex -13.9366 2.31229 1.835
    endloop
  endfacet
  facet normal 3.85576e-17 -0.984808 -0.173648
    outer loop
      vertex -13.9529 2.62944 0.036359
      vertex -17.8171 2.31229 1.835
      vertex -17.9202 2.62944 0.036359
    endloop
  endfacet
  facet normal -1.11022e-16 -0.866025 0.5
    outer loop
      vertex -17.7076 1.97526 -1.09672
      vertex -17.6804 1.71624 -1.54534
      vertex -13.9 1.71624 -1.54534
    endloop
  endfacet
  facet normal -1.11022e-16 -0.866025 0.5
    outer loop
      vertex -13.9529 2.62944 0.036359
      vertex -17.7076 1.97526 -1.09672
      vertex -13.9 2.49568 -0.195322
    endloop
  endfacet
  facet normal -1.11022e-16 -0.866025 0.5
    outer loop
      vertex -13.9 2.49568 -0.195322
      vertex -17.7076 1.97526 -1.09672
      vertex -13.9 1.71624 -1.54534
    endloop
  endfacet
  facet normal -1.11022e-16 -0.866025 0.5
    outer loop
      vertex -17.9202 2.62944 0.036359
      vertex -17.7076 1.97526 -1.09672
      vertex -13.9529 2.62944 0.036359
    endloop
  endfacet
  facet normal -2.08654e-16 -0.34202 0.939693
    outer loop
      vertex -17.5 9.5e-05 -2.16997
      vertex -17.5 0 -2.17
      vertex -13.9 0 -2.17
    endloop
  endfacet
  facet normal -2.08654e-16 -0.34202 0.939693
    outer loop
      vertex -17.6804 1.71624 -1.54534
      vertex -17.5 9.5e-05 -2.16997
      vertex -13.9 1.71624 -1.54534
    endloop
  endfacet
  facet normal -2.08654e-16 -0.34202 0.939693
    outer loop
      vertex -13.9 1.71624 -1.54534
      vertex -17.5 9.5e-05 -2.16997
      vertex -13.9 0 -2.17
    endloop
  endfacet
  facet normal -1.11022e-16 0.866025 0.5
    outer loop
      vertex -13.9 -2.49568 -0.195322
      vertex -13.9 -1.71624 -1.54534
      vertex -13.9529 -2.62944 0.036359
    endloop
  endfacet
  facet normal -1.11022e-16 0.866025 0.5
    outer loop
      vertex -13.9529 -2.62944 0.036359
      vertex -13.9 -1.71624 -1.54534
      vertex -17.6804 -1.71624 -1.54534
    endloop
  endfacet
  facet normal -1.11022e-16 0.866025 0.5
    outer loop
      vertex -13.9529 -2.62944 0.036359
      vertex -17.6804 -1.71624 -1.54534
      vertex -17.7076 -1.97507 -1.09704
    endloop
  endfacet
  facet normal -1.11022e-16 0.866025 0.5
    outer loop
      vertex -13.9529 -2.62944 0.036359
      vertex -17.7076 -1.97507 -1.09704
      vertex -17.9202 -2.62944 0.036359
    endloop
  endfacet
  facet normal -2.08654e-16 0.34202 0.939693
    outer loop
      vertex -13.9 -1.71624 -1.54534
      vertex -13.9 0 -2.17
      vertex -17.5 0 -2.17
    endloop
  endfacet
  facet normal -2.08654e-16 0.34202 0.939693
    outer loop
      vertex -17.6804 -1.71624 -1.54534
      vertex -13.9 -1.71624 -1.54534
      vertex -17.5 0 -2.17
    endloop
  endfacet
  facet normal 3.85576e-17 0.984808 -0.173648
    outer loop
      vertex -13.9366 -2.31229 1.835
      vertex -14.15 -2.47715 0.9
      vertex -17.8172 -2.31229 1.835
    endloop
  endfacet
  facet normal 3.85576e-17 0.984808 -0.173648
    outer loop
      vertex -17.8172 -2.31229 1.835
      vertex -14.15 -2.47715 0.9
      vertex -13.9529 -2.62944 0.036359
    endloop
  endfacet
  facet normal 3.85576e-17 0.984808 -0.173648
    outer loop
      vertex -17.8172 -2.31229 1.835
      vertex -13.9529 -2.62944 0.036359
      vertex -17.9202 -2.62944 0.036359
    endloop
  endfacet
  facet normal 1.70096e-16 0.642788 -0.766045
    outer loop
      vertex -17.596 -0.913194 3.00898
      vertex -13.9 -0.913194 3.00898
      vertex -17.7076 -1.97507 2.11796
    endloop
  endfacet
  facet normal 1.70096e-16 0.642788 -0.766045
    outer loop
      vertex -17.7076 -1.97507 2.11796
      vertex -13.9 -0.913194 3.00898
      vertex -13.9 -2.12122 1.99532
    endloop
  endfacet
  facet normal 1.70096e-16 0.642788 -0.766045
    outer loop
      vertex -17.7076 -1.97507 2.11796
      vertex -13.9 -2.12122 1.99532
      vertex -13.9366 -2.31229 1.835
    endloop
  endfacet
  facet normal 1.70096e-16 0.642788 -0.766045
    outer loop
      vertex -17.7076 -1.97507 2.11796
      vertex -13.9366 -2.31229 1.835
      vertex -17.8172 -2.31229 1.835
    endloop
  endfacet
  facet normal 2.22045e-16 0 -1
    outer loop
      vertex -17.596 0.913194 3.00898
      vertex -13.9 0.913194 3.00898
      vertex -17.5 9.5e-05 3.00898
    endloop
  endfacet
  facet normal 2.22045e-16 0 -1
    outer loop
      vertex -17.5 9.5e-05 3.00898
      vertex -13.9 0.913194 3.00898
      vertex -13.9 -0.913194 3.00898
    endloop
  endfacet
  facet normal 2.22045e-16 0 -1
    outer loop
      vertex -17.5 9.5e-05 3.00898
      vertex -13.9 -0.913194 3.00898
      vertex -17.596 -0.913194 3.00898
    endloop
  endfacet
  facet normal 0 0 1
    outer loop
      vertex 3 7.5 2
      vertex 3 3 2
      vertex 6 3 2
    endloop
  endfacet
  facet normal 0 0 1
    outer loop
      vertex 5 5 2
      vertex 3 7.5 2
      vertex 6 3 2
    endloop
  endfacet
  facet normal 0 0 1
    outer loop
      vertex 6 -7 2
      vertex 8 -7 2
      vertex 6 3 2
    endloop
  endfacet
  facet normal 0 0 1
    outer loop
      vertex 8 -7 2
      vertex 8 3 2
      vertex 6 3 2
    endloop
  endfacet
  facet normal 0 0 1
    outer loop
      vertex 5 5 2
      vertex 5 7.5 2
      vertex 3 7.5 2
    endloop
  endfacet
  facet normal 0 0 1
    outer loop
      vertex 13 -7 2
      vertex 15 -7 2
      vertex 13 3 2
    endloop
  endfacet
  facet normal 0 0 1
    outer loop
      vertex 15 -7 2
      vertex 15 5 2
      vertex 13 3 2
    endloop
  endfacet
  facet normal 0 0 1
    outer loop
      vertex 8 3 2
      vertex 5 5 2
      vertex 6 3 2
    endloop
  endfacet
  facet normal 0 0 1
    outer loop
      vertex 15 5 2
      vertex 8 3 2
      vertex 13 3 2
    endloop
  endfacet
  facet normal 0 0 1
    outer loop
      vertex 15 5 2
      vertex 5 5 2
      vertex 8 3 2
    endloop
  endfacet
  facet normal 1 0 2.22045e-16
    outer loop
      vertex 36.5 -6.81229 1.835
      vertex 36.5 -7.12944 0.036359
      vertex 36.5 -6.21624 -1.54534
    endloop
  endfacet
  facet normal 1 0 2.22045e-16
    outer loop
      vertex 36.5 -2.78376 -1.54534
      vertex 36.5 -6.81229 1.835
      vertex 36.5 -4.5 -2.17
    endloop
  endfacet
  facet normal 1 0 2.22045e-16
    outer loop
      vertex 36.5 -4.5 -2.17
      vertex 36.5 -6.81229 1.835
      vertex 36.5 -6.21624 -1.54534
    endloop
  endfacet
  facet normal 1 0 2.22045e-16
    outer loop
      vertex 36.5 -1.87056 0.036359
      vertex 36.5 -6.81229 1.835
      vertex 36.5 -2.78376 -1.54534
    endloop
  endfacet
  facet normal 1 0 2.22045e-16
    outer loop
      vertex 36.5 -2.18771 1.835
      vertex 36.5 -6.81229 1.835
      vertex 36.5 -1.87056 0.036359
    endloop
  endfacet
  facet normal 1 0 2.22045e-16
    outer loop
      vertex 36.5 -3.58681 3.00898
      vertex 36.5 -6.81229 1.835
      vertex 36.5 -2.18771 1.835
    endloop
  endfacet
  facet normal 1 0 2.22045e-16
    outer loop
      vertex 36.5 -5.41319 3.00898
      vertex 36.5 -6.81229 1.835
      vertex 36.5 -3.58681 3.00898
    endloop
  endfacet
  facet normal 1 0 2.22045e-16
    outer loop
      vertex 36.5 2.18771 1.835
      vertex 36.5 1.87056 0.036359
      vertex 36.5 2.78376 -1.54534
    endloop
  endfacet
  facet normal 1 0 2.22045e-16
    outer loop
      vertex 36.5 6.21624 -1.54534
      vertex 36.5 2.18771 1.835
      vertex 36.5 4.5 -2.17
    endloop
  endfacet
  facet normal 1 0 2.22045e-16
    outer loop
      vertex 36.5 4.5 -2.17
      vertex 36.5 2.18771 1.835
      vertex 36.5 2.78376 -1.54534
    endloop
  endfacet
  facet normal 1 0 2.22045e-16
    outer loop
      vertex 36.5 7.12944 0.036359
      vertex 36.5 2.18771 1.835
      vertex 36.5 6.21624 -1.54534
    endloop
  endfacet
  facet normal 1 0 2.22045e-16
    outer loop
      vertex 36.5 6.81229 1.835
      vertex 36.5 2.18771 1.835
      vertex 36.5 7.12944 0.036359
    endloop
  endfacet
  facet normal 1 0 2.22045e-16
    outer loop
      vertex 36.5 5.41319 3.00898
      vertex 36.5 2.18771 1.835
      vertex 36.5 6.81229 1.835
    endloop
  endfacet
  facet normal 1 0 2.22045e-16
    outer loop
      vertex 36.5 3.58681 3.00898
      vertex 36.5 2.18771 1.835
      vertex 36.5 5.41319 3.00898
    endloop
  endfacet
  facet normal -0.974928 4.94095e-17 0.222521
    outer loop
      vertex -14.15 -2.47715 0.9
      vertex -13.9366 -2.31229 1.835
      vertex -14.15 2.47715 0.9
    endloop
  endfacet
  facet normal -0.974928 4.94095e-17 0.222521
    outer loop
      vertex -14.15 2.47715 0.9
      vertex -13.9366 -2.31229 1.835
      vertex -13.9 -2.12122 1.99532
    endloop
  endfacet
  facet normal -0.974928 4.94095e-17 0.222521
    outer loop
      vertex -14.15 2.47715 0.9
      vertex -13.9 -2.12122 1.99532
      vertex -13.9 2.12122 1.99532
    endloop
  endfacet
  facet normal -0.974928 4.94095e-17 0.222521
    outer loop
      vertex -14.15 2.47715 0.9
      vertex -13.9 2.12122 1.99532
      vertex -13.9366 2.31229 1.835
    endloop
  endfacet
  facet normal -1 0 -2.22045e-16
    outer loop
      vertex -13.9 2.12122 1.99532
      vertex -13.9 -2.12122 1.99532
      vertex -13.9 0.913194 3.00898
    endloop
  endfacet
  facet normal -1 0 -2.22045e-16
    outer loop
      vertex -13.9 0.913194 3.00898
      vertex -13.9 -2.12122 1.99532
      vertex -13.9 -0.913194 3.00898
    endloop
  endfacet
  facet normal -0.974928 -4.94095e-17 -0.222521
    outer loop
      vertex -14.15 -2.47715 0.9
      vertex -14.15 2.47715 0.9
      vertex -13.9529 -2.62944 0.036359
    endloop
  endfacet
  facet normal -0.974928 -4.94095e-17 -0.222521
    outer loop
      vertex -13.9529 -2.62944 0.036359
      vertex -14.15 2.47715 0.9
      vertex -13.9529 2.62944 0.036359
    endloop
  endfacet
  facet normal -0.974928 -4.94095e-17 -0.222521
    outer loop
      vertex -13.9529 -2.62944 0.036359
      vertex -13.9529 2.62944 0.036359
      vertex -13.9 2.49568 -0.195322
    endloop
  endfacet
  facet normal -0.974928 -4.94095e-17 -0.222521
    outer loop
      vertex -13.9529 -2.62944 0.036359
      vertex -13.9 2.49568 -0.195322
      vertex -13.9 -2.49568 -0.195322
    endloop
  endfacet
  facet normal -1 0 -2.22045e-16
    outer loop
      vertex -13.9 1.71624 -1.54534
      vertex -13.9 0 -2.17
      vertex -13.9 2.49568 -0.195322
    endloop
  endfacet
  facet normal -1 0 -2.22045e-16
    outer loop
      vertex -13.9 2.49568 -0.195322
      vertex -13.9 0 -2.17
      vertex -13.9 -1.71624 -1.54534
    endloop
  endfacet
  facet normal -1 0 -2.22045e-16
    outer loop
      vertex -13.9 2.49568 -0.195322
      vertex -13.9 -1.71624 -1.54534
      vertex -13.9 -2.49568 -0.195322
    endloop
  endfacet
endsolid OpenSCAD_Model
