solid OpenSCAD_Model
  facet normal 0 0 -1
    outer loop
      vertex -38.5 9.5e-05 -3.5
      vertex -38.2924 1.97526 -3.5
      vertex -38.2924 -1.97507 -3.5
    endloop
  endfacet
  facet normal 0 0 -1
    outer loop
      vertex -38.2924 -1.97507 -3.5
      vertex -38.2924 1.97526 -3.5
      vertex -37.6787 3.86409 -3.5
    endloop
  endfacet
  facet normal 0 0 -1
    outer loop
      vertex -38.2924 -1.97507 -3.5
      vertex -37.6787 3.86409 -3.5
      vertex -36.6857 5.58405 -3.5
    endloop
  endfacet
  facet normal 0 0 -1
    outer loop
      vertex -38.2924 -1.97507 -3.5
      vertex -36.6857 5.58405 -3.5
      vertex -35.3567 7.05997 -3.5
    endloop
  endfacet
  facet normal 0 0 -1
    outer loop
      vertex -38.2924 -1.97507 -3.5
      vertex -35.3567 7.05997 -3.5
      vertex -33.75 8.22734 -3.5
    endloop
  endfacet
  facet normal 0 0 -1
    outer loop
      vertex -38.2924 -1.97507 -3.5
      vertex -33.75 8.22734 -3.5
      vertex -31.9357 9.03513 -3.5
    endloop
  endfacet
  facet normal 0 0 -1
    outer loop
      vertex -38.2924 -1.97507 -3.5
      vertex -31.9357 9.03513 -3.5
      vertex -30 9.44657 -3.5
    endloop
  endfacet
  facet normal 0 0 -1
    outer loop
      vertex -30 9.44657 -3.5
      vertex -30 9.5 -3.5
      vertex 30 9.5 -3.5
    endloop
  endfacet
  facet normal 0 0 -1
    outer loop
      vertex -30 9.44657 -3.5
      vertex 30 9.5 -3.5
      vertex -38.2924 -1.97507 -3.5
    endloop
  endfacet
  facet normal 0 0 -1
    outer loop
      vertex -38.2924 -1.97507 -3.5
      vertex 30 9.5 -3.5
      vertex 30 -9.5 -3.5
    endloop
  endfacet
  facet normal 0 0 -1
    outer loop
      vertex -30 -9.44638 -3.5
      vertex 30 -9.5 -3.5
      vertex -30 -9.5 -3.5
    endloop
  endfacet
  facet normal 0 0 -1
    outer loop
      vertex -38.2924 -1.97507 -3.5
      vertex 30 -9.5 -3.5
      vertex -30 -9.44638 -3.5
    endloop
  endfacet
  facet normal 0 0 -1
    outer loop
      vertex -38.2924 -1.97507 -3.5
      vertex -31.9357 -9.03494 -3.5
      vertex -33.75 -8.22715 -3.5
    endloop
  endfacet
  facet normal 0 0 -1
    outer loop
      vertex -38.2924 -1.97507 -3.5
      vertex -33.75 -8.22715 -3.5
      vertex -35.3567 -7.05978 -3.5
    endloop
  endfacet
  facet normal 0 0 -1
    outer loop
      vertex -38.2924 -1.97507 -3.5
      vertex -35.3567 -7.05978 -3.5
      vertex -36.6857 -5.58386 -3.5
    endloop
  endfacet
  facet normal 0 0 -1
    outer loop
      vertex -38.2924 -1.97507 -3.5
      vertex -36.6857 -5.58386 -3.5
      vertex -37.6787 -3.8639 -3.5
    endloop
  endfacet
  facet normal 0 0 -1
    outer loop
      vertex -31.9357 -9.03494 -3.5
      vertex -38.2924 -1.97507 -3.5
      vertex -30 -9.44638 -3.5
    endloop
  endfacet
  facet normal -0.994522 0.104529 0
    outer loop
      vertex -38.5 9.5e-05 -3.5
      vertex -38.5 9.5e-05 -2.52862
      vertex -38.2924 1.97526 -3.5
    endloop
  endfacet
  facet normal -0.994522 0.104529 0
    outer loop
      vertex -38.2924 1.97526 -3.5
      vertex -38.5 9.5e-05 -2.52862
      vertex -38.4516 0.460168 -2.60974
    endloop
  endfacet
  facet normal -0.994522 0.104529 0
    outer loop
      vertex -38.2924 1.97526 -3.5
      vertex -38.4516 0.460168 -2.60974
      vertex -38.2924 1.97526 -1.735
    endloop
  endfacet
  facet normal -0.994522 -0.104529 0
    outer loop
      vertex -38.5 9.5e-05 -3.5
      vertex -38.2924 -1.97507 -3.5
      vertex -38.5 9.5e-05 -2.52862
    endloop
  endfacet
  facet normal -0.994522 -0.104529 0
    outer loop
      vertex -38.3607 -1.325 -2.29497
      vertex -38.2924 -1.97507 -3.5
      vertex -38.2924 -1.97507 -1.52025
    endloop
  endfacet
  facet normal -0.994522 -0.104529 0
    outer loop
      vertex -38.5 9.5e-05 -2.52862
      vertex -38.2924 -1.97507 -3.5
      vertex -38.3607 -1.325 -2.29497
    endloop
  endfacet
  facet normal -0.951057 -0.309017 0
    outer loop
      vertex -38.2924 -1.97507 -3.5
      vertex -37.6787 -3.8639 -3.5
      vertex -38.2924 -1.97507 -1.52025
    endloop
  endfacet
  facet normal -0.951057 -0.309017 0
    outer loop
      vertex -38.125 -2.49018 -0.906353
      vertex -37.6787 -3.8639 -3.5
      vertex -37.6787 -3.8639 3.5
    endloop
  endfacet
  facet normal -0.951057 -0.309017 0
    outer loop
      vertex -38.2924 -1.97507 1.52025
      vertex -37.6787 -3.8639 3.5
      vertex -38.2924 -1.97507 3.5
    endloop
  endfacet
  facet normal -0.951057 -0.309017 0
    outer loop
      vertex -38.125 -2.49018 0.906353
      vertex -37.6787 -3.8639 3.5
      vertex -38.2924 -1.97507 1.52025
    endloop
  endfacet
  facet normal -0.951057 -0.309017 0
    outer loop
      vertex -38.2924 -1.97507 -1.52025
      vertex -37.6787 -3.8639 -3.5
      vertex -38.125 -2.49018 -0.906353
    endloop
  endfacet
  facet normal -0.951057 -0.309017 0
    outer loop
      vertex -38.125 -2.49018 -0.906353
      vertex -37.6787 -3.8639 3.5
      vertex -38.125 -2.49018 0.906353
    endloop
  endfacet
  facet normal -0.866025 -0.5 0
    outer loop
      vertex -37.6787 -3.8639 -3.5
      vertex -36.6857 -5.58386 -3.5
      vertex -37.6787 -3.8639 3.5
    endloop
  endfacet
  facet normal -0.866025 -0.5 0
    outer loop
      vertex -37.6787 -3.8639 3.5
      vertex -36.6857 -5.58386 -3.5
      vertex -36.6857 -5.58386 3.5
    endloop
  endfacet
  facet normal -0.743145 -0.66913 0
    outer loop
      vertex -36.6857 -5.58386 -3.5
      vertex -35.3567 -7.05978 -3.5
      vertex -36.6857 -5.58386 3.5
    endloop
  endfacet
  facet normal -0.743145 -0.66913 0
    outer loop
      vertex -36.6857 -5.58386 3.5
      vertex -35.3567 -7.05978 -3.5
      vertex -35.3567 -7.05978 3.5
    endloop
  endfacet
  facet normal -0.587785 -0.809017 0
    outer loop
      vertex -35.3567 -7.05978 3.5
      vertex -35.3567 -7.05978 -3.5
      vertex -33.75 -8.22715 -3.5
    endloop
  endfacet
  facet normal -0.587785 -0.809017 0
    outer loop
      vertex -33.75 -8.22715 3.5
      vertex -35.3567 -7.05978 3.5
      vertex -33.75 -8.22715 -3.5
    endloop
  endfacet
  facet normal -0.406737 -0.913545 0
    outer loop
      vertex -33.75 -8.22715 3.5
      vertex -33.75 -8.22715 -3.5
      vertex -31.9357 -9.03494 -3.5
    endloop
  endfacet
  facet normal -0.406737 -0.913545 0
    outer loop
      vertex -31.9357 -9.03494 3.5
      vertex -33.75 -8.22715 3.5
      vertex -31.9357 -9.03494 -3.5
    endloop
  endfacet
  facet normal -0.207912 -0.978148 0
    outer loop
      vertex -31.9357 -9.03494 3.5
      vertex -31.9357 -9.03494 -3.5
      vertex -30 -9.44638 -3.5
    endloop
  endfacet
  facet normal -0.207912 -0.978148 0
    outer loop
      vertex -30 -9.44638 3.5
      vertex -31.9357 -9.03494 3.5
      vertex -30 -9.44638 -3.5
    endloop
  endfacet
  facet normal -1 0 0
    outer loop
      vertex -30 -9.5 -3.5
      vertex -30 -9.5 3.5
      vertex -30 -9.44638 -3.5
    endloop
  endfacet
  facet normal -1 0 0
    outer loop
      vertex -30 -9.44638 -3.5
      vertex -30 -9.5 3.5
      vertex -30 -9.44638 3.5
    endloop
  endfacet
  facet normal 0 -1 0
    outer loop
      vertex -23.4981 -9.5 -3.46437
      vertex -30 -9.5 -3.5
      vertex 30 -9.5 -3.5
    endloop
  endfacet
  facet normal 0 -1 0
    outer loop
      vertex 30 -9.5 3.5
      vertex 17 -9.5 3.5
      vertex 30 -9.5 -3.5
    endloop
  endfacet
  facet normal 0 -1 0
    outer loop
      vertex -30 -9.5 3.5
      vertex -30 -9.5 -3.5
      vertex -26.3582 -9.5 -0.986064
    endloop
  endfacet
  facet normal 0 -1 0
    outer loop
      vertex -30 -9.5 3.5
      vertex -26.3582 -9.5 2.10942e-15
      vertex -23 -9.5 0.075
    endloop
  endfacet
  facet normal 0 -1 0
    outer loop
      vertex -30 -9.5 3.5
      vertex -26.3582 -9.5 -0.986064
      vertex -26.3582 -9.5 2.10942e-15
    endloop
  endfacet
  facet normal 0 -1 0
    outer loop
      vertex -23 -9.5 0.075
      vertex -23 -9.5 3.5
      vertex -30 -9.5 3.5
    endloop
  endfacet
  facet normal 0 -1 0
    outer loop
      vertex 18.954 -9.5 -3.18371
      vertex 17.0019 -9.5 -3.46437
      vertex 30 -9.5 -3.5
    endloop
  endfacet
  facet normal 0 -1 0
    outer loop
      vertex 17.0019 -9.5 -3.46437
      vertex 15.208 -9.5 -2.64512
      vertex -20.0556 -9.5 -1.89224
    endloop
  endfacet
  facet normal 0 -1 0
    outer loop
      vertex 17.0019 -9.5 -3.46437
      vertex -20.0556 -9.5 -1.89224
      vertex -21.546 -9.5 -3.18371
    endloop
  endfacet
  facet normal 0 -1 0
    outer loop
      vertex 15.208 -9.5 -2.64512
      vertex 14.1418 -9.5 -0.986064
      vertex -19.5 -9.5 2.10942e-15
    endloop
  endfacet
  facet normal 0 -1 0
    outer loop
      vertex 17.0019 -9.5 -3.46437
      vertex -23.4981 -9.5 -3.46437
      vertex 30 -9.5 -3.5
    endloop
  endfacet
  facet normal 0 -1 0
    outer loop
      vertex 14.1418 -9.5 2.10942e-15
      vertex 21 -9.5 2.10942e-15
      vertex 17 -9.5 0.075
    endloop
  endfacet
  facet normal 0 -1 0
    outer loop
      vertex -19.5 -9.5 2.10942e-15
      vertex -20.0556 -9.5 -1.89224
      vertex 15.208 -9.5 -2.64512
    endloop
  endfacet
  facet normal 0 -1 0
    outer loop
      vertex 20.4444 -9.5 -1.89224
      vertex 18.954 -9.5 -3.18371
      vertex 30 -9.5 -3.5
    endloop
  endfacet
  facet normal 0 -1 0
    outer loop
      vertex 17 -9.5 3.5
      vertex 21 -9.5 2.10942e-15
      vertex 30 -9.5 -3.5
    endloop
  endfacet
  facet normal 0 -1 0
    outer loop
      vertex 17 -9.5 3.5
      vertex 17 -9.5 0.075
      vertex 21 -9.5 2.10942e-15
    endloop
  endfacet
  facet normal 0 -1 0
    outer loop
      vertex -21.546 -9.5 -3.18371
      vertex -23.4981 -9.5 -3.46437
      vertex 17.0019 -9.5 -3.46437
    endloop
  endfacet
  facet normal 0 -1 0
    outer loop
      vertex -23.4981 -9.5 -3.46437
      vertex -25.292 -9.5 -2.64512
      vertex -30 -9.5 -3.5
    endloop
  endfacet
  facet normal 0 -1 0
    outer loop
      vertex -25.292 -9.5 -2.64512
      vertex -26.3582 -9.5 -0.986064
      vertex -30 -9.5 -3.5
    endloop
  endfacet
  facet normal 0 -1 0
    outer loop
      vertex 21 -9.5 2.10942e-15
      vertex 20.4444 -9.5 -1.89224
      vertex 30 -9.5 -3.5
    endloop
  endfacet
  facet normal 0 -1 0
    outer loop
      vertex 14.1418 -9.5 2.10942e-15
      vertex -19.5 -9.5 2.10942e-15
      vertex 14.1418 -9.5 -0.986064
    endloop
  endfacet
  facet normal 0 -1 0
    outer loop
      vertex 17 -9.5 0.075
      vertex -19.5 -9.5 2.10942e-15
      vertex 14.1418 -9.5 2.10942e-15
    endloop
  endfacet
  facet normal 0 -1 0
    outer loop
      vertex 17 -9.5 0.075
      vertex -23 -9.5 0.075
      vertex -19.5 -9.5 2.10942e-15
    endloop
  endfacet
  facet normal 0 -1 0
    outer loop
      vertex -26.3582 -9.5 2.10942e-15
      vertex -19.5 -9.5 2.10942e-15
      vertex -23 -9.5 0.075
    endloop
  endfacet
  facet normal 1 0 0
    outer loop
      vertex 30 -4.5 -2.65
      vertex 30 -9.5 -3.5
      vertex 30 9.5 -3.5
    endloop
  endfacet
  facet normal 1 0 0
    outer loop
      vertex 30 -9.5 3.5
      vertex 30 -9.5 -3.5
      vertex 30 -7.10974 -0.460168
    endloop
  endfacet
  facet normal 1 0 0
    outer loop
      vertex 30 -9.5 3.5
      vertex 30 -7.10974 -0.460168
      vertex 30 -6.79497 1.325
    endloop
  endfacet
  facet normal 1 0 0
    outer loop
      vertex 30 1.89026 -0.460168
      vertex 30 2.20503 1.325
      vertex 30 -3.59365 2.49019
    endloop
  endfacet
  facet normal 1 0 0
    outer loop
      vertex 30 9.5 3.5
      vertex 30 -9.5 3.5
      vertex 30 -5.40635 2.49019
    endloop
  endfacet
  facet normal 1 0 0
    outer loop
      vertex 30 9.5 3.5
      vertex 30 -5.40635 2.49019
      vertex 30 -3.59365 2.49019
    endloop
  endfacet
  facet normal 1 0 0
    outer loop
      vertex 30 4.5 -2.65
      vertex 30 -2.79661 -2.03002
      vertex 30 9.5 -3.5
    endloop
  endfacet
  facet normal 1 0 0
    outer loop
      vertex 30 -2.79661 -2.03002
      vertex 30 -4.5 -2.65
      vertex 30 9.5 -3.5
    endloop
  endfacet
  facet normal 1 0 0
    outer loop
      vertex 30 2.79661 -2.03002
      vertex 30 1.89026 -0.460168
      vertex 30 -1.89026 -0.460168
    endloop
  endfacet
  facet normal 1 0 0
    outer loop
      vertex 30 -7.10974 -0.460168
      vertex 30 -9.5 -3.5
      vertex 30 -6.20339 -2.03002
    endloop
  endfacet
  facet normal 1 0 0
    outer loop
      vertex 30 -1.89026 -0.460168
      vertex 30 -2.79661 -2.03002
      vertex 30 4.5 -2.65
    endloop
  endfacet
  facet normal 1 0 0
    outer loop
      vertex 30 3.59365 2.49019
      vertex 30 -3.59365 2.49019
      vertex 30 2.20503 1.325
    endloop
  endfacet
  facet normal 1 0 0
    outer loop
      vertex 30 9.5 3.5
      vertex 30 -3.59365 2.49019
      vertex 30 3.59365 2.49019
    endloop
  endfacet
  facet normal 1 0 0
    outer loop
      vertex 30 7.10974 -0.460168
      vertex 30 6.20339 -2.03002
      vertex 30 9.5 -3.5
    endloop
  endfacet
  facet normal 1 0 0
    outer loop
      vertex 30 9.5 3.5
      vertex 30 3.59365 2.49019
      vertex 30 5.40635 2.49019
    endloop
  endfacet
  facet normal 1 0 0
    outer loop
      vertex 30 9.5 3.5
      vertex 30 6.79497 1.325
      vertex 30 9.5 -3.5
    endloop
  endfacet
  facet normal 1 0 0
    outer loop
      vertex 30 6.79497 1.325
      vertex 30 7.10974 -0.460168
      vertex 30 9.5 -3.5
    endloop
  endfacet
  facet normal 1 0 0
    outer loop
      vertex 30 5.40635 2.49019
      vertex 30 6.79497 1.325
      vertex 30 9.5 3.5
    endloop
  endfacet
  facet normal 1 0 0
    outer loop
      vertex 30 6.20339 -2.03002
      vertex 30 4.5 -2.65
      vertex 30 9.5 -3.5
    endloop
  endfacet
  facet normal 1 0 0
    outer loop
      vertex 30 -4.5 -2.65
      vertex 30 -6.20339 -2.03002
      vertex 30 -9.5 -3.5
    endloop
  endfacet
  facet normal 1 0 0
    outer loop
      vertex 30 1.89026 -0.460168
      vertex 30 -3.59365 2.49019
      vertex 30 -2.20503 1.325
    endloop
  endfacet
  facet normal 1 0 0
    outer loop
      vertex 30 -1.89026 -0.460168
      vertex 30 4.5 -2.65
      vertex 30 2.79661 -2.03002
    endloop
  endfacet
  facet normal 1 0 0
    outer loop
      vertex 30 -6.79497 1.325
      vertex 30 -5.40635 2.49019
      vertex 30 -9.5 3.5
    endloop
  endfacet
  facet normal 1 0 0
    outer loop
      vertex 30 -2.20503 1.325
      vertex 30 -1.89026 -0.460168
      vertex 30 1.89026 -0.460168
    endloop
  endfacet
  facet normal 0 1 0
    outer loop
      vertex 14.1418 9.5 -2.10942e-15
      vertex 30 9.5 -3.5
      vertex -19.522 9.5 0.075
    endloop
  endfacet
  facet normal 0 1 0
    outer loop
      vertex -23.4981 9.5 3.46437
      vertex -30 9.5 3.5
      vertex -23 9.5 3.5
    endloop
  endfacet
  facet normal 0 1 0
    outer loop
      vertex 14.1418 9.5 0.075
      vertex 14.1418 9.5 -2.10942e-15
      vertex -19.522 9.5 0.075
    endloop
  endfacet
  facet normal 0 1 0
    outer loop
      vertex -23 9.5 3.39276
      vertex -23.4981 9.5 3.46437
      vertex -23 9.5 3.5
    endloop
  endfacet
  facet normal 0 1 0
    outer loop
      vertex -30 9.5 -3.5
      vertex -30 9.5 3.5
      vertex -25.292 9.5 2.64512
    endloop
  endfacet
  facet normal 0 1 0
    outer loop
      vertex -30 9.5 -3.5
      vertex -25.292 9.5 2.64512
      vertex -26.3582 9.5 0.986064
    endloop
  endfacet
  facet normal 0 1 0
    outer loop
      vertex -30 9.5 -3.5
      vertex -26.3582 9.5 0.986064
      vertex -26.3582 9.5 -2.10942e-15
    endloop
  endfacet
  facet normal 0 1 0
    outer loop
      vertex -30 9.5 -3.5
      vertex -26.3582 9.5 -2.10942e-15
      vertex 30 9.5 -3.5
    endloop
  endfacet
  facet normal 0 1 0
    outer loop
      vertex -26.3582 9.5 -2.10942e-15
      vertex -19.5 9.5 -2.10942e-15
      vertex 30 9.5 -3.5
    endloop
  endfacet
  facet normal 0 1 0
    outer loop
      vertex -19.5 9.5 -2.10942e-15
      vertex -19.522 9.5 0.075
      vertex 30 9.5 -3.5
    endloop
  endfacet
  facet normal 0 1 0
    outer loop
      vertex 21 9.5 -2.10942e-15
      vertex 30 9.5 -3.5
      vertex 14.1418 9.5 -2.10942e-15
    endloop
  endfacet
  facet normal 0 1 0
    outer loop
      vertex 17 9.5 3.5
      vertex 17.0019 9.5 3.46437
      vertex 17 9.5 3.46351
    endloop
  endfacet
  facet normal 0 1 0
    outer loop
      vertex 21 9.5 -2.10942e-15
      vertex 20.4444 9.5 1.89224
      vertex 30 9.5 -3.5
    endloop
  endfacet
  facet normal 0 1 0
    outer loop
      vertex 20.4444 9.5 1.89224
      vertex 18.954 9.5 3.18371
      vertex 30 9.5 -3.5
    endloop
  endfacet
  facet normal 0 1 0
    outer loop
      vertex 17.0019 9.5 3.46437
      vertex 17 9.5 3.5
      vertex 18.954 9.5 3.18371
    endloop
  endfacet
  facet normal 0 1 0
    outer loop
      vertex 18.954 9.5 3.18371
      vertex 17 9.5 3.5
      vertex 30 9.5 3.5
    endloop
  endfacet
  facet normal 0 1 0
    outer loop
      vertex 18.954 9.5 3.18371
      vertex 30 9.5 3.5
      vertex 30 9.5 -3.5
    endloop
  endfacet
  facet normal 0 1 0
    outer loop
      vertex -25.292 9.5 2.64512
      vertex -30 9.5 3.5
      vertex -23.4981 9.5 3.46437
    endloop
  endfacet
  facet normal -1 0 0
    outer loop
      vertex -30 9.44657 -3.5
      vertex -30 9.44657 3.5
      vertex -30 9.5 -3.5
    endloop
  endfacet
  facet normal -1 0 0
    outer loop
      vertex -30 9.5 -3.5
      vertex -30 9.44657 3.5
      vertex -30 9.5 3.5
    endloop
  endfacet
  facet normal -0.207912 0.978148 0
    outer loop
      vertex -31.9357 9.03513 -3.5
      vertex -31.9357 9.03513 3.5
      vertex -30 9.44657 -3.5
    endloop
  endfacet
  facet normal -0.207912 0.978148 0
    outer loop
      vertex -30 9.44657 -3.5
      vertex -31.9357 9.03513 3.5
      vertex -30 9.44657 3.5
    endloop
  endfacet
  facet normal -0.406737 0.913545 0
    outer loop
      vertex -33.75 8.22734 -3.5
      vertex -33.75 8.22734 3.5
      vertex -31.9357 9.03513 -3.5
    endloop
  endfacet
  facet normal -0.406737 0.913545 0
    outer loop
      vertex -31.9357 9.03513 -3.5
      vertex -33.75 8.22734 3.5
      vertex -31.9357 9.03513 3.5
    endloop
  endfacet
  facet normal -0.587785 0.809017 0
    outer loop
      vertex -35.3567 7.05997 -3.5
      vertex -35.3567 7.05997 3.5
      vertex -33.75 8.22734 -3.5
    endloop
  endfacet
  facet normal -0.587785 0.809017 0
    outer loop
      vertex -33.75 8.22734 -3.5
      vertex -35.3567 7.05997 3.5
      vertex -33.75 8.22734 3.5
    endloop
  endfacet
  facet normal -0.743145 0.66913 0
    outer loop
      vertex -36.6857 5.58405 -3.5
      vertex -36.6857 5.58405 3.5
      vertex -35.3567 7.05997 -3.5
    endloop
  endfacet
  facet normal -0.743145 0.66913 0
    outer loop
      vertex -35.3567 7.05997 -3.5
      vertex -36.6857 5.58405 3.5
      vertex -35.3567 7.05997 3.5
    endloop
  endfacet
  facet normal -0.866025 0.5 0
    outer loop
      vertex -37.6787 3.86409 -3.5
      vertex -37.6787 3.86409 3.5
      vertex -36.6857 5.58405 -3.5
    endloop
  endfacet
  facet normal -0.866025 0.5 0
    outer loop
      vertex -36.6857 5.58405 -3.5
      vertex -37.6787 3.86409 3.5
      vertex -36.6857 5.58405 3.5
    endloop
  endfacet
  facet normal -0.951057 0.309017 0
    outer loop
      vertex -38.2924 1.97526 -3.5
      vertex -38.2924 1.97526 -1.735
      vertex -37.6787 3.86409 -3.5
    endloop
  endfacet
  facet normal -0.951057 0.309017 0
    outer loop
      vertex -37.6787 3.86409 -3.5
      vertex -38.2924 1.97526 -1.735
      vertex -38.2746 2.03002 -1.70339
    endloop
  endfacet
  facet normal -0.951057 0.309017 0
    outer loop
      vertex -37.6787 3.86409 -3.5
      vertex -38.2746 2.03002 -1.70339
      vertex -38.0732 2.65 -8.45394e-15
    endloop
  endfacet
  facet normal -0.951057 0.309017 0
    outer loop
      vertex -38.0732 2.65 -8.45394e-15
      vertex -38.2924 1.97526 3.5
      vertex -37.6787 3.86409 -3.5
    endloop
  endfacet
  facet normal -0.951057 0.309017 0
    outer loop
      vertex -38.2746 2.03002 1.70339
      vertex -38.2924 1.97526 1.735
      vertex -38.2924 1.97526 3.5
    endloop
  endfacet
  facet normal -0.951057 0.309017 0
    outer loop
      vertex -38.2746 2.03002 1.70339
      vertex -38.2924 1.97526 3.5
      vertex -38.0732 2.65 -8.45394e-15
    endloop
  endfacet
  facet normal -0.951057 0.309017 0
    outer loop
      vertex -37.6787 3.86409 -3.5
      vertex -38.2924 1.97526 3.5
      vertex -37.6787 3.86409 3.5
    endloop
  endfacet
  facet normal -3.03319e-16 -0.5 0.866025
    outer loop
      vertex -35.4 0.460168 -2.60974
      vertex -35.4 2.03002 -1.70339
      vertex -38.2746 2.03002 -1.70339
    endloop
  endfacet
  facet normal -3.03319e-16 -0.5 0.866025
    outer loop
      vertex -38.4516 0.460168 -2.60974
      vertex -35.4 0.460168 -2.60974
      vertex -38.2924 1.97526 -1.735
    endloop
  endfacet
  facet normal -3.03319e-16 -0.5 0.866025
    outer loop
      vertex -38.2924 1.97526 -1.735
      vertex -35.4 0.460168 -2.60974
      vertex -38.2746 2.03002 -1.70339
    endloop
  endfacet
  facet normal -1.80114e-16 0.173649 0.984808
    outer loop
      vertex -38.3607 -1.325 -2.29497
      vertex -35.4 -1.325 -2.29497
      vertex -35.4 0.460168 -2.60974
    endloop
  endfacet
  facet normal -1.80114e-16 0.173649 0.984808
    outer loop
      vertex -38.5 9.5e-05 -2.52862
      vertex -38.3607 -1.325 -2.29497
      vertex -38.4516 0.460168 -2.60974
    endloop
  endfacet
  facet normal -1.80114e-16 0.173649 0.984808
    outer loop
      vertex -38.4516 0.460168 -2.60974
      vertex -38.3607 -1.325 -2.29497
      vertex -35.4 0.460168 -2.60974
    endloop
  endfacet
  facet normal 2.73686e-17 0.766045 0.642787
    outer loop
      vertex -38.125 -2.49018 -0.906353
      vertex -35.4 -2.49018 -0.906353
      vertex -38.2924 -1.97507 -1.52025
    endloop
  endfacet
  facet normal 2.73686e-17 0.766045 0.642787
    outer loop
      vertex -38.2924 -1.97507 -1.52025
      vertex -35.4 -2.49018 -0.906353
      vertex -35.4 -1.325 -2.29497
    endloop
  endfacet
  facet normal 2.73686e-17 0.766045 0.642787
    outer loop
      vertex -38.2924 -1.97507 -1.52025
      vertex -35.4 -1.325 -2.29497
      vertex -38.3607 -1.325 -2.29497
    endloop
  endfacet
  facet normal 2.22045e-16 1 4.93038e-32
    outer loop
      vertex -35.4 -2.49018 0.906353
      vertex -35.4 -2.49018 -0.906353
      vertex -38.125 -2.49018 0.906353
    endloop
  endfacet
  facet normal 2.22045e-16 1 4.93038e-32
    outer loop
      vertex -38.125 -2.49018 0.906353
      vertex -35.4 -2.49018 -0.906353
      vertex -38.125 -2.49018 -0.906353
    endloop
  endfacet
  facet normal 3.12824e-16 0.766045 -0.642787
    outer loop
      vertex -35.4 -2.49018 0.906353
      vertex -38.125 -2.49018 0.906353
      vertex -35.4 -1.325 2.29497
    endloop
  endfacet
  facet normal 3.12824e-16 0.766045 -0.642787
    outer loop
      vertex -35.4 -1.325 2.29497
      vertex -38.125 -2.49018 0.906353
      vertex -38.2924 -1.97507 1.52025
    endloop
  endfacet
  facet normal 3.12824e-16 0.766045 -0.642787
    outer loop
      vertex -35.4 -1.325 2.29497
      vertex -38.2924 -1.97507 1.52025
      vertex -38.3607 -1.325 2.29497
    endloop
  endfacet
  facet normal -0.994522 -0.104529 0
    outer loop
      vertex -38.5 9.5e-05 2.52862
      vertex -38.3607 -1.325 2.29497
      vertex -38.5 9.5e-05 3.5
    endloop
  endfacet
  facet normal -0.994522 -0.104529 0
    outer loop
      vertex -38.2924 -1.97507 3.5
      vertex -38.3607 -1.325 2.29497
      vertex -38.2924 -1.97507 1.52025
    endloop
  endfacet
  facet normal -0.994522 -0.104529 0
    outer loop
      vertex -38.5 9.5e-05 3.5
      vertex -38.3607 -1.325 2.29497
      vertex -38.2924 -1.97507 3.5
    endloop
  endfacet
  facet normal 0 0 1
    outer loop
      vertex -38.2924 1.97526 3.5
      vertex -38.5 9.5e-05 3.5
      vertex -38.2924 -1.97507 3.5
    endloop
  endfacet
  facet normal 0 0 1
    outer loop
      vertex -36.6857 -5.58386 3.5
      vertex -38.2924 1.97526 3.5
      vertex -37.6787 -3.8639 3.5
    endloop
  endfacet
  facet normal 0 0 1
    outer loop
      vertex -37.6787 -3.8639 3.5
      vertex -38.2924 1.97526 3.5
      vertex -38.2924 -1.97507 3.5
    endloop
  endfacet
  facet normal 0 0 1
    outer loop
      vertex -35.3567 -7.05978 3.5
      vertex -38.2924 1.97526 3.5
      vertex -36.6857 -5.58386 3.5
    endloop
  endfacet
  facet normal 0 0 1
    outer loop
      vertex -33.75 -8.22715 3.5
      vertex -38.2924 1.97526 3.5
      vertex -35.3567 -7.05978 3.5
    endloop
  endfacet
  facet normal 0 0 1
    outer loop
      vertex -31.9357 -9.03494 3.5
      vertex -38.2924 1.97526 3.5
      vertex -33.75 -8.22715 3.5
    endloop
  endfacet
  facet normal 0 0 1
    outer loop
      vertex -30 -9.44638 3.5
      vertex -38.2924 1.97526 3.5
      vertex -31.9357 -9.03494 3.5
    endloop
  endfacet
  facet normal 0 0 1
    outer loop
      vertex -23 -9.5 3.5
      vertex -38.2924 1.97526 3.5
      vertex -30 -9.44638 3.5
    endloop
  endfacet
  facet normal 0 0 1
    outer loop
      vertex -23 -9.5 3.5
      vertex -30 -9.44638 3.5
      vertex -30 -9.5 3.5
    endloop
  endfacet
  facet normal 0 0 1
    outer loop
      vertex -23 9.5 3.5
      vertex -38.2924 1.97526 3.5
      vertex -23 -9.5 3.5
    endloop
  endfacet
  facet normal 0 0 1
    outer loop
      vertex -30 9.44657 3.5
      vertex -38.2924 1.97526 3.5
      vertex -23 9.5 3.5
    endloop
  endfacet
  facet normal 0 0 1
    outer loop
      vertex -30 9.5 3.5
      vertex -30 9.44657 3.5
      vertex -23 9.5 3.5
    endloop
  endfacet
  facet normal 0 0 1
    outer loop
      vertex -33.75 8.22734 3.5
      vertex -38.2924 1.97526 3.5
      vertex -31.9357 9.03513 3.5
    endloop
  endfacet
  facet normal 0 0 1
    outer loop
      vertex -35.3567 7.05997 3.5
      vertex -38.2924 1.97526 3.5
      vertex -33.75 8.22734 3.5
    endloop
  endfacet
  facet normal 0 0 1
    outer loop
      vertex -36.6857 5.58405 3.5
      vertex -38.2924 1.97526 3.5
      vertex -35.3567 7.05997 3.5
    endloop
  endfacet
  facet normal 0 0 1
    outer loop
      vertex -37.6787 3.86409 3.5
      vertex -38.2924 1.97526 3.5
      vertex -36.6857 5.58405 3.5
    endloop
  endfacet
  facet normal 0 0 1
    outer loop
      vertex -30 9.44657 3.5
      vertex -31.9357 9.03513 3.5
      vertex -38.2924 1.97526 3.5
    endloop
  endfacet
  facet normal 1 0 0
    outer loop
      vertex -23 9.5 3.5
      vertex -23 -9.5 3.39276
      vertex -23 9.5 3.39276
    endloop
  endfacet
  facet normal 1 0 0
    outer loop
      vertex -23 -9.5 3.5
      vertex -23 -9.5 3.39276
      vertex -23 9.5 3.5
    endloop
  endfacet
  facet normal 1 0 0
    outer loop
      vertex -23 -9.5 0.075
      vertex -23 -9.5 3.39276
      vertex -23 -9.5 3.5
    endloop
  endfacet
  facet normal 0 0 1
    outer loop
      vertex -19.522 -9.5 0.075
      vertex 17 -9.5 0.075
      vertex 14.1418 -9.5 0.075
    endloop
  endfacet
  facet normal 0 0 1
    outer loop
      vertex -6 -6 0.075
      vertex -19.522 -9.5 0.075
      vertex 14.1418 -9.5 0.075
    endloop
  endfacet
  facet normal 0 0 1
    outer loop
      vertex -19.522 -9.5 0.075
      vertex -23 -9.5 0.075
      vertex 17 -9.5 0.075
    endloop
  endfacet
  facet normal 0 0 1
    outer loop
      vertex -19.522 9.5 0.075
      vertex -19.522 -9.5 0.075
      vertex -6 -4 0.075
    endloop
  endfacet
  facet normal 0 0 1
    outer loop
      vertex -19.522 9.5 0.075
      vertex -6 -4 0.075
      vertex 0 -4 0.075
    endloop
  endfacet
  facet normal 0 0 1
    outer loop
      vertex 14.1418 9.5 0.075
      vertex -19.522 9.5 0.075
      vertex 0 6 0.075
    endloop
  endfacet
  facet normal 0 0 1
    outer loop
      vertex 14.1418 9.5 0.075
      vertex 2 6 0.075
      vertex 14.1418 -9.5 0.075
    endloop
  endfacet
  facet normal 0 0 1
    outer loop
      vertex 14.1418 9.5 0.075
      vertex 0 6 0.075
      vertex 2 6 0.075
    endloop
  endfacet
  facet normal 0 0 1
    outer loop
      vertex -6 -4 0.075
      vertex -19.522 -9.5 0.075
      vertex -6 -6 0.075
    endloop
  endfacet
  facet normal 0 0 1
    outer loop
      vertex 2 -6 0.075
      vertex -6 -6 0.075
      vertex 14.1418 -9.5 0.075
    endloop
  endfacet
  facet normal 0 0 1
    outer loop
      vertex 0 -4 0.075
      vertex 0 6 0.075
      vertex -19.522 9.5 0.075
    endloop
  endfacet
  facet normal 0 0 1
    outer loop
      vertex 2 6 0.075
      vertex 2 -6 0.075
      vertex 14.1418 -9.5 0.075
    endloop
  endfacet
  facet normal -1 0 0
    outer loop
      vertex 17 9.5 3.5
      vertex 17 9.5 3.46351
      vertex 17 -9.5 3.5
    endloop
  endfacet
  facet normal -1 0 0
    outer loop
      vertex 17 -9.5 3.5
      vertex 17 9.5 3.46351
      vertex 17 -9.5 3.46351
    endloop
  endfacet
  facet normal -1 0 0
    outer loop
      vertex 17 -9.5 3.5
      vertex 17 -9.5 3.46351
      vertex 17 -9.5 0.075
    endloop
  endfacet
  facet normal 0 0 1
    outer loop
      vertex 17 9.5 3.5
      vertex 17 -9.5 3.5
      vertex 30 -9.5 3.5
    endloop
  endfacet
  facet normal 0 0 1
    outer loop
      vertex 30 9.5 3.5
      vertex 17 9.5 3.5
      vertex 30 -9.5 3.5
    endloop
  endfacet
  facet normal 0 -1 2.22045e-16
    outer loop
      vertex -26.3582 -9.5 2.10942e-15
      vertex -26.3582 -9.5 -0.986064
      vertex -25.292 -9.5 -2.64512
    endloop
  endfacet
  facet normal 0 -1 2.22045e-16
    outer loop
      vertex -21.546 -9.5 -3.18371
      vertex -26.3582 -9.5 2.10942e-15
      vertex -23.4981 -9.5 -3.46437
    endloop
  endfacet
  facet normal 0 -1 2.22045e-16
    outer loop
      vertex -23.4981 -9.5 -3.46437
      vertex -26.3582 -9.5 2.10942e-15
      vertex -25.292 -9.5 -2.64512
    endloop
  endfacet
  facet normal 0 -1 2.22045e-16
    outer loop
      vertex -20.0556 -9.5 -1.89224
      vertex -26.3582 -9.5 2.10942e-15
      vertex -21.546 -9.5 -3.18371
    endloop
  endfacet
  facet normal 0 -1 2.22045e-16
    outer loop
      vertex -19.5 -9.5 2.10942e-15
      vertex -26.3582 -9.5 2.10942e-15
      vertex -20.0556 -9.5 -1.89224
    endloop
  endfacet
  facet normal 0 -1 2.22045e-16
    outer loop
      vertex 14.1418 -9.5 2.10942e-15
      vertex 14.1418 -9.5 -0.986064
      vertex 15.208 -9.5 -2.64512
    endloop
  endfacet
  facet normal 0 -1 2.22045e-16
    outer loop
      vertex 18.954 -9.5 -3.18371
      vertex 14.1418 -9.5 2.10942e-15
      vertex 17.0019 -9.5 -3.46437
    endloop
  endfacet
  facet normal 0 -1 2.22045e-16
    outer loop
      vertex 17.0019 -9.5 -3.46437
      vertex 14.1418 -9.5 2.10942e-15
      vertex 15.208 -9.5 -2.64512
    endloop
  endfacet
  facet normal 0 -1 2.22045e-16
    outer loop
      vertex 20.4444 -9.5 -1.89224
      vertex 14.1418 -9.5 2.10942e-15
      vertex 18.954 -9.5 -3.18371
    endloop
  endfacet
  facet normal 0 -1 2.22045e-16
    outer loop
      vertex 21 -9.5 2.10942e-15
      vertex 14.1418 -9.5 2.10942e-15
      vertex 20.4444 -9.5 -1.89224
    endloop
  endfacet
  facet normal 3.85577e-17 0.984808 -0.173649
    outer loop
      vertex 30 -7.10974 -0.460168
      vertex 26.5 -7.10974 -0.460168
      vertex 30 -6.79497 1.325
    endloop
  endfacet
  facet normal 3.85577e-17 0.984808 -0.173649
    outer loop
      vertex 30 -6.79497 1.325
      vertex 26.5 -7.10974 -0.460168
      vertex 26.5 -6.79497 1.325
    endloop
  endfacet
  facet normal -1.11022e-16 0.866025 0.5
    outer loop
      vertex 30 -6.20339 -2.03002
      vertex 26.5 -6.20339 -2.03002
      vertex 30 -7.10974 -0.460168
    endloop
  endfacet
  facet normal -1.11022e-16 0.866025 0.5
    outer loop
      vertex 30 -7.10974 -0.460168
      vertex 26.5 -6.20339 -2.03002
      vertex 26.5 -7.10974 -0.460168
    endloop
  endfacet
  facet normal -2.08654e-16 0.34202 0.939693
    outer loop
      vertex 30 -6.20339 -2.03002
      vertex 30 -4.5 -2.65
      vertex 26.5 -4.5 -2.65
    endloop
  endfacet
  facet normal -2.08654e-16 0.34202 0.939693
    outer loop
      vertex 26.5 -6.20339 -2.03002
      vertex 30 -6.20339 -2.03002
      vertex 26.5 -4.5 -2.65
    endloop
  endfacet
  facet normal -2.08654e-16 -0.34202 0.939693
    outer loop
      vertex 26.5 -4.5 -2.65
      vertex 30 -4.5 -2.65
      vertex 30 -2.79661 -2.03002
    endloop
  endfacet
  facet normal -2.08654e-16 -0.34202 0.939693
    outer loop
      vertex 26.5 -2.79661 -2.03002
      vertex 26.5 -4.5 -2.65
      vertex 30 -2.79661 -2.03002
    endloop
  endfacet
  facet normal -1.11022e-16 -0.866025 0.5
    outer loop
      vertex 26.5 -2.79661 -2.03002
      vertex 30 -2.79661 -2.03002
      vertex 30 -1.89026 -0.460168
    endloop
  endfacet
  facet normal -1.11022e-16 -0.866025 0.5
    outer loop
      vertex 26.5 -1.89026 -0.460168
      vertex 26.5 -2.79661 -2.03002
      vertex 30 -1.89026 -0.460168
    endloop
  endfacet
  facet normal 3.85577e-17 -0.984808 -0.173649
    outer loop
      vertex 26.5 -1.89026 -0.460168
      vertex 30 -1.89026 -0.460168
      vertex 30 -2.20503 1.325
    endloop
  endfacet
  facet normal 3.85577e-17 -0.984808 -0.173649
    outer loop
      vertex 26.5 -2.20503 1.325
      vertex 26.5 -1.89026 -0.460168
      vertex 30 -2.20503 1.325
    endloop
  endfacet
  facet normal 1.70096e-16 -0.642787 -0.766045
    outer loop
      vertex 30 -2.20503 1.325
      vertex 30 -3.59365 2.49019
      vertex 26.5 -2.20503 1.325
    endloop
  endfacet
  facet normal 1.70096e-16 -0.642787 -0.766045
    outer loop
      vertex 26.5 -2.20503 1.325
      vertex 30 -3.59365 2.49019
      vertex 26.5 -3.59365 2.49019
    endloop
  endfacet
  facet normal 2.22045e-16 0 -1
    outer loop
      vertex 30 -3.59365 2.49019
      vertex 30 -5.40635 2.49019
      vertex 26.5 -3.59365 2.49019
    endloop
  endfacet
  facet normal 2.22045e-16 0 -1
    outer loop
      vertex 26.5 -3.59365 2.49019
      vertex 30 -5.40635 2.49019
      vertex 26.5 -5.40635 2.49019
    endloop
  endfacet
  facet normal 1.70096e-16 0.642787 -0.766045
    outer loop
      vertex 30 -6.79497 1.325
      vertex 26.5 -6.79497 1.325
      vertex 30 -5.40635 2.49019
    endloop
  endfacet
  facet normal 1.70096e-16 0.642787 -0.766045
    outer loop
      vertex 30 -5.40635 2.49019
      vertex 26.5 -6.79497 1.325
      vertex 26.5 -5.40635 2.49019
    endloop
  endfacet
  facet normal 3.85577e-17 0.984808 -0.173649
    outer loop
      vertex 30 1.89026 -0.460168
      vertex 26.5 1.89026 -0.460168
      vertex 30 2.20503 1.325
    endloop
  endfacet
  facet normal 3.85577e-17 0.984808 -0.173649
    outer loop
      vertex 30 2.20503 1.325
      vertex 26.5 1.89026 -0.460168
      vertex 26.5 2.20503 1.325
    endloop
  endfacet
  facet normal -1.11022e-16 0.866025 0.5
    outer loop
      vertex 30 2.79661 -2.03002
      vertex 26.5 2.79661 -2.03002
      vertex 30 1.89026 -0.460168
    endloop
  endfacet
  facet normal -1.11022e-16 0.866025 0.5
    outer loop
      vertex 30 1.89026 -0.460168
      vertex 26.5 2.79661 -2.03002
      vertex 26.5 1.89026 -0.460168
    endloop
  endfacet
  facet normal -2.08654e-16 0.34202 0.939693
    outer loop
      vertex 30 2.79661 -2.03002
      vertex 30 4.5 -2.65
      vertex 26.5 4.5 -2.65
    endloop
  endfacet
  facet normal -2.08654e-16 0.34202 0.939693
    outer loop
      vertex 26.5 2.79661 -2.03002
      vertex 30 2.79661 -2.03002
      vertex 26.5 4.5 -2.65
    endloop
  endfacet
  facet normal -2.08654e-16 -0.34202 0.939693
    outer loop
      vertex 26.5 4.5 -2.65
      vertex 30 4.5 -2.65
      vertex 30 6.20339 -2.03002
    endloop
  endfacet
  facet normal -2.08654e-16 -0.34202 0.939693
    outer loop
      vertex 26.5 6.20339 -2.03002
      vertex 26.5 4.5 -2.65
      vertex 30 6.20339 -2.03002
    endloop
  endfacet
  facet normal -1.11022e-16 -0.866025 0.5
    outer loop
      vertex 26.5 6.20339 -2.03002
      vertex 30 6.20339 -2.03002
      vertex 30 7.10974 -0.460168
    endloop
  endfacet
  facet normal -1.11022e-16 -0.866025 0.5
    outer loop
      vertex 26.5 7.10974 -0.460168
      vertex 26.5 6.20339 -2.03002
      vertex 30 7.10974 -0.460168
    endloop
  endfacet
  facet normal 3.85577e-17 -0.984808 -0.173649
    outer loop
      vertex 26.5 7.10974 -0.460168
      vertex 30 7.10974 -0.460168
      vertex 30 6.79497 1.325
    endloop
  endfacet
  facet normal 3.85577e-17 -0.984808 -0.173649
    outer loop
      vertex 26.5 6.79497 1.325
      vertex 26.5 7.10974 -0.460168
      vertex 30 6.79497 1.325
    endloop
  endfacet
  facet normal 1.70096e-16 -0.642787 -0.766045
    outer loop
      vertex 30 6.79497 1.325
      vertex 30 5.40635 2.49019
      vertex 26.5 6.79497 1.325
    endloop
  endfacet
  facet normal 1.70096e-16 -0.642787 -0.766045
    outer loop
      vertex 26.5 6.79497 1.325
      vertex 30 5.40635 2.49019
      vertex 26.5 5.40635 2.49019
    endloop
  endfacet
  facet normal 2.22045e-16 0 -1
    outer loop
      vertex 30 5.40635 2.49019
      vertex 30 3.59365 2.49019
      vertex 26.5 5.40635 2.49019
    endloop
  endfacet
  facet normal 2.22045e-16 0 -1
    outer loop
      vertex 26.5 5.40635 2.49019
      vertex 30 3.59365 2.49019
      vertex 26.5 3.59365 2.49019
    endloop
  endfacet
  facet normal 1.70096e-16 0.642787 -0.766045
    outer loop
      vertex 30 2.20503 1.325
      vertex 26.5 2.20503 1.325
      vertex 30 3.59365 2.49019
    endloop
  endfacet
  facet normal 1.70096e-16 0.642787 -0.766045
    outer loop
      vertex 30 3.59365 2.49019
      vertex 26.5 2.20503 1.325
      vertex 26.5 3.59365 2.49019
    endloop
  endfacet
  facet normal -0.415415 2.01979e-16 0.909632
    outer loop
      vertex 15.208 9.5 2.64512
      vertex 15.208 -9.5 2.64512
      vertex 17 -9.5 3.46351
    endloop
  endfacet
  facet normal -0.415415 2.01979e-16 0.909632
    outer loop
      vertex 17.0019 9.5 3.46437
      vertex 15.208 9.5 2.64512
      vertex 17 9.5 3.46351
    endloop
  endfacet
  facet normal -0.415415 2.01979e-16 0.909632
    outer loop
      vertex 17 9.5 3.46351
      vertex 15.208 9.5 2.64512
      vertex 17 -9.5 3.46351
    endloop
  endfacet
  facet normal 0 1 -2.22045e-16
    outer loop
      vertex 14.1418 9.5 -2.10942e-15
      vertex 14.1418 9.5 0.986064
      vertex 21 9.5 -2.10942e-15
    endloop
  endfacet
  facet normal 0 1 -2.22045e-16
    outer loop
      vertex 21 9.5 -2.10942e-15
      vertex 14.1418 9.5 0.986064
      vertex 15.208 9.5 2.64512
    endloop
  endfacet
  facet normal 0 1 -2.22045e-16
    outer loop
      vertex 21 9.5 -2.10942e-15
      vertex 15.208 9.5 2.64512
      vertex 17.0019 9.5 3.46437
    endloop
  endfacet
  facet normal 0 1 -2.22045e-16
    outer loop
      vertex 21 9.5 -2.10942e-15
      vertex 17.0019 9.5 3.46437
      vertex 18.954 9.5 3.18371
    endloop
  endfacet
  facet normal 0 1 -2.22045e-16
    outer loop
      vertex 21 9.5 -2.10942e-15
      vertex 18.954 9.5 3.18371
      vertex 20.4444 9.5 1.89224
    endloop
  endfacet
  facet normal -1 0 0
    outer loop
      vertex 14.1418 -9.5 0.075
      vertex 14.1418 -9.5 0.986064
      vertex 14.1418 9.5 0.075
    endloop
  endfacet
  facet normal -1 0 0
    outer loop
      vertex 14.1418 9.5 0.075
      vertex 14.1418 -9.5 0.986064
      vertex 14.1418 9.5 0.986064
    endloop
  endfacet
  facet normal -1 0 0
    outer loop
      vertex 14.1418 9.5 0.075
      vertex 14.1418 9.5 0.986064
      vertex 14.1418 9.5 -2.10942e-15
    endloop
  endfacet
  facet normal 0.959493 6.25572e-17 0.281733
    outer loop
      vertex -20.0556 9.5 1.89224
      vertex -20.0556 -9.5 1.89224
      vertex -19.522 -9.5 0.075
    endloop
  endfacet
  facet normal 0.959493 6.25572e-17 0.281733
    outer loop
      vertex -19.5 9.5 -2.10942e-15
      vertex -20.0556 9.5 1.89224
      vertex -19.522 9.5 0.075
    endloop
  endfacet
  facet normal 0.959493 6.25572e-17 0.281733
    outer loop
      vertex -19.522 9.5 0.075
      vertex -20.0556 9.5 1.89224
      vertex -19.522 -9.5 0.075
    endloop
  endfacet
  facet normal 0 1 -2.22045e-16
    outer loop
      vertex -26.3582 9.5 -2.10942e-15
      vertex -26.3582 9.5 0.986064
      vertex -19.5 9.5 -2.10942e-15
    endloop
  endfacet
  facet normal 0 1 -2.22045e-16
    outer loop
      vertex -19.5 9.5 -2.10942e-15
      vertex -26.3582 9.5 0.986064
      vertex -25.292 9.5 2.64512
    endloop
  endfacet
  facet normal 0 1 -2.22045e-16
    outer loop
      vertex -19.5 9.5 -2.10942e-15
      vertex -25.292 9.5 2.64512
      vertex -23.4981 9.5 3.46437
    endloop
  endfacet
  facet normal 0 1 -2.22045e-16
    outer loop
      vertex -19.5 9.5 -2.10942e-15
      vertex -23.4981 9.5 3.46437
      vertex -21.546 9.5 3.18371
    endloop
  endfacet
  facet normal 0 1 -2.22045e-16
    outer loop
      vertex -19.5 9.5 -2.10942e-15
      vertex -21.546 9.5 3.18371
      vertex -20.0556 9.5 1.89224
    endloop
  endfacet
  facet normal 0.142315 2.19785e-16 0.989821
    outer loop
      vertex -21.546 9.5 3.18371
      vertex -23.4981 9.5 3.46437
      vertex -23 9.5 3.39276
    endloop
  endfacet
  facet normal 0.142315 2.19785e-16 0.989821
    outer loop
      vertex -23 -9.5 3.39276
      vertex -21.546 -9.5 3.18371
      vertex -23 9.5 3.39276
    endloop
  endfacet
  facet normal 0.142315 2.19785e-16 0.989821
    outer loop
      vertex -21.546 -9.5 3.18371
      vertex -21.546 9.5 3.18371
      vertex -23 9.5 3.39276
    endloop
  endfacet
  facet normal -0.994522 0.104529 0
    outer loop
      vertex -38.5 9.5e-05 2.52862
      vertex -38.5 9.5e-05 3.5
      vertex -38.4516 0.460168 2.60974
    endloop
  endfacet
  facet normal -0.994522 0.104529 0
    outer loop
      vertex -38.4516 0.460168 2.60974
      vertex -38.5 9.5e-05 3.5
      vertex -38.2924 1.97526 3.5
    endloop
  endfacet
  facet normal -0.994522 0.104529 0
    outer loop
      vertex -38.4516 0.460168 2.60974
      vertex -38.2924 1.97526 3.5
      vertex -38.2924 1.97526 1.735
    endloop
  endfacet
  facet normal 8.12739e-17 -0.5 -0.866025
    outer loop
      vertex -38.2746 2.03002 1.70339
      vertex -35.4 2.03002 1.70339
      vertex -38.2924 1.97526 1.735
    endloop
  endfacet
  facet normal 8.12739e-17 -0.5 -0.866025
    outer loop
      vertex -38.2924 1.97526 1.735
      vertex -35.4 2.03002 1.70339
      vertex -35.4 0.460168 2.60974
    endloop
  endfacet
  facet normal 8.12739e-17 -0.5 -0.866025
    outer loop
      vertex -38.2924 1.97526 1.735
      vertex -35.4 0.460168 2.60974
      vertex -38.4516 0.460168 2.60974
    endloop
  endfacet
  facet normal -1.3271e-16 -0.939693 -0.34202
    outer loop
      vertex -38.0732 2.65 -8.45394e-15
      vertex -35.4 2.65 -7.86038e-15
      vertex -35.4 2.03002 1.70339
    endloop
  endfacet
  facet normal -1.3271e-16 -0.939693 -0.34202
    outer loop
      vertex -38.2746 2.03002 1.70339
      vertex -38.0732 2.65 -8.45394e-15
      vertex -35.4 2.03002 1.70339
    endloop
  endfacet
  facet normal -2.84597e-16 -0.939693 0.34202
    outer loop
      vertex -35.4 2.03002 -1.70339
      vertex -35.4 2.65 -7.86038e-15
      vertex -38.0732 2.65 -8.45394e-15
    endloop
  endfacet
  facet normal -2.84597e-16 -0.939693 0.34202
    outer loop
      vertex -38.2746 2.03002 -1.70339
      vertex -35.4 2.03002 -1.70339
      vertex -38.0732 2.65 -8.45394e-15
    endloop
  endfacet
  facet normal -1 2.22045e-16 -2.22045e-16
    outer loop
      vertex -35.4 2.03002 1.70339
      vertex -35.4 2.65 -7.86038e-15
      vertex -35.4 0.460168 2.60974
    endloop
  endfacet
  facet normal -1 2.22045e-16 -2.22045e-16
    outer loop
      vertex -35.4 0.460168 2.60974
      vertex -35.4 2.65 -7.86038e-15
      vertex -35.4 2.03002 -1.70339
    endloop
  endfacet
  facet normal -1 2.22045e-16 -2.22045e-16
    outer loop
      vertex -35.4 0.460168 2.60974
      vertex -35.4 2.03002 -1.70339
      vertex -35.4 0.460168 -2.60974
    endloop
  endfacet
  facet normal -1 2.22045e-16 -2.22045e-16
    outer loop
      vertex -35.4 0.460168 2.60974
      vertex -35.4 0.460168 -2.60974
      vertex -35.4 -1.325 -2.29497
    endloop
  endfacet
  facet normal -1 2.22045e-16 -2.22045e-16
    outer loop
      vertex -35.4 0.460168 2.60974
      vertex -35.4 -1.325 -2.29497
      vertex -35.4 -2.49018 -0.906353
    endloop
  endfacet
  facet normal -1 2.22045e-16 -2.22045e-16
    outer loop
      vertex -35.4 0.460168 2.60974
      vertex -35.4 -2.49018 -0.906353
      vertex -35.4 -2.49018 0.906353
    endloop
  endfacet
  facet normal -1 2.22045e-16 -2.22045e-16
    outer loop
      vertex -35.4 0.460168 2.60974
      vertex -35.4 -2.49018 0.906353
      vertex -35.4 -1.325 2.29497
    endloop
  endfacet
  facet normal 2.57229e-16 0.173649 -0.984808
    outer loop
      vertex -35.4 0.460168 2.60974
      vertex -35.4 -1.325 2.29497
      vertex -38.4516 0.460168 2.60974
    endloop
  endfacet
  facet normal 2.57229e-16 0.173649 -0.984808
    outer loop
      vertex -38.4516 0.460168 2.60974
      vertex -35.4 -1.325 2.29497
      vertex -38.3607 -1.325 2.29497
    endloop
  endfacet
  facet normal 2.57229e-16 0.173649 -0.984808
    outer loop
      vertex -38.4516 0.460168 2.60974
      vertex -38.3607 -1.325 2.29497
      vertex -38.5 9.5e-05 2.52862
    endloop
  endfacet
  facet normal 0 -1 2.22045e-16
    outer loop
      vertex -23 -9.5 3.39276
      vertex -23 -9.5 0.075
      vertex -19.522 -9.5 0.075
    endloop
  endfacet
  facet normal 0 -1 2.22045e-16
    outer loop
      vertex -21.546 -9.5 3.18371
      vertex -23 -9.5 3.39276
      vertex -20.0556 -9.5 1.89224
    endloop
  endfacet
  facet normal 0 -1 2.22045e-16
    outer loop
      vertex -20.0556 -9.5 1.89224
      vertex -23 -9.5 3.39276
      vertex -19.522 -9.5 0.075
    endloop
  endfacet
  facet normal 0 -1 2.22045e-16
    outer loop
      vertex 14.1418 -9.5 0.986064
      vertex 14.1418 -9.5 0.075
      vertex 17 -9.5 0.075
    endloop
  endfacet
  facet normal 0 -1 2.22045e-16
    outer loop
      vertex 15.208 -9.5 2.64512
      vertex 14.1418 -9.5 0.986064
      vertex 17 -9.5 3.46351
    endloop
  endfacet
  facet normal 0 -1 2.22045e-16
    outer loop
      vertex 17 -9.5 3.46351
      vertex 14.1418 -9.5 0.986064
      vertex 17 -9.5 0.075
    endloop
  endfacet
  facet normal -1 0 0
    outer loop
      vertex -6 -6 0.075
      vertex -6 -6 2
      vertex -6 -4 0.075
    endloop
  endfacet
  facet normal -1 0 0
    outer loop
      vertex -6 -4 0.075
      vertex -6 -6 2
      vertex -6 -4 2
    endloop
  endfacet
  facet normal 0 1 0
    outer loop
      vertex -6 -4 0.075
      vertex -6 -4 2
      vertex 0 -4 0.075
    endloop
  endfacet
  facet normal 0 1 0
    outer loop
      vertex 0 -4 0.075
      vertex -6 -4 2
      vertex 0 -4 2
    endloop
  endfacet
  facet normal 0 -1 0
    outer loop
      vertex -6 -6 2
      vertex -6 -6 0.075
      vertex 2 -6 0.075
    endloop
  endfacet
  facet normal 0 -1 0
    outer loop
      vertex 2 -6 2
      vertex -6 -6 2
      vertex 2 -6 0.075
    endloop
  endfacet
  facet normal 1 0 0
    outer loop
      vertex 2 -6 2
      vertex 2 -6 0.075
      vertex 2 6 0.075
    endloop
  endfacet
  facet normal 1 0 0
    outer loop
      vertex 2 6 2
      vertex 2 -6 2
      vertex 2 6 0.075
    endloop
  endfacet
  facet normal 0 1 0
    outer loop
      vertex 0 6 0.075
      vertex 0 6 2
      vertex 2 6 0.075
    endloop
  endfacet
  facet normal 0 1 0
    outer loop
      vertex 2 6 0.075
      vertex 0 6 2
      vertex 2 6 2
    endloop
  endfacet
  facet normal -1 0 0
    outer loop
      vertex 0 6 2
      vertex 0 6 0.075
      vertex 0 -4 2
    endloop
  endfacet
  facet normal -1 0 0
    outer loop
      vertex 0 -4 2
      vertex 0 6 0.075
      vertex 0 -4 0.075
    endloop
  endfacet
  facet normal 1 0 2.22045e-16
    outer loop
      vertex 26.5 -6.79497 1.325
      vertex 26.5 -7.10974 -0.460168
      vertex 26.5 -6.20339 -2.03002
    endloop
  endfacet
  facet normal 1 0 2.22045e-16
    outer loop
      vertex 26.5 -2.79661 -2.03002
      vertex 26.5 -6.79497 1.325
      vertex 26.5 -4.5 -2.65
    endloop
  endfacet
  facet normal 1 0 2.22045e-16
    outer loop
      vertex 26.5 -4.5 -2.65
      vertex 26.5 -6.79497 1.325
      vertex 26.5 -6.20339 -2.03002
    endloop
  endfacet
  facet normal 1 0 2.22045e-16
    outer loop
      vertex 26.5 -1.89026 -0.460168
      vertex 26.5 -6.79497 1.325
      vertex 26.5 -2.79661 -2.03002
    endloop
  endfacet
  facet normal 1 0 2.22045e-16
    outer loop
      vertex 26.5 -2.20503 1.325
      vertex 26.5 -6.79497 1.325
      vertex 26.5 -1.89026 -0.460168
    endloop
  endfacet
  facet normal 1 0 2.22045e-16
    outer loop
      vertex 26.5 -3.59365 2.49019
      vertex 26.5 -6.79497 1.325
      vertex 26.5 -2.20503 1.325
    endloop
  endfacet
  facet normal 1 0 2.22045e-16
    outer loop
      vertex 26.5 -5.40635 2.49019
      vertex 26.5 -6.79497 1.325
      vertex 26.5 -3.59365 2.49019
    endloop
  endfacet
  facet normal 1 0 2.22045e-16
    outer loop
      vertex 26.5 2.20503 1.325
      vertex 26.5 1.89026 -0.460168
      vertex 26.5 2.79661 -2.03002
    endloop
  endfacet
  facet normal 1 0 2.22045e-16
    outer loop
      vertex 26.5 6.20339 -2.03002
      vertex 26.5 2.20503 1.325
      vertex 26.5 4.5 -2.65
    endloop
  endfacet
  facet normal 1 0 2.22045e-16
    outer loop
      vertex 26.5 4.5 -2.65
      vertex 26.5 2.20503 1.325
      vertex 26.5 2.79661 -2.03002
    endloop
  endfacet
  facet normal 1 0 2.22045e-16
    outer loop
      vertex 26.5 7.10974 -0.460168
      vertex 26.5 2.20503 1.325
      vertex 26.5 6.20339 -2.03002
    endloop
  endfacet
  facet normal 1 0 2.22045e-16
    outer loop
      vertex 26.5 6.79497 1.325
      vertex 26.5 2.20503 1.325
      vertex 26.5 7.10974 -0.460168
    endloop
  endfacet
  facet normal 1 0 2.22045e-16
    outer loop
      vertex 26.5 5.40635 2.49019
      vertex 26.5 2.20503 1.325
      vertex 26.5 6.79497 1.325
    endloop
  endfacet
  facet normal 1 0 2.22045e-16
    outer loop
      vertex 26.5 3.59365 2.49019
      vertex 26.5 2.20503 1.325
      vertex 26.5 5.40635 2.49019
    endloop
  endfacet
  facet normal -0.841254 1.20046e-16 0.54064
    outer loop
      vertex 14.1418 -9.5 0.986064
      vertex 15.208 -9.5 2.64512
      vertex 14.1418 9.5 0.986064
    endloop
  endfacet
  facet normal -0.841254 1.20046e-16 0.54064
    outer loop
      vertex 14.1418 9.5 0.986064
      vertex 15.208 -9.5 2.64512
      vertex 15.208 9.5 2.64512
    endloop
  endfacet
  facet normal 0.654861 1.6781e-16 0.755749
    outer loop
      vertex -21.546 9.5 3.18371
      vertex -21.546 -9.5 3.18371
      vertex -20.0556 -9.5 1.89224
    endloop
  endfacet
  facet normal 0.654861 1.6781e-16 0.755749
    outer loop
      vertex -20.0556 9.5 1.89224
      vertex -21.546 9.5 3.18371
      vertex -20.0556 -9.5 1.89224
    endloop
  endfacet
  facet normal 0 0 1
    outer loop
      vertex -6 -4 2
      vertex -6 -6 2
      vertex 2 -6 2
    endloop
  endfacet
  facet normal 0 0 1
    outer loop
      vertex 0 -4 2
      vertex -6 -4 2
      vertex 2 -6 2
    endloop
  endfacet
  facet normal 0 0 1
    outer loop
      vertex 2 6 2
      vertex 0 -4 2
      vertex 2 -6 2
    endloop
  endfacet
  facet normal 0 0 1
    outer loop
      vertex 0 6 2
      vertex 0 -4 2
      vertex 2 6 2
    endloop
  endfacet
endsolid OpenSCAD_Model
