solid OpenSCAD_Model
  facet normal 0 0 -1
    outer loop
      vertex -38.5 0.0095 -3.5
      vertex -38.2924 1.98466 -3.5
      vertex -38.2924 -1.96566 -3.5
    endloop
  endfacet
  facet normal 0 0 -1
    outer loop
      vertex -38.2924 -1.96566 -3.5
      vertex -38.2924 1.98466 -3.5
      vertex -37.6787 3.8735 -3.5
    endloop
  endfacet
  facet normal 0 0 -1
    outer loop
      vertex -38.2924 -1.96566 -3.5
      vertex -37.6787 3.8735 -3.5
      vertex -36.6857 5.59346 -3.5
    endloop
  endfacet
  facet normal 0 0 -1
    outer loop
      vertex -38.2924 -1.96566 -3.5
      vertex -36.6857 5.59346 -3.5
      vertex -35.3567 7.06938 -3.5
    endloop
  endfacet
  facet normal 0 0 -1
    outer loop
      vertex -38.2924 -1.96566 -3.5
      vertex -35.3567 7.06938 -3.5
      vertex -33.75 8.23674 -3.5
    endloop
  endfacet
  facet normal 0 0 -1
    outer loop
      vertex -38.2924 -1.96566 -3.5
      vertex -33.75 8.23674 -3.5
      vertex -31.9357 9.04454 -3.5
    endloop
  endfacet
  facet normal 0 0 -1
    outer loop
      vertex -38.2924 -1.96566 -3.5
      vertex -31.9357 9.04454 -3.5
      vertex -29.993 9.45746 -3.5
    endloop
  endfacet
  facet normal 0 0 -1
    outer loop
      vertex -38.2924 -1.96566 -3.5
      vertex -29.993 9.45746 -3.5
      vertex -28.5 9.45746 -3.5
    endloop
  endfacet
  facet normal 0 0 -1
    outer loop
      vertex -28.5 9.45746 -3.5
      vertex -28.5 9.5 -3.5
      vertex 28.5 9.5 -3.5
    endloop
  endfacet
  facet normal 0 0 -1
    outer loop
      vertex -28.5 9.45746 -3.5
      vertex 28.5 9.5 -3.5
      vertex -38.2924 -1.96566 -3.5
    endloop
  endfacet
  facet normal 0 0 -1
    outer loop
      vertex -38.2924 -1.96566 -3.5
      vertex 28.5 9.5 -3.5
      vertex 28.5 -9.5 -3.5
    endloop
  endfacet
  facet normal 0 0 -1
    outer loop
      vertex -28.5 -9.43846 -3.5
      vertex 28.5 -9.5 -3.5
      vertex -28.5 -9.5 -3.5
    endloop
  endfacet
  facet normal 0 0 -1
    outer loop
      vertex -38.2924 -1.96566 -3.5
      vertex 28.5 -9.5 -3.5
      vertex -28.5 -9.43846 -3.5
    endloop
  endfacet
  facet normal 0 0 -1
    outer loop
      vertex -38.2924 -1.96566 -3.5
      vertex -29.993 -9.43846 -3.5
      vertex -31.9357 -9.02554 -3.5
    endloop
  endfacet
  facet normal 0 0 -1
    outer loop
      vertex -38.2924 -1.96566 -3.5
      vertex -31.9357 -9.02554 -3.5
      vertex -33.75 -8.21774 -3.5
    endloop
  endfacet
  facet normal 0 0 -1
    outer loop
      vertex -38.2924 -1.96566 -3.5
      vertex -33.75 -8.21774 -3.5
      vertex -35.3567 -7.05038 -3.5
    endloop
  endfacet
  facet normal 0 0 -1
    outer loop
      vertex -38.2924 -1.96566 -3.5
      vertex -35.3567 -7.05038 -3.5
      vertex -36.6857 -5.57446 -3.5
    endloop
  endfacet
  facet normal 0 0 -1
    outer loop
      vertex -38.2924 -1.96566 -3.5
      vertex -36.6857 -5.57446 -3.5
      vertex -37.6787 -3.8545 -3.5
    endloop
  endfacet
  facet normal 0 0 -1
    outer loop
      vertex -29.993 -9.43846 -3.5
      vertex -38.2924 -1.96566 -3.5
      vertex -28.5 -9.43846 -3.5
    endloop
  endfacet
  facet normal -0.994522 0.104529 0
    outer loop
      vertex -38.5 0.0095 -3.5
      vertex -38.5 0.0095 -1.94936
      vertex -38.2924 1.98466 -3.5
    endloop
  endfacet
  facet normal -0.994522 0.104529 0
    outer loop
      vertex -38.2924 1.98466 -3.5
      vertex -38.5 0.0095 -1.94936
      vertex -38.4523 0.463641 -2.02944
    endloop
  endfacet
  facet normal -0.994522 0.104529 0
    outer loop
      vertex -38.2924 1.98466 -3.5
      vertex -38.4523 0.463641 -2.02944
      vertex -38.2924 1.98466 -1.15128
    endloop
  endfacet
  facet normal -0.994522 -0.104529 0
    outer loop
      vertex -38.5 0.0095 -3.5
      vertex -38.2924 -1.96566 -3.5
      vertex -38.5 0.0095 -1.94936
    endloop
  endfacet
  facet normal -0.994522 -0.104529 0
    outer loop
      vertex -38.3587 -1.335 -1.71229
      vertex -38.2924 -1.96566 -3.5
      vertex -38.2924 -1.96566 -0.960695
    endloop
  endfacet
  facet normal -0.994522 -0.104529 0
    outer loop
      vertex -38.5 0.0095 -1.94936
      vertex -38.2924 -1.96566 -3.5
      vertex -38.3587 -1.335 -1.71229
    endloop
  endfacet
  facet normal -0.951057 -0.309017 0
    outer loop
      vertex -38.2924 -1.96566 -3.5
      vertex -37.6787 -3.8545 -3.5
      vertex -38.2924 -1.96566 -0.960695
    endloop
  endfacet
  facet normal -0.951057 -0.309017 0
    outer loop
      vertex -38.1159 -2.50898 -0.313194
      vertex -37.6787 -3.8545 -3.5
      vertex -37.6787 -3.8545 5
    endloop
  endfacet
  facet normal -0.951057 -0.309017 0
    outer loop
      vertex -38.2924 -1.96566 2.1607
      vertex -37.6787 -3.8545 5
      vertex -38.2924 -1.96566 5
    endloop
  endfacet
  facet normal -0.951057 -0.309017 0
    outer loop
      vertex -38.1159 -2.50898 1.51319
      vertex -37.6787 -3.8545 5
      vertex -38.2924 -1.96566 2.1607
    endloop
  endfacet
  facet normal -0.951057 -0.309017 0
    outer loop
      vertex -38.2924 -1.96566 -0.960695
      vertex -37.6787 -3.8545 -3.5
      vertex -38.1159 -2.50898 -0.313194
    endloop
  endfacet
  facet normal -0.951057 -0.309017 0
    outer loop
      vertex -38.1159 -2.50898 -0.313194
      vertex -37.6787 -3.8545 5
      vertex -38.1159 -2.50898 1.51319
    endloop
  endfacet
  facet normal -0.866025 -0.5 0
    outer loop
      vertex -37.6787 -3.8545 -3.5
      vertex -36.6857 -5.57446 -3.5
      vertex -37.6787 -3.8545 5
    endloop
  endfacet
  facet normal -0.866025 -0.5 0
    outer loop
      vertex -37.6787 -3.8545 5
      vertex -36.6857 -5.57446 -3.5
      vertex -36.6857 -5.57446 5
    endloop
  endfacet
  facet normal -0.743145 -0.66913 0
    outer loop
      vertex -36.6857 -5.57446 -3.5
      vertex -35.3567 -7.05038 -3.5
      vertex -36.6857 -5.57446 5
    endloop
  endfacet
  facet normal -0.743145 -0.66913 0
    outer loop
      vertex -36.6857 -5.57446 5
      vertex -35.3567 -7.05038 -3.5
      vertex -35.3567 -7.05038 5
    endloop
  endfacet
  facet normal -0.587785 -0.809017 0
    outer loop
      vertex -35.3567 -7.05038 5
      vertex -35.3567 -7.05038 -3.5
      vertex -33.75 -8.21774 -3.5
    endloop
  endfacet
  facet normal -0.587785 -0.809017 0
    outer loop
      vertex -33.75 -8.21774 5
      vertex -35.3567 -7.05038 5
      vertex -33.75 -8.21774 -3.5
    endloop
  endfacet
  facet normal -0.406737 -0.913545 0
    outer loop
      vertex -33.75 -8.21774 5
      vertex -33.75 -8.21774 -3.5
      vertex -31.9357 -9.02554 -3.5
    endloop
  endfacet
  facet normal -0.406737 -0.913545 0
    outer loop
      vertex -31.9357 -9.02554 5
      vertex -33.75 -8.21774 5
      vertex -31.9357 -9.02554 -3.5
    endloop
  endfacet
  facet normal -0.207912 -0.978148 0
    outer loop
      vertex -31.9357 -9.02554 5
      vertex -31.9357 -9.02554 -3.5
      vertex -29.993 -9.43846 -3.5
    endloop
  endfacet
  facet normal -0.207912 -0.978148 0
    outer loop
      vertex -29.993 -9.43846 5
      vertex -31.9357 -9.02554 5
      vertex -29.993 -9.43846 -3.5
    endloop
  endfacet
  facet normal 0 -1 0
    outer loop
      vertex -29.993 -9.43846 5
      vertex -29.993 -9.43846 -3.5
      vertex -28.5 -9.43846 -3.5
    endloop
  endfacet
  facet normal 0 -1 0
    outer loop
      vertex -28.5 -9.43846 5
      vertex -29.993 -9.43846 5
      vertex -28.5 -9.43846 -3.5
    endloop
  endfacet
  facet normal -1 0 0
    outer loop
      vertex -28.5 -9.5 -3.5
      vertex -28.5 -9.5 5
      vertex -28.5 -9.43846 -3.5
    endloop
  endfacet
  facet normal -1 0 0
    outer loop
      vertex -28.5 -9.43846 -3.5
      vertex -28.5 -9.5 5
      vertex -28.5 -9.43846 5
    endloop
  endfacet
  facet normal 0 -1 0
    outer loop
      vertex -20.5454 -9.5 -3.49244
      vertex -28.5 -9.5 -3.5
      vertex 28.5 -9.5 -3.5
    endloop
  endfacet
  facet normal 0 -1 0
    outer loop
      vertex 28.5 -9.5 5
      vertex 17.5 -9.5 5
      vertex 28.5 -9.5 -3.5
    endloop
  endfacet
  facet normal 0 -1 0
    outer loop
      vertex 21.7652 -9.5 -1.17136
      vertex 20.5748 -9.5 -2.66406
      vertex 28.5 -9.5 -3.5
    endloop
  endfacet
  facet normal 0 -1 0
    outer loop
      vertex 13.7675 -9.5 2.10942e-15
      vertex 22.0325 -9.5 2.10942e-15
      vertex 17.5 -9.5 0.075
    endloop
  endfacet
  facet normal 0 -1 0
    outer loop
      vertex -28.5 -9.5 5
      vertex -28.5 -9.5 -3.5
      vertex -25.3652 -9.5 -1.17136
    endloop
  endfacet
  facet normal 0 -1 0
    outer loop
      vertex -28.5 -9.5 5
      vertex -25.6325 -9.5 2.10942e-15
      vertex -21.5 -9.5 0.075
    endloop
  endfacet
  facet normal 0 -1 0
    outer loop
      vertex -28.5 -9.5 5
      vertex -25.3652 -9.5 -1.17136
      vertex -25.6325 -9.5 2.10942e-15
    endloop
  endfacet
  facet normal 0 -1 0
    outer loop
      vertex 16.9454 -9.5 -3.49244
      vertex 15.2252 -9.5 -2.66406
      vertex -17.6348 -9.5 -1.17136
    endloop
  endfacet
  facet normal 0 -1 0
    outer loop
      vertex -17.3675 -9.5 2.10942e-15
      vertex -17.6348 -9.5 -1.17136
      vertex 15.2252 -9.5 -2.66406
    endloop
  endfacet
  facet normal 0 -1 0
    outer loop
      vertex 16.9454 -9.5 -3.49244
      vertex -17.6348 -9.5 -1.17136
      vertex -18.8252 -9.5 -2.66406
    endloop
  endfacet
  facet normal 0 -1 0
    outer loop
      vertex 18.8546 -9.5 -3.49244
      vertex 16.9454 -9.5 -3.49244
      vertex 28.5 -9.5 -3.5
    endloop
  endfacet
  facet normal 0 -1 0
    outer loop
      vertex -22.4546 -9.5 -3.49244
      vertex -28.5 -9.5 -3.5
      vertex -20.5454 -9.5 -3.49244
    endloop
  endfacet
  facet normal 0 -1 0
    outer loop
      vertex -25.6325 -9.5 2.10942e-15
      vertex -17.3675 -9.5 2.10942e-15
      vertex -21.5 -9.5 0.075
    endloop
  endfacet
  facet normal 0 -1 0
    outer loop
      vertex 20.5748 -9.5 -2.66406
      vertex 18.8546 -9.5 -3.49244
      vertex 28.5 -9.5 -3.5
    endloop
  endfacet
  facet normal 0 -1 0
    outer loop
      vertex 17.5 -9.5 5
      vertex 22.0325 -9.5 2.10942e-15
      vertex 28.5 -9.5 -3.5
    endloop
  endfacet
  facet normal 0 -1 0
    outer loop
      vertex 17.5 -9.5 5
      vertex 17.5 -9.5 0.075
      vertex 22.0325 -9.5 2.10942e-15
    endloop
  endfacet
  facet normal 0 -1 0
    outer loop
      vertex 22.0325 -9.5 2.10942e-15
      vertex 21.7652 -9.5 -1.17136
      vertex 28.5 -9.5 -3.5
    endloop
  endfacet
  facet normal 0 -1 0
    outer loop
      vertex -24.1748 -9.5 -2.66406
      vertex -25.3652 -9.5 -1.17136
      vertex -28.5 -9.5 -3.5
    endloop
  endfacet
  facet normal 0 -1 0
    outer loop
      vertex -21.5 -9.5 0.075
      vertex -21.5 -9.5 5
      vertex -28.5 -9.5 5
    endloop
  endfacet
  facet normal 0 -1 0
    outer loop
      vertex 16.9454 -9.5 -3.49244
      vertex -20.5454 -9.5 -3.49244
      vertex 28.5 -9.5 -3.5
    endloop
  endfacet
  facet normal 0 -1 0
    outer loop
      vertex -18.8252 -9.5 -2.66406
      vertex -20.5454 -9.5 -3.49244
      vertex 16.9454 -9.5 -3.49244
    endloop
  endfacet
  facet normal 0 -1 0
    outer loop
      vertex -22.4546 -9.5 -3.49244
      vertex -24.1748 -9.5 -2.66406
      vertex -28.5 -9.5 -3.5
    endloop
  endfacet
  facet normal 0 -1 0
    outer loop
      vertex 15.2252 -9.5 -2.66406
      vertex 14.0348 -9.5 -1.17136
      vertex -17.3675 -9.5 2.10942e-15
    endloop
  endfacet
  facet normal 0 -1 0
    outer loop
      vertex 13.7675 -9.5 2.10942e-15
      vertex -17.3675 -9.5 2.10942e-15
      vertex 14.0348 -9.5 -1.17136
    endloop
  endfacet
  facet normal 0 -1 0
    outer loop
      vertex 17.5 -9.5 0.075
      vertex -17.3675 -9.5 2.10942e-15
      vertex 13.7675 -9.5 2.10942e-15
    endloop
  endfacet
  facet normal 0 -1 0
    outer loop
      vertex 17.5 -9.5 0.075
      vertex -21.5 -9.5 0.075
      vertex -17.3675 -9.5 2.10942e-15
    endloop
  endfacet
  facet normal 1 0 0
    outer loop
      vertex 28.5 -4 -2.07
      vertex 28.5 -9.5 -3.5
      vertex 28.5 9.5 -3.5
    endloop
  endfacet
  facet normal 1 0 0
    outer loop
      vertex 28.5 -4 -2.07
      vertex 28.5 -5.71624 -1.44534
      vertex 28.5 -9.5 -3.5
    endloop
  endfacet
  facet normal 1 0 0
    outer loop
      vertex 28.5 -9.5 5
      vertex 28.5 -9.5 -3.5
      vertex 28.5 -6.62944 0.136359
    endloop
  endfacet
  facet normal 1 0 0
    outer loop
      vertex 28.5 4 -2.07
      vertex 28.5 -2.28376 -1.44534
      vertex 28.5 9.5 -3.5
    endloop
  endfacet
  facet normal 1 0 0
    outer loop
      vertex 28.5 -9.5 5
      vertex 28.5 -6.62944 0.136359
      vertex 28.5 -6.31229 1.935
    endloop
  endfacet
  facet normal 1 0 0
    outer loop
      vertex 28.5 9.5 5
      vertex 28.5 -9.5 5
      vertex 28.5 -4.91319 3.10898
    endloop
  endfacet
  facet normal 1 0 0
    outer loop
      vertex 28.5 3.08681 3.10898
      vertex 28.5 4.91319 3.10898
      vertex 28.5 9.5 5
    endloop
  endfacet
  facet normal 1 0 0
    outer loop
      vertex 28.5 9.5 5
      vertex 28.5 -4.91319 3.10898
      vertex 28.5 -3.08681 3.10898
    endloop
  endfacet
  facet normal 1 0 0
    outer loop
      vertex 28.5 -2.28376 -1.44534
      vertex 28.5 -4 -2.07
      vertex 28.5 9.5 -3.5
    endloop
  endfacet
  facet normal 1 0 0
    outer loop
      vertex 28.5 -6.62944 0.136359
      vertex 28.5 -9.5 -3.5
      vertex 28.5 -5.71624 -1.44534
    endloop
  endfacet
  facet normal 1 0 0
    outer loop
      vertex 28.5 5.71624 -1.44534
      vertex 28.5 4 -2.07
      vertex 28.5 9.5 -3.5
    endloop
  endfacet
  facet normal 1 0 0
    outer loop
      vertex 28.5 3.08681 3.10898
      vertex 28.5 -3.08681 3.10898
      vertex 28.5 1.68771 1.935
    endloop
  endfacet
  facet normal 1 0 0
    outer loop
      vertex 28.5 6.31229 1.935
      vertex 28.5 6.62944 0.136359
      vertex 28.5 9.5 -3.5
    endloop
  endfacet
  facet normal 1 0 0
    outer loop
      vertex 28.5 9.5 5
      vertex 28.5 -3.08681 3.10898
      vertex 28.5 3.08681 3.10898
    endloop
  endfacet
  facet normal 1 0 0
    outer loop
      vertex 28.5 6.62944 0.136359
      vertex 28.5 5.71624 -1.44534
      vertex 28.5 9.5 -3.5
    endloop
  endfacet
  facet normal 1 0 0
    outer loop
      vertex 28.5 9.5 5
      vertex 28.5 6.31229 1.935
      vertex 28.5 9.5 -3.5
    endloop
  endfacet
  facet normal 1 0 0
    outer loop
      vertex 28.5 9.5 5
      vertex 28.5 4.91319 3.10898
      vertex 28.5 6.31229 1.935
    endloop
  endfacet
  facet normal 1 0 0
    outer loop
      vertex 28.5 2.28376 -1.44534
      vertex 28.5 1.37056 0.136359
      vertex 28.5 -1.37056 0.136359
    endloop
  endfacet
  facet normal 1 0 0
    outer loop
      vertex 28.5 1.37056 0.136359
      vertex 28.5 -3.08681 3.10898
      vertex 28.5 -1.68771 1.935
    endloop
  endfacet
  facet normal 1 0 0
    outer loop
      vertex 28.5 1.37056 0.136359
      vertex 28.5 1.68771 1.935
      vertex 28.5 -3.08681 3.10898
    endloop
  endfacet
  facet normal 1 0 0
    outer loop
      vertex 28.5 -1.37056 0.136359
      vertex 28.5 -2.28376 -1.44534
      vertex 28.5 2.28376 -1.44534
    endloop
  endfacet
  facet normal 1 0 0
    outer loop
      vertex 28.5 2.28376 -1.44534
      vertex 28.5 -2.28376 -1.44534
      vertex 28.5 4 -2.07
    endloop
  endfacet
  facet normal 1 0 0
    outer loop
      vertex 28.5 -6.31229 1.935
      vertex 28.5 -4.91319 3.10898
      vertex 28.5 -9.5 5
    endloop
  endfacet
  facet normal 1 0 0
    outer loop
      vertex 28.5 -1.68771 1.935
      vertex 28.5 -1.37056 0.136359
      vertex 28.5 1.37056 0.136359
    endloop
  endfacet
  facet normal 0 1 0
    outer loop
      vertex -25.79 9.5 0.69
      vertex -28.5 9.5 -3.5
      vertex -25.3652 9.5 2.55136
    endloop
  endfacet
  facet normal 0 1 0
    outer loop
      vertex -21.5 9.5 4.87244
      vertex -28.5 9.5 5
      vertex -21.5 9.5 5
    endloop
  endfacet
  facet normal 0 1 0
    outer loop
      vertex -22.4546 9.5 4.87244
      vertex -28.5 9.5 5
      vertex -21.5 9.5 4.87244
    endloop
  endfacet
  facet normal 0 1 0
    outer loop
      vertex -25.3652 9.5 2.55136
      vertex -28.5 9.5 5
      vertex -24.1748 9.5 4.04406
    endloop
  endfacet
  facet normal 0 1 0
    outer loop
      vertex -28.5 9.5 -3.5
      vertex -28.5 9.5 5
      vertex -25.3652 9.5 2.55136
    endloop
  endfacet
  facet normal 0 1 0
    outer loop
      vertex -17.3504 9.5 0.075
      vertex 28.5 9.5 -3.5
      vertex -17.3675 9.5 -2.10942e-15
    endloop
  endfacet
  facet normal 0 1 0
    outer loop
      vertex 13.7504 9.5 0.075
      vertex 13.7675 9.5 -2.10942e-15
      vertex -17.3504 9.5 0.075
    endloop
  endfacet
  facet normal 0 1 0
    outer loop
      vertex -28.5 9.5 -3.5
      vertex -25.79 9.5 0.69
      vertex -25.6325 9.5 -2.10942e-15
    endloop
  endfacet
  facet normal 0 1 0
    outer loop
      vertex -28.5 9.5 -3.5
      vertex -25.6325 9.5 -2.10942e-15
      vertex 28.5 9.5 -3.5
    endloop
  endfacet
  facet normal 0 1 0
    outer loop
      vertex -25.6325 9.5 -2.10942e-15
      vertex -17.3675 9.5 -2.10942e-15
      vertex 28.5 9.5 -3.5
    endloop
  endfacet
  facet normal 0 1 0
    outer loop
      vertex 13.7675 9.5 -2.10942e-15
      vertex 28.5 9.5 -3.5
      vertex -17.3504 9.5 0.075
    endloop
  endfacet
  facet normal 0 1 0
    outer loop
      vertex 22.0325 9.5 -2.10942e-15
      vertex 28.5 9.5 -3.5
      vertex 13.7675 9.5 -2.10942e-15
    endloop
  endfacet
  facet normal 0 1 0
    outer loop
      vertex 17.5 9.5 5
      vertex 18.8546 9.5 4.87244
      vertex 17.5 9.5 4.87244
    endloop
  endfacet
  facet normal 0 1 0
    outer loop
      vertex 22.0325 9.5 -2.10942e-15
      vertex 22.19 9.5 0.69
      vertex 28.5 9.5 -3.5
    endloop
  endfacet
  facet normal 0 1 0
    outer loop
      vertex 22.19 9.5 0.69
      vertex 21.7652 9.5 2.55136
      vertex 28.5 9.5 -3.5
    endloop
  endfacet
  facet normal 0 1 0
    outer loop
      vertex 21.7652 9.5 2.55136
      vertex 20.5748 9.5 4.04406
      vertex 28.5 9.5 -3.5
    endloop
  endfacet
  facet normal 0 1 0
    outer loop
      vertex 20.5748 9.5 4.04406
      vertex 28.5 9.5 5
      vertex 28.5 9.5 -3.5
    endloop
  endfacet
  facet normal 0 1 0
    outer loop
      vertex 18.8546 9.5 4.87244
      vertex 17.5 9.5 5
      vertex 28.5 9.5 5
    endloop
  endfacet
  facet normal 0 1 0
    outer loop
      vertex 18.8546 9.5 4.87244
      vertex 28.5 9.5 5
      vertex 20.5748 9.5 4.04406
    endloop
  endfacet
  facet normal 0 1 0
    outer loop
      vertex -24.1748 9.5 4.04406
      vertex -28.5 9.5 5
      vertex -22.4546 9.5 4.87244
    endloop
  endfacet
  facet normal -1 0 0
    outer loop
      vertex -28.5 9.45746 -3.5
      vertex -28.5 9.45746 5
      vertex -28.5 9.5 -3.5
    endloop
  endfacet
  facet normal -1 0 0
    outer loop
      vertex -28.5 9.5 -3.5
      vertex -28.5 9.45746 5
      vertex -28.5 9.5 5
    endloop
  endfacet
  facet normal 0 1 0
    outer loop
      vertex -29.993 9.45746 -3.5
      vertex -29.993 9.45746 5
      vertex -28.5 9.45746 -3.5
    endloop
  endfacet
  facet normal 0 1 0
    outer loop
      vertex -28.5 9.45746 -3.5
      vertex -29.993 9.45746 5
      vertex -28.5 9.45746 5
    endloop
  endfacet
  facet normal -0.207912 0.978148 0
    outer loop
      vertex -31.9357 9.04454 -3.5
      vertex -31.9357 9.04454 5
      vertex -29.993 9.45746 -3.5
    endloop
  endfacet
  facet normal -0.207912 0.978148 0
    outer loop
      vertex -29.993 9.45746 -3.5
      vertex -31.9357 9.04454 5
      vertex -29.993 9.45746 5
    endloop
  endfacet
  facet normal -0.406737 0.913545 0
    outer loop
      vertex -33.75 8.23674 -3.5
      vertex -33.75 8.23674 5
      vertex -31.9357 9.04454 -3.5
    endloop
  endfacet
  facet normal -0.406737 0.913545 0
    outer loop
      vertex -31.9357 9.04454 -3.5
      vertex -33.75 8.23674 5
      vertex -31.9357 9.04454 5
    endloop
  endfacet
  facet normal -0.587785 0.809017 0
    outer loop
      vertex -35.3567 7.06938 -3.5
      vertex -35.3567 7.06938 5
      vertex -33.75 8.23674 -3.5
    endloop
  endfacet
  facet normal -0.587785 0.809017 0
    outer loop
      vertex -33.75 8.23674 -3.5
      vertex -35.3567 7.06938 5
      vertex -33.75 8.23674 5
    endloop
  endfacet
  facet normal -0.743145 0.66913 0
    outer loop
      vertex -36.6857 5.59346 -3.5
      vertex -36.6857 5.59346 5
      vertex -35.3567 7.06938 -3.5
    endloop
  endfacet
  facet normal -0.743145 0.66913 0
    outer loop
      vertex -35.3567 7.06938 -3.5
      vertex -36.6857 5.59346 5
      vertex -35.3567 7.06938 5
    endloop
  endfacet
  facet normal -0.866025 0.5 0
    outer loop
      vertex -37.6787 3.8735 -3.5
      vertex -37.6787 3.8735 5
      vertex -36.6857 5.59346 -3.5
    endloop
  endfacet
  facet normal -0.866025 0.5 0
    outer loop
      vertex -36.6857 5.59346 -3.5
      vertex -37.6787 3.8735 5
      vertex -36.6857 5.59346 5
    endloop
  endfacet
  facet normal -0.951057 0.309017 0
    outer loop
      vertex -38.2924 1.98466 -3.5
      vertex -38.2924 1.98466 -1.15128
      vertex -37.6787 3.8735 -3.5
    endloop
  endfacet
  facet normal -0.951057 0.309017 0
    outer loop
      vertex -37.6787 3.8735 -3.5
      vertex -38.2924 1.98466 -1.15128
      vertex -38.2727 2.04534 -1.11624
    endloop
  endfacet
  facet normal -0.951057 0.309017 0
    outer loop
      vertex -37.6787 3.8735 -3.5
      vertex -38.2727 2.04534 -1.11624
      vertex -38.0697 2.67 0.6
    endloop
  endfacet
  facet normal -0.951057 0.309017 0
    outer loop
      vertex -38.0697 2.67 0.6
      vertex -38.2924 1.98466 5
      vertex -37.6787 3.8735 -3.5
    endloop
  endfacet
  facet normal -0.951057 0.309017 0
    outer loop
      vertex -38.2727 2.04534 2.31624
      vertex -38.2924 1.98466 2.35128
      vertex -38.2924 1.98466 5
    endloop
  endfacet
  facet normal -0.951057 0.309017 0
    outer loop
      vertex -38.2727 2.04534 2.31624
      vertex -38.2924 1.98466 5
      vertex -38.0697 2.67 0.6
    endloop
  endfacet
  facet normal -0.951057 0.309017 0
    outer loop
      vertex -37.6787 3.8735 -3.5
      vertex -38.2924 1.98466 5
      vertex -37.6787 3.8735 5
    endloop
  endfacet
  facet normal -3.03319e-16 -0.5 0.866025
    outer loop
      vertex -33.8 0.463641 -2.02944
      vertex -33.8 2.04534 -1.11624
      vertex -38.2727 2.04534 -1.11624
    endloop
  endfacet
  facet normal -3.03319e-16 -0.5 0.866025
    outer loop
      vertex -38.4523 0.463641 -2.02944
      vertex -33.8 0.463641 -2.02944
      vertex -38.2924 1.98466 -1.15128
    endloop
  endfacet
  facet normal -3.03319e-16 -0.5 0.866025
    outer loop
      vertex -38.2924 1.98466 -1.15128
      vertex -33.8 0.463641 -2.02944
      vertex -38.2727 2.04534 -1.11624
    endloop
  endfacet
  facet normal -1.80114e-16 0.173648 0.984808
    outer loop
      vertex -38.3587 -1.335 -1.71229
      vertex -33.8 -1.335 -1.71229
      vertex -33.8 0.463641 -2.02944
    endloop
  endfacet
  facet normal -1.80114e-16 0.173648 0.984808
    outer loop
      vertex -38.5 0.0095 -1.94936
      vertex -38.3587 -1.335 -1.71229
      vertex -38.4523 0.463641 -2.02944
    endloop
  endfacet
  facet normal -1.80114e-16 0.173648 0.984808
    outer loop
      vertex -38.4523 0.463641 -2.02944
      vertex -38.3587 -1.335 -1.71229
      vertex -33.8 0.463641 -2.02944
    endloop
  endfacet
  facet normal 2.73685e-17 0.766045 0.642788
    outer loop
      vertex -38.1159 -2.50898 -0.313194
      vertex -33.8 -2.50898 -0.313194
      vertex -38.2924 -1.96566 -0.960695
    endloop
  endfacet
  facet normal 2.73685e-17 0.766045 0.642788
    outer loop
      vertex -38.2924 -1.96566 -0.960695
      vertex -33.8 -2.50898 -0.313194
      vertex -33.8 -1.335 -1.71229
    endloop
  endfacet
  facet normal 2.73685e-17 0.766045 0.642788
    outer loop
      vertex -38.2924 -1.96566 -0.960695
      vertex -33.8 -1.335 -1.71229
      vertex -38.3587 -1.335 -1.71229
    endloop
  endfacet
  facet normal 2.22045e-16 1 4.93038e-32
    outer loop
      vertex -33.8 -2.50898 1.51319
      vertex -33.8 -2.50898 -0.313194
      vertex -38.1159 -2.50898 1.51319
    endloop
  endfacet
  facet normal 2.22045e-16 1 4.93038e-32
    outer loop
      vertex -38.1159 -2.50898 1.51319
      vertex -33.8 -2.50898 -0.313194
      vertex -38.1159 -2.50898 -0.313194
    endloop
  endfacet
  facet normal 3.12824e-16 0.766045 -0.642788
    outer loop
      vertex -33.8 -2.50898 1.51319
      vertex -38.1159 -2.50898 1.51319
      vertex -33.8 -1.335 2.91229
    endloop
  endfacet
  facet normal 3.12824e-16 0.766045 -0.642788
    outer loop
      vertex -33.8 -1.335 2.91229
      vertex -38.1159 -2.50898 1.51319
      vertex -38.2924 -1.96566 2.1607
    endloop
  endfacet
  facet normal 3.12824e-16 0.766045 -0.642788
    outer loop
      vertex -33.8 -1.335 2.91229
      vertex -38.2924 -1.96566 2.1607
      vertex -38.3587 -1.335 2.91229
    endloop
  endfacet
  facet normal -0.994522 -0.104529 0
    outer loop
      vertex -38.5 0.0095 3.14936
      vertex -38.3587 -1.335 2.91229
      vertex -38.5 0.0095 5
    endloop
  endfacet
  facet normal -0.994522 -0.104529 0
    outer loop
      vertex -38.5 0.0095 5
      vertex -38.3587 -1.335 2.91229
      vertex -38.2924 -1.96566 2.1607
    endloop
  endfacet
  facet normal -0.994522 -0.104529 0
    outer loop
      vertex -38.5 0.0095 5
      vertex -38.2924 -1.96566 2.1607
      vertex -38.2924 -1.96566 5
    endloop
  endfacet
  facet normal 0 0 1
    outer loop
      vertex -38.2924 1.98466 5
      vertex -38.5 0.0095 5
      vertex -38.2924 -1.96566 5
    endloop
  endfacet
  facet normal 0 0 1
    outer loop
      vertex -36.6857 -5.57446 5
      vertex -38.2924 1.98466 5
      vertex -37.6787 -3.8545 5
    endloop
  endfacet
  facet normal 0 0 1
    outer loop
      vertex -37.6787 -3.8545 5
      vertex -38.2924 1.98466 5
      vertex -38.2924 -1.96566 5
    endloop
  endfacet
  facet normal 0 0 1
    outer loop
      vertex -35.3567 -7.05038 5
      vertex -38.2924 1.98466 5
      vertex -36.6857 -5.57446 5
    endloop
  endfacet
  facet normal 0 0 1
    outer loop
      vertex -33.75 -8.21774 5
      vertex -38.2924 1.98466 5
      vertex -35.3567 -7.05038 5
    endloop
  endfacet
  facet normal 0 0 1
    outer loop
      vertex -31.9357 -9.02554 5
      vertex -38.2924 1.98466 5
      vertex -33.75 -8.21774 5
    endloop
  endfacet
  facet normal 0 0 1
    outer loop
      vertex -29.993 -9.43846 5
      vertex -38.2924 1.98466 5
      vertex -31.9357 -9.02554 5
    endloop
  endfacet
  facet normal 0 0 1
    outer loop
      vertex -28.5 -9.43846 5
      vertex -38.2924 1.98466 5
      vertex -29.993 -9.43846 5
    endloop
  endfacet
  facet normal 0 0 1
    outer loop
      vertex -21.5 -9.5 5
      vertex -38.2924 1.98466 5
      vertex -28.5 -9.43846 5
    endloop
  endfacet
  facet normal 0 0 1
    outer loop
      vertex -21.5 -9.5 5
      vertex -28.5 -9.43846 5
      vertex -28.5 -9.5 5
    endloop
  endfacet
  facet normal 0 0 1
    outer loop
      vertex -21.5 9.5 5
      vertex -38.2924 1.98466 5
      vertex -21.5 -9.5 5
    endloop
  endfacet
  facet normal 0 0 1
    outer loop
      vertex -28.5 9.45746 5
      vertex -38.2924 1.98466 5
      vertex -21.5 9.5 5
    endloop
  endfacet
  facet normal 0 0 1
    outer loop
      vertex -28.5 9.5 5
      vertex -28.5 9.45746 5
      vertex -21.5 9.5 5
    endloop
  endfacet
  facet normal 0 0 1
    outer loop
      vertex -31.9357 9.04454 5
      vertex -38.2924 1.98466 5
      vertex -29.993 9.45746 5
    endloop
  endfacet
  facet normal 0 0 1
    outer loop
      vertex -33.75 8.23674 5
      vertex -38.2924 1.98466 5
      vertex -31.9357 9.04454 5
    endloop
  endfacet
  facet normal 0 0 1
    outer loop
      vertex -35.3567 7.06938 5
      vertex -38.2924 1.98466 5
      vertex -33.75 8.23674 5
    endloop
  endfacet
  facet normal 0 0 1
    outer loop
      vertex -36.6857 5.59346 5
      vertex -38.2924 1.98466 5
      vertex -35.3567 7.06938 5
    endloop
  endfacet
  facet normal 0 0 1
    outer loop
      vertex -37.6787 3.8735 5
      vertex -38.2924 1.98466 5
      vertex -36.6857 5.59346 5
    endloop
  endfacet
  facet normal 0 0 1
    outer loop
      vertex -28.5 9.45746 5
      vertex -29.993 9.45746 5
      vertex -38.2924 1.98466 5
    endloop
  endfacet
  facet normal 1 0 0
    outer loop
      vertex -21.5 9.5 5
      vertex -21.5 -9.5 4.87244
      vertex -21.5 9.5 4.87244
    endloop
  endfacet
  facet normal 1 0 0
    outer loop
      vertex -21.5 -9.5 5
      vertex -21.5 -9.5 4.87244
      vertex -21.5 9.5 5
    endloop
  endfacet
  facet normal 1 0 0
    outer loop
      vertex -21.5 -9.5 0.075
      vertex -21.5 -9.5 4.87244
      vertex -21.5 -9.5 5
    endloop
  endfacet
  facet normal 0 0 1
    outer loop
      vertex -17.3504 -9.5 0.075
      vertex 17.5 -9.5 0.075
      vertex 13.7504 -9.5 0.075
    endloop
  endfacet
  facet normal 0 0 1
    outer loop
      vertex -6 -6 0.075
      vertex -17.3504 -9.5 0.075
      vertex 13.7504 -9.5 0.075
    endloop
  endfacet
  facet normal 0 0 1
    outer loop
      vertex -17.3504 -9.5 0.075
      vertex -21.5 -9.5 0.075
      vertex 17.5 -9.5 0.075
    endloop
  endfacet
  facet normal 0 0 1
    outer loop
      vertex -17.3504 9.5 0.075
      vertex -17.3504 -9.5 0.075
      vertex -6 -4 0.075
    endloop
  endfacet
  facet normal 0 0 1
    outer loop
      vertex -17.3504 9.5 0.075
      vertex -6 -4 0.075
      vertex 0 -4 0.075
    endloop
  endfacet
  facet normal 0 0 1
    outer loop
      vertex 13.7504 9.5 0.075
      vertex -17.3504 9.5 0.075
      vertex 0 6 0.075
    endloop
  endfacet
  facet normal 0 0 1
    outer loop
      vertex 13.7504 9.5 0.075
      vertex 2 6 0.075
      vertex 13.7504 -9.5 0.075
    endloop
  endfacet
  facet normal 0 0 1
    outer loop
      vertex 13.7504 9.5 0.075
      vertex 0 6 0.075
      vertex 2 6 0.075
    endloop
  endfacet
  facet normal 0 0 1
    outer loop
      vertex -6 -4 0.075
      vertex -17.3504 -9.5 0.075
      vertex -6 -6 0.075
    endloop
  endfacet
  facet normal 0 0 1
    outer loop
      vertex 2 -6 0.075
      vertex -6 -6 0.075
      vertex 13.7504 -9.5 0.075
    endloop
  endfacet
  facet normal 0 0 1
    outer loop
      vertex 0 -4 0.075
      vertex 0 6 0.075
      vertex -17.3504 9.5 0.075
    endloop
  endfacet
  facet normal 0 0 1
    outer loop
      vertex 2 6 0.075
      vertex 2 -6 0.075
      vertex 13.7504 -9.5 0.075
    endloop
  endfacet
  facet normal -1 0 0
    outer loop
      vertex 17.5 9.5 5
      vertex 17.5 9.5 4.87244
      vertex 17.5 -9.5 5
    endloop
  endfacet
  facet normal -1 0 0
    outer loop
      vertex 17.5 -9.5 5
      vertex 17.5 9.5 4.87244
      vertex 17.5 -9.5 4.87244
    endloop
  endfacet
  facet normal -1 0 0
    outer loop
      vertex 17.5 -9.5 5
      vertex 17.5 -9.5 4.87244
      vertex 17.5 -9.5 0.075
    endloop
  endfacet
  facet normal 0 0 1
    outer loop
      vertex 17.5 9.5 5
      vertex 17.5 -9.5 5
      vertex 28.5 -9.5 5
    endloop
  endfacet
  facet normal 0 0 1
    outer loop
      vertex 28.5 9.5 5
      vertex 17.5 9.5 5
      vertex 28.5 -9.5 5
    endloop
  endfacet
  facet normal 0 -1 2.22045e-16
    outer loop
      vertex -17.3675 -9.5 2.10942e-15
      vertex -25.6325 -9.5 2.10942e-15
      vertex -25.3652 -9.5 -1.17136
    endloop
  endfacet
  facet normal 0 -1 2.22045e-16
    outer loop
      vertex -22.4546 -9.5 -3.49244
      vertex -17.3675 -9.5 2.10942e-15
      vertex -24.1748 -9.5 -2.66406
    endloop
  endfacet
  facet normal 0 -1 2.22045e-16
    outer loop
      vertex -24.1748 -9.5 -2.66406
      vertex -17.3675 -9.5 2.10942e-15
      vertex -25.3652 -9.5 -1.17136
    endloop
  endfacet
  facet normal 0 -1 2.22045e-16
    outer loop
      vertex -20.5454 -9.5 -3.49244
      vertex -17.3675 -9.5 2.10942e-15
      vertex -22.4546 -9.5 -3.49244
    endloop
  endfacet
  facet normal 0 -1 2.22045e-16
    outer loop
      vertex -18.8252 -9.5 -2.66406
      vertex -17.3675 -9.5 2.10942e-15
      vertex -20.5454 -9.5 -3.49244
    endloop
  endfacet
  facet normal 0 -1 2.22045e-16
    outer loop
      vertex -17.6348 -9.5 -1.17136
      vertex -17.3675 -9.5 2.10942e-15
      vertex -18.8252 -9.5 -2.66406
    endloop
  endfacet
  facet normal 0 -1 2.22045e-16
    outer loop
      vertex 22.0325 -9.5 2.10942e-15
      vertex 13.7675 -9.5 2.10942e-15
      vertex 14.0348 -9.5 -1.17136
    endloop
  endfacet
  facet normal 0 -1 2.22045e-16
    outer loop
      vertex 16.9454 -9.5 -3.49244
      vertex 22.0325 -9.5 2.10942e-15
      vertex 15.2252 -9.5 -2.66406
    endloop
  endfacet
  facet normal 0 -1 2.22045e-16
    outer loop
      vertex 15.2252 -9.5 -2.66406
      vertex 22.0325 -9.5 2.10942e-15
      vertex 14.0348 -9.5 -1.17136
    endloop
  endfacet
  facet normal 0 -1 2.22045e-16
    outer loop
      vertex 18.8546 -9.5 -3.49244
      vertex 22.0325 -9.5 2.10942e-15
      vertex 16.9454 -9.5 -3.49244
    endloop
  endfacet
  facet normal 0 -1 2.22045e-16
    outer loop
      vertex 20.5748 -9.5 -2.66406
      vertex 22.0325 -9.5 2.10942e-15
      vertex 18.8546 -9.5 -3.49244
    endloop
  endfacet
  facet normal 0 -1 2.22045e-16
    outer loop
      vertex 21.7652 -9.5 -1.17136
      vertex 22.0325 -9.5 2.10942e-15
      vertex 20.5748 -9.5 -2.66406
    endloop
  endfacet
  facet normal 3.85576e-17 0.984808 -0.173648
    outer loop
      vertex 28.5 -6.62944 0.136359
      vertex 25.8 -6.62944 0.136359
      vertex 28.5 -6.31229 1.935
    endloop
  endfacet
  facet normal 3.85576e-17 0.984808 -0.173648
    outer loop
      vertex 28.5 -6.31229 1.935
      vertex 25.8 -6.62944 0.136359
      vertex 25.8 -6.31229 1.935
    endloop
  endfacet
  facet normal -1.11022e-16 0.866025 0.5
    outer loop
      vertex 28.5 -5.71624 -1.44534
      vertex 25.8 -5.71624 -1.44534
      vertex 28.5 -6.62944 0.136359
    endloop
  endfacet
  facet normal -1.11022e-16 0.866025 0.5
    outer loop
      vertex 28.5 -6.62944 0.136359
      vertex 25.8 -5.71624 -1.44534
      vertex 25.8 -6.62944 0.136359
    endloop
  endfacet
  facet normal -2.08654e-16 0.34202 0.939693
    outer loop
      vertex 28.5 -5.71624 -1.44534
      vertex 28.5 -4 -2.07
      vertex 25.8 -4 -2.07
    endloop
  endfacet
  facet normal -2.08654e-16 0.34202 0.939693
    outer loop
      vertex 25.8 -5.71624 -1.44534
      vertex 28.5 -5.71624 -1.44534
      vertex 25.8 -4 -2.07
    endloop
  endfacet
  facet normal -2.08654e-16 -0.34202 0.939693
    outer loop
      vertex 25.8 -4 -2.07
      vertex 28.5 -4 -2.07
      vertex 28.5 -2.28376 -1.44534
    endloop
  endfacet
  facet normal -2.08654e-16 -0.34202 0.939693
    outer loop
      vertex 25.8 -2.28376 -1.44534
      vertex 25.8 -4 -2.07
      vertex 28.5 -2.28376 -1.44534
    endloop
  endfacet
  facet normal -1.11022e-16 -0.866025 0.5
    outer loop
      vertex 25.8 -2.28376 -1.44534
      vertex 28.5 -2.28376 -1.44534
      vertex 28.5 -1.37056 0.136359
    endloop
  endfacet
  facet normal -1.11022e-16 -0.866025 0.5
    outer loop
      vertex 25.8 -1.37056 0.136359
      vertex 25.8 -2.28376 -1.44534
      vertex 28.5 -1.37056 0.136359
    endloop
  endfacet
  facet normal 3.85576e-17 -0.984808 -0.173648
    outer loop
      vertex 25.8 -1.37056 0.136359
      vertex 28.5 -1.37056 0.136359
      vertex 28.5 -1.68771 1.935
    endloop
  endfacet
  facet normal 3.85576e-17 -0.984808 -0.173648
    outer loop
      vertex 25.8 -1.68771 1.935
      vertex 25.8 -1.37056 0.136359
      vertex 28.5 -1.68771 1.935
    endloop
  endfacet
  facet normal 1.70096e-16 -0.642788 -0.766045
    outer loop
      vertex 28.5 -1.68771 1.935
      vertex 28.5 -3.08681 3.10898
      vertex 25.8 -1.68771 1.935
    endloop
  endfacet
  facet normal 1.70096e-16 -0.642788 -0.766045
    outer loop
      vertex 25.8 -1.68771 1.935
      vertex 28.5 -3.08681 3.10898
      vertex 25.8 -3.08681 3.10898
    endloop
  endfacet
  facet normal 2.22045e-16 0 -1
    outer loop
      vertex 28.5 -3.08681 3.10898
      vertex 28.5 -4.91319 3.10898
      vertex 25.8 -3.08681 3.10898
    endloop
  endfacet
  facet normal 2.22045e-16 0 -1
    outer loop
      vertex 25.8 -3.08681 3.10898
      vertex 28.5 -4.91319 3.10898
      vertex 25.8 -4.91319 3.10898
    endloop
  endfacet
  facet normal 1.70096e-16 0.642788 -0.766045
    outer loop
      vertex 28.5 -6.31229 1.935
      vertex 25.8 -6.31229 1.935
      vertex 28.5 -4.91319 3.10898
    endloop
  endfacet
  facet normal 1.70096e-16 0.642788 -0.766045
    outer loop
      vertex 28.5 -4.91319 3.10898
      vertex 25.8 -6.31229 1.935
      vertex 25.8 -4.91319 3.10898
    endloop
  endfacet
  facet normal 3.85576e-17 0.984808 -0.173648
    outer loop
      vertex 28.5 1.37056 0.136359
      vertex 25.8 1.37056 0.136359
      vertex 28.5 1.68771 1.935
    endloop
  endfacet
  facet normal 3.85576e-17 0.984808 -0.173648
    outer loop
      vertex 28.5 1.68771 1.935
      vertex 25.8 1.37056 0.136359
      vertex 25.8 1.68771 1.935
    endloop
  endfacet
  facet normal -1.11022e-16 0.866025 0.5
    outer loop
      vertex 28.5 2.28376 -1.44534
      vertex 25.8 2.28376 -1.44534
      vertex 28.5 1.37056 0.136359
    endloop
  endfacet
  facet normal -1.11022e-16 0.866025 0.5
    outer loop
      vertex 28.5 1.37056 0.136359
      vertex 25.8 2.28376 -1.44534
      vertex 25.8 1.37056 0.136359
    endloop
  endfacet
  facet normal -2.08654e-16 0.34202 0.939693
    outer loop
      vertex 28.5 2.28376 -1.44534
      vertex 28.5 4 -2.07
      vertex 25.8 4 -2.07
    endloop
  endfacet
  facet normal -2.08654e-16 0.34202 0.939693
    outer loop
      vertex 25.8 2.28376 -1.44534
      vertex 28.5 2.28376 -1.44534
      vertex 25.8 4 -2.07
    endloop
  endfacet
  facet normal -2.08654e-16 -0.34202 0.939693
    outer loop
      vertex 25.8 4 -2.07
      vertex 28.5 4 -2.07
      vertex 28.5 5.71624 -1.44534
    endloop
  endfacet
  facet normal -2.08654e-16 -0.34202 0.939693
    outer loop
      vertex 25.8 5.71624 -1.44534
      vertex 25.8 4 -2.07
      vertex 28.5 5.71624 -1.44534
    endloop
  endfacet
  facet normal -1.11022e-16 -0.866025 0.5
    outer loop
      vertex 25.8 5.71624 -1.44534
      vertex 28.5 5.71624 -1.44534
      vertex 28.5 6.62944 0.136359
    endloop
  endfacet
  facet normal -1.11022e-16 -0.866025 0.5
    outer loop
      vertex 25.8 6.62944 0.136359
      vertex 25.8 5.71624 -1.44534
      vertex 28.5 6.62944 0.136359
    endloop
  endfacet
  facet normal 3.85576e-17 -0.984808 -0.173648
    outer loop
      vertex 25.8 6.62944 0.136359
      vertex 28.5 6.62944 0.136359
      vertex 28.5 6.31229 1.935
    endloop
  endfacet
  facet normal 3.85576e-17 -0.984808 -0.173648
    outer loop
      vertex 25.8 6.31229 1.935
      vertex 25.8 6.62944 0.136359
      vertex 28.5 6.31229 1.935
    endloop
  endfacet
  facet normal 1.70096e-16 -0.642788 -0.766045
    outer loop
      vertex 28.5 6.31229 1.935
      vertex 28.5 4.91319 3.10898
      vertex 25.8 6.31229 1.935
    endloop
  endfacet
  facet normal 1.70096e-16 -0.642788 -0.766045
    outer loop
      vertex 25.8 6.31229 1.935
      vertex 28.5 4.91319 3.10898
      vertex 25.8 4.91319 3.10898
    endloop
  endfacet
  facet normal 2.22045e-16 0 -1
    outer loop
      vertex 28.5 4.91319 3.10898
      vertex 28.5 3.08681 3.10898
      vertex 25.8 4.91319 3.10898
    endloop
  endfacet
  facet normal 2.22045e-16 0 -1
    outer loop
      vertex 25.8 4.91319 3.10898
      vertex 28.5 3.08681 3.10898
      vertex 25.8 3.08681 3.10898
    endloop
  endfacet
  facet normal 1.70096e-16 0.642788 -0.766045
    outer loop
      vertex 28.5 1.68771 1.935
      vertex 25.8 1.68771 1.935
      vertex 28.5 3.08681 3.10898
    endloop
  endfacet
  facet normal 1.70096e-16 0.642788 -0.766045
    outer loop
      vertex 28.5 3.08681 3.10898
      vertex 25.8 1.68771 1.935
      vertex 25.8 3.08681 3.10898
    endloop
  endfacet
  facet normal 0 2.22045e-16 1
    outer loop
      vertex 16.9454 9.5 4.87244
      vertex 16.9454 -9.5 4.87244
      vertex 17.5 -9.5 4.87244
    endloop
  endfacet
  facet normal 0 2.22045e-16 1
    outer loop
      vertex 18.8546 9.5 4.87244
      vertex 16.9454 9.5 4.87244
      vertex 17.5 9.5 4.87244
    endloop
  endfacet
  facet normal 0 2.22045e-16 1
    outer loop
      vertex 17.5 9.5 4.87244
      vertex 16.9454 9.5 4.87244
      vertex 17.5 -9.5 4.87244
    endloop
  endfacet
  facet normal 0 1 -2.22045e-16
    outer loop
      vertex 13.61 9.5 0.69
      vertex 14.0348 9.5 2.55136
      vertex 13.7675 9.5 -2.10942e-15
    endloop
  endfacet
  facet normal 0 1 -2.22045e-16
    outer loop
      vertex 13.7675 9.5 -2.10942e-15
      vertex 14.0348 9.5 2.55136
      vertex 15.2252 9.5 4.04406
    endloop
  endfacet
  facet normal 0 1 -2.22045e-16
    outer loop
      vertex 13.7675 9.5 -2.10942e-15
      vertex 15.2252 9.5 4.04406
      vertex 16.9454 9.5 4.87244
    endloop
  endfacet
  facet normal 0 1 -2.22045e-16
    outer loop
      vertex 13.7675 9.5 -2.10942e-15
      vertex 16.9454 9.5 4.87244
      vertex 18.8546 9.5 4.87244
    endloop
  endfacet
  facet normal 0 1 -2.22045e-16
    outer loop
      vertex 13.7675 9.5 -2.10942e-15
      vertex 18.8546 9.5 4.87244
      vertex 20.5748 9.5 4.04406
    endloop
  endfacet
  facet normal 0 1 -2.22045e-16
    outer loop
      vertex 13.7675 9.5 -2.10942e-15
      vertex 20.5748 9.5 4.04406
      vertex 21.7652 9.5 2.55136
    endloop
  endfacet
  facet normal 0 1 -2.22045e-16
    outer loop
      vertex 13.7675 9.5 -2.10942e-15
      vertex 21.7652 9.5 2.55136
      vertex 22.19 9.5 0.69
    endloop
  endfacet
  facet normal 0 1 -2.22045e-16
    outer loop
      vertex 13.7675 9.5 -2.10942e-15
      vertex 22.19 9.5 0.69
      vertex 22.0325 9.5 -2.10942e-15
    endloop
  endfacet
  facet normal -0.974928 -4.94096e-17 -0.222521
    outer loop
      vertex 13.61 -9.5 0.69
      vertex 13.61 9.5 0.69
      vertex 13.7504 -9.5 0.075
    endloop
  endfacet
  facet normal -0.974928 -4.94096e-17 -0.222521
    outer loop
      vertex 13.7504 9.5 0.075
      vertex 13.61 9.5 0.69
      vertex 13.7675 9.5 -2.10942e-15
    endloop
  endfacet
  facet normal -0.974928 -4.94096e-17 -0.222521
    outer loop
      vertex 13.7504 -9.5 0.075
      vertex 13.61 9.5 0.69
      vertex 13.7504 9.5 0.075
    endloop
  endfacet
  facet normal 0.974928 -4.94096e-17 -0.222521
    outer loop
      vertex -17.3504 9.5 0.075
      vertex -17.3675 9.5 -2.10942e-15
      vertex -17.21 9.5 0.69
    endloop
  endfacet
  facet normal 0.974928 -4.94096e-17 -0.222521
    outer loop
      vertex -17.21 -9.5 0.69
      vertex -17.3504 9.5 0.075
      vertex -17.21 9.5 0.69
    endloop
  endfacet
  facet normal 0.974928 -4.94096e-17 -0.222521
    outer loop
      vertex -17.3504 -9.5 0.075
      vertex -17.3504 9.5 0.075
      vertex -17.21 -9.5 0.69
    endloop
  endfacet
  facet normal 0 1 -2.22045e-16
    outer loop
      vertex -25.79 9.5 0.69
      vertex -25.3652 9.5 2.55136
      vertex -25.6325 9.5 -2.10942e-15
    endloop
  endfacet
  facet normal 0 1 -2.22045e-16
    outer loop
      vertex -25.6325 9.5 -2.10942e-15
      vertex -25.3652 9.5 2.55136
      vertex -24.1748 9.5 4.04406
    endloop
  endfacet
  facet normal 0 1 -2.22045e-16
    outer loop
      vertex -25.6325 9.5 -2.10942e-15
      vertex -24.1748 9.5 4.04406
      vertex -22.4546 9.5 4.87244
    endloop
  endfacet
  facet normal 0 1 -2.22045e-16
    outer loop
      vertex -25.6325 9.5 -2.10942e-15
      vertex -22.4546 9.5 4.87244
      vertex -20.5454 9.5 4.87244
    endloop
  endfacet
  facet normal 0 1 -2.22045e-16
    outer loop
      vertex -25.6325 9.5 -2.10942e-15
      vertex -20.5454 9.5 4.87244
      vertex -18.8252 9.5 4.04406
    endloop
  endfacet
  facet normal 0 1 -2.22045e-16
    outer loop
      vertex -25.6325 9.5 -2.10942e-15
      vertex -18.8252 9.5 4.04406
      vertex -17.6348 9.5 2.55136
    endloop
  endfacet
  facet normal 0 1 -2.22045e-16
    outer loop
      vertex -25.6325 9.5 -2.10942e-15
      vertex -17.6348 9.5 2.55136
      vertex -17.21 9.5 0.69
    endloop
  endfacet
  facet normal 0 1 -2.22045e-16
    outer loop
      vertex -25.6325 9.5 -2.10942e-15
      vertex -17.21 9.5 0.69
      vertex -17.3675 9.5 -2.10942e-15
    endloop
  endfacet
  facet normal 0 2.22045e-16 1
    outer loop
      vertex -20.5454 9.5 4.87244
      vertex -22.4546 9.5 4.87244
      vertex -21.5 9.5 4.87244
    endloop
  endfacet
  facet normal 0 2.22045e-16 1
    outer loop
      vertex -21.5 -9.5 4.87244
      vertex -20.5454 -9.5 4.87244
      vertex -21.5 9.5 4.87244
    endloop
  endfacet
  facet normal 0 2.22045e-16 1
    outer loop
      vertex -20.5454 -9.5 4.87244
      vertex -20.5454 9.5 4.87244
      vertex -21.5 9.5 4.87244
    endloop
  endfacet
  facet normal -0.994522 0.104529 0
    outer loop
      vertex -38.5 0.0095 3.14936
      vertex -38.5 0.0095 5
      vertex -38.4523 0.463641 3.22944
    endloop
  endfacet
  facet normal -0.994522 0.104529 0
    outer loop
      vertex -38.4523 0.463641 3.22944
      vertex -38.5 0.0095 5
      vertex -38.2924 1.98466 5
    endloop
  endfacet
  facet normal -0.994522 0.104529 0
    outer loop
      vertex -38.4523 0.463641 3.22944
      vertex -38.2924 1.98466 5
      vertex -38.2924 1.98466 2.35128
    endloop
  endfacet
  facet normal 8.12739e-17 -0.5 -0.866025
    outer loop
      vertex -38.2727 2.04534 2.31624
      vertex -33.8 2.04534 2.31624
      vertex -38.2924 1.98466 2.35128
    endloop
  endfacet
  facet normal 8.12739e-17 -0.5 -0.866025
    outer loop
      vertex -38.2924 1.98466 2.35128
      vertex -33.8 2.04534 2.31624
      vertex -33.8 0.463641 3.22944
    endloop
  endfacet
  facet normal 8.12739e-17 -0.5 -0.866025
    outer loop
      vertex -38.2924 1.98466 2.35128
      vertex -33.8 0.463641 3.22944
      vertex -38.4523 0.463641 3.22944
    endloop
  endfacet
  facet normal -1.3271e-16 -0.939693 -0.34202
    outer loop
      vertex -38.0697 2.67 0.6
      vertex -33.8 2.67 0.6
      vertex -33.8 2.04534 2.31624
    endloop
  endfacet
  facet normal -1.3271e-16 -0.939693 -0.34202
    outer loop
      vertex -38.2727 2.04534 2.31624
      vertex -38.0697 2.67 0.6
      vertex -33.8 2.04534 2.31624
    endloop
  endfacet
  facet normal -2.84597e-16 -0.939693 0.34202
    outer loop
      vertex -33.8 2.04534 -1.11624
      vertex -33.8 2.67 0.6
      vertex -38.0697 2.67 0.6
    endloop
  endfacet
  facet normal -2.84597e-16 -0.939693 0.34202
    outer loop
      vertex -38.2727 2.04534 -1.11624
      vertex -33.8 2.04534 -1.11624
      vertex -38.0697 2.67 0.6
    endloop
  endfacet
  facet normal -1 2.22045e-16 -2.22045e-16
    outer loop
      vertex -33.8 2.04534 2.31624
      vertex -33.8 2.67 0.6
      vertex -33.8 0.463641 3.22944
    endloop
  endfacet
  facet normal -1 2.22045e-16 -2.22045e-16
    outer loop
      vertex -33.8 0.463641 3.22944
      vertex -33.8 2.67 0.6
      vertex -33.8 2.04534 -1.11624
    endloop
  endfacet
  facet normal -1 2.22045e-16 -2.22045e-16
    outer loop
      vertex -33.8 0.463641 3.22944
      vertex -33.8 2.04534 -1.11624
      vertex -33.8 0.463641 -2.02944
    endloop
  endfacet
  facet normal -1 2.22045e-16 -2.22045e-16
    outer loop
      vertex -33.8 0.463641 3.22944
      vertex -33.8 0.463641 -2.02944
      vertex -33.8 -1.335 -1.71229
    endloop
  endfacet
  facet normal -1 2.22045e-16 -2.22045e-16
    outer loop
      vertex -33.8 0.463641 3.22944
      vertex -33.8 -1.335 -1.71229
      vertex -33.8 -2.50898 -0.313194
    endloop
  endfacet
  facet normal -1 2.22045e-16 -2.22045e-16
    outer loop
      vertex -33.8 0.463641 3.22944
      vertex -33.8 -2.50898 -0.313194
      vertex -33.8 -2.50898 1.51319
    endloop
  endfacet
  facet normal -1 2.22045e-16 -2.22045e-16
    outer loop
      vertex -33.8 0.463641 3.22944
      vertex -33.8 -2.50898 1.51319
      vertex -33.8 -1.335 2.91229
    endloop
  endfacet
  facet normal 2.57229e-16 0.173648 -0.984808
    outer loop
      vertex -33.8 0.463641 3.22944
      vertex -33.8 -1.335 2.91229
      vertex -38.4523 0.463641 3.22944
    endloop
  endfacet
  facet normal 2.57229e-16 0.173648 -0.984808
    outer loop
      vertex -38.4523 0.463641 3.22944
      vertex -33.8 -1.335 2.91229
      vertex -38.3587 -1.335 2.91229
    endloop
  endfacet
  facet normal 2.57229e-16 0.173648 -0.984808
    outer loop
      vertex -38.4523 0.463641 3.22944
      vertex -38.3587 -1.335 2.91229
      vertex -38.5 0.0095 3.14936
    endloop
  endfacet
  facet normal 0 -1 2.22045e-16
    outer loop
      vertex -21.5 -9.5 4.87244
      vertex -21.5 -9.5 0.075
      vertex -17.3504 -9.5 0.075
    endloop
  endfacet
  facet normal 0 -1 2.22045e-16
    outer loop
      vertex -17.6348 -9.5 2.55136
      vertex -21.5 -9.5 4.87244
      vertex -17.21 -9.5 0.69
    endloop
  endfacet
  facet normal 0 -1 2.22045e-16
    outer loop
      vertex -17.21 -9.5 0.69
      vertex -21.5 -9.5 4.87244
      vertex -17.3504 -9.5 0.075
    endloop
  endfacet
  facet normal 0 -1 2.22045e-16
    outer loop
      vertex -18.8252 -9.5 4.04406
      vertex -21.5 -9.5 4.87244
      vertex -17.6348 -9.5 2.55136
    endloop
  endfacet
  facet normal 0 -1 2.22045e-16
    outer loop
      vertex -20.5454 -9.5 4.87244
      vertex -21.5 -9.5 4.87244
      vertex -18.8252 -9.5 4.04406
    endloop
  endfacet
  facet normal 0 -1 2.22045e-16
    outer loop
      vertex 14.0348 -9.5 2.55136
      vertex 13.61 -9.5 0.69
      vertex 13.7504 -9.5 0.075
    endloop
  endfacet
  facet normal 0 -1 2.22045e-16
    outer loop
      vertex 17.5 -9.5 4.87244
      vertex 14.0348 -9.5 2.55136
      vertex 17.5 -9.5 0.075
    endloop
  endfacet
  facet normal 0 -1 2.22045e-16
    outer loop
      vertex 17.5 -9.5 0.075
      vertex 14.0348 -9.5 2.55136
      vertex 13.7504 -9.5 0.075
    endloop
  endfacet
  facet normal 0 -1 2.22045e-16
    outer loop
      vertex 16.9454 -9.5 4.87244
      vertex 14.0348 -9.5 2.55136
      vertex 17.5 -9.5 4.87244
    endloop
  endfacet
  facet normal 0 -1 2.22045e-16
    outer loop
      vertex 15.2252 -9.5 4.04406
      vertex 14.0348 -9.5 2.55136
      vertex 16.9454 -9.5 4.87244
    endloop
  endfacet
  facet normal -1 0 0
    outer loop
      vertex -6 -6 0.075
      vertex -6 -6 2
      vertex -6 -4 0.075
    endloop
  endfacet
  facet normal -1 0 0
    outer loop
      vertex -6 -4 0.075
      vertex -6 -6 2
      vertex -6 -4 2
    endloop
  endfacet
  facet normal 0 1 0
    outer loop
      vertex -6 -4 0.075
      vertex -6 -4 2
      vertex 0 -4 0.075
    endloop
  endfacet
  facet normal 0 1 0
    outer loop
      vertex 0 -4 0.075
      vertex -6 -4 2
      vertex 0 -4 2
    endloop
  endfacet
  facet normal 0 -1 0
    outer loop
      vertex -6 -6 2
      vertex -6 -6 0.075
      vertex 2 -6 0.075
    endloop
  endfacet
  facet normal 0 -1 0
    outer loop
      vertex 2 -6 2
      vertex -6 -6 2
      vertex 2 -6 0.075
    endloop
  endfacet
  facet normal 1 0 0
    outer loop
      vertex 2 -6 2
      vertex 2 -6 0.075
      vertex 2 6 0.075
    endloop
  endfacet
  facet normal 1 0 0
    outer loop
      vertex 2 6 2
      vertex 2 -6 2
      vertex 2 6 0.075
    endloop
  endfacet
  facet normal 0 1 0
    outer loop
      vertex 0 6 0.075
      vertex 0 6 2
      vertex 2 6 0.075
    endloop
  endfacet
  facet normal 0 1 0
    outer loop
      vertex 2 6 0.075
      vertex 0 6 2
      vertex 2 6 2
    endloop
  endfacet
  facet normal -1 0 0
    outer loop
      vertex 0 6 2
      vertex 0 6 0.075
      vertex 0 -4 2
    endloop
  endfacet
  facet normal -1 0 0
    outer loop
      vertex 0 -4 2
      vertex 0 6 0.075
      vertex 0 -4 0.075
    endloop
  endfacet
  facet normal 1 0 2.22045e-16
    outer loop
      vertex 25.8 -6.31229 1.935
      vertex 25.8 -6.62944 0.136359
      vertex 25.8 -5.71624 -1.44534
    endloop
  endfacet
  facet normal 1 0 2.22045e-16
    outer loop
      vertex 25.8 -2.28376 -1.44534
      vertex 25.8 -6.31229 1.935
      vertex 25.8 -4 -2.07
    endloop
  endfacet
  facet normal 1 0 2.22045e-16
    outer loop
      vertex 25.8 -4 -2.07
      vertex 25.8 -6.31229 1.935
      vertex 25.8 -5.71624 -1.44534
    endloop
  endfacet
  facet normal 1 0 2.22045e-16
    outer loop
      vertex 25.8 -1.37056 0.136359
      vertex 25.8 -6.31229 1.935
      vertex 25.8 -2.28376 -1.44534
    endloop
  endfacet
  facet normal 1 0 2.22045e-16
    outer loop
      vertex 25.8 -1.68771 1.935
      vertex 25.8 -6.31229 1.935
      vertex 25.8 -1.37056 0.136359
    endloop
  endfacet
  facet normal 1 0 2.22045e-16
    outer loop
      vertex 25.8 -3.08681 3.10898
      vertex 25.8 -6.31229 1.935
      vertex 25.8 -1.68771 1.935
    endloop
  endfacet
  facet normal 1 0 2.22045e-16
    outer loop
      vertex 25.8 -4.91319 3.10898
      vertex 25.8 -6.31229 1.935
      vertex 25.8 -3.08681 3.10898
    endloop
  endfacet
  facet normal 1 0 2.22045e-16
    outer loop
      vertex 25.8 1.68771 1.935
      vertex 25.8 1.37056 0.136359
      vertex 25.8 2.28376 -1.44534
    endloop
  endfacet
  facet normal 1 0 2.22045e-16
    outer loop
      vertex 25.8 5.71624 -1.44534
      vertex 25.8 1.68771 1.935
      vertex 25.8 4 -2.07
    endloop
  endfacet
  facet normal 1 0 2.22045e-16
    outer loop
      vertex 25.8 4 -2.07
      vertex 25.8 1.68771 1.935
      vertex 25.8 2.28376 -1.44534
    endloop
  endfacet
  facet normal 1 0 2.22045e-16
    outer loop
      vertex 25.8 6.62944 0.136359
      vertex 25.8 1.68771 1.935
      vertex 25.8 5.71624 -1.44534
    endloop
  endfacet
  facet normal 1 0 2.22045e-16
    outer loop
      vertex 25.8 6.31229 1.935
      vertex 25.8 1.68771 1.935
      vertex 25.8 6.62944 0.136359
    endloop
  endfacet
  facet normal 1 0 2.22045e-16
    outer loop
      vertex 25.8 4.91319 3.10898
      vertex 25.8 1.68771 1.935
      vertex 25.8 6.31229 1.935
    endloop
  endfacet
  facet normal 1 0 2.22045e-16
    outer loop
      vertex 25.8 3.08681 3.10898
      vertex 25.8 1.68771 1.935
      vertex 25.8 4.91319 3.10898
    endloop
  endfacet
  facet normal -0.433884 2.00055e-16 0.900969
    outer loop
      vertex 15.2252 9.5 4.04406
      vertex 15.2252 -9.5 4.04406
      vertex 16.9454 -9.5 4.87244
    endloop
  endfacet
  facet normal -0.433884 2.00055e-16 0.900969
    outer loop
      vertex 16.9454 9.5 4.87244
      vertex 15.2252 9.5 4.04406
      vertex 16.9454 -9.5 4.87244
    endloop
  endfacet
  facet normal -0.781832 1.38443e-16 0.62349
    outer loop
      vertex 14.0348 -9.5 2.55136
      vertex 15.2252 -9.5 4.04406
      vertex 14.0348 9.5 2.55136
    endloop
  endfacet
  facet normal -0.781832 1.38443e-16 0.62349
    outer loop
      vertex 14.0348 9.5 2.55136
      vertex 15.2252 -9.5 4.04406
      vertex 15.2252 9.5 4.04406
    endloop
  endfacet
  facet normal -0.974928 4.94096e-17 0.222521
    outer loop
      vertex 13.61 -9.5 0.69
      vertex 14.0348 -9.5 2.55136
      vertex 13.61 9.5 0.69
    endloop
  endfacet
  facet normal -0.974928 4.94096e-17 0.222521
    outer loop
      vertex 13.61 9.5 0.69
      vertex 14.0348 -9.5 2.55136
      vertex 14.0348 9.5 2.55136
    endloop
  endfacet
  facet normal 0.974928 4.94096e-17 0.222521
    outer loop
      vertex -17.6348 9.5 2.55136
      vertex -17.6348 -9.5 2.55136
      vertex -17.21 -9.5 0.69
    endloop
  endfacet
  facet normal 0.974928 4.94096e-17 0.222521
    outer loop
      vertex -17.21 9.5 0.69
      vertex -17.6348 9.5 2.55136
      vertex -17.21 -9.5 0.69
    endloop
  endfacet
  facet normal 0.781832 1.38443e-16 0.62349
    outer loop
      vertex -18.8252 9.5 4.04406
      vertex -18.8252 -9.5 4.04406
      vertex -17.6348 -9.5 2.55136
    endloop
  endfacet
  facet normal 0.781832 1.38443e-16 0.62349
    outer loop
      vertex -17.6348 9.5 2.55136
      vertex -18.8252 9.5 4.04406
      vertex -17.6348 -9.5 2.55136
    endloop
  endfacet
  facet normal 0.433884 2.00055e-16 0.900969
    outer loop
      vertex -20.5454 9.5 4.87244
      vertex -20.5454 -9.5 4.87244
      vertex -18.8252 -9.5 4.04406
    endloop
  endfacet
  facet normal 0.433884 2.00055e-16 0.900969
    outer loop
      vertex -18.8252 9.5 4.04406
      vertex -20.5454 9.5 4.87244
      vertex -18.8252 -9.5 4.04406
    endloop
  endfacet
  facet normal 0 0 1
    outer loop
      vertex -6 -4 2
      vertex -6 -6 2
      vertex 2 -6 2
    endloop
  endfacet
  facet normal 0 0 1
    outer loop
      vertex 0 -4 2
      vertex -6 -4 2
      vertex 2 -6 2
    endloop
  endfacet
  facet normal 0 0 1
    outer loop
      vertex 2 6 2
      vertex 0 -4 2
      vertex 2 -6 2
    endloop
  endfacet
  facet normal 0 0 1
    outer loop
      vertex 0 6 2
      vertex 0 -4 2
      vertex 2 6 2
    endloop
  endfacet
endsolid OpenSCAD_Model
