solid OpenSCAD_Model
  facet normal -0.707107 -0.707107 0
    outer loop
      vertex -21.5 -3.52842 3.5
      vertex -21.5 -3.52842 -3.5
      vertex -15.7343 -9.2941 -3.5
    endloop
  endfacet
  facet normal -0.707107 -0.707107 0
    outer loop
      vertex -15.7343 -9.2941 3.5
      vertex -21.5 -3.52842 3.5
      vertex -15.7343 -9.2941 -3.5
    endloop
  endfacet
  facet normal 0 0 -1
    outer loop
      vertex -21.5 -3.52842 -3.5
      vertex -21.5 3.52842 -3.5
      vertex -15.7343 -9.2941 -3.5
    endloop
  endfacet
  facet normal 0 0 -1
    outer loop
      vertex -15.7343 -9.2941 -3.5
      vertex -21.5 3.52842 -3.5
      vertex -15.7343 9.2941 -3.5
    endloop
  endfacet
  facet normal 0 0 -1
    outer loop
      vertex -15.7343 9.2941 -3.5
      vertex -15.7343 9.5 -3.5
      vertex -15.5284 9.5 -3.5
    endloop
  endfacet
  facet normal 0 0 -1
    outer loop
      vertex -15.7343 9.2941 -3.5
      vertex -15.5284 9.5 -3.5
      vertex -15.7343 -9.2941 -3.5
    endloop
  endfacet
  facet normal 0 0 -1
    outer loop
      vertex -15.5284 9.5 -3.5
      vertex -15.4896 9.53887 -3.5
      vertex -15.7343 -9.2941 -3.5
    endloop
  endfacet
  facet normal 0 0 -1
    outer loop
      vertex -15.7343 -9.2941 -3.5
      vertex -15.4896 9.53887 -3.5
      vertex -15.4507 9.5 -3.5
    endloop
  endfacet
  facet normal 0 0 -1
    outer loop
      vertex -15.7343 -9.2941 -3.5
      vertex -15.4507 9.5 -3.5
      vertex 34.7552 9.5 -3.5
    endloop
  endfacet
  facet normal 0 0 -1
    outer loop
      vertex -15.7343 -9.2941 -3.5
      vertex 34.7552 9.5 -3.5
      vertex 34.7552 -9.5 -3.5
    endloop
  endfacet
  facet normal 0 0 -1
    outer loop
      vertex -15.7343 -9.2941 -3.5
      vertex 34.7552 -9.5 -3.5
      vertex -15.4507 -9.5 -3.5
    endloop
  endfacet
  facet normal 0 0 -1
    outer loop
      vertex -15.5284 -9.5 -3.5
      vertex -15.4507 -9.5 -3.5
      vertex -15.4895 -9.53887 -3.5
    endloop
  endfacet
  facet normal 0 0 -1
    outer loop
      vertex -15.7343 -9.2941 -3.5
      vertex -15.4507 -9.5 -3.5
      vertex -15.5284 -9.5 -3.5
    endloop
  endfacet
  facet normal 0 0 -1
    outer loop
      vertex -15.5284 -9.5 -3.5
      vertex -15.7343 -9.5 -3.5
      vertex -15.7343 -9.2941 -3.5
    endloop
  endfacet
  facet normal -1 0 0
    outer loop
      vertex -21.5 -0.906353 2.49018
      vertex -21.5 -3.52842 3.5
      vertex -21.5 0.906353 2.49018
    endloop
  endfacet
  facet normal -1 0 0
    outer loop
      vertex -21.5 0 -2.65
      vertex -21.5 3.52842 -3.5
      vertex -21.5 -3.52842 -3.5
    endloop
  endfacet
  facet normal -1 0 0
    outer loop
      vertex -21.5 2.60974 -0.460168
      vertex -21.5 3.52842 -3.5
      vertex -21.5 1.70339 -2.03002
    endloop
  endfacet
  facet normal -1 0 0
    outer loop
      vertex -21.5 -3.52842 3.5
      vertex -21.5 -2.60974 -0.460168
      vertex -21.5 -3.52842 -3.5
    endloop
  endfacet
  facet normal -1 0 0
    outer loop
      vertex -21.5 -2.60974 -0.460168
      vertex -21.5 -1.70339 -2.03002
      vertex -21.5 -3.52842 -3.5
    endloop
  endfacet
  facet normal -1 0 0
    outer loop
      vertex -21.5 -1.70339 -2.03002
      vertex -21.5 0 -2.65
      vertex -21.5 -3.52842 -3.5
    endloop
  endfacet
  facet normal -1 0 0
    outer loop
      vertex -21.5 3.52842 3.5
      vertex -21.5 3.52842 -3.5
      vertex -21.5 2.60974 -0.460168
    endloop
  endfacet
  facet normal -1 0 0
    outer loop
      vertex -21.5 3.52842 3.5
      vertex -21.5 2.60974 -0.460168
      vertex -21.5 2.29497 1.325
    endloop
  endfacet
  facet normal -1 0 0
    outer loop
      vertex -21.5 3.52842 3.5
      vertex -21.5 2.29497 1.325
      vertex -21.5 0.906353 2.49018
    endloop
  endfacet
  facet normal -1 0 0
    outer loop
      vertex -21.5 3.52842 3.5
      vertex -21.5 0.906353 2.49018
      vertex -21.5 -3.52842 3.5
    endloop
  endfacet
  facet normal -1 0 0
    outer loop
      vertex -21.5 -2.29497 1.325
      vertex -21.5 -3.52842 3.5
      vertex -21.5 -0.906353 2.49018
    endloop
  endfacet
  facet normal -1 0 0
    outer loop
      vertex -21.5 -3.52842 3.5
      vertex -21.5 -2.29497 1.325
      vertex -21.5 -2.60974 -0.460168
    endloop
  endfacet
  facet normal -1 0 0
    outer loop
      vertex -21.5 1.70339 -2.03002
      vertex -21.5 3.52842 -3.5
      vertex -21.5 0 -2.65
    endloop
  endfacet
  facet normal 0 0 1
    outer loop
      vertex -15.4507 -9.5 3.5
      vertex -10 -9.5 3.5
      vertex -21.5 3.52842 3.5
    endloop
  endfacet
  facet normal 0 0 1
    outer loop
      vertex -21.5 3.52842 3.5
      vertex -21.5 -3.52842 3.5
      vertex -15.7343 -9.2941 3.5
    endloop
  endfacet
  facet normal 0 0 1
    outer loop
      vertex -15.5284 -9.5 3.5
      vertex -21.5 3.52842 3.5
      vertex -15.7343 -9.2941 3.5
    endloop
  endfacet
  facet normal 0 0 1
    outer loop
      vertex -15.7343 -9.5 3.5
      vertex -15.5284 -9.5 3.5
      vertex -15.7343 -9.2941 3.5
    endloop
  endfacet
  facet normal 0 0 1
    outer loop
      vertex -15.5284 -9.5 3.5
      vertex -15.4895 -9.53887 3.5
      vertex -21.5 3.52842 3.5
    endloop
  endfacet
  facet normal 0 0 1
    outer loop
      vertex -15.4895 -9.53887 3.5
      vertex -15.4507 -9.5 3.5
      vertex -21.5 3.52842 3.5
    endloop
  endfacet
  facet normal 0 0 1
    outer loop
      vertex -10 -9.5 3.5
      vertex -10 9.5 3.5
      vertex -21.5 3.52842 3.5
    endloop
  endfacet
  facet normal 0 0 1
    outer loop
      vertex -10 9.5 3.5
      vertex -15.4507 9.5 3.5
      vertex -21.5 3.52842 3.5
    endloop
  endfacet
  facet normal 0 0 1
    outer loop
      vertex -15.4507 9.5 3.5
      vertex -15.5284 9.5 3.5
      vertex -15.7343 9.2941 3.5
    endloop
  endfacet
  facet normal 0 0 1
    outer loop
      vertex -15.4507 9.5 3.5
      vertex -15.4896 9.53887 3.5
      vertex -15.5284 9.5 3.5
    endloop
  endfacet
  facet normal 0 0 1
    outer loop
      vertex -15.4507 9.5 3.5
      vertex -15.7343 9.2941 3.5
      vertex -21.5 3.52842 3.5
    endloop
  endfacet
  facet normal 0 0 1
    outer loop
      vertex -15.5284 9.5 3.5
      vertex -15.7343 9.5 3.5
      vertex -15.7343 9.2941 3.5
    endloop
  endfacet
  facet normal -1 0 0
    outer loop
      vertex -15.7343 -9.5 -3.5
      vertex -15.7343 -9.5 3.5
      vertex -15.7343 -9.2941 -3.5
    endloop
  endfacet
  facet normal -1 0 0
    outer loop
      vertex -15.7343 -9.2941 -3.5
      vertex -15.7343 -9.5 3.5
      vertex -15.7343 -9.2941 3.5
    endloop
  endfacet
  facet normal 0 -1 0
    outer loop
      vertex -15.7343 -9.5 3.5
      vertex -15.7343 -9.5 -3.5
      vertex -15.5284 -9.5 -3.5
    endloop
  endfacet
  facet normal 0 -1 0
    outer loop
      vertex -15.5284 -9.5 3.5
      vertex -15.7343 -9.5 3.5
      vertex -15.5284 -9.5 -3.5
    endloop
  endfacet
  facet normal -0.707107 -0.707107 0
    outer loop
      vertex -15.5284 -9.5 3.5
      vertex -15.5284 -9.5 -3.5
      vertex -15.4895 -9.53887 -3.5
    endloop
  endfacet
  facet normal -0.707107 -0.707107 0
    outer loop
      vertex -15.4895 -9.53887 3.5
      vertex -15.5284 -9.5 3.5
      vertex -15.4895 -9.53887 -3.5
    endloop
  endfacet
  facet normal 0.707107 -0.707107 0
    outer loop
      vertex -15.4895 -9.53887 3.5
      vertex -15.4895 -9.53887 -3.5
      vertex -15.4507 -9.5 -3.5
    endloop
  endfacet
  facet normal 0.707107 -0.707107 0
    outer loop
      vertex -15.4507 -9.5 3.5
      vertex -15.4895 -9.53887 3.5
      vertex -15.4507 -9.5 -3.5
    endloop
  endfacet
  facet normal 0 -1 0
    outer loop
      vertex -10.9981 -9.5 -3.46437
      vertex -15.4507 -9.5 -3.5
      vertex 34.7552 -9.5 -3.5
    endloop
  endfacet
  facet normal 0 -1 0
    outer loop
      vertex -10.9981 -9.5 -3.46437
      vertex -12.792 -9.5 -2.64512
      vertex -15.4507 -9.5 -3.5
    endloop
  endfacet
  facet normal 0 -1 0
    outer loop
      vertex 25 -9.5 0
      vertex 34.7552 -9.5 -3.5
      vertex 34.7552 -9.5 -1
    endloop
  endfacet
  facet normal 0 -1 0
    outer loop
      vertex 34.78 -9.5 4
      vertex 25 -9.5 0
      vertex 34.78 -9.5 -1
    endloop
  endfacet
  facet normal 0 -1 0
    outer loop
      vertex -7 -9.5 0
      vertex -7.55561 -9.5 -1.89224
      vertex 34.7552 -9.5 -3.5
    endloop
  endfacet
  facet normal 0 -1 0
    outer loop
      vertex -7.55561 -9.5 -1.89224
      vertex -9.04605 -9.5 -3.18371
      vertex 34.7552 -9.5 -3.5
    endloop
  endfacet
  facet normal 0 -1 0
    outer loop
      vertex -12.792 -9.5 -2.64512
      vertex -13.8582 -9.5 -0.986064
      vertex -15.4507 -9.5 -3.5
    endloop
  endfacet
  facet normal 0 -1 0
    outer loop
      vertex -9.04605 -9.5 -3.18371
      vertex -10.9981 -9.5 -3.46437
      vertex 34.7552 -9.5 -3.5
    endloop
  endfacet
  facet normal 0 -1 0
    outer loop
      vertex -10 -9.5 2.10942e-15
      vertex -10 -9.5 3.5
      vertex -15.4507 -9.5 3.5
    endloop
  endfacet
  facet normal 0 -1 0
    outer loop
      vertex -15.4507 -9.5 3.5
      vertex -15.4507 -9.5 -3.5
      vertex -13.8582 -9.5 -0.986064
    endloop
  endfacet
  facet normal 0 -1 0
    outer loop
      vertex -15.4507 -9.5 3.5
      vertex -13.8582 -9.5 -0.986064
      vertex -13.8582 -9.5 2.10942e-15
    endloop
  endfacet
  facet normal 0 -1 0
    outer loop
      vertex -15.4507 -9.5 3.5
      vertex -13.8582 -9.5 2.10942e-15
      vertex -10 -9.5 2.10942e-15
    endloop
  endfacet
  facet normal 0 -1 0
    outer loop
      vertex 25 -9.5 0
      vertex 34.7552 -9.5 -1
      vertex 34.78 -9.5 -1
    endloop
  endfacet
  facet normal 0 -1 0
    outer loop
      vertex 25 -9.5 4
      vertex 25 -9.5 0
      vertex 34.78 -9.5 4
    endloop
  endfacet
  facet normal 0 -1 0
    outer loop
      vertex 25 -9.5 0
      vertex -7 -9.5 0
      vertex 34.7552 -9.5 -3.5
    endloop
  endfacet
  facet normal 1 0 0
    outer loop
      vertex 34.7552 -4.5 -2.65
      vertex 34.7552 -9.5 -3.5
      vertex 34.7552 9.5 -3.5
    endloop
  endfacet
  facet normal 1 0 0
    outer loop
      vertex 34.7552 -4.5 -2.65
      vertex 34.7552 -6.20339 -2.03002
      vertex 34.7552 -9.5 -3.5
    endloop
  endfacet
  facet normal 1 0 0
    outer loop
      vertex 34.7552 9.5 -1
      vertex 34.7552 6.79807 -1
      vertex 34.7552 9.5 -3.5
    endloop
  endfacet
  facet normal 1 0 0
    outer loop
      vertex 34.7552 6.79807 -1
      vertex 34.7552 6.20339 -2.03002
      vertex 34.7552 9.5 -3.5
    endloop
  endfacet
  facet normal 1 0 0
    outer loop
      vertex 34.7552 -2.20193 -1
      vertex 34.7552 4.5 -2.65
      vertex 34.7552 2.79661 -2.03002
    endloop
  endfacet
  facet normal 1 0 0
    outer loop
      vertex 34.7552 6.20339 -2.03002
      vertex 34.7552 4.5 -2.65
      vertex 34.7552 9.5 -3.5
    endloop
  endfacet
  facet normal 1 0 0
    outer loop
      vertex 34.7552 4.5 -2.65
      vertex 34.7552 -2.79661 -2.03002
      vertex 34.7552 9.5 -3.5
    endloop
  endfacet
  facet normal 1 0 0
    outer loop
      vertex 34.7552 -2.79661 -2.03002
      vertex 34.7552 -4.5 -2.65
      vertex 34.7552 9.5 -3.5
    endloop
  endfacet
  facet normal 1 0 0
    outer loop
      vertex 34.7552 -6.20339 -2.03002
      vertex 34.7552 -6.79807 -1
      vertex 34.7552 -9.5 -1
    endloop
  endfacet
  facet normal 1 0 0
    outer loop
      vertex 34.7552 -9.5 -1
      vertex 34.7552 -9.5 -3.5
      vertex 34.7552 -6.20339 -2.03002
    endloop
  endfacet
  facet normal 1 0 0
    outer loop
      vertex 34.7552 2.79661 -2.03002
      vertex 34.7552 2.20193 -1
      vertex 34.7552 -2.20193 -1
    endloop
  endfacet
  facet normal 1 0 0
    outer loop
      vertex 34.7552 -2.20193 -1
      vertex 34.7552 -2.79661 -2.03002
      vertex 34.7552 4.5 -2.65
    endloop
  endfacet
  facet normal 0 1 0
    outer loop
      vertex -13.8582 9.5 -2.10942e-15
      vertex -15.4507 9.5 -3.5
      vertex -13.8582 9.5 0.986064
    endloop
  endfacet
  facet normal 0 1 0
    outer loop
      vertex -10.9981 9.5 3.46437
      vertex -15.4507 9.5 3.5
      vertex -10 9.5 3.5
    endloop
  endfacet
  facet normal 0 1 0
    outer loop
      vertex -10 9.5 3.32087
      vertex -10.9981 9.5 3.46437
      vertex -10 9.5 3.5
    endloop
  endfacet
  facet normal 0 1 0
    outer loop
      vertex -13.8582 9.5 0.986064
      vertex -15.4507 9.5 3.5
      vertex -12.792 9.5 2.64512
    endloop
  endfacet
  facet normal 0 1 0
    outer loop
      vertex -15.4507 9.5 -3.5
      vertex -15.4507 9.5 3.5
      vertex -13.8582 9.5 0.986064
    endloop
  endfacet
  facet normal 0 1 0
    outer loop
      vertex 25 9.5 0
      vertex 34.7552 9.5 -3.5
      vertex -7 9.5 0
    endloop
  endfacet
  facet normal 0 1 0
    outer loop
      vertex -15.4507 9.5 -3.5
      vertex -13.8582 9.5 -2.10942e-15
      vertex 34.7552 9.5 -3.5
    endloop
  endfacet
  facet normal 0 1 0
    outer loop
      vertex -13.8582 9.5 -2.10942e-15
      vertex -7 9.5 -2.10942e-15
      vertex 34.7552 9.5 -3.5
    endloop
  endfacet
  facet normal 0 1 0
    outer loop
      vertex -7 9.5 -2.10942e-15
      vertex -7 9.5 0
      vertex 34.7552 9.5 -3.5
    endloop
  endfacet
  facet normal 0 1 0
    outer loop
      vertex 34.7552 9.5 -1
      vertex 34.78 9.5 4
      vertex 34.78 9.5 -1
    endloop
  endfacet
  facet normal 0 1 0
    outer loop
      vertex 34.7552 9.5 -3.5
      vertex 25 9.5 0
      vertex 25 9.5 4
    endloop
  endfacet
  facet normal 0 1 0
    outer loop
      vertex 34.7552 9.5 -1
      vertex 25 9.5 4
      vertex 34.78 9.5 4
    endloop
  endfacet
  facet normal 0 1 0
    outer loop
      vertex 34.7552 9.5 -3.5
      vertex 25 9.5 4
      vertex 34.7552 9.5 -1
    endloop
  endfacet
  facet normal 0 1 0
    outer loop
      vertex -12.792 9.5 2.64512
      vertex -15.4507 9.5 3.5
      vertex -10.9981 9.5 3.46437
    endloop
  endfacet
  facet normal 0.707107 0.707107 0
    outer loop
      vertex -15.4896 9.53887 -3.5
      vertex -15.4896 9.53887 3.5
      vertex -15.4507 9.5 -3.5
    endloop
  endfacet
  facet normal 0.707107 0.707107 0
    outer loop
      vertex -15.4507 9.5 -3.5
      vertex -15.4896 9.53887 3.5
      vertex -15.4507 9.5 3.5
    endloop
  endfacet
  facet normal -0.707107 0.707107 0
    outer loop
      vertex -15.5284 9.5 -3.5
      vertex -15.5284 9.5 3.5
      vertex -15.4896 9.53887 -3.5
    endloop
  endfacet
  facet normal -0.707107 0.707107 0
    outer loop
      vertex -15.4896 9.53887 -3.5
      vertex -15.5284 9.5 3.5
      vertex -15.4896 9.53887 3.5
    endloop
  endfacet
  facet normal 0 1 0
    outer loop
      vertex -15.7343 9.5 -3.5
      vertex -15.7343 9.5 3.5
      vertex -15.5284 9.5 -3.5
    endloop
  endfacet
  facet normal 0 1 0
    outer loop
      vertex -15.5284 9.5 -3.5
      vertex -15.7343 9.5 3.5
      vertex -15.5284 9.5 3.5
    endloop
  endfacet
  facet normal -1 0 0
    outer loop
      vertex -15.7343 9.2941 -3.5
      vertex -15.7343 9.2941 3.5
      vertex -15.7343 9.5 -3.5
    endloop
  endfacet
  facet normal -1 0 0
    outer loop
      vertex -15.7343 9.5 -3.5
      vertex -15.7343 9.2941 3.5
      vertex -15.7343 9.5 3.5
    endloop
  endfacet
  facet normal -0.707107 0.707107 0
    outer loop
      vertex -21.5 3.52842 -3.5
      vertex -21.5 3.52842 3.5
      vertex -15.7343 9.2941 -3.5
    endloop
  endfacet
  facet normal -0.707107 0.707107 0
    outer loop
      vertex -15.7343 9.2941 -3.5
      vertex -21.5 3.52842 3.5
      vertex -15.7343 9.2941 3.5
    endloop
  endfacet
  facet normal 3.85577e-17 0.984808 -0.173649
    outer loop
      vertex -19 -2.29497 1.325
      vertex -19 -2.60974 -0.460168
      vertex -21.5 -2.29497 1.325
    endloop
  endfacet
  facet normal 3.85577e-17 0.984808 -0.173649
    outer loop
      vertex -21.5 -2.29497 1.325
      vertex -19 -2.60974 -0.460168
      vertex -21.5 -2.60974 -0.460168
    endloop
  endfacet
  facet normal -1.11022e-16 0.866025 0.5
    outer loop
      vertex -19 -1.70339 -2.03002
      vertex -21.5 -1.70339 -2.03002
      vertex -19 -2.60974 -0.460168
    endloop
  endfacet
  facet normal -1.11022e-16 0.866025 0.5
    outer loop
      vertex -19 -2.60974 -0.460168
      vertex -21.5 -1.70339 -2.03002
      vertex -21.5 -2.60974 -0.460168
    endloop
  endfacet
  facet normal 1.70096e-16 0.642787 -0.766045
    outer loop
      vertex -19 -0.906353 2.49018
      vertex -19 -2.29497 1.325
      vertex -21.5 -0.906353 2.49018
    endloop
  endfacet
  facet normal 1.70096e-16 0.642787 -0.766045
    outer loop
      vertex -21.5 -0.906353 2.49018
      vertex -19 -2.29497 1.325
      vertex -21.5 -2.29497 1.325
    endloop
  endfacet
  facet normal 2.22045e-16 0 -1
    outer loop
      vertex -19 0.906353 2.49018
      vertex -19 -0.906353 2.49018
      vertex -21.5 0.906353 2.49018
    endloop
  endfacet
  facet normal 2.22045e-16 0 -1
    outer loop
      vertex -21.5 0.906353 2.49018
      vertex -19 -0.906353 2.49018
      vertex -21.5 -0.906353 2.49018
    endloop
  endfacet
  facet normal 1.70096e-16 -0.642787 -0.766045
    outer loop
      vertex -19 2.29497 1.325
      vertex -19 0.906353 2.49018
      vertex -21.5 2.29497 1.325
    endloop
  endfacet
  facet normal 1.70096e-16 -0.642787 -0.766045
    outer loop
      vertex -21.5 2.29497 1.325
      vertex -19 0.906353 2.49018
      vertex -21.5 0.906353 2.49018
    endloop
  endfacet
  facet normal 3.85577e-17 -0.984808 -0.173649
    outer loop
      vertex -21.5 2.60974 -0.460168
      vertex -19 2.60974 -0.460168
      vertex -19 2.29497 1.325
    endloop
  endfacet
  facet normal 3.85577e-17 -0.984808 -0.173649
    outer loop
      vertex -21.5 2.29497 1.325
      vertex -21.5 2.60974 -0.460168
      vertex -19 2.29497 1.325
    endloop
  endfacet
  facet normal -1.11022e-16 -0.866025 0.5
    outer loop
      vertex -19 1.70339 -2.03002
      vertex -19 2.60974 -0.460168
      vertex -21.5 2.60974 -0.460168
    endloop
  endfacet
  facet normal -1.11022e-16 -0.866025 0.5
    outer loop
      vertex -21.5 1.70339 -2.03002
      vertex -19 1.70339 -2.03002
      vertex -21.5 2.60974 -0.460168
    endloop
  endfacet
  facet normal -2.08654e-16 -0.34202 0.939693
    outer loop
      vertex -19 0 -2.65
      vertex -19 1.70339 -2.03002
      vertex -21.5 1.70339 -2.03002
    endloop
  endfacet
  facet normal -2.08654e-16 -0.34202 0.939693
    outer loop
      vertex -21.5 0 -2.65
      vertex -19 0 -2.65
      vertex -21.5 1.70339 -2.03002
    endloop
  endfacet
  facet normal -2.08654e-16 0.34202 0.939693
    outer loop
      vertex -19 -1.70339 -2.03002
      vertex -19 0 -2.65
      vertex -21.5 0 -2.65
    endloop
  endfacet
  facet normal -2.08654e-16 0.34202 0.939693
    outer loop
      vertex -21.5 -1.70339 -2.03002
      vertex -19 -1.70339 -2.03002
      vertex -21.5 0 -2.65
    endloop
  endfacet
  facet normal 1 0 0
    outer loop
      vertex -10 -9.5 3.32087
      vertex -10 9.5 3.32087
      vertex -10 9.5 3.5
    endloop
  endfacet
  facet normal 1 0 0
    outer loop
      vertex -10 -9.5 2.10942e-15
      vertex -10 -9.5 3.32087
      vertex -10 -9.5 3.5
    endloop
  endfacet
  facet normal 1 0 0
    outer loop
      vertex -10 -9.5 3.5
      vertex -10 -9.5 3.32087
      vertex -10 9.5 3.5
    endloop
  endfacet
  facet normal 0 -1 2.22045e-16
    outer loop
      vertex -13.8582 -9.5 2.10942e-15
      vertex -13.8582 -9.5 -0.986064
      vertex -12.792 -9.5 -2.64512
    endloop
  endfacet
  facet normal 0 -1 2.22045e-16
    outer loop
      vertex -9.04605 -9.5 -3.18371
      vertex -13.8582 -9.5 2.10942e-15
      vertex -10.9981 -9.5 -3.46437
    endloop
  endfacet
  facet normal 0 -1 2.22045e-16
    outer loop
      vertex -10.9981 -9.5 -3.46437
      vertex -13.8582 -9.5 2.10942e-15
      vertex -12.792 -9.5 -2.64512
    endloop
  endfacet
  facet normal 0 -1 2.22045e-16
    outer loop
      vertex -7.55561 -9.5 -1.89224
      vertex -13.8582 -9.5 2.10942e-15
      vertex -9.04605 -9.5 -3.18371
    endloop
  endfacet
  facet normal 0 -1 2.22045e-16
    outer loop
      vertex -7 -9.5 2.10942e-15
      vertex -10 -9.5 2.10942e-15
      vertex -7.55561 -9.5 -1.89224
    endloop
  endfacet
  facet normal 0 -1 2.22045e-16
    outer loop
      vertex -10 -9.5 2.10942e-15
      vertex -13.8582 -9.5 2.10942e-15
      vertex -7.55561 -9.5 -1.89224
    endloop
  endfacet
  facet normal 0 -1 2.22045e-16
    outer loop
      vertex -7.55561 -9.5 1.89224
      vertex -10 -9.5 2.10942e-15
      vertex -7 -9.5 2.10942e-15
    endloop
  endfacet
  facet normal 0 -1 2.22045e-16
    outer loop
      vertex -10 -9.5 3.32087
      vertex -7.55561 -9.5 1.89224
      vertex -9.04605 -9.5 3.18371
    endloop
  endfacet
  facet normal 0 -1 2.22045e-16
    outer loop
      vertex -10 -9.5 3.32087
      vertex -10 -9.5 2.10942e-15
      vertex -7.55561 -9.5 1.89224
    endloop
  endfacet
  facet normal 0.959493 -6.25572e-17 -0.281733
    outer loop
      vertex -7 -9.5 2.10942e-15
      vertex -7.55561 -9.5 -1.89224
      vertex -7 -9.5 0
    endloop
  endfacet
  facet normal 0.959493 -6.25572e-17 -0.281733
    outer loop
      vertex -7 0 0
      vertex -7 -9.5 2.10942e-15
      vertex -7 -9.5 0
    endloop
  endfacet
  facet normal 0 0 1
    outer loop
      vertex 8 8 0
      vertex 25 9.5 0
      vertex -7 9.5 0
    endloop
  endfacet
  facet normal 0 0 1
    outer loop
      vertex 10 8 0
      vertex 15 -4 0
      vertex 25 -9.5 0
    endloop
  endfacet
  facet normal 0 0 1
    outer loop
      vertex -7 -9.5 0
      vertex 3 -4 0
      vertex -7 0 0
    endloop
  endfacet
  facet normal 0 0 1
    outer loop
      vertex -7 0 0
      vertex 8 -4 0
      vertex -7 9.5 0
    endloop
  endfacet
  facet normal 0 0 1
    outer loop
      vertex 15 -4 0
      vertex 15 -6 0
      vertex 25 -9.5 0
    endloop
  endfacet
  facet normal 0 0 1
    outer loop
      vertex 10 8 0
      vertex 25 9.5 0
      vertex 8 8 0
    endloop
  endfacet
  facet normal 0 0 1
    outer loop
      vertex 15 -6 0
      vertex 3 -6 0
      vertex 25 -9.5 0
    endloop
  endfacet
  facet normal 0 0 1
    outer loop
      vertex 25 -9.5 0
      vertex 25 9.5 0
      vertex 10 8 0
    endloop
  endfacet
  facet normal 0 0 1
    outer loop
      vertex 10 8 0
      vertex 10 -4 0
      vertex 15 -4 0
    endloop
  endfacet
  facet normal 0 0 1
    outer loop
      vertex -7 -9.5 0
      vertex 3 -6 0
      vertex 3 -4 0
    endloop
  endfacet
  facet normal 0 0 1
    outer loop
      vertex -7 -9.5 0
      vertex 25 -9.5 0
      vertex 3 -6 0
    endloop
  endfacet
  facet normal 0 0 1
    outer loop
      vertex 3 -4 0
      vertex 8 -4 0
      vertex -7 0 0
    endloop
  endfacet
  facet normal 0 0 1
    outer loop
      vertex 8 -4 0
      vertex 8 8 0
      vertex -7 9.5 0
    endloop
  endfacet
  facet normal -1 0 0
    outer loop
      vertex 25 9.5 4
      vertex 25 9.5 0
      vertex 25 -9.5 4
    endloop
  endfacet
  facet normal -1 0 0
    outer loop
      vertex 25 -9.5 4
      vertex 25 9.5 0
      vertex 25 -9.5 0
    endloop
  endfacet
  facet normal 0 0 1
    outer loop
      vertex 25 9.5 4
      vertex 25 -9.5 4
      vertex 34.78 -9.5 4
    endloop
  endfacet
  facet normal 0 0 1
    outer loop
      vertex 34.78 9.5 4
      vertex 25 9.5 4
      vertex 34.78 -9.5 4
    endloop
  endfacet
  facet normal 1 0 0
    outer loop
      vertex 34.78 -7.10974 -0.460168
      vertex 34.78 -9.5 -1
      vertex 34.78 -6.79807 -1
    endloop
  endfacet
  facet normal 1 0 0
    outer loop
      vertex 34.78 -9.5 4
      vertex 34.78 -9.5 -1
      vertex 34.78 -7.10974 -0.460168
    endloop
  endfacet
  facet normal 1 0 0
    outer loop
      vertex 34.78 -5.40635 2.49019
      vertex 34.78 -9.5 4
      vertex 34.78 -6.79497 1.325
    endloop
  endfacet
  facet normal 1 0 0
    outer loop
      vertex 34.78 -3.59365 2.49019
      vertex 34.78 -9.5 4
      vertex 34.78 -5.40635 2.49019
    endloop
  endfacet
  facet normal 1 0 0
    outer loop
      vertex 34.78 2.20503 1.325
      vertex 34.78 -9.5 4
      vertex 34.78 -3.59365 2.49019
    endloop
  endfacet
  facet normal 1 0 0
    outer loop
      vertex 34.78 2.20193 -1
      vertex 34.78 -3.59365 2.49019
      vertex 34.78 -2.20503 1.325
    endloop
  endfacet
  facet normal 1 0 0
    outer loop
      vertex 34.78 2.20193 -1
      vertex 34.78 -2.20503 1.325
      vertex 34.78 -1.89026 -0.460168
    endloop
  endfacet
  facet normal 1 0 0
    outer loop
      vertex 34.78 2.20193 -1
      vertex 34.78 -1.89026 -0.460168
      vertex 34.78 -2.20193 -1
    endloop
  endfacet
  facet normal 1 0 0
    outer loop
      vertex 34.78 1.89026 -0.460168
      vertex 34.78 -3.59365 2.49019
      vertex 34.78 2.20193 -1
    endloop
  endfacet
  facet normal 1 0 0
    outer loop
      vertex 34.78 2.20503 1.325
      vertex 34.78 -3.59365 2.49019
      vertex 34.78 1.89026 -0.460168
    endloop
  endfacet
  facet normal 1 0 0
    outer loop
      vertex 34.78 3.59365 2.49019
      vertex 34.78 -9.5 4
      vertex 34.78 2.20503 1.325
    endloop
  endfacet
  facet normal 1 0 0
    outer loop
      vertex 34.78 5.40635 2.49019
      vertex 34.78 -9.5 4
      vertex 34.78 3.59365 2.49019
    endloop
  endfacet
  facet normal 1 0 0
    outer loop
      vertex 34.78 9.5 4
      vertex 34.78 -9.5 4
      vertex 34.78 5.40635 2.49019
    endloop
  endfacet
  facet normal 1 0 0
    outer loop
      vertex 34.78 9.5 4
      vertex 34.78 5.40635 2.49019
      vertex 34.78 6.79497 1.325
    endloop
  endfacet
  facet normal 1 0 0
    outer loop
      vertex 34.78 9.5 -1
      vertex 34.78 6.79497 1.325
      vertex 34.78 7.10974 -0.460168
    endloop
  endfacet
  facet normal 1 0 0
    outer loop
      vertex 34.78 9.5 -1
      vertex 34.78 7.10974 -0.460168
      vertex 34.78 6.79807 -1
    endloop
  endfacet
  facet normal 1 0 0
    outer loop
      vertex 34.78 9.5 4
      vertex 34.78 6.79497 1.325
      vertex 34.78 9.5 -1
    endloop
  endfacet
  facet normal 1 0 0
    outer loop
      vertex 34.78 -7.10974 -0.460168
      vertex 34.78 -6.79497 1.325
      vertex 34.78 -9.5 4
    endloop
  endfacet
  facet normal 0 0 -1
    outer loop
      vertex 34.7552 -9.5 -1
      vertex 34.7552 -6.79807 -1
      vertex 34.78 -9.5 -1
    endloop
  endfacet
  facet normal 0 0 -1
    outer loop
      vertex 34.78 -9.5 -1
      vertex 34.7552 -6.79807 -1
      vertex 34.78 -6.79807 -1
    endloop
  endfacet
  facet normal -1.11022e-16 0.866025 0.5
    outer loop
      vertex 34.78 -6.79807 -1
      vertex 34.7552 -6.79807 -1
      vertex 34.78 -7.10974 -0.460168
    endloop
  endfacet
  facet normal -1.11022e-16 0.866025 0.5
    outer loop
      vertex 31.5 -6.20339 -2.03002
      vertex 34.7552 -6.79807 -1
      vertex 34.7552 -6.20339 -2.03002
    endloop
  endfacet
  facet normal -1.11022e-16 0.866025 0.5
    outer loop
      vertex 34.78 -7.10974 -0.460168
      vertex 34.7552 -6.79807 -1
      vertex 31.5 -6.20339 -2.03002
    endloop
  endfacet
  facet normal -1.11022e-16 0.866025 0.5
    outer loop
      vertex 34.78 -7.10974 -0.460168
      vertex 31.5 -6.20339 -2.03002
      vertex 31.5 -7.10974 -0.460168
    endloop
  endfacet
  facet normal -2.08654e-16 0.34202 0.939693
    outer loop
      vertex 34.7552 -6.20339 -2.03002
      vertex 34.7552 -4.5 -2.65
      vertex 31.5 -4.5 -2.65
    endloop
  endfacet
  facet normal -2.08654e-16 0.34202 0.939693
    outer loop
      vertex 31.5 -6.20339 -2.03002
      vertex 34.7552 -6.20339 -2.03002
      vertex 31.5 -4.5 -2.65
    endloop
  endfacet
  facet normal -2.08654e-16 -0.34202 0.939693
    outer loop
      vertex 31.5 -4.5 -2.65
      vertex 34.7552 -4.5 -2.65
      vertex 34.7552 -2.79661 -2.03002
    endloop
  endfacet
  facet normal -2.08654e-16 -0.34202 0.939693
    outer loop
      vertex 31.5 -2.79661 -2.03002
      vertex 31.5 -4.5 -2.65
      vertex 34.7552 -2.79661 -2.03002
    endloop
  endfacet
  facet normal -1.11022e-16 -0.866025 0.5
    outer loop
      vertex 31.5 -2.79661 -2.03002
      vertex 34.7552 -2.79661 -2.03002
      vertex 34.7552 -2.20193 -1
    endloop
  endfacet
  facet normal -1.11022e-16 -0.866025 0.5
    outer loop
      vertex 34.78 -1.89026 -0.460168
      vertex 31.5 -2.79661 -2.03002
      vertex 34.7552 -2.20193 -1
    endloop
  endfacet
  facet normal -1.11022e-16 -0.866025 0.5
    outer loop
      vertex 34.78 -2.20193 -1
      vertex 34.78 -1.89026 -0.460168
      vertex 34.7552 -2.20193 -1
    endloop
  endfacet
  facet normal -1.11022e-16 -0.866025 0.5
    outer loop
      vertex 34.78 -1.89026 -0.460168
      vertex 31.5 -1.89026 -0.460168
      vertex 31.5 -2.79661 -2.03002
    endloop
  endfacet
  facet normal 0 0 -1
    outer loop
      vertex 34.7552 -2.20193 -1
      vertex 34.7552 2.20193 -1
      vertex 34.78 -2.20193 -1
    endloop
  endfacet
  facet normal 0 0 -1
    outer loop
      vertex 34.78 -2.20193 -1
      vertex 34.7552 2.20193 -1
      vertex 34.78 2.20193 -1
    endloop
  endfacet
  facet normal -1.11022e-16 0.866025 0.5
    outer loop
      vertex 34.78 2.20193 -1
      vertex 34.7552 2.20193 -1
      vertex 34.78 1.89026 -0.460168
    endloop
  endfacet
  facet normal -1.11022e-16 0.866025 0.5
    outer loop
      vertex 31.5 2.79661 -2.03002
      vertex 34.7552 2.20193 -1
      vertex 34.7552 2.79661 -2.03002
    endloop
  endfacet
  facet normal -1.11022e-16 0.866025 0.5
    outer loop
      vertex 34.78 1.89026 -0.460168
      vertex 34.7552 2.20193 -1
      vertex 31.5 2.79661 -2.03002
    endloop
  endfacet
  facet normal -1.11022e-16 0.866025 0.5
    outer loop
      vertex 34.78 1.89026 -0.460168
      vertex 31.5 2.79661 -2.03002
      vertex 31.5 1.89026 -0.460168
    endloop
  endfacet
  facet normal -2.08654e-16 0.34202 0.939693
    outer loop
      vertex 34.7552 2.79661 -2.03002
      vertex 34.7552 4.5 -2.65
      vertex 31.5 4.5 -2.65
    endloop
  endfacet
  facet normal -2.08654e-16 0.34202 0.939693
    outer loop
      vertex 31.5 2.79661 -2.03002
      vertex 34.7552 2.79661 -2.03002
      vertex 31.5 4.5 -2.65
    endloop
  endfacet
  facet normal -2.08654e-16 -0.34202 0.939693
    outer loop
      vertex 31.5 4.5 -2.65
      vertex 34.7552 4.5 -2.65
      vertex 34.7552 6.20339 -2.03002
    endloop
  endfacet
  facet normal -2.08654e-16 -0.34202 0.939693
    outer loop
      vertex 31.5 6.20339 -2.03002
      vertex 31.5 4.5 -2.65
      vertex 34.7552 6.20339 -2.03002
    endloop
  endfacet
  facet normal -1.11022e-16 -0.866025 0.5
    outer loop
      vertex 31.5 6.20339 -2.03002
      vertex 34.7552 6.20339 -2.03002
      vertex 34.7552 6.79807 -1
    endloop
  endfacet
  facet normal -1.11022e-16 -0.866025 0.5
    outer loop
      vertex 34.78 7.10974 -0.460168
      vertex 31.5 6.20339 -2.03002
      vertex 34.7552 6.79807 -1
    endloop
  endfacet
  facet normal -1.11022e-16 -0.866025 0.5
    outer loop
      vertex 34.78 6.79807 -1
      vertex 34.78 7.10974 -0.460168
      vertex 34.7552 6.79807 -1
    endloop
  endfacet
  facet normal -1.11022e-16 -0.866025 0.5
    outer loop
      vertex 34.78 7.10974 -0.460168
      vertex 31.5 7.10974 -0.460168
      vertex 31.5 6.20339 -2.03002
    endloop
  endfacet
  facet normal 0 0 -1
    outer loop
      vertex 34.7552 6.79807 -1
      vertex 34.7552 9.5 -1
      vertex 34.78 6.79807 -1
    endloop
  endfacet
  facet normal 0 0 -1
    outer loop
      vertex 34.78 6.79807 -1
      vertex 34.7552 9.5 -1
      vertex 34.78 9.5 -1
    endloop
  endfacet
  facet normal 0.959493 6.25572e-17 0.281733
    outer loop
      vertex -7.55561 9.5 1.89224
      vertex -7.55561 -9.5 1.89224
      vertex -7 -9.5 2.10942e-15
    endloop
  endfacet
  facet normal 0.959493 6.25572e-17 0.281733
    outer loop
      vertex -7 9.5 0
      vertex -7.55561 9.5 1.89224
      vertex -7 0 0
    endloop
  endfacet
  facet normal 0.959493 6.25572e-17 0.281733
    outer loop
      vertex -7 0 0
      vertex -7.55561 9.5 1.89224
      vertex -7 -9.5 2.10942e-15
    endloop
  endfacet
  facet normal 0.959493 6.25572e-17 0.281733
    outer loop
      vertex -7 9.5 -2.10942e-15
      vertex -7.55561 9.5 1.89224
      vertex -7 9.5 0
    endloop
  endfacet
  facet normal 0 1 -2.22045e-16
    outer loop
      vertex -13.8582 9.5 -2.10942e-15
      vertex -13.8582 9.5 0.986064
      vertex -7 9.5 -2.10942e-15
    endloop
  endfacet
  facet normal 0 1 -2.22045e-16
    outer loop
      vertex -7 9.5 -2.10942e-15
      vertex -13.8582 9.5 0.986064
      vertex -12.792 9.5 2.64512
    endloop
  endfacet
  facet normal 0 1 -2.22045e-16
    outer loop
      vertex -7 9.5 -2.10942e-15
      vertex -12.792 9.5 2.64512
      vertex -10.9981 9.5 3.46437
    endloop
  endfacet
  facet normal 0 1 -2.22045e-16
    outer loop
      vertex -7 9.5 -2.10942e-15
      vertex -10.9981 9.5 3.46437
      vertex -9.04605 9.5 3.18371
    endloop
  endfacet
  facet normal 0 1 -2.22045e-16
    outer loop
      vertex -7 9.5 -2.10942e-15
      vertex -9.04605 9.5 3.18371
      vertex -7.55561 9.5 1.89224
    endloop
  endfacet
  facet normal 0.142315 2.19785e-16 0.989821
    outer loop
      vertex -9.04605 9.5 3.18371
      vertex -10.9981 9.5 3.46437
      vertex -10 9.5 3.32087
    endloop
  endfacet
  facet normal 0.142315 2.19785e-16 0.989821
    outer loop
      vertex -10 -9.5 3.32087
      vertex -9.04605 -9.5 3.18371
      vertex -10 9.5 3.32087
    endloop
  endfacet
  facet normal 0.142315 2.19785e-16 0.989821
    outer loop
      vertex -9.04605 -9.5 3.18371
      vertex -9.04605 9.5 3.18371
      vertex -10 9.5 3.32087
    endloop
  endfacet
  facet normal -1 0 -2.22045e-16
    outer loop
      vertex -19 2.29497 1.325
      vertex -19 2.60974 -0.460168
      vertex -19 0.906353 2.49018
    endloop
  endfacet
  facet normal -1 0 -2.22045e-16
    outer loop
      vertex -19 0.906353 2.49018
      vertex -19 2.60974 -0.460168
      vertex -19 1.70339 -2.03002
    endloop
  endfacet
  facet normal -1 0 -2.22045e-16
    outer loop
      vertex -19 0.906353 2.49018
      vertex -19 1.70339 -2.03002
      vertex -19 0 -2.65
    endloop
  endfacet
  facet normal -1 0 -2.22045e-16
    outer loop
      vertex -19 0.906353 2.49018
      vertex -19 0 -2.65
      vertex -19 -1.70339 -2.03002
    endloop
  endfacet
  facet normal -1 0 -2.22045e-16
    outer loop
      vertex -19 0.906353 2.49018
      vertex -19 -1.70339 -2.03002
      vertex -19 -2.60974 -0.460168
    endloop
  endfacet
  facet normal -1 0 -2.22045e-16
    outer loop
      vertex -19 0.906353 2.49018
      vertex -19 -2.60974 -0.460168
      vertex -19 -2.29497 1.325
    endloop
  endfacet
  facet normal -1 0 -2.22045e-16
    outer loop
      vertex -19 0.906353 2.49018
      vertex -19 -2.29497 1.325
      vertex -19 -0.906353 2.49018
    endloop
  endfacet
  facet normal 0.654861 1.6781e-16 0.755749
    outer loop
      vertex -9.04605 9.5 3.18371
      vertex -9.04605 -9.5 3.18371
      vertex -7.55561 -9.5 1.89224
    endloop
  endfacet
  facet normal 0.654861 1.6781e-16 0.755749
    outer loop
      vertex -7.55561 9.5 1.89224
      vertex -9.04605 9.5 3.18371
      vertex -7.55561 -9.5 1.89224
    endloop
  endfacet
  facet normal 0 1 0
    outer loop
      vertex 3 -4 0
      vertex 3 -4 2
      vertex 8 -4 0
    endloop
  endfacet
  facet normal 0 1 0
    outer loop
      vertex 8 -4 0
      vertex 3 -4 2
      vertex 8 -4 2
    endloop
  endfacet
  facet normal -1 0 0
    outer loop
      vertex 3 -6 0
      vertex 3 -6 2
      vertex 3 -4 0
    endloop
  endfacet
  facet normal -1 0 0
    outer loop
      vertex 3 -4 0
      vertex 3 -6 2
      vertex 3 -4 2
    endloop
  endfacet
  facet normal 0 -1 0
    outer loop
      vertex 3 -6 2
      vertex 3 -6 0
      vertex 15 -6 0
    endloop
  endfacet
  facet normal 0 -1 0
    outer loop
      vertex 15 -6 2
      vertex 3 -6 2
      vertex 15 -6 0
    endloop
  endfacet
  facet normal 1 0 0
    outer loop
      vertex 15 -6 2
      vertex 15 -6 0
      vertex 15 -4 0
    endloop
  endfacet
  facet normal 1 0 0
    outer loop
      vertex 15 -4 2
      vertex 15 -6 2
      vertex 15 -4 0
    endloop
  endfacet
  facet normal 0 1 0
    outer loop
      vertex 10 -4 0
      vertex 10 -4 2
      vertex 15 -4 0
    endloop
  endfacet
  facet normal 0 1 0
    outer loop
      vertex 15 -4 0
      vertex 10 -4 2
      vertex 15 -4 2
    endloop
  endfacet
  facet normal 1 0 0
    outer loop
      vertex 10 -4 2
      vertex 10 -4 0
      vertex 10 8 0
    endloop
  endfacet
  facet normal 1 0 0
    outer loop
      vertex 10 8 2
      vertex 10 -4 2
      vertex 10 8 0
    endloop
  endfacet
  facet normal 0 1 0
    outer loop
      vertex 8 8 0
      vertex 8 8 2
      vertex 10 8 0
    endloop
  endfacet
  facet normal 0 1 0
    outer loop
      vertex 10 8 0
      vertex 8 8 2
      vertex 10 8 2
    endloop
  endfacet
  facet normal -1 0 0
    outer loop
      vertex 8 -4 0
      vertex 8 -4 2
      vertex 8 8 0
    endloop
  endfacet
  facet normal -1 0 0
    outer loop
      vertex 8 8 0
      vertex 8 -4 2
      vertex 8 8 2
    endloop
  endfacet
  facet normal 3.85577e-17 -0.984808 -0.173649
    outer loop
      vertex 31.5 7.10974 -0.460168
      vertex 34.78 7.10974 -0.460168
      vertex 34.78 6.79497 1.325
    endloop
  endfacet
  facet normal 3.85577e-17 -0.984808 -0.173649
    outer loop
      vertex 31.5 6.79497 1.325
      vertex 31.5 7.10974 -0.460168
      vertex 34.78 6.79497 1.325
    endloop
  endfacet
  facet normal 1.70096e-16 -0.642787 -0.766045
    outer loop
      vertex 34.78 6.79497 1.325
      vertex 34.78 5.40635 2.49019
      vertex 31.5 6.79497 1.325
    endloop
  endfacet
  facet normal 1.70096e-16 -0.642787 -0.766045
    outer loop
      vertex 31.5 6.79497 1.325
      vertex 34.78 5.40635 2.49019
      vertex 31.5 5.40635 2.49019
    endloop
  endfacet
  facet normal 2.22045e-16 0 -1
    outer loop
      vertex 34.78 5.40635 2.49019
      vertex 34.78 3.59365 2.49019
      vertex 31.5 5.40635 2.49019
    endloop
  endfacet
  facet normal 2.22045e-16 0 -1
    outer loop
      vertex 31.5 5.40635 2.49019
      vertex 34.78 3.59365 2.49019
      vertex 31.5 3.59365 2.49019
    endloop
  endfacet
  facet normal 1.70096e-16 0.642787 -0.766045
    outer loop
      vertex 34.78 2.20503 1.325
      vertex 31.5 2.20503 1.325
      vertex 34.78 3.59365 2.49019
    endloop
  endfacet
  facet normal 1.70096e-16 0.642787 -0.766045
    outer loop
      vertex 34.78 3.59365 2.49019
      vertex 31.5 2.20503 1.325
      vertex 31.5 3.59365 2.49019
    endloop
  endfacet
  facet normal 3.85577e-17 0.984808 -0.173649
    outer loop
      vertex 34.78 1.89026 -0.460168
      vertex 31.5 1.89026 -0.460168
      vertex 34.78 2.20503 1.325
    endloop
  endfacet
  facet normal 3.85577e-17 0.984808 -0.173649
    outer loop
      vertex 34.78 2.20503 1.325
      vertex 31.5 1.89026 -0.460168
      vertex 31.5 2.20503 1.325
    endloop
  endfacet
  facet normal 3.85577e-17 -0.984808 -0.173649
    outer loop
      vertex 31.5 -1.89026 -0.460168
      vertex 34.78 -1.89026 -0.460168
      vertex 34.78 -2.20503 1.325
    endloop
  endfacet
  facet normal 3.85577e-17 -0.984808 -0.173649
    outer loop
      vertex 31.5 -2.20503 1.325
      vertex 31.5 -1.89026 -0.460168
      vertex 34.78 -2.20503 1.325
    endloop
  endfacet
  facet normal 1.70096e-16 -0.642787 -0.766045
    outer loop
      vertex 34.78 -2.20503 1.325
      vertex 34.78 -3.59365 2.49019
      vertex 31.5 -2.20503 1.325
    endloop
  endfacet
  facet normal 1.70096e-16 -0.642787 -0.766045
    outer loop
      vertex 31.5 -2.20503 1.325
      vertex 34.78 -3.59365 2.49019
      vertex 31.5 -3.59365 2.49019
    endloop
  endfacet
  facet normal 2.22045e-16 0 -1
    outer loop
      vertex 34.78 -3.59365 2.49019
      vertex 34.78 -5.40635 2.49019
      vertex 31.5 -3.59365 2.49019
    endloop
  endfacet
  facet normal 2.22045e-16 0 -1
    outer loop
      vertex 31.5 -3.59365 2.49019
      vertex 34.78 -5.40635 2.49019
      vertex 31.5 -5.40635 2.49019
    endloop
  endfacet
  facet normal 1.70096e-16 0.642787 -0.766045
    outer loop
      vertex 34.78 -6.79497 1.325
      vertex 31.5 -6.79497 1.325
      vertex 34.78 -5.40635 2.49019
    endloop
  endfacet
  facet normal 1.70096e-16 0.642787 -0.766045
    outer loop
      vertex 34.78 -5.40635 2.49019
      vertex 31.5 -6.79497 1.325
      vertex 31.5 -5.40635 2.49019
    endloop
  endfacet
  facet normal 3.85577e-17 0.984808 -0.173649
    outer loop
      vertex 34.78 -7.10974 -0.460168
      vertex 31.5 -7.10974 -0.460168
      vertex 34.78 -6.79497 1.325
    endloop
  endfacet
  facet normal 3.85577e-17 0.984808 -0.173649
    outer loop
      vertex 34.78 -6.79497 1.325
      vertex 31.5 -7.10974 -0.460168
      vertex 31.5 -6.79497 1.325
    endloop
  endfacet
  facet normal 1 0 2.22045e-16
    outer loop
      vertex 31.5 -6.79497 1.325
      vertex 31.5 -7.10974 -0.460168
      vertex 31.5 -6.20339 -2.03002
    endloop
  endfacet
  facet normal 1 0 2.22045e-16
    outer loop
      vertex 31.5 -2.79661 -2.03002
      vertex 31.5 -6.79497 1.325
      vertex 31.5 -4.5 -2.65
    endloop
  endfacet
  facet normal 1 0 2.22045e-16
    outer loop
      vertex 31.5 -4.5 -2.65
      vertex 31.5 -6.79497 1.325
      vertex 31.5 -6.20339 -2.03002
    endloop
  endfacet
  facet normal 1 0 2.22045e-16
    outer loop
      vertex 31.5 -1.89026 -0.460168
      vertex 31.5 -6.79497 1.325
      vertex 31.5 -2.79661 -2.03002
    endloop
  endfacet
  facet normal 1 0 2.22045e-16
    outer loop
      vertex 31.5 -2.20503 1.325
      vertex 31.5 -6.79497 1.325
      vertex 31.5 -1.89026 -0.460168
    endloop
  endfacet
  facet normal 1 0 2.22045e-16
    outer loop
      vertex 31.5 -3.59365 2.49019
      vertex 31.5 -6.79497 1.325
      vertex 31.5 -2.20503 1.325
    endloop
  endfacet
  facet normal 1 0 2.22045e-16
    outer loop
      vertex 31.5 -5.40635 2.49019
      vertex 31.5 -6.79497 1.325
      vertex 31.5 -3.59365 2.49019
    endloop
  endfacet
  facet normal 1 0 2.22045e-16
    outer loop
      vertex 31.5 2.20503 1.325
      vertex 31.5 1.89026 -0.460168
      vertex 31.5 2.79661 -2.03002
    endloop
  endfacet
  facet normal 1 0 2.22045e-16
    outer loop
      vertex 31.5 6.20339 -2.03002
      vertex 31.5 2.20503 1.325
      vertex 31.5 4.5 -2.65
    endloop
  endfacet
  facet normal 1 0 2.22045e-16
    outer loop
      vertex 31.5 4.5 -2.65
      vertex 31.5 2.20503 1.325
      vertex 31.5 2.79661 -2.03002
    endloop
  endfacet
  facet normal 1 0 2.22045e-16
    outer loop
      vertex 31.5 7.10974 -0.460168
      vertex 31.5 2.20503 1.325
      vertex 31.5 6.20339 -2.03002
    endloop
  endfacet
  facet normal 1 0 2.22045e-16
    outer loop
      vertex 31.5 6.79497 1.325
      vertex 31.5 2.20503 1.325
      vertex 31.5 7.10974 -0.460168
    endloop
  endfacet
  facet normal 1 0 2.22045e-16
    outer loop
      vertex 31.5 5.40635 2.49019
      vertex 31.5 2.20503 1.325
      vertex 31.5 6.79497 1.325
    endloop
  endfacet
  facet normal 1 0 2.22045e-16
    outer loop
      vertex 31.5 3.59365 2.49019
      vertex 31.5 2.20503 1.325
      vertex 31.5 5.40635 2.49019
    endloop
  endfacet
  facet normal 0 0 1
    outer loop
      vertex 3 -4 2
      vertex 3 -6 2
      vertex 15 -6 2
    endloop
  endfacet
  facet normal 0 0 1
    outer loop
      vertex 8 -4 2
      vertex 3 -4 2
      vertex 15 -6 2
    endloop
  endfacet
  facet normal 0 0 1
    outer loop
      vertex 10 -4 2
      vertex 8 -4 2
      vertex 15 -6 2
    endloop
  endfacet
  facet normal 0 0 1
    outer loop
      vertex 15 -4 2
      vertex 10 -4 2
      vertex 15 -6 2
    endloop
  endfacet
  facet normal 0 0 1
    outer loop
      vertex 10 8 2
      vertex 8 -4 2
      vertex 10 -4 2
    endloop
  endfacet
  facet normal 0 0 1
    outer loop
      vertex 8 8 2
      vertex 8 -4 2
      vertex 10 8 2
    endloop
  endfacet
endsolid OpenSCAD_Model
