solid OpenSCAD_Model
  facet normal 0 1 0
    outer loop
      vertex -17.9325 13 -4
      vertex -17.9325 13 4
      vertex 44.0071 13 -4
    endloop
  endfacet
  facet normal 0 1 0
    outer loop
      vertex 44.0071 13 -4
      vertex -17.9325 13 4
      vertex 44.0071 13 4
    endloop
  endfacet
  facet normal -0.707107 -0.707107 0
    outer loop
      vertex -11.9325 7 2.5
      vertex -4.93251 1.02474e-15 4
      vertex -17.9325 13 4
    endloop
  endfacet
  facet normal -0.707107 -0.707107 0
    outer loop
      vertex -11.9325 7 2.5
      vertex -10.1647 5.23223 1.76777
      vertex -4.93251 1.02474e-15 4
    endloop
  endfacet
  facet normal -0.707107 -0.707107 0
    outer loop
      vertex -17.9325 13 -4
      vertex -14.4325 9.5 -3.20466e-15
      vertex -17.9325 13 4
    endloop
  endfacet
  facet normal -0.707107 -0.707107 0
    outer loop
      vertex -13.7003 8.76777 1.76777
      vertex -11.9325 7 2.5
      vertex -17.9325 13 4
    endloop
  endfacet
  facet normal -0.707107 -0.707107 0
    outer loop
      vertex -9.43251 4.5 -2.09444e-15
      vertex -10.1647 5.23223 -1.76777
      vertex -4.93251 1.02474e-15 -4
    endloop
  endfacet
  facet normal -0.707107 -0.707107 0
    outer loop
      vertex -4.93251 1.02474e-15 -4
      vertex -4.93251 1.02474e-15 4
      vertex -10.1647 5.23223 1.76777
    endloop
  endfacet
  facet normal -0.707107 -0.707107 0
    outer loop
      vertex -10.1647 5.23223 -1.76777
      vertex -11.9325 7 -2.5
      vertex -4.93251 1.02474e-15 -4
    endloop
  endfacet
  facet normal -0.707107 -0.707107 0
    outer loop
      vertex -4.93251 1.02474e-15 -4
      vertex -10.1647 5.23223 1.76777
      vertex -9.43251 4.5 -2.09444e-15
    endloop
  endfacet
  facet normal -0.707107 -0.707107 0
    outer loop
      vertex -17.9325 13 -4
      vertex -4.93251 1.02474e-15 -4
      vertex -11.9325 7 -2.5
    endloop
  endfacet
  facet normal -0.707107 -0.707107 0
    outer loop
      vertex -17.9325 13 -4
      vertex -13.7003 8.76777 -1.76777
      vertex -14.4325 9.5 -3.20466e-15
    endloop
  endfacet
  facet normal -0.707107 -0.707107 0
    outer loop
      vertex -17.9325 13 -4
      vertex -11.9325 7 -2.5
      vertex -13.7003 8.76777 -1.76777
    endloop
  endfacet
  facet normal -0.707107 -0.707107 0
    outer loop
      vertex -14.4325 9.5 -3.20466e-15
      vertex -13.7003 8.76777 1.76777
      vertex -17.9325 13 4
    endloop
  endfacet
  facet normal 0 0 -1
    outer loop
      vertex -17.9325 13 -4
      vertex 44.0071 13 -4
      vertex -4.93251 1.02474e-15 -4
    endloop
  endfacet
  facet normal 0 0 -1
    outer loop
      vertex -4.93251 1.02474e-15 -4
      vertex 44.0071 13 -4
      vertex 44.0071 -13 -4
    endloop
  endfacet
  facet normal 0 0 -1
    outer loop
      vertex -4.93251 1.02474e-15 -4
      vertex 44.0071 -13 -4
      vertex -17.9325 -13 -4
    endloop
  endfacet
  facet normal 1 0 0
    outer loop
      vertex 44.0071 -9.77155e-15 -2.5
      vertex 44.0071 -13 -4
      vertex 44.0071 13 -4
    endloop
  endfacet
  facet normal 1 0 0
    outer loop
      vertex 44.0071 -9.77155e-15 2.5
      vertex 44.0071 1.76777 1.76777
      vertex 44.0071 13 4
    endloop
  endfacet
  facet normal 1 0 0
    outer loop
      vertex 44.0071 -13 4
      vertex 44.0071 -13 -4
      vertex 44.0071 -2.5 9.77155e-15
    endloop
  endfacet
  facet normal 1 0 0
    outer loop
      vertex 44.0071 2.5 9.77155e-15
      vertex 44.0071 1.76777 -1.76777
      vertex 44.0071 13 -4
    endloop
  endfacet
  facet normal 1 0 0
    outer loop
      vertex 44.0071 -9.77155e-15 2.5
      vertex 44.0071 -13 4
      vertex 44.0071 -1.76777 1.76777
    endloop
  endfacet
  facet normal 1 0 0
    outer loop
      vertex 44.0071 1.76777 1.76777
      vertex 44.0071 2.5 9.77155e-15
      vertex 44.0071 13 -4
    endloop
  endfacet
  facet normal 1 0 0
    outer loop
      vertex 44.0071 13 4
      vertex 44.0071 -13 4
      vertex 44.0071 -9.77155e-15 2.5
    endloop
  endfacet
  facet normal 1 0 0
    outer loop
      vertex 44.0071 13 4
      vertex 44.0071 1.76777 1.76777
      vertex 44.0071 13 -4
    endloop
  endfacet
  facet normal 1 0 0
    outer loop
      vertex 44.0071 1.76777 -1.76777
      vertex 44.0071 -9.77155e-15 -2.5
      vertex 44.0071 13 -4
    endloop
  endfacet
  facet normal 1 0 0
    outer loop
      vertex 44.0071 -2.5 9.77155e-15
      vertex 44.0071 -13 -4
      vertex 44.0071 -1.76777 -1.76777
    endloop
  endfacet
  facet normal 1 0 0
    outer loop
      vertex 44.0071 -9.77155e-15 -2.5
      vertex 44.0071 -1.76777 -1.76777
      vertex 44.0071 -13 -4
    endloop
  endfacet
  facet normal 1 0 0
    outer loop
      vertex 44.0071 -2.5 9.77155e-15
      vertex 44.0071 -1.76777 1.76777
      vertex 44.0071 -13 4
    endloop
  endfacet
  facet normal 0 0 1
    outer loop
      vertex 44.0071 13 4
      vertex -17.9325 13 4
      vertex -4.93251 1.02474e-15 4
    endloop
  endfacet
  facet normal 0 0 1
    outer loop
      vertex -17.9325 -13 4
      vertex 44.0071 13 4
      vertex -4.93251 1.02474e-15 4
    endloop
  endfacet
  facet normal 0 0 1
    outer loop
      vertex -17.9325 -13 4
      vertex 44.0071 -13 4
      vertex 44.0071 13 4
    endloop
  endfacet
  facet normal -0.707107 0.707107 0
    outer loop
      vertex -11.9325 -7 -2.5
      vertex -4.93251 1.02474e-15 -4
      vertex -17.9325 -13 -4
    endloop
  endfacet
  facet normal -0.707107 0.707107 0
    outer loop
      vertex -9.43251 -4.5 -2.09444e-15
      vertex -4.93251 1.02474e-15 -4
      vertex -10.1647 -5.23223 -1.76777
    endloop
  endfacet
  facet normal -0.707107 0.707107 0
    outer loop
      vertex -17.9325 -13 4
      vertex -14.4325 -9.5 -3.20466e-15
      vertex -17.9325 -13 -4
    endloop
  endfacet
  facet normal -0.707107 0.707107 0
    outer loop
      vertex -14.4325 -9.5 -3.20466e-15
      vertex -13.7003 -8.76777 -1.76777
      vertex -17.9325 -13 -4
    endloop
  endfacet
  facet normal -0.707107 0.707107 0
    outer loop
      vertex -13.7003 -8.76777 -1.76777
      vertex -11.9325 -7 -2.5
      vertex -17.9325 -13 -4
    endloop
  endfacet
  facet normal -0.707107 0.707107 0
    outer loop
      vertex -10.1647 -5.23223 -1.76777
      vertex -4.93251 1.02474e-15 -4
      vertex -11.9325 -7 -2.5
    endloop
  endfacet
  facet normal -0.707107 0.707107 0
    outer loop
      vertex -4.93251 1.02474e-15 4
      vertex -4.93251 1.02474e-15 -4
      vertex -9.43251 -4.5 -2.09444e-15
    endloop
  endfacet
  facet normal -0.707107 0.707107 0
    outer loop
      vertex -4.93251 1.02474e-15 4
      vertex -9.43251 -4.5 -2.09444e-15
      vertex -10.1647 -5.23223 1.76777
    endloop
  endfacet
  facet normal -0.707107 0.707107 0
    outer loop
      vertex -4.93251 1.02474e-15 4
      vertex -10.1647 -5.23223 1.76777
      vertex -11.9325 -7 2.5
    endloop
  endfacet
  facet normal -0.707107 0.707107 0
    outer loop
      vertex -4.93251 1.02474e-15 4
      vertex -11.9325 -7 2.5
      vertex -17.9325 -13 4
    endloop
  endfacet
  facet normal -0.707107 0.707107 0
    outer loop
      vertex -13.7003 -8.76777 1.76777
      vertex -17.9325 -13 4
      vertex -11.9325 -7 2.5
    endloop
  endfacet
  facet normal -0.707107 0.707107 0
    outer loop
      vertex -14.4325 -9.5 -3.20466e-15
      vertex -17.9325 -13 4
      vertex -13.7003 -8.76777 1.76777
    endloop
  endfacet
  facet normal -1.2017e-16 -0.92388 -0.382683
    outer loop
      vertex -5 9.5 -1.11022e-15
      vertex -5 8.76777 1.76777
      vertex -13.7003 8.76777 1.76777
    endloop
  endfacet
  facet normal -1.2017e-16 -0.92388 -0.382683
    outer loop
      vertex -14.4325 9.5 -3.20466e-15
      vertex -5 9.5 -1.11022e-15
      vertex -13.7003 8.76777 1.76777
    endloop
  endfacet
  facet normal -2.90115e-16 -0.92388 0.382683
    outer loop
      vertex -13.7003 8.76777 -1.76777
      vertex -5 8.76777 -1.76777
      vertex -5 9.5 -1.11022e-15
    endloop
  endfacet
  facet normal -2.90115e-16 -0.92388 0.382683
    outer loop
      vertex -14.4325 9.5 -3.20466e-15
      vertex -13.7003 8.76777 -1.76777
      vertex -5 9.5 -1.11022e-15
    endloop
  endfacet
  facet normal -2.90115e-16 -0.382683 0.92388
    outer loop
      vertex -11.9325 7 -2.5
      vertex -5 7 -2.5
      vertex -5 8.76777 -1.76777
    endloop
  endfacet
  facet normal -2.90115e-16 -0.382683 0.92388
    outer loop
      vertex -13.7003 8.76777 -1.76777
      vertex -11.9325 7 -2.5
      vertex -5 8.76777 -1.76777
    endloop
  endfacet
  facet normal -1.2017e-16 0.382683 0.92388
    outer loop
      vertex -10.1647 5.23223 -1.76777
      vertex -5 5.23223 -1.76777
      vertex -5 7 -2.5
    endloop
  endfacet
  facet normal -1.2017e-16 0.382683 0.92388
    outer loop
      vertex -11.9325 7 -2.5
      vertex -10.1647 5.23223 -1.76777
      vertex -5 7 -2.5
    endloop
  endfacet
  facet normal 1.2017e-16 0.92388 0.382683
    outer loop
      vertex -5 4.5 -1.11022e-15
      vertex -5 5.23223 -1.76777
      vertex -9.43251 4.5 -2.09444e-15
    endloop
  endfacet
  facet normal 1.2017e-16 0.92388 0.382683
    outer loop
      vertex -9.43251 4.5 -2.09444e-15
      vertex -5 5.23223 -1.76777
      vertex -10.1647 5.23223 -1.76777
    endloop
  endfacet
  facet normal 2.90115e-16 0.92388 -0.382683
    outer loop
      vertex -5 4.5 -1.11022e-15
      vertex -9.43251 4.5 -2.09444e-15
      vertex -5 5.23223 1.76777
    endloop
  endfacet
  facet normal 2.90115e-16 0.92388 -0.382683
    outer loop
      vertex -5 5.23223 1.76777
      vertex -9.43251 4.5 -2.09444e-15
      vertex -10.1647 5.23223 1.76777
    endloop
  endfacet
  facet normal 2.90115e-16 0.382683 -0.92388
    outer loop
      vertex -5 5.23223 1.76777
      vertex -10.1647 5.23223 1.76777
      vertex -5 7 2.5
    endloop
  endfacet
  facet normal 2.90115e-16 0.382683 -0.92388
    outer loop
      vertex -5 7 2.5
      vertex -10.1647 5.23223 1.76777
      vertex -11.9325 7 2.5
    endloop
  endfacet
  facet normal 1.2017e-16 -0.382683 -0.92388
    outer loop
      vertex -5 7 2.5
      vertex -11.9325 7 2.5
      vertex -5 8.76777 1.76777
    endloop
  endfacet
  facet normal 1.2017e-16 -0.382683 -0.92388
    outer loop
      vertex -5 8.76777 1.76777
      vertex -11.9325 7 2.5
      vertex -13.7003 8.76777 1.76777
    endloop
  endfacet
  facet normal 0 -1 0
    outer loop
      vertex -17.9325 -13 4
      vertex -17.9325 -13 -4
      vertex 44.0071 -13 -4
    endloop
  endfacet
  facet normal 0 -1 0
    outer loop
      vertex 44.0071 -13 4
      vertex -17.9325 -13 4
      vertex 44.0071 -13 -4
    endloop
  endfacet
  facet normal 1.2017e-16 0.92388 0.382683
    outer loop
      vertex 44.0071 -1.76777 -1.76777
      vertex 30 -1.76777 -1.76777
      vertex 44.0071 -2.5 9.77155e-15
    endloop
  endfacet
  facet normal 1.2017e-16 0.92388 0.382683
    outer loop
      vertex 44.0071 -2.5 9.77155e-15
      vertex 30 -1.76777 -1.76777
      vertex 30 -2.5 6.66134e-15
    endloop
  endfacet
  facet normal 2.90115e-16 0.92388 -0.382683
    outer loop
      vertex 44.0071 -2.5 9.77155e-15
      vertex 30 -2.5 6.66134e-15
      vertex 44.0071 -1.76777 1.76777
    endloop
  endfacet
  facet normal 2.90115e-16 0.92388 -0.382683
    outer loop
      vertex 44.0071 -1.76777 1.76777
      vertex 30 -2.5 6.66134e-15
      vertex 30 -1.76777 1.76777
    endloop
  endfacet
  facet normal -1.2017e-16 0.382683 0.92388
    outer loop
      vertex 44.0071 -1.76777 -1.76777
      vertex 44.0071 -9.77155e-15 -2.5
      vertex 30 -6.66134e-15 -2.5
    endloop
  endfacet
  facet normal -1.2017e-16 0.382683 0.92388
    outer loop
      vertex 30 -1.76777 -1.76777
      vertex 44.0071 -1.76777 -1.76777
      vertex 30 -6.66134e-15 -2.5
    endloop
  endfacet
  facet normal -2.90115e-16 -0.382683 0.92388
    outer loop
      vertex 44.0071 -9.77155e-15 -2.5
      vertex 44.0071 1.76777 -1.76777
      vertex 30 1.76777 -1.76777
    endloop
  endfacet
  facet normal -2.90115e-16 -0.382683 0.92388
    outer loop
      vertex 30 -6.66134e-15 -2.5
      vertex 44.0071 -9.77155e-15 -2.5
      vertex 30 1.76777 -1.76777
    endloop
  endfacet
  facet normal -2.90115e-16 -0.92388 0.382683
    outer loop
      vertex 30 1.76777 -1.76777
      vertex 44.0071 1.76777 -1.76777
      vertex 44.0071 2.5 9.77155e-15
    endloop
  endfacet
  facet normal -2.90115e-16 -0.92388 0.382683
    outer loop
      vertex 30 2.5 6.66134e-15
      vertex 30 1.76777 -1.76777
      vertex 44.0071 2.5 9.77155e-15
    endloop
  endfacet
  facet normal -1.2017e-16 -0.92388 -0.382683
    outer loop
      vertex 30 2.5 6.66134e-15
      vertex 44.0071 2.5 9.77155e-15
      vertex 44.0071 1.76777 1.76777
    endloop
  endfacet
  facet normal -1.2017e-16 -0.92388 -0.382683
    outer loop
      vertex 30 1.76777 1.76777
      vertex 30 2.5 6.66134e-15
      vertex 44.0071 1.76777 1.76777
    endloop
  endfacet
  facet normal 1.2017e-16 -0.382683 -0.92388
    outer loop
      vertex 44.0071 1.76777 1.76777
      vertex 44.0071 -9.77155e-15 2.5
      vertex 30 1.76777 1.76777
    endloop
  endfacet
  facet normal 1.2017e-16 -0.382683 -0.92388
    outer loop
      vertex 30 1.76777 1.76777
      vertex 44.0071 -9.77155e-15 2.5
      vertex 30 -6.66134e-15 2.5
    endloop
  endfacet
  facet normal 2.90115e-16 0.382683 -0.92388
    outer loop
      vertex 44.0071 -9.77155e-15 2.5
      vertex 44.0071 -1.76777 1.76777
      vertex 30 -6.66134e-15 2.5
    endloop
  endfacet
  facet normal 2.90115e-16 0.382683 -0.92388
    outer loop
      vertex 30 -6.66134e-15 2.5
      vertex 44.0071 -1.76777 1.76777
      vertex 30 -1.76777 1.76777
    endloop
  endfacet
  facet normal 1.2017e-16 0.92388 0.382683
    outer loop
      vertex -5 -8.76777 -1.76777
      vertex -13.7003 -8.76777 -1.76777
      vertex -5 -9.5 -1.11022e-15
    endloop
  endfacet
  facet normal 1.2017e-16 0.92388 0.382683
    outer loop
      vertex -5 -9.5 -1.11022e-15
      vertex -13.7003 -8.76777 -1.76777
      vertex -14.4325 -9.5 -3.20466e-15
    endloop
  endfacet
  facet normal 2.90115e-16 0.92388 -0.382683
    outer loop
      vertex -5 -8.76777 1.76777
      vertex -5 -9.5 -1.11022e-15
      vertex -13.7003 -8.76777 1.76777
    endloop
  endfacet
  facet normal 2.90115e-16 0.92388 -0.382683
    outer loop
      vertex -13.7003 -8.76777 1.76777
      vertex -5 -9.5 -1.11022e-15
      vertex -14.4325 -9.5 -3.20466e-15
    endloop
  endfacet
  facet normal 2.90115e-16 0.382683 -0.92388
    outer loop
      vertex -5 -7 2.5
      vertex -5 -8.76777 1.76777
      vertex -11.9325 -7 2.5
    endloop
  endfacet
  facet normal 2.90115e-16 0.382683 -0.92388
    outer loop
      vertex -11.9325 -7 2.5
      vertex -5 -8.76777 1.76777
      vertex -13.7003 -8.76777 1.76777
    endloop
  endfacet
  facet normal 1.2017e-16 -0.382683 -0.92388
    outer loop
      vertex -5 -5.23223 1.76777
      vertex -5 -7 2.5
      vertex -10.1647 -5.23223 1.76777
    endloop
  endfacet
  facet normal 1.2017e-16 -0.382683 -0.92388
    outer loop
      vertex -10.1647 -5.23223 1.76777
      vertex -5 -7 2.5
      vertex -11.9325 -7 2.5
    endloop
  endfacet
  facet normal -1.2017e-16 -0.92388 -0.382683
    outer loop
      vertex -9.43251 -4.5 -2.09444e-15
      vertex -5 -4.5 -1.11022e-15
      vertex -5 -5.23223 1.76777
    endloop
  endfacet
  facet normal -1.2017e-16 -0.92388 -0.382683
    outer loop
      vertex -10.1647 -5.23223 1.76777
      vertex -9.43251 -4.5 -2.09444e-15
      vertex -5 -5.23223 1.76777
    endloop
  endfacet
  facet normal -2.90115e-16 -0.92388 0.382683
    outer loop
      vertex -5 -5.23223 -1.76777
      vertex -5 -4.5 -1.11022e-15
      vertex -9.43251 -4.5 -2.09444e-15
    endloop
  endfacet
  facet normal -2.90115e-16 -0.92388 0.382683
    outer loop
      vertex -10.1647 -5.23223 -1.76777
      vertex -5 -5.23223 -1.76777
      vertex -9.43251 -4.5 -2.09444e-15
    endloop
  endfacet
  facet normal -2.90115e-16 -0.382683 0.92388
    outer loop
      vertex -5 -7 -2.5
      vertex -5 -5.23223 -1.76777
      vertex -10.1647 -5.23223 -1.76777
    endloop
  endfacet
  facet normal -2.90115e-16 -0.382683 0.92388
    outer loop
      vertex -11.9325 -7 -2.5
      vertex -5 -7 -2.5
      vertex -10.1647 -5.23223 -1.76777
    endloop
  endfacet
  facet normal -1.2017e-16 0.382683 0.92388
    outer loop
      vertex -5 -8.76777 -1.76777
      vertex -5 -7 -2.5
      vertex -11.9325 -7 -2.5
    endloop
  endfacet
  facet normal -1.2017e-16 0.382683 0.92388
    outer loop
      vertex -13.7003 -8.76777 -1.76777
      vertex -5 -8.76777 -1.76777
      vertex -11.9325 -7 -2.5
    endloop
  endfacet
  facet normal -1 2.22045e-16 -2.22045e-16
    outer loop
      vertex -5 8.76777 1.76777
      vertex -5 9.5 -1.11022e-15
      vertex -5 7 2.5
    endloop
  endfacet
  facet normal -1 2.22045e-16 -2.22045e-16
    outer loop
      vertex -5 7 2.5
      vertex -5 9.5 -1.11022e-15
      vertex -5 8.76777 -1.76777
    endloop
  endfacet
  facet normal -1 2.22045e-16 -2.22045e-16
    outer loop
      vertex -5 7 2.5
      vertex -5 8.76777 -1.76777
      vertex -5 7 -2.5
    endloop
  endfacet
  facet normal -1 2.22045e-16 -2.22045e-16
    outer loop
      vertex -5 7 2.5
      vertex -5 7 -2.5
      vertex -5 5.23223 -1.76777
    endloop
  endfacet
  facet normal -1 2.22045e-16 -2.22045e-16
    outer loop
      vertex -5 7 2.5
      vertex -5 5.23223 -1.76777
      vertex -5 4.5 -1.11022e-15
    endloop
  endfacet
  facet normal -1 2.22045e-16 -2.22045e-16
    outer loop
      vertex -5 7 2.5
      vertex -5 4.5 -1.11022e-15
      vertex -5 5.23223 1.76777
    endloop
  endfacet
  facet normal 1 -2.22045e-16 2.22045e-16
    outer loop
      vertex 30 -2.5 6.66134e-15
      vertex 30 -1.76777 -1.76777
      vertex 30 -6.66134e-15 -2.5
    endloop
  endfacet
  facet normal 1 -2.22045e-16 2.22045e-16
    outer loop
      vertex 30 2.5 6.66134e-15
      vertex 30 -2.5 6.66134e-15
      vertex 30 1.76777 -1.76777
    endloop
  endfacet
  facet normal 1 -2.22045e-16 2.22045e-16
    outer loop
      vertex 30 1.76777 -1.76777
      vertex 30 -2.5 6.66134e-15
      vertex 30 -6.66134e-15 -2.5
    endloop
  endfacet
  facet normal 1 -2.22045e-16 2.22045e-16
    outer loop
      vertex 30 1.76777 1.76777
      vertex 30 -2.5 6.66134e-15
      vertex 30 2.5 6.66134e-15
    endloop
  endfacet
  facet normal 1 -2.22045e-16 2.22045e-16
    outer loop
      vertex 30 -6.66134e-15 2.5
      vertex 30 -2.5 6.66134e-15
      vertex 30 1.76777 1.76777
    endloop
  endfacet
  facet normal 1 -2.22045e-16 2.22045e-16
    outer loop
      vertex 30 -1.76777 1.76777
      vertex 30 -2.5 6.66134e-15
      vertex 30 -6.66134e-15 2.5
    endloop
  endfacet
  facet normal -1 2.22045e-16 -2.22045e-16
    outer loop
      vertex -5 -5.23223 1.76777
      vertex -5 -4.5 -1.11022e-15
      vertex -5 -7 2.5
    endloop
  endfacet
  facet normal -1 2.22045e-16 -2.22045e-16
    outer loop
      vertex -5 -7 2.5
      vertex -5 -4.5 -1.11022e-15
      vertex -5 -5.23223 -1.76777
    endloop
  endfacet
  facet normal -1 2.22045e-16 -2.22045e-16
    outer loop
      vertex -5 -7 2.5
      vertex -5 -5.23223 -1.76777
      vertex -5 -7 -2.5
    endloop
  endfacet
  facet normal -1 2.22045e-16 -2.22045e-16
    outer loop
      vertex -5 -7 2.5
      vertex -5 -7 -2.5
      vertex -5 -8.76777 -1.76777
    endloop
  endfacet
  facet normal -1 2.22045e-16 -2.22045e-16
    outer loop
      vertex -5 -7 2.5
      vertex -5 -8.76777 -1.76777
      vertex -5 -9.5 -1.11022e-15
    endloop
  endfacet
  facet normal -1 2.22045e-16 -2.22045e-16
    outer loop
      vertex -5 -7 2.5
      vertex -5 -9.5 -1.11022e-15
      vertex -5 -8.76777 1.76777
    endloop
  endfacet
  facet normal -1 0 0
    outer loop
      vertex 0.5 -9.5 -2.5
      vertex 0.5 -9.5 2.5
      vertex 0.5 9.5 -2.5
    endloop
  endfacet
  facet normal -1 0 0
    outer loop
      vertex 0.5 9.5 -2.5
      vertex 0.5 -9.5 2.5
      vertex 0.5 9.5 2.5
    endloop
  endfacet
  facet normal 0 -1 0
    outer loop
      vertex 0.5 -9.5 2.5
      vertex 0.5 -9.5 -2.5
      vertex 29.5 -9.5 -2.5
    endloop
  endfacet
  facet normal 0 -1 0
    outer loop
      vertex 29.5 -9.5 2.5
      vertex 0.5 -9.5 2.5
      vertex 29.5 -9.5 -2.5
    endloop
  endfacet
  facet normal 0 0 -1
    outer loop
      vertex 0.5 -9.5 -2.5
      vertex 0.5 9.5 -2.5
      vertex 29.5 -9.5 -2.5
    endloop
  endfacet
  facet normal 0 0 -1
    outer loop
      vertex 29.5 -9.5 -2.5
      vertex 0.5 9.5 -2.5
      vertex 29.5 9.5 -2.5
    endloop
  endfacet
  facet normal 0 1 0
    outer loop
      vertex 0.5 9.5 -2.5
      vertex 0.5 9.5 2.5
      vertex 29.5 9.5 -2.5
    endloop
  endfacet
  facet normal 0 1 0
    outer loop
      vertex 29.5 9.5 -2.5
      vertex 0.5 9.5 2.5
      vertex 29.5 9.5 2.5
    endloop
  endfacet
  facet normal 0 0 1
    outer loop
      vertex 0.5 9.5 2.5
      vertex 0.5 -9.5 2.5
      vertex 29.5 -9.5 2.5
    endloop
  endfacet
  facet normal 0 0 1
    outer loop
      vertex 29.5 9.5 2.5
      vertex 0.5 9.5 2.5
      vertex 29.5 -9.5 2.5
    endloop
  endfacet
  facet normal 1 0 0
    outer loop
      vertex 29.5 -9.5 2.5
      vertex 29.5 -9.5 -2.5
      vertex 29.5 9.5 -2.5
    endloop
  endfacet
  facet normal 1 0 0
    outer loop
      vertex 29.5 9.5 2.5
      vertex 29.5 -9.5 2.5
      vertex 29.5 9.5 -2.5
    endloop
  endfacet
endsolid OpenSCAD_Model
