solid OpenSCAD_Model
  facet normal -1 0 0
    outer loop
      vertex 0 0 0
      vertex 0 0 6
      vertex 0 40 0
    endloop
  endfacet
  facet normal -1 0 0
    outer loop
      vertex 0 40 0
      vertex 0 0 6
      vertex 0 40 6
    endloop
  endfacet
  facet normal 0 -1 0
    outer loop
      vertex 0 0 6
      vertex 0 0 0
      vertex 34 0 0
    endloop
  endfacet
  facet normal 0 -1 0
    outer loop
      vertex 34 0 6
      vertex 0 0 6
      vertex 34 0 0
    endloop
  endfacet
  facet normal 0 0 -1
    outer loop
      vertex 0 0 0
      vertex 0 40 0
      vertex 6 6 0
    endloop
  endfacet
  facet normal 0 0 -1
    outer loop
      vertex 0 0 0
      vertex 6 6 0
      vertex 34 0 0
    endloop
  endfacet
  facet normal 0 0 -1
    outer loop
      vertex 40 6 0
      vertex 34 0 0
      vertex 28 6 0
    endloop
  endfacet
  facet normal 0 0 -1
    outer loop
      vertex 6 6 0
      vertex 22 6 0
      vertex 34 0 0
    endloop
  endfacet
  facet normal 0 0 -1
    outer loop
      vertex 28 6 0
      vertex 22 40 0
      vertex 28 40 0
    endloop
  endfacet
  facet normal 0 0 -1
    outer loop
      vertex 22 40 0
      vertex 28 6 0
      vertex 22 6 0
    endloop
  endfacet
  facet normal 0 0 -1
    outer loop
      vertex 22 6 0
      vertex 28 6 0
      vertex 34 0 0
    endloop
  endfacet
  facet normal 0 0 -1
    outer loop
      vertex 34 0 0
      vertex 40 6 0
      vertex 40 -12 0
    endloop
  endfacet
  facet normal 0 0 -1
    outer loop
      vertex 6 6 0
      vertex 0 40 0
      vertex 6 40 0
    endloop
  endfacet
  facet normal 0 0 -1
    outer loop
      vertex 34 0 0
      vertex 40 -12 0
      vertex 34 -12 0
    endloop
  endfacet
  facet normal 0 1 0
    outer loop
      vertex 0 40 0
      vertex 0 40 6
      vertex 6 40 0
    endloop
  endfacet
  facet normal 0 1 0
    outer loop
      vertex 6 40 0
      vertex 0 40 6
      vertex 6 40 6
    endloop
  endfacet
  facet normal 0 0 1
    outer loop
      vertex 28 6 6
      vertex 0 0 6
      vertex 34 0 6
    endloop
  endfacet
  facet normal 0 0 1
    outer loop
      vertex 6 6 6
      vertex 6 40 6
      vertex 0 40 6
    endloop
  endfacet
  facet normal 0 0 1
    outer loop
      vertex 34 -12 6
      vertex 40 -12 6
      vertex 34 0 6
    endloop
  endfacet
  facet normal 0 0 1
    outer loop
      vertex 40 -12 6
      vertex 40 6 6
      vertex 34 0 6
    endloop
  endfacet
  facet normal 0 0 1
    outer loop
      vertex 22 6 6
      vertex 0 0 6
      vertex 28 6 6
    endloop
  endfacet
  facet normal 0 0 1
    outer loop
      vertex 6 6 6
      vertex 0 0 6
      vertex 22 6 6
    endloop
  endfacet
  facet normal 0 0 1
    outer loop
      vertex 0 40 6
      vertex 0 0 6
      vertex 6 6 6
    endloop
  endfacet
  facet normal 0 0 1
    outer loop
      vertex 22 40 6
      vertex 22 6 6
      vertex 28 6 6
    endloop
  endfacet
  facet normal 0 0 1
    outer loop
      vertex 40 6 6
      vertex 28 6 6
      vertex 34 0 6
    endloop
  endfacet
  facet normal 0 0 1
    outer loop
      vertex 28 6 6
      vertex 28 40 6
      vertex 22 40 6
    endloop
  endfacet
  facet normal -1 0 0
    outer loop
      vertex 34 -12 0
      vertex 34 -12 6
      vertex 34 0 0
    endloop
  endfacet
  facet normal -1 0 0
    outer loop
      vertex 34 0 0
      vertex 34 -12 6
      vertex 34 0 6
    endloop
  endfacet
  facet normal 0 -1 0
    outer loop
      vertex 34 -12 6
      vertex 34 -12 0
      vertex 40 -12 0
    endloop
  endfacet
  facet normal 0 -1 0
    outer loop
      vertex 40 -12 6
      vertex 34 -12 6
      vertex 40 -12 0
    endloop
  endfacet
  facet normal 1 0 0
    outer loop
      vertex 40 -12 6
      vertex 40 -12 0
      vertex 40 6 0
    endloop
  endfacet
  facet normal 1 0 0
    outer loop
      vertex 40 6 6
      vertex 40 -12 6
      vertex 40 6 0
    endloop
  endfacet
  facet normal 0 1 0
    outer loop
      vertex 28 6 0
      vertex 28 6 6
      vertex 40 6 0
    endloop
  endfacet
  facet normal 0 1 0
    outer loop
      vertex 40 6 0
      vertex 28 6 6
      vertex 40 6 6
    endloop
  endfacet
  facet normal 1 0 0
    outer loop
      vertex 28 6 6
      vertex 28 6 0
      vertex 28 40 0
    endloop
  endfacet
  facet normal 1 0 0
    outer loop
      vertex 28 40 6
      vertex 28 6 6
      vertex 28 40 0
    endloop
  endfacet
  facet normal 0 1 0
    outer loop
      vertex 22 40 0
      vertex 22 40 6
      vertex 28 40 0
    endloop
  endfacet
  facet normal 0 1 0
    outer loop
      vertex 28 40 0
      vertex 22 40 6
      vertex 28 40 6
    endloop
  endfacet
  facet normal -1 0 0
    outer loop
      vertex 22 6 0
      vertex 22 6 6
      vertex 22 40 0
    endloop
  endfacet
  facet normal -1 0 0
    outer loop
      vertex 22 40 0
      vertex 22 6 6
      vertex 22 40 6
    endloop
  endfacet
  facet normal 0 1 0
    outer loop
      vertex 6 6 0
      vertex 6 6 6
      vertex 22 6 0
    endloop
  endfacet
  facet normal 0 1 0
    outer loop
      vertex 22 6 0
      vertex 6 6 6
      vertex 22 6 6
    endloop
  endfacet
  facet normal 1 0 0
    outer loop
      vertex 6 6 6
      vertex 6 6 0
      vertex 6 40 0
    endloop
  endfacet
  facet normal 1 0 0
    outer loop
      vertex 6 40 6
      vertex 6 6 6
      vertex 6 40 0
    endloop
  endfacet
endsolid OpenSCAD_Model
