solid OpenSCAD_Model
  facet normal -1 0 0
    outer loop
      vertex -19 18 0
      vertex -19 18 3
      vertex -19 31 0
    endloop
  endfacet
  facet normal -1 0 0
    outer loop
      vertex -19 31 0
      vertex -19 18 3
      vertex -19 31 3
    endloop
  endfacet
  facet normal -0.994522 -0.104529 0
    outer loop
      vertex -19 18 0
      vertex -18.6941 15.0892 0
      vertex -19 18 3
    endloop
  endfacet
  facet normal -0.994522 -0.104529 0
    outer loop
      vertex -19 18 3
      vertex -18.6941 15.0892 0
      vertex -18.6941 15.0892 3
    endloop
  endfacet
  facet normal 0 0 -1
    outer loop
      vertex -19 18 0
      vertex -19 31 0
      vertex -18.6941 15.0892 0
    endloop
  endfacet
  facet normal 0 0 -1
    outer loop
      vertex -18.6941 15.0892 0
      vertex -19 31 0
      vertex -18.6941 33.9108 0
    endloop
  endfacet
  facet normal 0 0 -1
    outer loop
      vertex -18.6941 15.0892 0
      vertex -18.6941 33.9108 0
      vertex -17.7896 36.6943 0
    endloop
  endfacet
  facet normal 0 0 -1
    outer loop
      vertex -18.6941 15.0892 0
      vertex -17.7896 36.6943 0
      vertex -16.3262 39.229 0
    endloop
  endfacet
  facet normal 0 0 -1
    outer loop
      vertex -18.6941 15.0892 0
      vertex -16.3262 39.229 0
      vertex -14.3678 41.404 0
    endloop
  endfacet
  facet normal 0 0 -1
    outer loop
      vertex -14.1355 35.0674 0
      vertex -14.3678 41.404 0
      vertex -12 43.1244 0
    endloop
  endfacet
  facet normal 0 0 -1
    outer loop
      vertex -11.6913 38.4314 0
      vertex -12 43.1244 0
      vertex -9.32624 44.3148 0
    endloop
  endfacet
  facet normal 0 0 -1
    outer loop
      vertex -10 39.6603 0
      vertex -9.32624 44.3148 0
      vertex -6.4634 44.9233 0
    endloop
  endfacet
  facet normal 0 0 -1
    outer loop
      vertex -6.04528 40.9452 0
      vertex -6.4634 44.9233 0
      vertex -3.5366 44.9233 0
    endloop
  endfacet
  facet normal 0 0 -1
    outer loop
      vertex -3.95471 40.9452 0
      vertex -3.5366 44.9233 0
      vertex -0.673762 44.3148 0
    endloop
  endfacet
  facet normal 0 0 -1
    outer loop
      vertex -1.90983 40.5106 0
      vertex -0.673762 44.3148 0
      vertex 2 43.1244 0
    endloop
  endfacet
  facet normal 0 0 -1
    outer loop
      vertex 1.69131 38.4314 0
      vertex 2 43.1244 0
      vertex 4.36783 41.404 0
    endloop
  endfacet
  facet normal 0 0 -1
    outer loop
      vertex 2.07978 38 0
      vertex 4.36783 41.404 0
      vertex 6.32624 39.229 0
    endloop
  endfacet
  facet normal 0 0 -1
    outer loop
      vertex 1.69131 38.4314 0
      vertex 4.36783 41.404 0
      vertex 2.07978 38 0
    endloop
  endfacet
  facet normal 0 0 -1
    outer loop
      vertex 0 39.6603 0
      vertex 2 43.1244 0
      vertex 1.69131 38.4314 0
    endloop
  endfacet
  facet normal 0 0 -1
    outer loop
      vertex -1.90983 40.5106 0
      vertex 2 43.1244 0
      vertex 0 39.6603 0
    endloop
  endfacet
  facet normal 0 0 -1
    outer loop
      vertex -3.95471 40.9452 0
      vertex -0.673762 44.3148 0
      vertex -1.90983 40.5106 0
    endloop
  endfacet
  facet normal 0 0 -1
    outer loop
      vertex -6.04528 40.9452 0
      vertex -3.5366 44.9233 0
      vertex -3.95471 40.9452 0
    endloop
  endfacet
  facet normal 0 0 -1
    outer loop
      vertex -8.09017 40.5106 0
      vertex -6.4634 44.9233 0
      vertex -6.04528 40.9452 0
    endloop
  endfacet
  facet normal 0 0 -1
    outer loop
      vertex -10 39.6603 0
      vertex -6.4634 44.9233 0
      vertex -8.09017 40.5106 0
    endloop
  endfacet
  facet normal 0 0 -1
    outer loop
      vertex -11.6913 38.4314 0
      vertex -9.32624 44.3148 0
      vertex -10 39.6603 0
    endloop
  endfacet
  facet normal 0 0 -1
    outer loop
      vertex -13.0902 36.8779 0
      vertex -12 43.1244 0
      vertex -11.6913 38.4314 0
    endloop
  endfacet
  facet normal 0 0 -1
    outer loop
      vertex -14.1355 35.0674 0
      vertex -12 43.1244 0
      vertex -13.0902 36.8779 0
    endloop
  endfacet
  facet normal 0 0 -1
    outer loop
      vertex -14.7815 33.0791 0
      vertex -14.3678 41.404 0
      vertex -14.1355 35.0674 0
    endloop
  endfacet
  facet normal 0 0 -1
    outer loop
      vertex -15 31 0
      vertex -18.6941 15.0892 0
      vertex -15 32 0
    endloop
  endfacet
  facet normal 0 0 -1
    outer loop
      vertex -18.6941 15.0892 0
      vertex -14.3678 41.404 0
      vertex -14.7815 33.0791 0
    endloop
  endfacet
  facet normal 0 0 -1
    outer loop
      vertex -15 32 0
      vertex -14.7815 33.0791 0
      vertex -14.8949 32 0
    endloop
  endfacet
  facet normal 0 0 -1
    outer loop
      vertex -18.6941 15.0892 0
      vertex -14.7815 33.0791 0
      vertex -15 32 0
    endloop
  endfacet
  facet normal 0 0 -1
    outer loop
      vertex -15 18 0
      vertex -18.6941 15.0892 0
      vertex -15 31 0
    endloop
  endfacet
  facet normal 0 0 -1
    outer loop
      vertex -18.6941 15.0892 0
      vertex -15 18 0
      vertex -14.7815 15.9209 0
    endloop
  endfacet
  facet normal 0 0 -1
    outer loop
      vertex -14.7815 15.9209 0
      vertex -14.1355 13.9326 0
      vertex -18.6941 15.0892 0
    endloop
  endfacet
  facet normal 0 0 -1
    outer loop
      vertex -14.1355 13.9326 0
      vertex -13.0902 12.1221 0
      vertex -18.6941 15.0892 0
    endloop
  endfacet
  facet normal 0 0 -1
    outer loop
      vertex -13.0902 12.1221 0
      vertex -11.6913 10.5686 0
      vertex -18.6941 15.0892 0
    endloop
  endfacet
  facet normal 0 0 -1
    outer loop
      vertex -11.6913 10.5686 0
      vertex -10 9.33975 0
      vertex -18.6941 15.0892 0
    endloop
  endfacet
  facet normal 0 0 -1
    outer loop
      vertex 0 9.33975 0
      vertex 7.0358 11 0
      vertex -1.90983 8.48944 0
    endloop
  endfacet
  facet normal 0 0 -1
    outer loop
      vertex 1.69131 10.5686 0
      vertex 2.07978 11 0
      vertex 7.0358 11 0
    endloop
  endfacet
  facet normal 0 0 -1
    outer loop
      vertex 1.69131 10.5686 0
      vertex 7.0358 11 0
      vertex 0 9.33975 0
    endloop
  endfacet
  facet normal 0 0 -1
    outer loop
      vertex -1.90983 8.48944 0
      vertex 7.0358 11 0
      vertex 6.32624 9.77101 0
    endloop
  endfacet
  facet normal 0 0 -1
    outer loop
      vertex -1.90983 8.48944 0
      vertex 6.32624 9.77101 0
      vertex -3.95471 8.05478 0
    endloop
  endfacet
  facet normal 0 0 -1
    outer loop
      vertex -3.95471 8.05478 0
      vertex 6.32624 9.77101 0
      vertex 4.36783 7.59597 0
    endloop
  endfacet
  facet normal 0 0 -1
    outer loop
      vertex -3.95471 8.05478 0
      vertex 4.36783 7.59597 0
      vertex -6.04528 8.05478 0
    endloop
  endfacet
  facet normal 0 0 -1
    outer loop
      vertex -6.04528 8.05478 0
      vertex 4.36783 7.59597 0
      vertex 2 5.87564 0
    endloop
  endfacet
  facet normal 0 0 -1
    outer loop
      vertex -6.04528 8.05478 0
      vertex 2 5.87564 0
      vertex -8.09017 8.48944 0
    endloop
  endfacet
  facet normal 0 0 -1
    outer loop
      vertex -8.09017 8.48944 0
      vertex 2 5.87564 0
      vertex -0.673762 4.68521 0
    endloop
  endfacet
  facet normal 0 0 -1
    outer loop
      vertex -8.09017 8.48944 0
      vertex -0.673762 4.68521 0
      vertex -10 9.33975 0
    endloop
  endfacet
  facet normal 0 0 -1
    outer loop
      vertex -10 9.33975 0
      vertex -0.673762 4.68521 0
      vertex -3.5366 4.07669 0
    endloop
  endfacet
  facet normal 0 0 -1
    outer loop
      vertex -10 9.33975 0
      vertex -3.5366 4.07669 0
      vertex -18.6941 15.0892 0
    endloop
  endfacet
  facet normal 0 0 -1
    outer loop
      vertex -18.6941 15.0892 0
      vertex -3.5366 4.07669 0
      vertex -6.4634 4.07669 0
    endloop
  endfacet
  facet normal 0 0 -1
    outer loop
      vertex -18.6941 15.0892 0
      vertex -6.4634 4.07669 0
      vertex -9.32624 4.68521 0
    endloop
  endfacet
  facet normal 0 0 -1
    outer loop
      vertex -18.6941 15.0892 0
      vertex -9.32624 4.68521 0
      vertex -12 5.87564 0
    endloop
  endfacet
  facet normal 0 0 -1
    outer loop
      vertex -18.6941 15.0892 0
      vertex -12 5.87564 0
      vertex -14.3678 7.59597 0
    endloop
  endfacet
  facet normal 0 0 -1
    outer loop
      vertex -18.6941 15.0892 0
      vertex -14.3678 7.59597 0
      vertex -16.3262 9.77101 0
    endloop
  endfacet
  facet normal 0 0 -1
    outer loop
      vertex -18.6941 15.0892 0
      vertex -16.3262 9.77101 0
      vertex -17.7896 12.3057 0
    endloop
  endfacet
  facet normal 0 0 -1
    outer loop
      vertex 2.07978 38 0
      vertex 6.32624 39.229 0
      vertex 7.0358 38 0
    endloop
  endfacet
  facet normal -0.994522 0.104529 0
    outer loop
      vertex -19 31 0
      vertex -19 31 3
      vertex -18.6941 33.9108 0
    endloop
  endfacet
  facet normal -0.994522 0.104529 0
    outer loop
      vertex -18.6941 33.9108 0
      vertex -19 31 3
      vertex -18.6941 33.9108 3
    endloop
  endfacet
  facet normal 0 0 1
    outer loop
      vertex -19 31 3
      vertex -19 18 3
      vertex -18.6941 15.0892 3
    endloop
  endfacet
  facet normal 0 0 1
    outer loop
      vertex -16.3262 9.77101 3
      vertex -19 31 3
      vertex -17.7896 12.3057 3
    endloop
  endfacet
  facet normal 0 0 1
    outer loop
      vertex -17.7896 12.3057 3
      vertex -19 31 3
      vertex -18.6941 15.0892 3
    endloop
  endfacet
  facet normal 0 0 1
    outer loop
      vertex -14.3678 7.59597 3
      vertex -19 31 3
      vertex -16.3262 9.77101 3
    endloop
  endfacet
  facet normal 0 0 1
    outer loop
      vertex -12 5.87564 3
      vertex -19 31 3
      vertex -14.3678 7.59597 3
    endloop
  endfacet
  facet normal 0 0 1
    outer loop
      vertex -14.7815 15.9209 3
      vertex -19 31 3
      vertex -12 5.87564 3
    endloop
  endfacet
  facet normal 0 0 1
    outer loop
      vertex -14.7815 15.9209 3
      vertex -15 18 3
      vertex -19 31 3
    endloop
  endfacet
  facet normal 0 0 1
    outer loop
      vertex -10 9.33975 3
      vertex -11.6913 10.5686 3
      vertex -9.32624 4.68521 3
    endloop
  endfacet
  facet normal 0 0 1
    outer loop
      vertex -8.09017 8.48944 3
      vertex -10 9.33975 3
      vertex -6.4634 4.07669 3
    endloop
  endfacet
  facet normal 0 0 1
    outer loop
      vertex -3.95471 8.05478 3
      vertex -6.04528 8.05478 3
      vertex -3.5366 4.07669 3
    endloop
  endfacet
  facet normal 0 0 1
    outer loop
      vertex -1.90983 8.48944 3
      vertex -3.95471 8.05478 3
      vertex -0.673762 4.68521 3
    endloop
  endfacet
  facet normal 0 0 1
    outer loop
      vertex 0 9.33975 3
      vertex -1.90983 8.48944 3
      vertex 2 5.87564 3
    endloop
  endfacet
  facet normal 0 0 1
    outer loop
      vertex 1.69131 10.5686 3
      vertex 0 9.33975 3
      vertex 4.36783 7.59597 3
    endloop
  endfacet
  facet normal 0 0 1
    outer loop
      vertex 6.32624 9.77101 3
      vertex 2.07978 11 3
      vertex 4.36783 7.59597 3
    endloop
  endfacet
  facet normal 0 0 1
    outer loop
      vertex 2.07978 11 3
      vertex 1.69131 10.5686 3
      vertex 4.36783 7.59597 3
    endloop
  endfacet
  facet normal 0 0 1
    outer loop
      vertex 4.36783 7.59597 3
      vertex 0 9.33975 3
      vertex 2 5.87564 3
    endloop
  endfacet
  facet normal 0 0 1
    outer loop
      vertex 2 5.87564 3
      vertex -1.90983 8.48944 3
      vertex -0.673762 4.68521 3
    endloop
  endfacet
  facet normal 0 0 1
    outer loop
      vertex -0.673762 4.68521 3
      vertex -3.95471 8.05478 3
      vertex -3.5366 4.07669 3
    endloop
  endfacet
  facet normal 0 0 1
    outer loop
      vertex -3.5366 4.07669 3
      vertex -6.04528 8.05478 3
      vertex -6.4634 4.07669 3
    endloop
  endfacet
  facet normal 0 0 1
    outer loop
      vertex -6.04528 8.05478 3
      vertex -8.09017 8.48944 3
      vertex -6.4634 4.07669 3
    endloop
  endfacet
  facet normal 0 0 1
    outer loop
      vertex -6.4634 4.07669 3
      vertex -10 9.33975 3
      vertex -9.32624 4.68521 3
    endloop
  endfacet
  facet normal 0 0 1
    outer loop
      vertex -9.32624 4.68521 3
      vertex -11.6913 10.5686 3
      vertex -12 5.87564 3
    endloop
  endfacet
  facet normal 0 0 1
    outer loop
      vertex -11.6913 10.5686 3
      vertex -13.0902 12.1221 3
      vertex -12 5.87564 3
    endloop
  endfacet
  facet normal 0 0 1
    outer loop
      vertex -13.0902 12.1221 3
      vertex -14.1355 13.9326 3
      vertex -12 5.87564 3
    endloop
  endfacet
  facet normal 0 0 1
    outer loop
      vertex -14.1355 13.9326 3
      vertex -14.7815 15.9209 3
      vertex -12 5.87564 3
    endloop
  endfacet
  facet normal 0 0 1
    outer loop
      vertex -15 32 3
      vertex -19 31 3
      vertex -15 31 3
    endloop
  endfacet
  facet normal 0 0 1
    outer loop
      vertex -14.7815 33.0791 3
      vertex -19 31 3
      vertex -15 32 3
    endloop
  endfacet
  facet normal 0 0 1
    outer loop
      vertex -14.7815 33.0791 3
      vertex -15 32 3
      vertex -14.8949 32 3
    endloop
  endfacet
  facet normal 0 0 1
    outer loop
      vertex -14.1355 35.0674 3
      vertex -19 31 3
      vertex -14.7815 33.0791 3
    endloop
  endfacet
  facet normal 0 0 1
    outer loop
      vertex -13.0902 36.8779 3
      vertex -19 31 3
      vertex -14.1355 35.0674 3
    endloop
  endfacet
  facet normal 0 0 1
    outer loop
      vertex -11.6913 38.4314 3
      vertex -19 31 3
      vertex -13.0902 36.8779 3
    endloop
  endfacet
  facet normal 0 0 1
    outer loop
      vertex -6.4634 44.9233 3
      vertex -19 31 3
      vertex -11.6913 38.4314 3
    endloop
  endfacet
  facet normal 0 0 1
    outer loop
      vertex -3.5366 44.9233 3
      vertex -11.6913 38.4314 3
      vertex -10 39.6603 3
    endloop
  endfacet
  facet normal 0 0 1
    outer loop
      vertex -0.673762 44.3148 3
      vertex -10 39.6603 3
      vertex -8.09017 40.5106 3
    endloop
  endfacet
  facet normal 0 0 1
    outer loop
      vertex 2 43.1244 3
      vertex -8.09017 40.5106 3
      vertex -6.04528 40.9452 3
    endloop
  endfacet
  facet normal 0 0 1
    outer loop
      vertex 4.36783 41.404 3
      vertex -6.04528 40.9452 3
      vertex -3.95471 40.9452 3
    endloop
  endfacet
  facet normal 0 0 1
    outer loop
      vertex 6.32624 39.229 3
      vertex -3.95471 40.9452 3
      vertex -1.90983 40.5106 3
    endloop
  endfacet
  facet normal 0 0 1
    outer loop
      vertex 7.0358 38 3
      vertex -1.90983 40.5106 3
      vertex 0 39.6603 3
    endloop
  endfacet
  facet normal 0 0 1
    outer loop
      vertex 7.0358 38 3
      vertex 0 39.6603 3
      vertex 1.69131 38.4314 3
    endloop
  endfacet
  facet normal 0 0 1
    outer loop
      vertex 7.0358 38 3
      vertex 1.69131 38.4314 3
      vertex 2.07978 38 3
    endloop
  endfacet
  facet normal 0 0 1
    outer loop
      vertex 6.32624 39.229 3
      vertex -1.90983 40.5106 3
      vertex 7.0358 38 3
    endloop
  endfacet
  facet normal 0 0 1
    outer loop
      vertex 4.36783 41.404 3
      vertex -3.95471 40.9452 3
      vertex 6.32624 39.229 3
    endloop
  endfacet
  facet normal 0 0 1
    outer loop
      vertex 2 43.1244 3
      vertex -6.04528 40.9452 3
      vertex 4.36783 41.404 3
    endloop
  endfacet
  facet normal 0 0 1
    outer loop
      vertex -0.673762 44.3148 3
      vertex -8.09017 40.5106 3
      vertex 2 43.1244 3
    endloop
  endfacet
  facet normal 0 0 1
    outer loop
      vertex -3.5366 44.9233 3
      vertex -10 39.6603 3
      vertex -0.673762 44.3148 3
    endloop
  endfacet
  facet normal 0 0 1
    outer loop
      vertex -6.4634 44.9233 3
      vertex -11.6913 38.4314 3
      vertex -3.5366 44.9233 3
    endloop
  endfacet
  facet normal 0 0 1
    outer loop
      vertex -9.32624 44.3148 3
      vertex -19 31 3
      vertex -6.4634 44.9233 3
    endloop
  endfacet
  facet normal 0 0 1
    outer loop
      vertex -12 43.1244 3
      vertex -19 31 3
      vertex -9.32624 44.3148 3
    endloop
  endfacet
  facet normal 0 0 1
    outer loop
      vertex -14.3678 41.404 3
      vertex -19 31 3
      vertex -12 43.1244 3
    endloop
  endfacet
  facet normal 0 0 1
    outer loop
      vertex -16.3262 39.229 3
      vertex -19 31 3
      vertex -14.3678 41.404 3
    endloop
  endfacet
  facet normal 0 0 1
    outer loop
      vertex -17.7896 36.6943 3
      vertex -19 31 3
      vertex -16.3262 39.229 3
    endloop
  endfacet
  facet normal 0 0 1
    outer loop
      vertex -18.6941 33.9108 3
      vertex -19 31 3
      vertex -17.7896 36.6943 3
    endloop
  endfacet
  facet normal 0 0 1
    outer loop
      vertex 7.0358 11 3
      vertex 2.07978 11 3
      vertex 6.32624 9.77101 3
    endloop
  endfacet
  facet normal 0 0 1
    outer loop
      vertex -15 18 3
      vertex -15 31 3
      vertex -19 31 3
    endloop
  endfacet
  facet normal -0.951057 -0.309017 0
    outer loop
      vertex -18.6941 15.0892 0
      vertex -17.7896 12.3057 0
      vertex -18.6941 15.0892 3
    endloop
  endfacet
  facet normal -0.951057 -0.309017 0
    outer loop
      vertex -18.6941 15.0892 3
      vertex -17.7896 12.3057 0
      vertex -17.7896 12.3057 3
    endloop
  endfacet
  facet normal -0.866026 -0.5 0
    outer loop
      vertex -17.7896 12.3057 0
      vertex -16.3262 9.77101 0
      vertex -17.7896 12.3057 3
    endloop
  endfacet
  facet normal -0.866026 -0.5 0
    outer loop
      vertex -17.7896 12.3057 3
      vertex -16.3262 9.77101 0
      vertex -16.3262 9.77101 3
    endloop
  endfacet
  facet normal -0.743145 -0.669131 0
    outer loop
      vertex -16.3262 9.77101 0
      vertex -14.3678 7.59597 0
      vertex -16.3262 9.77101 3
    endloop
  endfacet
  facet normal -0.743145 -0.669131 0
    outer loop
      vertex -16.3262 9.77101 3
      vertex -14.3678 7.59597 0
      vertex -14.3678 7.59597 3
    endloop
  endfacet
  facet normal -0.587785 -0.809017 0
    outer loop
      vertex -14.3678 7.59597 3
      vertex -14.3678 7.59597 0
      vertex -12 5.87564 0
    endloop
  endfacet
  facet normal -0.587785 -0.809017 0
    outer loop
      vertex -12 5.87564 3
      vertex -14.3678 7.59597 3
      vertex -12 5.87564 0
    endloop
  endfacet
  facet normal -0.406736 -0.913546 0
    outer loop
      vertex -12 5.87564 3
      vertex -12 5.87564 0
      vertex -9.32624 4.68521 0
    endloop
  endfacet
  facet normal -0.406736 -0.913546 0
    outer loop
      vertex -9.32624 4.68521 3
      vertex -12 5.87564 3
      vertex -9.32624 4.68521 0
    endloop
  endfacet
  facet normal -0.207912 -0.978148 0
    outer loop
      vertex -9.32624 4.68521 3
      vertex -9.32624 4.68521 0
      vertex -6.4634 4.07669 0
    endloop
  endfacet
  facet normal -0.207912 -0.978148 0
    outer loop
      vertex -6.4634 4.07669 3
      vertex -9.32624 4.68521 3
      vertex -6.4634 4.07669 0
    endloop
  endfacet
  facet normal 0 -1 0
    outer loop
      vertex -6.4634 4.07669 3
      vertex -6.4634 4.07669 0
      vertex -3.5366 4.07669 0
    endloop
  endfacet
  facet normal 0 -1 0
    outer loop
      vertex -3.5366 4.07669 3
      vertex -6.4634 4.07669 3
      vertex -3.5366 4.07669 0
    endloop
  endfacet
  facet normal 0.207912 -0.978148 0
    outer loop
      vertex -3.5366 4.07669 3
      vertex -3.5366 4.07669 0
      vertex -0.673762 4.68521 0
    endloop
  endfacet
  facet normal 0.207912 -0.978148 0
    outer loop
      vertex -0.673762 4.68521 3
      vertex -3.5366 4.07669 3
      vertex -0.673762 4.68521 0
    endloop
  endfacet
  facet normal 0.406736 -0.913546 0
    outer loop
      vertex -0.673762 4.68521 3
      vertex -0.673762 4.68521 0
      vertex 2 5.87564 0
    endloop
  endfacet
  facet normal 0.406736 -0.913546 0
    outer loop
      vertex 2 5.87564 3
      vertex -0.673762 4.68521 3
      vertex 2 5.87564 0
    endloop
  endfacet
  facet normal 0.587785 -0.809017 0
    outer loop
      vertex 2 5.87564 3
      vertex 2 5.87564 0
      vertex 4.36783 7.59597 0
    endloop
  endfacet
  facet normal 0.587785 -0.809017 0
    outer loop
      vertex 4.36783 7.59597 3
      vertex 2 5.87564 3
      vertex 4.36783 7.59597 0
    endloop
  endfacet
  facet normal 0.743145 -0.669131 0
    outer loop
      vertex 4.36783 7.59597 3
      vertex 4.36783 7.59597 0
      vertex 6.32624 9.77101 0
    endloop
  endfacet
  facet normal 0.743145 -0.669131 0
    outer loop
      vertex 6.32624 9.77101 3
      vertex 4.36783 7.59597 3
      vertex 6.32624 9.77101 0
    endloop
  endfacet
  facet normal 0.866026 -0.5 0
    outer loop
      vertex 6.32624 9.77101 3
      vertex 6.32624 9.77101 0
      vertex 7.0358 11 0
    endloop
  endfacet
  facet normal 0.866026 -0.5 0
    outer loop
      vertex 7.0358 11 3
      vertex 6.32624 9.77101 3
      vertex 7.0358 11 0
    endloop
  endfacet
  facet normal 0 1 0
    outer loop
      vertex 7.0358 11 3
      vertex 7.0358 11 0
      vertex 2.07978 11 3
    endloop
  endfacet
  facet normal 0 1 0
    outer loop
      vertex 2.07978 11 3
      vertex 7.0358 11 0
      vertex 2.07978 11 0
    endloop
  endfacet
  facet normal -0.743145 0.669131 0
    outer loop
      vertex 2.07978 11 3
      vertex 2.07978 11 0
      vertex 1.69131 10.5686 3
    endloop
  endfacet
  facet normal -0.743145 0.669131 0
    outer loop
      vertex 1.69131 10.5686 3
      vertex 2.07978 11 0
      vertex 1.69131 10.5686 0
    endloop
  endfacet
  facet normal -0.587785 0.809017 0
    outer loop
      vertex 1.69131 10.5686 3
      vertex 1.69131 10.5686 0
      vertex 0 9.33975 3
    endloop
  endfacet
  facet normal -0.587785 0.809017 0
    outer loop
      vertex 0 9.33975 3
      vertex 1.69131 10.5686 0
      vertex 0 9.33975 0
    endloop
  endfacet
  facet normal -0.406737 0.913545 0
    outer loop
      vertex 0 9.33975 3
      vertex 0 9.33975 0
      vertex -1.90983 8.48944 3
    endloop
  endfacet
  facet normal -0.406737 0.913545 0
    outer loop
      vertex -1.90983 8.48944 3
      vertex 0 9.33975 0
      vertex -1.90983 8.48944 0
    endloop
  endfacet
  facet normal -0.207912 0.978148 0
    outer loop
      vertex -1.90983 8.48944 3
      vertex -1.90983 8.48944 0
      vertex -3.95471 8.05478 3
    endloop
  endfacet
  facet normal -0.207912 0.978148 0
    outer loop
      vertex -3.95471 8.05478 3
      vertex -1.90983 8.48944 0
      vertex -3.95471 8.05478 0
    endloop
  endfacet
  facet normal 0 1 0
    outer loop
      vertex -3.95471 8.05478 3
      vertex -3.95471 8.05478 0
      vertex -6.04528 8.05478 3
    endloop
  endfacet
  facet normal 0 1 0
    outer loop
      vertex -6.04528 8.05478 3
      vertex -3.95471 8.05478 0
      vertex -6.04528 8.05478 0
    endloop
  endfacet
  facet normal 0.207912 0.978148 0
    outer loop
      vertex -6.04528 8.05478 3
      vertex -6.04528 8.05478 0
      vertex -8.09017 8.48944 3
    endloop
  endfacet
  facet normal 0.207912 0.978148 0
    outer loop
      vertex -8.09017 8.48944 3
      vertex -6.04528 8.05478 0
      vertex -8.09017 8.48944 0
    endloop
  endfacet
  facet normal 0.406737 0.913545 0
    outer loop
      vertex -8.09017 8.48944 3
      vertex -8.09017 8.48944 0
      vertex -10 9.33975 3
    endloop
  endfacet
  facet normal 0.406737 0.913545 0
    outer loop
      vertex -10 9.33975 3
      vertex -8.09017 8.48944 0
      vertex -10 9.33975 0
    endloop
  endfacet
  facet normal 0.587785 0.809017 0
    outer loop
      vertex -10 9.33975 3
      vertex -10 9.33975 0
      vertex -11.6913 10.5686 3
    endloop
  endfacet
  facet normal 0.587785 0.809017 0
    outer loop
      vertex -11.6913 10.5686 3
      vertex -10 9.33975 0
      vertex -11.6913 10.5686 0
    endloop
  endfacet
  facet normal 0.743145 0.669131 0
    outer loop
      vertex -13.0902 12.1221 3
      vertex -11.6913 10.5686 3
      vertex -11.6913 10.5686 0
    endloop
  endfacet
  facet normal 0.743145 0.669131 0
    outer loop
      vertex -13.0902 12.1221 0
      vertex -13.0902 12.1221 3
      vertex -11.6913 10.5686 0
    endloop
  endfacet
  facet normal 0.866025 0.5 0
    outer loop
      vertex -14.1355 13.9326 3
      vertex -13.0902 12.1221 3
      vertex -13.0902 12.1221 0
    endloop
  endfacet
  facet normal 0.866025 0.5 0
    outer loop
      vertex -14.1355 13.9326 0
      vertex -14.1355 13.9326 3
      vertex -13.0902 12.1221 0
    endloop
  endfacet
  facet normal 0.951057 0.309017 0
    outer loop
      vertex -14.7815 15.9209 3
      vertex -14.1355 13.9326 3
      vertex -14.1355 13.9326 0
    endloop
  endfacet
  facet normal 0.951057 0.309017 0
    outer loop
      vertex -14.7815 15.9209 0
      vertex -14.7815 15.9209 3
      vertex -14.1355 13.9326 0
    endloop
  endfacet
  facet normal 0.994522 0.104528 0
    outer loop
      vertex -15 18 3
      vertex -14.7815 15.9209 3
      vertex -14.7815 15.9209 0
    endloop
  endfacet
  facet normal 0.994522 0.104528 0
    outer loop
      vertex -15 18 0
      vertex -15 18 3
      vertex -14.7815 15.9209 0
    endloop
  endfacet
  facet normal 1 0 0
    outer loop
      vertex -15 18 3
      vertex -15 18 0
      vertex -15 31 0
    endloop
  endfacet
  facet normal 1 0 0
    outer loop
      vertex -15 31 3
      vertex -15 18 3
      vertex -15 31 0
    endloop
  endfacet
  facet normal 1 0 0
    outer loop
      vertex -15 31 3
      vertex -15 31 0
      vertex -15 32 0
    endloop
  endfacet
  facet normal 1 0 0
    outer loop
      vertex -15 32 3
      vertex -15 31 3
      vertex -15 32 0
    endloop
  endfacet
  facet normal 0 -1 0
    outer loop
      vertex -14.8949 32 0
      vertex -14.8949 32 3
      vertex -15 32 3
    endloop
  endfacet
  facet normal 0 -1 0
    outer loop
      vertex -15 32 0
      vertex -14.8949 32 0
      vertex -15 32 3
    endloop
  endfacet
  facet normal 0.994522 -0.104528 0
    outer loop
      vertex -14.7815 33.0791 0
      vertex -14.7815 33.0791 3
      vertex -14.8949 32 3
    endloop
  endfacet
  facet normal 0.994522 -0.104528 0
    outer loop
      vertex -14.8949 32 0
      vertex -14.7815 33.0791 0
      vertex -14.8949 32 3
    endloop
  endfacet
  facet normal 0.951057 -0.309017 0
    outer loop
      vertex -14.1355 35.0674 0
      vertex -14.1355 35.0674 3
      vertex -14.7815 33.0791 3
    endloop
  endfacet
  facet normal 0.951057 -0.309017 0
    outer loop
      vertex -14.7815 33.0791 0
      vertex -14.1355 35.0674 0
      vertex -14.7815 33.0791 3
    endloop
  endfacet
  facet normal 0.866025 -0.5 0
    outer loop
      vertex -13.0902 36.8779 0
      vertex -13.0902 36.8779 3
      vertex -14.1355 35.0674 3
    endloop
  endfacet
  facet normal 0.866025 -0.5 0
    outer loop
      vertex -14.1355 35.0674 0
      vertex -13.0902 36.8779 0
      vertex -14.1355 35.0674 3
    endloop
  endfacet
  facet normal 0.743145 -0.669131 0
    outer loop
      vertex -11.6913 38.4314 0
      vertex -11.6913 38.4314 3
      vertex -13.0902 36.8779 3
    endloop
  endfacet
  facet normal 0.743145 -0.669131 0
    outer loop
      vertex -13.0902 36.8779 0
      vertex -11.6913 38.4314 0
      vertex -13.0902 36.8779 3
    endloop
  endfacet
  facet normal 0.587785 -0.809017 0
    outer loop
      vertex -10 39.6603 0
      vertex -10 39.6603 3
      vertex -11.6913 38.4314 3
    endloop
  endfacet
  facet normal 0.587785 -0.809017 0
    outer loop
      vertex -11.6913 38.4314 0
      vertex -10 39.6603 0
      vertex -11.6913 38.4314 3
    endloop
  endfacet
  facet normal 0.406737 -0.913545 0
    outer loop
      vertex -8.09017 40.5106 0
      vertex -8.09017 40.5106 3
      vertex -10 39.6603 3
    endloop
  endfacet
  facet normal 0.406737 -0.913545 0
    outer loop
      vertex -10 39.6603 0
      vertex -8.09017 40.5106 0
      vertex -10 39.6603 3
    endloop
  endfacet
  facet normal 0.207912 -0.978148 0
    outer loop
      vertex -6.04528 40.9452 0
      vertex -6.04528 40.9452 3
      vertex -8.09017 40.5106 3
    endloop
  endfacet
  facet normal 0.207912 -0.978148 0
    outer loop
      vertex -8.09017 40.5106 0
      vertex -6.04528 40.9452 0
      vertex -8.09017 40.5106 3
    endloop
  endfacet
  facet normal 0 -1 0
    outer loop
      vertex -3.95471 40.9452 0
      vertex -3.95471 40.9452 3
      vertex -6.04528 40.9452 3
    endloop
  endfacet
  facet normal 0 -1 0
    outer loop
      vertex -6.04528 40.9452 0
      vertex -3.95471 40.9452 0
      vertex -6.04528 40.9452 3
    endloop
  endfacet
  facet normal -0.207912 -0.978148 0
    outer loop
      vertex -1.90983 40.5106 0
      vertex -1.90983 40.5106 3
      vertex -3.95471 40.9452 3
    endloop
  endfacet
  facet normal -0.207912 -0.978148 0
    outer loop
      vertex -3.95471 40.9452 0
      vertex -1.90983 40.5106 0
      vertex -3.95471 40.9452 3
    endloop
  endfacet
  facet normal -0.406737 -0.913545 0
    outer loop
      vertex 0 39.6603 0
      vertex 0 39.6603 3
      vertex -1.90983 40.5106 3
    endloop
  endfacet
  facet normal -0.406737 -0.913545 0
    outer loop
      vertex -1.90983 40.5106 0
      vertex 0 39.6603 0
      vertex -1.90983 40.5106 3
    endloop
  endfacet
  facet normal -0.587785 -0.809017 0
    outer loop
      vertex 1.69131 38.4314 0
      vertex 1.69131 38.4314 3
      vertex 0 39.6603 3
    endloop
  endfacet
  facet normal -0.587785 -0.809017 0
    outer loop
      vertex 0 39.6603 0
      vertex 1.69131 38.4314 0
      vertex 0 39.6603 3
    endloop
  endfacet
  facet normal -0.743145 -0.669131 0
    outer loop
      vertex 2.07978 38 3
      vertex 1.69131 38.4314 3
      vertex 2.07978 38 0
    endloop
  endfacet
  facet normal -0.743145 -0.669131 0
    outer loop
      vertex 2.07978 38 0
      vertex 1.69131 38.4314 3
      vertex 1.69131 38.4314 0
    endloop
  endfacet
  facet normal 0 -1 0
    outer loop
      vertex 7.0358 38 0
      vertex 7.0358 38 3
      vertex 2.07978 38 3
    endloop
  endfacet
  facet normal 0 -1 0
    outer loop
      vertex 2.07978 38 0
      vertex 7.0358 38 0
      vertex 2.07978 38 3
    endloop
  endfacet
  facet normal 0.866026 0.5 0
    outer loop
      vertex 7.0358 38 0
      vertex 6.32624 39.229 0
      vertex 6.32624 39.229 3
    endloop
  endfacet
  facet normal 0.866026 0.5 0
    outer loop
      vertex 7.0358 38 3
      vertex 7.0358 38 0
      vertex 6.32624 39.229 3
    endloop
  endfacet
  facet normal 0.743145 0.669131 0
    outer loop
      vertex 6.32624 39.229 0
      vertex 4.36783 41.404 0
      vertex 4.36783 41.404 3
    endloop
  endfacet
  facet normal 0.743145 0.669131 0
    outer loop
      vertex 6.32624 39.229 3
      vertex 6.32624 39.229 0
      vertex 4.36783 41.404 3
    endloop
  endfacet
  facet normal 0.587785 0.809017 0
    outer loop
      vertex 2 43.1244 0
      vertex 2 43.1244 3
      vertex 4.36783 41.404 0
    endloop
  endfacet
  facet normal 0.587785 0.809017 0
    outer loop
      vertex 4.36783 41.404 0
      vertex 2 43.1244 3
      vertex 4.36783 41.404 3
    endloop
  endfacet
  facet normal 0.406736 0.913546 0
    outer loop
      vertex -0.673762 44.3148 0
      vertex -0.673762 44.3148 3
      vertex 2 43.1244 0
    endloop
  endfacet
  facet normal 0.406736 0.913546 0
    outer loop
      vertex 2 43.1244 0
      vertex -0.673762 44.3148 3
      vertex 2 43.1244 3
    endloop
  endfacet
  facet normal 0.207912 0.978148 0
    outer loop
      vertex -3.5366 44.9233 0
      vertex -3.5366 44.9233 3
      vertex -0.673762 44.3148 0
    endloop
  endfacet
  facet normal 0.207912 0.978148 0
    outer loop
      vertex -0.673762 44.3148 0
      vertex -3.5366 44.9233 3
      vertex -0.673762 44.3148 3
    endloop
  endfacet
  facet normal 0 1 0
    outer loop
      vertex -6.4634 44.9233 0
      vertex -6.4634 44.9233 3
      vertex -3.5366 44.9233 0
    endloop
  endfacet
  facet normal 0 1 0
    outer loop
      vertex -3.5366 44.9233 0
      vertex -6.4634 44.9233 3
      vertex -3.5366 44.9233 3
    endloop
  endfacet
  facet normal -0.207912 0.978148 0
    outer loop
      vertex -9.32624 44.3148 0
      vertex -9.32624 44.3148 3
      vertex -6.4634 44.9233 0
    endloop
  endfacet
  facet normal -0.207912 0.978148 0
    outer loop
      vertex -6.4634 44.9233 0
      vertex -9.32624 44.3148 3
      vertex -6.4634 44.9233 3
    endloop
  endfacet
  facet normal -0.406736 0.913546 0
    outer loop
      vertex -12 43.1244 0
      vertex -12 43.1244 3
      vertex -9.32624 44.3148 0
    endloop
  endfacet
  facet normal -0.406736 0.913546 0
    outer loop
      vertex -9.32624 44.3148 0
      vertex -12 43.1244 3
      vertex -9.32624 44.3148 3
    endloop
  endfacet
  facet normal -0.587785 0.809017 0
    outer loop
      vertex -14.3678 41.404 0
      vertex -14.3678 41.404 3
      vertex -12 43.1244 0
    endloop
  endfacet
  facet normal -0.587785 0.809017 0
    outer loop
      vertex -12 43.1244 0
      vertex -14.3678 41.404 3
      vertex -12 43.1244 3
    endloop
  endfacet
  facet normal -0.743145 0.669131 0
    outer loop
      vertex -16.3262 39.229 0
      vertex -16.3262 39.229 3
      vertex -14.3678 41.404 0
    endloop
  endfacet
  facet normal -0.743145 0.669131 0
    outer loop
      vertex -14.3678 41.404 0
      vertex -16.3262 39.229 3
      vertex -14.3678 41.404 3
    endloop
  endfacet
  facet normal -0.866026 0.5 0
    outer loop
      vertex -17.7896 36.6943 0
      vertex -17.7896 36.6943 3
      vertex -16.3262 39.229 0
    endloop
  endfacet
  facet normal -0.866026 0.5 0
    outer loop
      vertex -16.3262 39.229 0
      vertex -17.7896 36.6943 3
      vertex -16.3262 39.229 3
    endloop
  endfacet
  facet normal -0.951057 0.309017 0
    outer loop
      vertex -18.6941 33.9108 0
      vertex -18.6941 33.9108 3
      vertex -17.7896 36.6943 0
    endloop
  endfacet
  facet normal -0.951057 0.309017 0
    outer loop
      vertex -17.7896 36.6943 0
      vertex -18.6941 33.9108 3
      vertex -17.7896 36.6943 3
    endloop
  endfacet
endsolid OpenSCAD_Model
